<?xml version="1.0" encoding="utf-8"?>
<!-- Generator: Adobe Illustrator 19.2.1, SVG Export Plug-In . SVG Version: 6.00 Build 0)  -->
<svg version="1.1" id="Calque_1" xmlns="http://www.w3.org/2000/svg" xmlns:xlink="http://www.w3.org/1999/xlink" x="0px" y="0px"
	 viewBox="0 0 300 200" style="enable-background:new 0 0 300 200;" xml:space="preserve">
<style type="text/css">
	.st0{fill:#1E824C;}
	.st1{fill:#D36700;}
</style>
<g>
	<path class="st0" d="M88.7,36.2c-1.1,0.8-2.3,0.7-3.5,0.7c-4.6-0.1-9.3,0.1-13.8,2.4l0.2,3.8c0.2,3.4,0.3,6.8,0.4,10.2l-0.2,2.9
		c0,1.2,0.1,2.2,0.2,3.6c1.7-0.3,3.3-0.7,4.8-0.8c1.4-0.2,3-0.6,4.4,1c-0.7,0.5-1.3,0.8-1.9,1.1c-1.9,0.8-3.8,1.4-5.7,2.3
		c-0.6,0.3-1.1,1-1.3,1.6c-0.3,0.9-0.3,1.9-0.4,2.9c-0.2,4-0.6,7.9-0.7,11.9c-0.1,2.2,0.1,4.4,0.1,6.5c0,1.8-0.2,3.6-0.2,5.2
		c-2.7,1.5-5.2,2.3-8,0.3c0.3-3.5-0.4-7.3,0.7-11l0-0.1c-0.9-2.4-0.2-4.9,0-7.3c0.4-3.5,0.6-7.1,0.1-10.6c-0.5-4.7-0.1-9.4-0.5-14.2
		c-0.2-3.2-0.4-6.4-0.6-9.7c-1.6-0.3-3.1-0.4-4.5-0.7c-1.6-0.3-3.1-2.1-3.2-3.6c0-0.7,0.8-1.2,1.6-1.1l6.3,1.2c3,0.6,6,0.4,9,0.1
		c4.2-0.5,8.4-0.7,12.6-0.9C86.2,33.9,87.5,34.7,88.7,36.2z M64,80.6l-0.3-0.2c0,0.2-0.1,0.3-0.1,0.3C63.7,80.7,63.8,80.7,64,80.6z"
		/>
	<path class="st0" d="M98.9,77.9c1.5,0,2.6-2,5.5-3.3c-0.2,1.2-0.4,2.8-2.2,4.3c-1.7,1.6-2.5,2.2-4.4,1.6c-0.1,0-0.2,0-0.3-0.1
		c-0.3,1.3-0.5,2.4-1,3.6c-0.7,2.3-1.8,4.6-4.8,4.8c-2.5,0.2-4.9-0.5-7.1-2c-1.5-0.9-2.3-2.5-2.4-4.1l-0.4-7.8c0-0.5-0.1-1-0.2-1.5
		l0.2-5.3c0.6-5.1,1.9-10,3.7-14.6l0.7-1.3c0.7-1.6,1.9-2.1,3.7-1.8c2,0.4,4.1,0.8,6.2,1.1c0,0.2,0.1,0.3,0.1,0.5
		c-1.3,1-2.7,1.7-3.8,2.8c-0.9,1.1-1.8,2.6-1.4,4.2c2.6,0.4,5.1,0.7,7.8,0.9l1.9,6.6c0,2.2-1.2,3.3-1.9,7l-0.7,4
		C98.4,77.8,98.6,77.9,98.9,77.9z M94.5,76.5l-0.3-1.1c-0.7-1.9-1.1-5.8-0.7-9.7c-1.3-1.5-2.2-3.1-2.3-5.3c-0.2,0-0.4,0-0.7,0
		c-0.1,0.3-0.5,0.6-0.5,0.9c-1.7,6-2.3,12.3-2.2,18.7c0,1.6,0.3,3.2,0.7,4.8c0.1,0.6,0.7,1.4,1.2,1.5c0.4,0.1,1.1-0.3,1.5-0.7
		c0.4-0.4,0.7-0.9,0.8-1.4C93,81.9,93.8,79.2,94.5,76.5z"/>
	<path class="st0" d="M126.9,53.9c1,1.1,1.1,2.7,0.5,4.2c-0.9,2.6-1.7,5.3-2.5,8c-0.3,0.8-1.4,3-1.7,3.9l0.1,1.7
		c-0.7,0-1.3,0.1-1.9-0.2c-2.9-0.8-3.6-1.8-2.8-4.7c0.7-2.7,1.6-5.4,2.3-8.1l0.6-2.4c-1.2,0.4-1.7,1.2-2.1,1.9
		c-2.8,4.9-5,10-6.3,15.6c-0.7,3.1-1.7,6-2.6,9.1c-0.4,1.3-0.4,2.6,0.5,3.7c-3.7,2.6-8.3,0.8-8.7-3.6c-0.2-1.7,0.2-3.5,0.3-5.2
		l0.2-2.9c0.4-4.8,0.5-6.9,1-12.1c-0.1-3.6,0.8-7.1,1.4-10.6c0.4-2.1,0.9-2.4,3.1-2.2c1.8,0.2,2.6,0.5,3.6,1.5
		c-1.4,5.8-2.4,11.6-1.2,17.7l3.1-5.7c1.7-3.2,3.1-6.5,5.8-9c0.7-0.6,1.5-1.3,2.4-1.6C123.9,52,125.7,52.4,126.9,53.9z"/>
	<path class="st0" d="M148.2,55.6c-0.1,0.6-0.3,1.1-0.6,1.6c-2.2,4.3-5.2,8.3-9,12c-1.3,1.4-2.8,2.9-3.7,4.5
		c-0.6,1.1-0.6,2.4-0.6,3.7c0.1,1.9,1.9,4.4,3.9,5.4c0.8-0.7,2.5-2,3.4-2.8c3.4-3.3,7.2-6.1,8.9-8c0,0-0.3,3.2-1.3,5.1
		c-1.6,3-4.1,4.8-7.2,7.3c-1.8,1.4-3.6,1.3-6.2,0.8c-3.8-0.8-7.3-3.5-8.8-6.8c-0.2-0.4-0.3-0.9-0.5-1.6c-0.4-2.3-0.8-4,0.2-8.2
		c0.7-3.4,2.3-6.8,3.5-10.2c0.5-1.3,1.2-2.5,1.9-3.7c0.4-0.7,1-1.3,1.5-1.9c1-1.2,2.5-1.6,4.3-1.4c0.9,0.1,1.9,0.1,2.9,0.2
		c0.6,0.1,1.2,0.2,1.6,0.4c1.2,0.7,2.5,1.2,4,1.5C147.8,53.9,148.4,54.7,148.2,55.6z M143,55.1c-2.2-0.6-2.3-0.5-3.4,0.7
		c-2.3,2.7-3.5,5.6-4,8.7c0,0.2,0.3,0.4,0.4,0.6C139.7,61.1,142.2,57.5,143,55.1z"/>
	<path class="st0" d="M175.9,71c0.3,5.7-4.1,9-7.2,10c-1.4,4.1-3.3,7-8.4,8.1c-6.3,1.4-8.9,0-9.5-4.8c-0.4-2.7,0.7-5.6,3.1-6.7
		c2.2-1.1,4.3-0.1,7.1-0.6c0.2-1.8-0.1-3.8-0.3-5.6c-0.2-3.2-1.3-6.4-2.9-9.1c-0.4-0.5-0.7-1-1.1-1.4c-0.4,1.5-1.2,3.7-2.5,6.2
		c-1.4,2.9-2.8,6.1-5.7,9.6c0.4-1.1,0.5-2.7,1.1-5.4c0.8-3.2,2.2-7.5,4.1-13.4c0-0.1,0-0.1-0.1-0.2c1.5-1.2,3.3-0.9,5-0.2
		c4.3,1.6,7.7,4.3,9.1,8.8c0.8,2.3,1.6,5.8,1.1,10.6C171.3,76.3,172.8,74.3,175.9,71z M161.2,80.2c-1.7-0.2-4.2-0.3-5.4-0.5
		c-1.1-0.1-1.6,0.3-2.1,1.3c-1.5,3.1,0.1,6,2,6.1C158.3,87.6,161.3,84.9,161.2,80.2z"/>
	<path class="st0" d="M193.3,40.3c-2.9,1.9-6.8,2.4-10,3.2c-0.1,0-0.2,0-0.2,0.1c-0.5,2.5-1.2,5.1-1.8,7.6c-0.8,4-2.2,11.2-1.5,13
		c0.2,0.4,0.2,0.8,0.1,1.2c-0.2,2.2-0.6,4.6-0.7,6.8c0,2.1,0.6,4,1.8,6.2c0.6-0.7,1.2-1.1,1.5-1.7c2.3-2.4,4.8-4.2,6-6.7
		c0,0-0.4,4.4-2.4,7.3c-1.5,3.3-5.3,7.6-8.5,5.8c-0.6-0.4-1.8-3.8-2.1-4.4c-1.1-2.3-1.8-4.5-1.6-7.2c0.1-2.6-0.2-5.3-0.3-7.9
		c0-3.6-0.3-9.3,0.2-14.8c0.2-1.1,0.2-2.5,0.3-4l-0.3,0c-2.8,0.1-5.7,0.5-8.4,0.4c-0.8,0-3.4-0.7-2.3-2c0.9-0.9,4.1-0.7,5.3-0.9
		c1.8-0.5,3.5-1.1,5.2-1.5c0.2-0.1,0.4-0.2,0.7-0.2c0.1-3.5,0.2-6.7,0.4-7.4c0.1-0.3,0.1-0.8,0-1.1c-0.4-1.9-0.1-3.6,0.9-5.2
		c0.1-0.3,0.2-0.8,0.3-1.2c0.1-0.8,0-1.7,0.2-2.4c0.3-1.6,0.8-3.2,1.2-4.8c2.2-0.6,4.2-0.4,6.2,0c1,0.2,1.5,1,1.7,2
		c0.1,0.5,0.1,1,0.1,1.5c-0.5,5.2-1,10.3-1.4,15.5l-0.1,1.3c2.5-0.4,5-1.2,7.5-1.5c-0.1-1.6,2-0.4,2.7,0
		C195.6,38.7,194.5,39.5,193.3,40.3z"/>
	<path class="st0" d="M214.2,69.1c0.3,5.7-4.1,9-7.2,10c-1.4,4.1-3.3,7-8.4,8.1c-6.3,1.4-8.9,0-9.5-4.8c-0.4-2.7,0.7-5.6,3.1-6.7
		c2.2-1.1,4.3-0.1,7.1-0.6c0.2-1.8-0.1-3.8-0.3-5.6c-0.2-3.2-1.3-6.4-2.9-9.1c-0.4-0.5-0.7-1-1.1-1.4c-0.4,1.5-1.2,3.7-2.5,6.2
		c-1.4,2.9-2.8,6.1-5.7,9.6c0.4-1.1,0.5-2.7,1.1-5.4c0.8-3.2,2.2-7.5,4.1-13.4c0-0.1,0-0.1-0.1-0.2c1.5-1.2,3.3-0.9,5-0.2
		c4.3,1.6,7.7,4.3,9.1,8.8c0.8,2.3,1.6,5.8,1.1,10.6C209.5,74.4,211.1,72.4,214.2,69.1z M199.5,78.3c-1.7-0.2-4.2-0.3-5.4-0.5
		c-1.1-0.1-1.6,0.3-2.1,1.3c-1.5,3.1,0.1,6,2,6.1C196.6,85.6,199.5,83,199.5,78.3z"/>
	<path class="st1" d="M264.5,118.4c-0.8,0.1-1.4,0.4-2,0.4c-3.6-0.1-6.7,0.6-9.1,2.7c-1.4,1.2-3.2,2-4.4,3.5
		c-0.8,1.1-1.6,2.3-1.6,3.7c-0.2,4.9-0.2,9.9-0.3,14.8c0,0.7,0.7,1.7,1,2.5c-3.2-0.7-5-2.4-5.7-5.1c-0.7-3.1-0.7-6.1-1.1-9.1
		l-0.1-2.5c-2.9-0.3-4.2,1.5-6.1,2.4c-1.1,0.6-2.1,1.2-3.2,1.9c-2,1-4,0.6-6.2-1.1c-5.2-4.1-8.9-8.9-7.6-15.1
		c1.2-5.7,3.7-10.5,7.9-14.4c1.6-1.6,3.1-3.4,4.8-5l-4.5-5.2c-2.6-2.8-2.7-5.4-1.5-7.8c1.7-3.6,4.1-6.6,7.7-8.7
		c1.4-0.8,1.8-1.7,1.4-3.6c-0.8-4.4-0.5-8.6,0.6-12.6c0.3-0.7,0.6-1.4,1-2.2c2.2,0.3,4.3,0.5,5.9,2.7c-2.5,3.4-3.6,7.4-3.5,12.6
		l4.9-1.7c2.6-0.8,6.4,1.1,7.8,3.9c0.8,1.7,0.5,2.8-1.2,2.6c-5.5-0.6-8.4,2.1-11.8,4.4c-2.7,1.8-5.1,3.8-6.8,6.4
		c-0.6,0.8-0.7,1.7-1.2,3.1c7.9-0.4,11,0.5,18.6-4.9c2.8,1.8,4.9,4.3,7,6.8c0.8,1,0.8,2,0,2.7c-0.8,0.6-1.6,1.4-2.5,1.9
		c-3.9,2.4-8.2,4.4-11.8,7.1c-3.9,3-7.4,6.4-10.1,10.6c-1.1,1.8-1.1,4.6-3.4,5.6c0.1,1.5,0.3,3,0.5,5.1c2.2-0.8,3.9-1.3,5.5-2.1
		c6.7-3,13.7-5.4,21-7.5c1.6-0.4,3.5-0.6,3.7-2.7C260.6,114.9,262.3,116.5,264.5,118.4z"/>
	<path class="st0" d="M90.2,97.8c-0.4,0.4-0.5,1-1,1.3c-5.2,3.7-7.7,9.5-11,14.6c-2.8,4.2-3.7,9.1-4.7,13.9
		c-1.3,6.6-2.6,13.1-3.7,19.8c-0.6,3.5-0.6,7-0.9,10.5c-0.3,4-0.6,8-1,11.9c-2,0.6-3.9,0.8-5.1,0c-1.2-2.5-2.1-4.6-3-6.7
		c-0.3-0.5-0.6-1.2-0.6-1.7c-0.4-4.7-0.8-9.5-1.1-14.2c-0.2-1.7-0.3-3.4-0.3-5c-0.1-7.7-2.2-14.9-4.3-22.2
		c-1.6-5.9-3.8-11.7-5.7-17.5c-0.1-0.3,0.1-0.6,0.1-0.8c4.9-2.4,9.8,0.3,11.5,4.6c1.6,3.7,2.7,7.5,3.8,11.4c1,3.5,1.7,7,2.6,10.5
		c0.2,0.8,0.6,1.6,1.4,2.3c0.3-0.8,0.7-1.6,0.8-2.5c2.4-9.7,7.6-18.2,13.1-26.5c1.5-2.1,3.7-3.4,5.9-4.4
		C88.6,96.2,88.6,96.2,90.2,97.8z"/>
	<path class="st0" d="M110.5,147c-2.8,7.7-5.1,10.8-6.9,14.2c-2.4,3.2-7.1,2.9-8.9-0.7c-0.8-1.4-1.3-2.8-2.1-4.8
		c-1,1.9-1.9,3.6-2.5,5.2c-1.6,3.8-3.5,4-6.6,3.9c-2.4-0.1-4.7-0.9-6.2-3.1c-0.3-0.5-1.3-6.9-0.7-11c1.1-5.9,2.7-9.1,4.1-12.5
		c0.5-1.2,1.1-2.6,1.8-3.7c0.6-1.1,1.4-1.6,2.7-1.5c2.1,0.2,4.1-0.2,6.2,0c1.4,0,2.7,0.4,4.1,0.8c0.4,0.2,0.7,0.7,1.3,1.6
		c-1.6,0.3-2.7,0.7-3.8,0.7c-1.6,0-2.5,0.7-3.4,2c-1.6,2.7-2.6,5.6-3.4,8.8s-1.4,6.1-1.4,9.4l0.1,2.7c0.8-0.8,1.2-1.2,1.5-1.7
		c1.5-3,2.9-5.9,4.4-8.7c1.4-2.4,2.9-4.6,4.4-6.9c0.6-1,1.4-1.5,2.6-1.3c0.5,0.1,0.9,0,1.4,0c3.9,0.1,4.4,0.8,3.4,4.6
		c-1,3.4-1.3,7-1.3,10.5c0,0.4,0.1,0.8,0.3,1.4C103.4,153.7,106.9,149.6,110.5,147z"/>
	<path class="st0" d="M130.1,101.2l-2.5,14.7c-0.2,1.4-0.8,2.7-1.1,4.1c-2.2,8.1-3.6,13-6.9,18.9c-1.5,2.9-2.6,4.1-2.5,5.7
		c0.1,1.6,0.2,3.2,0.1,4.8c-0.2,3.6-0.5,12-0.4,14.8c0,0.2,0.3,0.4,0.5,0.5l1,0.4c0.3-0.5,6.6-8.8,6.7-9.3c2.5-4.4,3.5-7.5,7.2-10.1
		c-1.9,7.2-4,10.4-5.5,13.6c-0.7,3-4.7,8.2-7.8,8.7c-2.9,0.4-5.3-0.3-7.2-2.8c-2.2-2.9-2.5-7.3-3.3-10.8c-0.3-1.2,0-2.6-0.2-3.9
		c-0.7-7.2,0-14.2,1.2-21.2c0.9-5.1,1.6-10.3,2.8-15.3c1-4.3,2.5-8.6,4.6-12.8c0.7-1.4,1.7-2.4,3.2-2.6c2.9-0.4,5.8-0.9,8.6-0.1
		C130.3,99.2,130.4,99.4,130.1,101.2z M125.6,102.5c-1.6,0-1.9,1.1-2.1,2.2c-0.3,1.3-0.6,2.6-1,3.9c-1,3.4-2.3,6.8-3.3,10.2
		c-0.6,1.8-0.8,3.8-1.1,5.7c-0.4,2.8-0.7,5.5-0.9,8.4c-0.2,1.9-0.2,3.7-0.3,5.7c0.2,0,0.3,0.1,0.5,0.1l0.4-0.8
		c4.6-9.6,6.9-19.9,8.3-30.3C126.2,105.8,126.6,104,125.6,102.5z"/>
	<path class="st0" d="M166,144.2c-1.8,6.1-2.6,7.4-4,10c-1.8,2.5-4.5,2.7-7.4,2c-2.6-0.6-3.9-2.2-4.4-4.8c-0.2-1.3-0.3-2.6-1-3.9
		c-0.3,0.7-0.7,1.3-0.9,2.1c-0.7,1.9-1.4,3.7-1.9,5.6c-1.2,5.3-9.2,7.8-14.1,3.9c-1.6-1.3-2.2-3-2.2-4.9c-0.1-3.2,0.1-6.4,0.1-9.5
		c0.1-0.7,0-1.4,0-2.2l2-7.7c0.9-3.5,1.7-7.1,2.6-10.6c0.9-3.4,0.9-3.4,4.2-3.8c3.1-0.3,4-0.2,6.7,1.1l-0.8,1.6
		c-0.3,0.6-0.7,1.2-0.8,1.7c-0.6,5.6-2.1,11.1-3.1,16.7c-0.4,2.3-0.5,4.5-0.8,6.7c-0.1,0.8-0.1,1.7-0.3,2.5
		c-0.6,1.9-0.5,3.8,0.4,5.8c1.3-0.8,1.7-2.2,2.2-3.5c2-5.1,3.8-10.4,5.8-15.5c1-2.5,2.2-4.9,2.2-7.7c0-1,0.8-2.1,1.3-3.2
		c2.3,0.2,4.6-1,7.3,0.1l-1.1,3.1c-0.4,1.4-1,2.9-1,4.3c0,3.9,0.1,7.8,0.3,11.8c0.2,1.9,0.8,3.8,1.1,5.7l-0.2,0.7
		c0.2-0.1,0.4-0.2,0.5-0.4C160.2,150.3,163.9,146.1,166,144.2z"/>
	<path class="st0" d="M188,124.1c-0.2,0.7-0.3,1.2-0.7,1.8c-2.5,4.9-5.9,9.4-10.2,13.6c-1.5,1.6-3.1,3.2-4.1,5.1
		c-0.7,1.2-0.7,2.7-0.6,4.1c0.1,2.1,2.1,4.9,4.4,6.1c0.9-0.8,2.9-2.3,3.9-3.2c3.8-3.7,8.2-6.9,10-9c0,0-0.4,3.6-1.5,5.8
		c-1.8,3.4-4.6,5.5-8.1,8.3c-2.1,1.6-4,1.5-7,0.9c-4.3-0.9-8.2-4-9.9-7.6c-0.2-0.5-0.3-1-0.6-1.8c-0.4-2.6-0.9-4.5,0.3-9.3
		c0.8-3.9,2.6-7.7,4-11.5c0.6-1.4,1.4-2.9,2.1-4.2c0.4-0.8,1.1-1.5,1.7-2.1c1.1-1.4,2.8-1.8,4.9-1.6c1,0.1,2.2,0.1,3.3,0.2
		c0.7,0.1,1.3,0.2,1.8,0.5c1.3,0.8,2.8,1.4,4.5,1.7C187.5,122.2,188.2,123.1,188,124.1z M182.2,123.5c-2.5-0.6-2.6-0.6-3.8,0.8
		c-2.6,3-4,6.4-4.6,9.9c0,0.2,0.3,0.5,0.5,0.7C178.4,130.3,181.2,126.2,182.2,123.5z"/>
	<path class="st0" d="M219.2,141.5c0.3,6.4-4.6,10.1-8.1,11.3c-1.6,4.7-3.7,7.9-9.4,9.2c-7.1,1.6-10.1-0.1-10.7-5.4
		c-0.4-3.1,0.8-6.3,3.5-7.6c2.5-1.2,4.9-0.2,8-0.7c0.3-2.1-0.1-4.3-0.3-6.3c-0.2-3.6-1.5-7.2-3.3-10.3c-0.4-0.5-0.8-1.2-1.3-1.6
		c-0.5,1.7-1.4,4.2-2.8,7c-1.6,3.3-3.2,6.9-6.5,10.8c0.5-1.2,0.6-3,1.3-6c0.9-3.6,2.5-8.4,4.7-15.1c0-0.1,0-0.1-0.1-0.2
		c1.7-1.3,3.8-1,5.6-0.3c4.9,1.8,8.7,4.8,10.3,9.9c0.9,2.6,1.8,6.5,1.3,12C214,147.5,215.8,145.2,219.2,141.5z M202.7,151.9
		c-1.9-0.3-4.7-0.3-6.1-0.5c-1.2-0.1-1.8,0.4-2.4,1.5c-1.7,3.4,0.1,6.8,2.2,6.9C199.4,160.2,202.7,157.2,202.7,151.9z"/>
</g>
</svg>
