<?xml version="1.0" encoding="utf-8"?>
<!-- Generator: Adobe Illustrator 16.0.0, SVG Export Plug-In . SVG Version: 6.00 Build 0)  -->
<!DOCTYPE svg PUBLIC "-//W3C//DTD SVG 1.1//EN" "http://www.w3.org/Graphics/SVG/1.1/DTD/svg11.dtd">
<svg version="1.1" id="Calque_1" xmlns="http://www.w3.org/2000/svg" xmlns:xlink="http://www.w3.org/1999/xlink" x="0px" y="0px"
	 width="283.46px" height="283.46px" viewBox="0 0 283.46 283.46" enable-background="new 0 0 283.46 283.46" xml:space="preserve">
<path fill="#FFFFFF" d="M74.653,203.016c0,9.599-7.742,17.373-17.298,17.373c-9.552,0-17.297-7.774-17.297-17.373
	c0-9.593,7.746-17.368,17.297-17.368C66.911,185.647,74.653,193.423,74.653,203.016z"/>
<path fill="#E94840" d="M70.081,203.016c0,7.06-5.698,12.78-12.726,12.78c-7.027,0-12.723-5.723-12.723-12.78
	c0-7.054,5.696-12.774,12.723-12.774C64.383,190.242,70.081,195.962,70.081,203.016z"/>
<path fill="#FFFFFF" d="M66.501,203.016c0,5.073-4.094,9.188-9.146,9.188c-5.05,0-9.144-4.115-9.144-9.188
	c0-5.067,4.094-9.183,9.144-9.183C62.407,193.833,66.501,197.949,66.501,203.016z"/>
<path fill="#E94840" d="M62.328,203.016c0,2.763-2.224,4.991-4.973,4.991c-2.747,0-4.969-2.229-4.969-4.991
	c0-2.759,2.223-4.993,4.969-4.993C60.104,198.022,62.328,200.257,62.328,203.016z"/>
<path fill="#E94840" d="M79.09,188.148c2.724,4.154,4.313,9.125,4.313,14.469c0,14.557-11.75,26.355-26.248,26.355
	c-14.494,0-26.243-11.799-26.243-26.355c0-14.552,11.75-26.355,26.243-26.355c2.877,0,5.644,0.472,8.235,1.331v-4.382
	c-2.62-0.739-5.38-1.143-8.235-1.143c-16.799,0-30.418,13.682-30.418,30.549c0,16.873,13.618,30.549,30.418,30.549
	c16.804,0,30.424-13.676,30.424-30.549c0-5.234-1.314-10.161-3.625-14.469H79.09z"/>
<path fill="#E94840" d="M66.265,188.148c5.02,3.039,8.388,8.551,8.388,14.864c0,9.595-7.744,17.37-17.297,17.37
	c-9.552,0-17.294-7.775-17.294-17.37c0-9.59,7.743-17.364,17.294-17.364c2.902-0.001,5.633,0.726,8.035,1.993v-4.396
	c-2.48-1.017-5.19-1.587-8.035-1.587c-11.748,0-21.272,9.563-21.272,21.358c0,11.803,9.523,21.366,21.272,21.366
	c11.751,0,21.276-9.563,21.276-21.366c0-5.783-2.299-11.022-6.019-14.868H66.265z"/>
<path fill="#FFFFFF" d="M79.091,188.148h-6.48c3.72,3.847,6.019,9.086,6.019,14.871c0,11.799-9.524,21.362-21.272,21.362
	c-11.749,0-21.273-9.563-21.273-21.362c0-11.798,9.524-21.361,21.273-21.361c2.844,0,5.553,0.57,8.033,1.588v-5.654
	c-2.59-0.858-5.356-1.33-8.233-1.33c-14.496,0-26.246,11.8-26.246,26.355c0,14.557,11.75,26.356,26.246,26.356
	c14.495,0,26.246-11.8,26.246-26.356C83.403,197.272,81.814,192.302,79.091,188.148z"/>
<polygon fill="#366C8B" points="21.169,204.416 36.28,204.416 30.514,212.404 13.215,212.404 "/>
<polygon fill="#366C8B" points="21.567,202.22 36.677,202.22 30.912,194.232 13.613,194.232 "/>
<path fill="#043F52" d="M20.174,203.214c0,0.771,0.713,1.399,1.59,1.399H56.56c0.876,0,1.59-0.63,1.59-1.399l0,0
	c0-0.771-0.714-1.396-1.59-1.396H21.765C20.887,201.817,20.174,202.442,20.174,203.214L20.174,203.214z"/>
<line fill="none" stroke="#F6F6F6" stroke-miterlimit="10" x1="250.673" y1="56.184" x2="216.274" y2="89.469"/>
<path fill="#F1CA26" d="M126.992,89.75c0-11.726-8.891-21.355-20.271-22.478c-0.75-11.793-10.487-21.132-22.42-21.132
	c-12.425,0-22.496,10.112-22.496,22.589c0,0.984,0.085,1.945,0.206,2.895l-10.03,1.807l-3.092,8.282
	c-1.711-0.694-3.579-1.087-5.537-1.087c-8.166,0-14.782,6.645-14.782,14.841c0,7.955,6.228,14.426,14.051,14.809l-0.006,0.037
	l18.778,0.523l1.836-15.769c7.952-1.066,54.333-0.325,63.205-0.325C129.416,94.742,126.992,92.925,126.992,89.75z"/>
<path fill="#EEEDED" d="M116.205,193.893c0,0-4.225,26.869-10.327,33.938c-3.21,3.725,68.532,0.943,68.532,0.943
	s-6.103-14.143-9.856-34.883C140.611,194.367,116.205,193.893,116.205,193.893z"/>
<polygon fill="#C7C5C8" points="115.766,196.065 114.454,202.685 166.441,202.587 165.171,195.462 "/>
<path fill="#F9FDFE" d="M214.188,89.245H65.39c-5.444,0-9.857,4.375-9.857,9.771v88.403c0,5.396,4.413,9.771,9.857,9.771h148.797
	c5.447,0,9.861-4.373,9.861-9.771V99.017C224.048,93.62,219.634,89.245,214.188,89.245z M214.196,187.292H65.864V98.672h148.333
	L214.196,187.292L214.196,187.292z"/>
<path fill="#FBFDFE" d="M178.05,229.251c0,2.34-1.889,4.242-4.227,4.242H105.76c-2.333,0-4.224-1.902-4.224-4.242l0,0
	c0-2.344,1.892-4.246,4.224-4.246h68.064C176.162,225.005,178.05,226.908,178.05,229.251L178.05,229.251z"/>
<path fill="#FFFFFF" d="M59.484,57.542c-2.217,0-4.299,0.573-6.111,1.577c-0.511-6.554-5.959-11.723-12.618-11.723
	c-6.993,0-12.663,5.688-12.67,12.709c-0.951-0.453-2.001-0.726-3.121-0.726c-3.943,0-7.133,3.127-7.313,7.04
	c-0.195-0.014-0.388-0.029-0.584-0.029c-4.563,0-8.264,3.717-8.264,8.297c0,4.582,3.7,8.3,8.264,8.3h42.418
	c6.998,0,12.671-5.7,12.671-12.725C72.155,63.237,66.481,57.542,59.484,57.542z"/>
<rect x="100.531" y="166.13" fill="#E74A4F" width="12.601" height="11.769"/>
<rect x="116.888" y="151.037" fill="#F1CA26" width="13.486" height="27.086"/>
<rect x="134.573" y="155.699" fill="#E74A4F" width="11.713" height="22.424"/>
<rect x="151.152" y="142.824" fill="#F1CA26" width="12.158" height="35.295"/>
<rect x="187.055" y="152.264" fill="#DC544B" width="20.78" height="35.192"/>
<rect x="167.283" y="166.414" fill="#F1CA26" width="11.266" height="11.061"/>
<path fill="#FFFFFF" d="M179.007,178.123c0-0.373-0.297-0.668-0.664-0.668H96.552c-0.366,0-0.664,0.295-0.664,0.668l0,0
	c0,0.361,0.298,0.662,0.664,0.662h81.792C178.71,178.785,179.007,178.484,179.007,178.123L179.007,178.123z"/>
<g>
	<path fill="#0D3C55" d="M236.33,190.265l-12.353-12.579c4.192-6.133,6.649-13.558,6.649-21.56
		c0-21.078-17.019-38.167-38.008-38.167c-20.992,0-38.009,17.09-38.009,38.167c0,21.08,17.017,38.168,38.009,38.168
		c8.277,0,15.93-2.662,22.172-7.176l12.246,12.479L236.33,190.265z M162.212,156.126c0-16.864,13.611-30.538,30.406-30.538
		c16.791,0,30.406,13.673,30.406,30.538c0,16.865-13.615,30.535-30.406,30.535C175.824,186.662,162.212,172.992,162.212,156.126z"/>
	<path fill="#E6504C" d="M270.8,219.053c3.896,3.93,3.531,10.634-0.813,14.975l0,0c-4.343,4.343-11.022,4.679-14.916,0.755
		l-30.09-30.354c-3.896-3.926-0.806-7.887,3.538-12.229l0,0c4.345-4.345,8.3-7.429,12.191-3.498L270.8,219.053z"/>
	<path fill="#E36B6D" d="M255.251,227.937c3.148,3.171,5.24,6.207,4.67,6.775l0,0c-0.566,0.568-3.58-1.547-6.727-4.719
		l-24.328-24.541c-3.148-3.175-3.037-3.986-2.468-4.555l0,0c0.571-0.568,1.378-0.678,4.528,2.499L255.251,227.937z"/>
</g>
<polygon opacity="0.2" fill="#FFFFFF" points="65.864,98.672 65.864,176.96 176.824,98.672 "/>
</svg>
