<?xml version="1.0" encoding="utf-8"?>
<!-- Generator: Adobe Illustrator 21.1.0, SVG Export Plug-In . SVG Version: 6.00 Build 0)  -->
<svg version="1.1" id="Calque_1" xmlns="http://www.w3.org/2000/svg" xmlns:xlink="http://www.w3.org/1999/xlink" x="0px" y="0px"
	 viewBox="0 0 50 20" style="enable-background:new 0 0 50 20;" xml:space="preserve">
<style type="text/css">
	.st0{fill:#808285;}
</style>
<g>
	<g>
		<path class="st0" d="M32.2,13.5c-0.2,1.2,0.9,1.9,1.9,2.4c-0.8,0-1.7-0.1-2.6-0.3c-0.1,0-0.2,0.2-0.1,0.2c0.8,0.2,1.7,0.4,2.5,0.5
			c-0.5,0.2-0.8,0.7-0.8,1.3c0,0.7,0.6,1.4,1,1.9c0.1,0.1,0.3,0.1,0.4-0.1c0.2-0.8,0.9-2.4,0.1-3c0.7,0,1.3,0,2,0
			c0.2,1.5,1.7,2.4,3.2,2.1c0.1,0,0.2-0.2,0.2-0.3c-0.5-0.9-1.3-1.6-2.3-1.9c0.6-0.1,1.2-0.2,1.8-0.4c0.2,0.5,0.7,0.9,1.2,1.1
			c0.9,0.3,1.6-0.2,2.4-0.4c0.2,0,0.2-0.2,0.1-0.4c-0.5-0.6-1.2-0.9-2-0.9c0.6-0.2,1.2-0.5,1.8-0.8c-0.3,1.3,1,2.3,2.2,2.1
			c0.1,0,0.2-0.2,0.1-0.3c-0.1-0.4-0.2-0.8-0.2-1.2c0.5-0.2,1-0.4,1.6-0.5c0.2,0,0.2-0.2,0.1-0.3c-0.5-0.5-1.3-0.9-2.1-0.9
			c0.4-0.3,0.8-0.6,1.2-1c0.1,0.5,0.6,0.7,1,0.8c0.9,0.1,1.6-0.4,2.4-0.7c0.2-0.1,0.2-0.3,0.1-0.4c-0.4-0.3-0.8-0.6-1.3-0.6
			c0.5-0.5,0.8-1.3,0.9-1.9c0-0.1,0-0.2-0.1-0.2c-1.4-0.3-2.7,0.6-2.7,2c0,0,0,0,0,0c-0.1,0.1,0,0.2,0,0.2c0,0,0,0,0,0.1
			c0,0,0,0,0,0c-0.1,0-0.1,0.1-0.2,0.1c0,0-0.1,0-0.1,0c-0.1,0-0.1,0.1-0.1,0.2c-0.1,0.1-0.2,0.2-0.3,0.3c0.2-0.8-0.5-2-0.1-2.7
			c0.1-0.2-0.1-0.3-0.3-0.2c-0.7,0.6-1.6,1.3-1.6,2.3c0,0.6,0.5,1.2,1.1,1.2c0,0,0,0,0,0c-0.8,0.6-1.7,1.1-2.6,1.5
			c0.2-0.2,0.3-0.4,0.4-0.7c0.3-0.7,0.1-1.5,0.3-2.2c0-0.1-0.1-0.3-0.2-0.2c-0.8,0.4-1.8,0.9-2.1,1.9c-0.2,0.6,0,1.3,0.5,1.6
			c-1,0.4-2.1,0.7-3.2,0.9c1.2-0.2,1-2.1,1.6-2.9c0.1-0.1-0.1-0.3-0.2-0.3c-0.6,0.3-1.2,0.5-1.6,1c-0.3-0.6-1.4-0.7-1.7-1.1
			c-0.1-0.2-0.4-0.1-0.4,0.1c0.2,0.7,0,1.4,0.2,2c0.2,0.6,0.8,1,1.4,1.2c-0.7,0.1-1.4,0.1-2.2,0.1c0.1-0.5-0.1-0.9-0.4-1.3
			c-0.6-0.7-1.7-0.5-2.1-1.2C32.4,13.3,32.2,13.4,32.2,13.5z M46.1,12.2C46.2,12.2,46.2,12.2,46.1,12.2c0.5,0.1,1.1,0.1,1.6,0.1
			c0.1,0,0.1-0.2,0-0.2c-0.3,0-0.6,0-0.8-0.1c-0.1,0-0.3-0.1-0.4-0.1c0,0,0.1-0.1,0.1-0.1c0,0,0,0,0.1-0.1c0.5,0.3,1,0.2,1.3,0
			c0.4,0.2,0.7,0.3,1,0.5C48,12.6,46.8,13.2,46.1,12.2z M46.7,11.2c0.1-1,1-1.7,2-1.5c-0.3,1-0.8,1.9-1.9,1.9c0.5-0.2,0.9-0.7,1-1.1
			c0,0,0-0.1-0.1-0.1c-0.3,0.1-0.4,0.3-0.7,0.5C46.9,11.1,46.8,11.2,46.7,11.2z M45.3,12.2c-0.2-0.4-0.2-0.8-0.2-1.2
			c0-0.2-0.2-0.2-0.3-0.1c-0.2,0.5,0,1.1,0.3,1.6c0,0,0,0,0,0c-0.8,0-1.2-0.7-1-1.4c0.1-0.5,0.5-0.8,0.9-1.1c0,0.2,0,0.4,0,0.7
			C45.1,11.1,45.4,11.7,45.3,12.2z M43.3,14.8c0.2,0.4,0.6,0.7,1,0.9c0.1,0.1,0.2-0.1,0.1-0.2c-0.2-0.1-0.4-0.3-0.6-0.5c0,0,0,0,0,0
			c0.1,0.1,0.2,0.1,0.4,0.2c0.3,0.1,0.5,0.1,0.8,0c-0.1,0.3-0.1,0.7,0,1C44,16.3,43.4,15.6,43.3,14.8z M43.6,14.1c0,0,0.1,0,0.1-0.1
			c0.5-0.1,0.8-0.3,1.3-0.2c0.4,0,0.9,0.2,1.2,0.5c-0.8,0.2-2.1,0.7-2.5,0.1c0.2,0,0.3,0,0.5,0c0.3,0,0.6-0.1,0.9-0.2
			c0.1,0,0-0.1-0.1-0.1c-0.3,0.1-0.6,0.1-0.8,0.1C44,14.2,43.8,14.1,43.6,14.1C43.6,14.1,43.6,14.1,43.6,14.1z M41.5,14.6
			c0-0.3,0.1-0.5,0.1-0.8c0.1-0.3,0.2-0.5,0.3-0.8c0-0.1-0.1-0.2-0.2-0.1c-0.3,0.4-0.5,1-0.5,1.5c-0.4-0.4-0.4-1.1,0-1.6
			c0.3-0.4,0.8-0.7,1.2-0.9c-0.1,0.3-0.1,0.7-0.1,1.1C42.3,13.6,42,14.1,41.5,14.6z M39.8,15.8C39.8,15.8,39.8,15.8,39.8,15.8
			c0.4,0.5,1.3,0.5,1.9,0.3c0.1,0,0-0.2,0-0.1c-0.3,0.1-0.7,0-1,0c-0.2-0.1-0.4-0.2-0.5-0.2c0,0,0,0,0.1,0c0.9,0,1.8,0,2.4,0.6
			c-0.5,0.1-0.9,0.4-1.4,0.3C40.6,16.5,40.2,16.2,39.8,15.8z M37,14.7c0,0,0-0.1,0-0.1c-0.1-0.2-0.1-0.5-0.2-0.7
			c-0.1-0.1-0.3-0.1-0.2,0.1c0,0.2,0.1,0.5,0.2,0.7c0.1,0.2,0.1,0.4,0.2,0.6c-0.5-0.3-0.8-0.7-0.8-1.4c0-0.3,0-0.6,0-0.8
			c0.5,0.3,1,0.3,1.3,0.8c-0.1,0.1-0.2,0.3-0.2,0.4C37.1,14.4,37,14.5,37,14.7z M37.1,16.6c0.3,0.4,0.8,0.6,1.2,0.9
			c0.1,0.1,0.2-0.1,0.1-0.2c-0.3-0.2-0.6-0.5-0.9-0.8c0.8,0.3,1.5,0.8,1.9,1.5C38.4,18.1,37.5,17.6,37.1,16.6z M38.9,13.1
			c-0.1,0.2-0.1,0.4-0.2,0.6c-0.1,0.6-0.2,1.6-1,1.7c0-0.2,0.1-0.4,0.2-0.6c0.1-0.2,0.2-0.3,0.2-0.5c0-0.1-0.1-0.1-0.1-0.1
			c-0.3,0.2-0.4,0.9-0.4,1.2c0,0,0,0,0,0C37,14.5,37.9,13.6,38.9,13.1z M34.2,16.7c0,0.1,0,0.3-0.1,0.4c0,0.2,0,0.5,0,0.7
			c0,0.1,0.2,0.1,0.2,0c0-0.2,0-0.4,0.1-0.7c0-0.1,0.1-0.3,0.1-0.4c0.4,0.6,0.1,1.5-0.2,2.2c-0.3-0.3-0.5-0.6-0.6-0.9
			C33.5,17.5,33.7,16.9,34.2,16.7z M32.6,14c0.3,0.2,0.6,0.2,0.9,0.3c0.8,0.2,1.2,0.8,1.2,1.6c0,0,0,0,0,0c-0.1-0.5-0.3-0.9-0.7-1.1
			c-0.1-0.1-0.2,0.1-0.1,0.1c0.2,0.3,0.4,0.6,0.5,0.9C33.7,15.3,32.8,14.8,32.6,14z"/>
	</g>
</g>
<g>
	<path class="st0" d="M11.2,14.7c-0.1,0.4-0.4,0.7-0.8,0.9c-0.4,0.2-0.9,0.3-1.3,0.3c-1.1,0-2.2-0.9-3.4-1.8c-0.4-0.3-0.7-0.5-1-0.7
		c0,0.1-0.1,0.1-0.1,0.1C4.5,13.8,4.3,14,4,14.2c-0.3,0.2-0.6,0.3-0.9,0.3c0,0-0.1,0-0.1,0c-0.3,0-0.6,0-0.8-0.2
		c-0.2-0.2-0.4-0.4-0.4-0.8c0,0,0-0.1,0-0.1c0-0.3,0.1-0.7,0.3-0.9c0.2-0.2,0.5-0.4,0.8-0.5c0.5-0.1,1.1,0.1,1.8,0.5
		c0.1-0.3,0.2-0.7,0.3-1c0.2-0.6,0.3-1.3,0.4-2c0-0.3,0.1-0.5,0.1-0.7c0.1-0.7,0.2-1.5,0.4-2.2C5.6,6.8,5.3,6.9,5.1,6.9
		c-1.6,0.5-3.3,1-3.3,2.3c0,0,0,0.1,0,0.1C1.9,9.6,2,9.9,2.1,10s0.4,0.3,0.7,0.3c0,0,0.1,0,0.1,0c0.1,0,0.3,0.1,0.3,0.2
		c0,0.1-0.1,0.3-0.2,0.3c-0.1,0-0.1,0-0.2,0c-0.4,0-0.8-0.2-1-0.4c-0.3-0.2-0.4-0.6-0.4-1c0-0.1,0-0.1,0-0.2C1.3,7.5,3.2,7,5,6.5
		c0.3-0.1,0.7-0.2,1-0.3C6,6,6,5.9,6.1,5.8C6.2,5.5,6.3,5.2,6.4,5c0.2-0.2,0.4-0.4,0.6-0.5c0.1,0,0.2,0,0.2,0c0.1,0,0.2,0,0.3,0.1
		c0.1,0.1,0.2,0.1,0.3,0.3c0,0,0,0,0,0c0,0,0,0.1,0,0.1c0,0.7-0.6,1.2-1.5,1.5C6.2,7.3,6,8.2,5.9,9c0,0.3-0.1,0.5-0.1,0.7
		c-0.1,0.7-0.2,1.4-0.4,2c-0.1,0.4-0.2,0.8-0.4,1.2c0.4,0.3,0.7,0.5,1.1,0.8c1.1,0.8,2.2,1.7,3.1,1.7c0.3,0,0.7-0.1,1-0.3
		c0.3-0.2,0.5-0.4,0.5-0.6c0-0.1,0.2-0.2,0.3-0.2C11.2,14.4,11.3,14.6,11.2,14.7z M4.4,13.1c-0.6-0.3-1.1-0.6-1.5-0.5
		c-0.2,0-0.4,0.1-0.5,0.3c-0.1,0.2-0.2,0.4-0.2,0.5c0,0,0,0,0,0.1c0,0.2,0.1,0.3,0.2,0.4C2.6,14,2.8,14.1,3,14c0,0,0,0,0.1,0
		c0.2,0,0.5-0.1,0.7-0.3c0.2-0.1,0.4-0.3,0.5-0.5C4.3,13.2,4.3,13.1,4.4,13.1z M6.6,5.9c0.5-0.2,0.8-0.5,0.9-0.8c0,0-0.1,0-0.1,0
		c0,0-0.1,0-0.1,0c-0.2,0-0.3,0.1-0.4,0.3C6.7,5.5,6.6,5.7,6.6,5.9z"/>
	<path class="st0" d="M12.6,10.6c-0.3,1.1-0.8,1.8-1.3,2.2c-0.6,0.5-1.2,0.7-1.8,0.7l0,0l0,0c-0.4,0-0.8,0-1.1-0.3
		c-0.3-0.2-0.5-0.6-0.6-1.1l0,0l0,0c0-0.3,0-0.7,0-1c0,0,0,0,0,0c0-0.3,0.1-0.5,0.2-0.8C8.1,9.7,8.4,9,8.7,8.6
		c0.2-0.2,0.3-0.4,0.5-0.5c0.2-0.1,0.4-0.2,0.6-0.3c0.3,0,0.5,0,0.7,0.1c0.2,0.1,0.3,0.3,0.4,0.5C11,8.5,11,8.7,11,9
		c-0.1,0.3-0.2,0.7-0.5,0.9c-0.3,0.3-0.6,0.6-1,0.8c-0.5,0.3-1,0.6-1.3,0.7c0,0.3,0,0.5,0,0.8l0,0c0,0.4,0.2,0.6,0.4,0.8
		c0.2,0.2,0.5,0.2,0.8,0.2l0,0c0.5-0.1,1-0.2,1.5-0.6c0.5-0.4,0.9-1,1.2-2c0-0.1,0.2-0.2,0.3-0.2C12.5,10.4,12.6,10.5,12.6,10.6z
		 M8.3,10.7c0.3-0.1,0.6-0.3,0.9-0.5c0.3-0.2,0.7-0.4,0.9-0.7c0.2-0.2,0.3-0.4,0.3-0.7c0-0.1,0-0.2,0-0.3c0-0.1-0.1-0.1-0.2-0.2
		c-0.1,0-0.2-0.1-0.4,0c-0.1,0-0.3,0.1-0.4,0.2C9.4,8.6,9.2,8.7,9.1,8.9c-0.3,0.4-0.6,1-0.7,1.6C8.4,10.5,8.3,10.6,8.3,10.7z"/>
	<path class="st0" d="M16.9,10c-0.3,1.1-0.8,1.8-1.3,2.2c-0.6,0.5-1.2,0.7-1.8,0.7l0,0l0,0c-0.4,0-0.8,0-1.1-0.3
		c-0.3-0.2-0.5-0.6-0.6-1.1l0,0l0,0c-0.1-0.5,0-1.2,0.2-1.8c0.2-0.7,0.5-1.3,0.8-1.7c0.2-0.2,0.3-0.4,0.5-0.5
		c0.2-0.1,0.4-0.2,0.6-0.3l0,0l0,0l0,0c0.3,0,0.5,0,0.7,0.2c0.2,0.2,0.3,0.4,0.4,0.8c0,0,0,0,0,0.1c0,0.2,0,0.3,0,0.5
		c0,0.2-0.1,0.3-0.2,0.5c-0.1,0.1-0.2,0.2-0.3,0.1c-0.1-0.1-0.2-0.2-0.1-0.3c0.1-0.1,0.1-0.2,0.1-0.3c0-0.1,0-0.2,0-0.3c0,0,0,0,0,0
		c0-0.2-0.1-0.4-0.2-0.5c-0.1-0.1-0.2-0.1-0.4-0.1l0,0c-0.1,0-0.3,0.1-0.4,0.2c-0.1,0.1-0.3,0.2-0.4,0.4c-0.3,0.4-0.6,1-0.7,1.6
		c-0.2,0.6-0.3,1.2-0.2,1.7l0,0c0,0.4,0.2,0.6,0.4,0.8c0.2,0.2,0.5,0.2,0.8,0.2l0,0c0.5-0.1,1-0.2,1.5-0.6c0.5-0.4,0.9-1,1.2-2
		c0-0.1,0.2-0.2,0.3-0.2C16.9,9.8,17,9.9,16.9,10z"/>
	<path class="st0" d="M21.7,9.4L21.7,9.4c-0.3,1.1-0.8,2.6-1.8,2.8l0,0c-0.3,0-0.6-0.1-0.7-0.3c-0.1-0.2-0.2-0.4-0.3-0.6l0,0
		c-0.3,0.6-0.8,1.1-1.4,1.2c-0.3,0-0.6-0.1-0.8-0.3c-0.2-0.2-0.3-0.5-0.3-0.9c-0.1-0.7,0.1-2,0.5-3.1c0.3-0.8,0.8-1.4,1.5-1.5
		c0,0,0.1,0,0.1,0c0.3,0,0.6,0.1,0.9,0.3C19.5,7,19.5,7,19.6,7.1c0-0.2,0.1-0.4,0.1-0.6c0-0.1,0.2-0.2,0.3-0.2
		c0.1,0,0.2,0.2,0.2,0.3c-0.1,0.4-0.2,1-0.4,1.7c-0.1,0.5-0.2,0.9-0.3,1.3c-0.1,0.3-0.1,0.7-0.1,0.9c0,0.3-0.1,0.5,0,0.6l0,0
		c0,0.1,0.1,0.3,0.1,0.4c0.1,0.1,0.1,0.1,0.3,0.1c0.7-0.1,1.1-1.5,1.4-2.4l0,0c0-0.1,0.2-0.2,0.3-0.2C21.7,9.1,21.8,9.2,21.7,9.4z
		 M19.2,8.7c0.1-0.3,0.1-0.5,0.2-0.7c0,0,0-0.1,0-0.1c0-0.3-0.2-0.5-0.3-0.6c-0.2-0.1-0.3-0.2-0.5-0.2c0,0,0,0-0.1,0
		c-0.5,0.1-0.8,0.6-1.1,1.2c-0.4,1-0.6,2.2-0.5,2.8c0,0.3,0.1,0.5,0.2,0.6c0.1,0.1,0.2,0.1,0.4,0.1C18.4,11.9,18.9,10,19.2,8.7z"/>
	<path class="st0" d="M26.5,8.7L26.5,8.7c-0.3,1.1-0.8,2.6-1.8,2.8l0,0c-0.3,0-0.6-0.1-0.7-0.3c-0.1-0.2-0.2-0.4-0.3-0.6l0,0
		c0-0.2,0-0.5,0-0.8c0-0.3,0.1-0.6,0.2-0.9c0-0.1,0-0.1,0.1-0.2C24,8.2,24.1,7.5,24.1,7c0-0.3-0.2-0.6-0.7-0.5
		c-0.3,0-0.6,0.4-0.8,0.8c-0.4,0.6-0.7,1.4-0.8,2.1c-0.2,1.2-0.5,2.2-0.5,2.5c0,0.1-0.2,0.2-0.3,0.2c-0.1,0-0.2-0.2-0.2-0.3
		c0.1-0.3,0.3-1.3,0.5-2.5c0,0,0,0,0,0c0,0,0,0,0,0c0,0,0,0,0,0c0.2-0.9,0.4-1.9,0.6-2.8c0-0.1,0.2-0.2,0.3-0.2
		c0.1,0,0.2,0.2,0.2,0.3c0,0.1,0,0.2-0.1,0.2c0.3-0.4,0.6-0.7,1-0.7c0.9-0.1,1.2,0.3,1.3,1c0.1,0.6-0.1,1.3-0.2,1.8
		c0,0.1,0,0.2-0.1,0.2c-0.1,0.3-0.1,0.6-0.2,0.9c0,0.3-0.1,0.5,0,0.7l0,0c0,0.1,0.1,0.3,0.1,0.4c0.1,0.1,0.1,0.1,0.3,0.1l0,0
		c0.7-0.1,1.1-1.5,1.4-2.4l0,0c0-0.1,0.2-0.2,0.3-0.2S26.5,8.6,26.5,8.7z"/>
	<path class="st0" d="M28.6,8.4c-0.1,0.5-0.3,1.1-0.6,1.7c-0.3,0.6-0.7,1.1-1.2,1.1l0,0c-0.3,0-0.6-0.1-0.7-0.3
		c-0.1-0.2-0.2-0.4-0.3-0.6l0,0c0-0.2,0-0.4,0-0.8c0-0.3,0.1-0.6,0.2-1c0-0.1,0.1-0.4,0.2-0.8c0.1-0.4,0.2-0.8,0.3-1.2
		c0-0.1,0-0.2,0.1-0.3l0.1-0.6c0-0.1,0.2-0.2,0.3-0.2c0.1,0,0.2,0.2,0.2,0.3L27,6.4l-0.1,0.3c-0.1,0.5-0.2,0.9-0.3,1.2
		s-0.1,0.6-0.2,0.7c-0.1,0.3-0.1,0.7-0.2,0.9c0,0.3,0,0.5,0,0.6l0,0c0,0.1,0.1,0.3,0.1,0.4c0.1,0.1,0.1,0.1,0.3,0.1l0,0
		c0.4,0,0.6-0.4,0.9-0.8c0.2-0.5,0.4-1.1,0.6-1.6c0-0.1,0.2-0.2,0.3-0.2C28.6,8.2,28.7,8.3,28.6,8.4z M26.8,4.5
		c0-0.2,0.1-0.4,0.4-0.5c0.2,0,0.4,0.1,0.5,0.3c0,0.2-0.1,0.4-0.3,0.5S26.8,4.7,26.8,4.5z"/>
	<path class="st0" d="M33.4,7.8L33.4,7.8c-0.3,1.1-0.8,2.6-1.8,2.8l0,0c-0.3,0-0.6-0.1-0.7-0.3c-0.1-0.2-0.2-0.4-0.3-0.6l0,0
		c0-0.2,0-0.5,0-0.8c0-0.3,0.1-0.6,0.2-0.9c0-0.1,0-0.1,0.1-0.2C30.9,7.2,31.1,6.5,31,6c0-0.3-0.2-0.6-0.7-0.5
		c-0.3,0-0.6,0.4-0.8,0.8c-0.4,0.6-0.7,1.4-0.8,2.1c-0.2,1.2-0.5,2.2-0.5,2.5c0,0.1-0.2,0.2-0.3,0.2c-0.1,0-0.2-0.2-0.2-0.3
		c0.1-0.3,0.3-1.3,0.5-2.5c0,0,0,0,0,0c0,0,0,0,0,0s0,0,0,0c0.2-0.9,0.4-1.9,0.6-2.8c0-0.1,0.2-0.2,0.3-0.2c0.1,0,0.2,0.2,0.2,0.3
		c0,0.1,0,0.2-0.1,0.2c0.3-0.4,0.6-0.7,1-0.7c0.9-0.1,1.2,0.3,1.3,1c0.1,0.6-0.1,1.3-0.2,1.8c0,0.1,0,0.2-0.1,0.2
		c-0.1,0.3-0.1,0.6-0.2,0.9c0,0.3-0.1,0.5,0,0.7l0,0c0,0.1,0.1,0.3,0.1,0.4c0.1,0.1,0.1,0.1,0.3,0.1l0,0c0.7-0.1,1.1-1.5,1.4-2.4
		l0,0c0-0.1,0.2-0.2,0.3-0.2C33.4,7.5,33.4,7.6,33.4,7.8z"/>
	<path class="st0" d="M38,7.1c0,0.1,0,0.2-0.1,0.3c0,0.1-0.1,0.1-0.1,0.2c-0.1,0.3-0.3,0.7-0.5,0.9c-0.2,0.3-0.5,0.5-1,0.6
		c-0.1,0-0.2,0-0.3,0c-0.2,0-0.4-0.1-0.6-0.2c-0.4,0.7-0.9,1.2-1.5,1.3c-1.9,0.3-1.1-3.2-0.6-4.4c0.3-0.8,0.8-1.4,1.5-1.5l0,0
		c0.3,0,0.7,0,0.9,0.3c0.2,0.2,0.4,0.5,0.4,0.9c0.1,0.8-0.1,1.9-0.5,2.9c0.1,0.1,0.2,0.2,0.4,0.2c0.1,0,0.1,0,0.2,0
		c0.3,0,0.5-0.2,0.6-0.4c0.2-0.2,0.3-0.5,0.4-0.8c0-0.1,0-0.1,0.1-0.2c0-0.1,0-0.1,0.1-0.2c0-0.1,0.2-0.2,0.3-0.2
		C38,6.9,38.1,7,38,7.1z M35.5,7.5c0,0.1,0,0.2,0,0.3c0.3-0.8,0.4-1.6,0.3-2.1c0-0.3-0.1-0.5-0.3-0.6c-0.1-0.1-0.3-0.2-0.6-0.2
		c-0.5,0.1-0.8,0.6-1.1,1.2c-0.4,0.8-1.1,3.8,0.1,3.7c0.4-0.1,0.9-0.6,1.2-1.2C35.1,8.4,35,8.2,35,8c0-0.2,0-0.4,0-0.6
		c0-0.1,0.1-0.2,0.3-0.2C35.4,7.2,35.5,7.3,35.5,7.5z"/>
	<path class="st0" d="M40.5,6.8c-0.2,0.6-0.4,1.1-0.5,1.4c-0.2,0.4-0.4,0.7-0.7,1c-0.1,0.1-0.3,0.2-0.4,0.3
		c-0.2,0.1-0.3,0.1-0.5,0.2l0,0c-0.2,0-0.5,0-0.7-0.2c-0.2-0.1-0.3-0.4-0.4-0.7l0,0l0,0c0-0.2,0-0.5,0-0.8c0-0.3,0.1-0.6,0.2-1
		c0.2-1,0.4-2,0.6-3.1l0.2-0.8l0-0.2c0-0.2,0.1-0.5,0.2-0.9c0-0.1,0.2-0.2,0.3-0.2c0.1,0,0.2,0.2,0.2,0.3C39,2.5,38.9,2.8,38.9,3
		c0,0.1,0,0.1,0,0.2L38.7,4c-0.2,1-0.4,2-0.6,3.1C38,7.4,38,7.8,37.9,8c0,0.3-0.1,0.5,0,0.6l0,0c0,0.2,0.1,0.3,0.2,0.4
		c0.1,0.1,0.2,0.1,0.3,0.1l0,0c0.1,0,0.2-0.1,0.3-0.1c0.1,0,0.2-0.1,0.3-0.2c0.2-0.2,0.4-0.5,0.5-0.8c0.2-0.4,0.3-0.8,0.5-1.4
		c0-0.1,0.2-0.2,0.3-0.2C40.5,6.5,40.6,6.7,40.5,6.8z"/>
	<path class="st0" d="M44.8,6.2c-0.3,1.1-0.8,1.8-1.3,2.2c-0.6,0.5-1.2,0.7-1.8,0.7l0,0l0,0c-0.4,0-0.8,0-1.1-0.3
		C40.3,8.7,40,8.3,40,7.8l0,0l0,0c0-0.3,0-0.7,0-1c0,0,0,0,0,0c0-0.3,0.1-0.5,0.2-0.8c0.2-0.7,0.5-1.3,0.8-1.7
		c0.2-0.2,0.3-0.4,0.5-0.5c0.2-0.1,0.4-0.2,0.6-0.3c0.3,0,0.5,0,0.7,0.1c0.2,0.1,0.3,0.3,0.4,0.5c0.1,0.2,0.1,0.4,0,0.6
		c-0.1,0.3-0.2,0.7-0.5,0.9c-0.3,0.3-0.6,0.6-1,0.8c-0.5,0.3-1,0.6-1.3,0.7c0,0.3,0,0.5,0,0.8l0,0c0,0.4,0.2,0.6,0.4,0.8
		c0.2,0.2,0.5,0.2,0.8,0.2l0,0c0.5-0.1,1-0.2,1.5-0.6s0.9-1,1.2-2c0-0.1,0.2-0.2,0.3-0.2C44.8,5.9,44.9,6.1,44.8,6.2z M40.6,6.3
		c0.3-0.1,0.6-0.3,0.9-0.5c0.3-0.2,0.7-0.4,0.9-0.7c0.2-0.2,0.3-0.4,0.3-0.7c0-0.1,0-0.2,0-0.3c0-0.1-0.1-0.1-0.2-0.2
		c-0.1,0-0.2-0.1-0.4,0c-0.1,0-0.3,0.1-0.4,0.2c-0.1,0.1-0.3,0.2-0.4,0.4c-0.3,0.4-0.6,1-0.7,1.6C40.7,6.1,40.6,6.2,40.6,6.3z"/>
</g>
</svg>
