<?xml version="1.0" encoding="utf-8"?>
<!-- Generator: Adobe Illustrator 21.1.0, SVG Export Plug-In . SVG Version: 6.00 Build 0)  -->
<svg version="1.1" id="Calque_1" xmlns="http://www.w3.org/2000/svg" xmlns:xlink="http://www.w3.org/1999/xlink" x="0px" y="0px"
	 viewBox="0 0 300 42.6" style="enable-background:new 0 0 300 42.6;" xml:space="preserve">
<style type="text/css">
	.st0{fill:#767676;}
	.st1{fill:#9FD2F6;}
</style>
<g>
	<path class="st0" d="M10.4,27.6h2.8V14.3c0-0.5-0.3-0.8-0.8-0.8H9.9v-2h3.4c1.5,0,2.2,0.6,2.2,2v1.2c0,0.4,0,0.7,0,1
		c0,0.1,0,0.3,0,0.4h0.1c0.9-2.7,2.9-4.8,5.7-4.8c0.3,0,0.5,0,0.7,0l0.3,0.1v2.4c-0.1,0-0.2,0-0.3,0c-0.1,0-0.3,0-0.6,0
		c-4,0-5.7,4.5-5.7,8.1v5.6h2.8v2h-8V27.6z"/>
	<path class="st0" d="M33.2,11.1c5,0,7.6,3.8,7.6,8.3c0,0.3,0,0.5,0,0.7l-0.1,0.4H26.8c0.1,4.6,3.3,7.2,7,7.2c1.7,0,3-0.5,4-1.1
		c0.6-0.3,1.1-0.7,1.5-1.1l1.1,1.8c-0.5,0.5-1.1,0.9-1.8,1.3c-1.1,0.7-2.8,1.3-4.9,1.3c-5.3,0-9.4-3.9-9.4-9.4
		C24.3,14.7,28.3,11.1,33.2,11.1z M38.2,18.8c-0.1-3.8-2.4-5.6-5.1-5.6c-3,0-5.6,2-6.2,5.6H38.2z"/>
	<path class="st0" d="M46.7,33.7c0.4,0.3,0.9,0.5,1.4,0.6c0.9,0.3,2.1,0.6,3.4,0.6c3.5,0,6.3-1.6,6.3-5.7v-1.8c0-0.4,0-0.6,0.1-0.9
		c0-0.1,0-0.3,0-0.4h-0.1c-1.1,2-2.9,3.3-5.7,3.3c-4.8,0-8-3.8-8-9.2c0-5.4,3-9.1,7.8-9.1c2.6,0,5.1,1,6.1,3.2h0.1c0,0,0-0.1,0-0.2
		c0-0.1,0-0.3,0-0.6c0-1.3,0.5-2,2.1-2h3.2v2h-2.2c-0.5,0-0.8,0.3-0.8,0.8v14.8c0,5.7-4.2,8-8.7,8c-2,0-4.1-0.5-5.9-1.4L46.7,33.7z
		 M57.9,20.2c0-5.3-2.5-6.9-5.7-6.9c-3.5,0-5.6,2.5-5.6,6.9c0,4.3,2.3,7.1,5.9,7.1C55.4,27.3,57.9,25.5,57.9,20.2z"/>
	<path class="st0" d="M66,27.6h3v-14h-3.2v-2h5.7v16h3v2H66V27.6z M68.9,4.4h2.8v3h-2.8V4.4z"/>
	<path class="st0" d="M86.7,11.1c5.3,0,9.5,4,9.5,9.3c0,5.4-4.3,9.5-9.5,9.5c-5.2,0-9.5-4.1-9.5-9.5C77.2,15.2,81.4,11.1,86.7,11.1z
		 M86.7,27.8c3.9,0,7-3.2,7-7.3c0-4.1-3.2-7.2-7-7.2c-3.8,0-7,3-7,7.2C79.7,24.7,82.8,27.8,86.7,27.8z"/>
	<path class="st0" d="M99.5,27.6h3V14.3c0-0.5-0.3-0.8-0.8-0.8h-2.4v-2h3.4c1.5,0,2.2,0.7,2.2,2v1c0,0.4,0,0.6-0.1,0.9l-0.1,0.4h0.1
		c0.5-1.3,2.9-4.8,7.3-4.8c4.4,0,6,2.5,6,7v9.5h3v2h-5.5V18.7c0-2.9-0.5-5.3-3.9-5.3c-4,0-6.8,3.5-6.8,7.5v6.7h3v2h-8.5V27.6z"/>
	<path class="st0" d="M134.2,18.5h1.2v-0.8c0-3.4-1.8-4.5-4.3-4.5c-1.5,0-2.8,0.4-3.8,0.9c-0.5,0.3-1,0.6-1.5,0.9l-1.1-1.8
		c0.5-0.4,1.1-0.8,1.7-1c1.1-0.5,2.8-1,4.8-1c4.4,0,6.6,2.3,6.6,6.8v8.9c0,0.5,0.3,0.8,0.8,0.8h2v2h-2.9c-1.5,0-2.1-0.7-2.1-2v-0.3
		c0-0.4,0-0.8,0.1-1c0-0.1,0-0.3,0-0.4h-0.1c-0.3,0.8-0.8,1.4-1.4,2c-1,1-2.5,2.1-4.8,2.1c-3,0-6-1.7-6-5.4
		C123.3,18.8,131.1,18.5,134.2,18.5z M129.7,28c3.6,0,5.7-3.6,5.7-6.8v-0.9h-1c-1.5,0-8.5-0.1-8.5,4C125.8,26.2,127.2,28,129.7,28z"
		/>
	<path class="st0" d="M144.6,6.4h-3.2v-2h5.6v20.5c0,1.5,0.4,2.7,2,2.7c0.4,0,0.6,0,0.8,0c0.1,0,0.2,0,0.3,0v2.1l-0.4,0.1
		c-0.3,0-0.6,0-1,0c-2.4,0-4.1-1.2-4.1-4.6V6.4z"/>
	<path class="st1" d="M154.5,32.2V16.4c0-0.5-0.3-0.8-0.8-0.8H152v-4.5h5.7c1.8,0,2.4,0.9,2.4,1.5v0.1v0.3c0,0.1,0,0.1,0,0.1h0.1
		c0.4-0.5,0.8-0.9,1.3-1.3c0.9-0.7,2.3-1.3,4.3-1.3c5,0,8.3,3.9,8.3,9.7c0,5.8-3.7,9.6-8.6,9.6c-1.5,0-2.7-0.5-3.5-0.9
		c-0.5-0.3-0.9-0.5-1.2-0.9h-0.1c0,0.1,0,0.3,0,0.4c0,0.3,0,0.7,0,1.1v2.4h2.3v4.5h-10.9v-4.5H154.5z M164.2,24.9
		c2,0,3.6-1.5,3.6-4.4c0-2.8-1.5-4.5-3.6-4.5c-1.9,0-3.6,1.4-3.6,4.5C160.5,22.6,161.7,24.9,164.2,24.9z"/>
	<path class="st1" d="M185.6,18.1h1.1v-0.5c0-1.5-1.2-2-2.6-2c-1.3,0-2.5,0.4-3.5,0.9c-0.6,0.3-1.1,0.6-1.6,0.9l-2.1-4.2
		c0.6-0.5,1.4-0.9,2.1-1.2c1.4-0.6,3.3-1.2,5.7-1.2c5.4,0,8.2,2.7,8.2,7.5v6.1c0,0.5,0.3,0.8,0.8,0.8h1.4v4.5h-5.3
		c-1.8,0-2.5-1-2.5-1.9v-0.1c0-0.2,0-0.3,0-0.4c0-0.1,0-0.1,0-0.2h-0.1c-0.3,0.6-0.8,1.1-1.3,1.5c-0.9,0.8-2.2,1.5-4.2,1.5
		c-3.2,0-6.1-2-6.1-5.7C175.8,18.9,182.8,18.1,185.6,18.1z M183.7,25.5c1.6,0,3.2-1.9,3.2-3.5v-0.4h-0.6c-2,0-4.2,0.6-4.2,2.3
		C182,24.8,182.7,25.5,183.7,25.5z"/>
	<path class="st1" d="M197.3,25.1h2.5v-8.7c0-0.5-0.3-0.8-0.8-0.8h-1.7v-4.5h5.8c1.7,0,2.6,0.7,2.6,2.4v1c0,0.3,0,0.6,0,0.7
		c0,0.1,0,0.2,0,0.3h0.1c0.8-2.5,3.1-4.6,5.9-4.6c0.3,0,0.4,0,0.5,0c0.1,0,0.2,0,0.2,0V17l-0.4-0.1c-0.3,0-0.5,0-0.9,0
		c-3.4,0-5.1,2.1-5.1,5.6v2.7h2.5v4.5h-11.2V25.1z"/>
	<path class="st1" d="M216.1,15.6h-2.5v-4.5h2.7v-5h6v5h3.9v4.5h-3.9v6.5c0,2.2,2.1,2.5,3.3,2.5c0.3,0,0.5,0,0.6,0h0.2v5l-0.5,0.1
		c-0.3,0-0.7,0-1.2,0c-3,0-8.6-0.8-8.6-7V15.6z"/>
	<path class="st1" d="M229,25.1h2.3v-8.7c0-0.5-0.3-0.8-0.8-0.8h-1.7v-4.5h5.9c1.7,0,2.5,0.8,2.5,2.1v0.6v0.3c0,0,0,0.1,0,0.1h0.1
		c0.3-0.7,0.8-1.3,1.4-1.8c1-0.9,2.5-1.8,4.9-1.8c3.5,0,6.2,1.8,6.2,6.9v7.5h2.3v4.5h-8.5V18.7c0-1.7-0.7-2.4-2.1-2.4
		c-2.8,0-4,2.9-4,5.4v3.3h2.3v4.5H229V25.1z"/>
	<path class="st1" d="M263.4,10.7c5.5,0,8.6,3.8,8.6,8.9c0,0.3,0,0.8-0.1,1.1l-0.1,0.7h-11.7c0.5,2.4,2.3,3.4,4.3,3.4
		c1.4,0,2.7-0.5,3.6-0.9c0.6-0.3,1.1-0.5,1.6-0.9l2.3,4.3c-0.6,0.5-1.3,0.9-2.1,1.3c-1.4,0.7-3.3,1.3-5.8,1.3
		c-6.6,0-10.1-4.8-10.1-9.7C253.8,14.9,257.4,10.7,263.4,10.7z M265.6,18.1c0-1.5-0.9-2.7-2.3-2.7c-1.8,0-2.7,1.3-3,2.7H265.6z"/>
	<path class="st1" d="M274.4,25.1h2.5v-8.7c0-0.5-0.3-0.8-0.8-0.8h-1.7v-4.5h5.8c1.7,0,2.6,0.7,2.6,2.4v1c0,0.3,0,0.6,0,0.7
		c0,0.1,0,0.2,0,0.3h0.1c0.8-2.5,3.1-4.6,5.9-4.6c0.3,0,0.4,0,0.5,0c0.1,0,0.2,0,0.2,0V17l-0.4-0.1c-0.3,0-0.5,0-0.9,0
		c-3.4,0-5.1,2.1-5.1,5.6v2.7h2.5v4.5h-11.2V25.1z"/>
</g>
</svg>
