<?xml version="1.0" encoding="utf-8"?>
<!-- Generator: Adobe Illustrator 19.1.0, SVG Export Plug-In . SVG Version: 6.00 Build 0)  -->
<svg version="1.1" id="Calque_1" xmlns="http://www.w3.org/2000/svg" xmlns:xlink="http://www.w3.org/1999/xlink" x="0px" y="0px"
	 viewBox="11 40 271.7 171" style="enable-background:new 11 40 271.7 171;" xml:space="preserve">
<style type="text/css">
	.st0{fill:#2D3E50;}
	.st1{fill:#4CBDA8;}
</style>
<g>
	<path class="st0" d="M105.3,101.4c-12.3,0-19.1-5.7-20.3-17.1h8c0.4,3.7,1.5,6.3,3.2,7.7c1.8,1.5,4.7,2.2,8.7,2.2
		c4.7,0,7.9-0.8,9.6-2.3s2.6-4.4,2.6-8.4V44.8h8v39.1c0,5.7-1.7,10.1-5.1,13.1C116.5,99.9,111.6,101.4,105.3,101.4z"/>
	<path class="st0" d="M137.6,83.8c0.9,7.3,5.8,10.9,14.6,10.9c7.2,0,12-3,14.5-9h8.2c-2.3,6.7-5.6,11.1-9.9,13.2
		c-3.7,1.9-8,2.8-13,2.8c-7.4,0-13-2-16.9-5.9c-3.8-3.7-5.6-8.7-5.6-15.1c0-6.1,2.1-11.2,6.2-15.2c4.1-4,9.7-6,16.8-6
		c6.9,0,12.4,1.8,16.6,5.4c4.2,3.6,6.3,8.4,6.3,14.4v4.5L137.6,83.8z M163,70.1c-2.5-2.4-6.1-3.6-10.6-3.6s-8.1,1.2-10.7,3.6
		c-2,1.8-3.3,4.1-3.9,6.7h28.9C166.2,74.1,165,71.9,163,70.1z"/>
	<path class="st0" d="M216.8,97.1v3.8h8V59.6h-8V64c-3.9-3-8.8-4.5-14.7-4.5c-7.1,0-12.7,2.1-16.9,6.2c-3.9,3.9-5.8,8.9-5.8,15
		c0,6,1.9,10.9,5.7,14.8c4.1,4.1,9.6,6.2,16.6,6.2C207.9,101.7,212.9,100.2,216.8,97.1z M190.9,90.7c-2.4-2.5-3.6-5.8-3.6-9.9
		s1.2-7.5,3.6-10.1c2.6-2.8,6.2-4.1,10.7-4.1c4.9,0,8.7,1.3,11.3,3.8s3.9,6,3.9,10.4c0,4-1.4,7.4-4.1,10c-2.7,2.6-6.4,4-11,4
		C197.1,94.7,193.5,93.4,190.9,90.7z"/>
	<path class="st0" d="M240.9,63v-2.7h-8v40.5h0.6l7.4-18.7v-3.8c0-3.5,1.1-6.4,3.4-8.6c0.6-0.6,1.3-1.1,2-1.5l3.4-8.5
		C246.3,60.3,243.3,61.3,240.9,63z"/>
</g>
<g>
	<path class="st0" d="M69.9,180.1H45.8v-7.3h31.7c0.3,2.9,0.5,4.9,0.5,6c0,7.7-3.1,13.7-9.2,18c-5.5,3.9-12.3,5.8-20.3,5.8
		c-9.9,0-17.7-2.4-23.6-7.3c-6.1-5-9.2-12.1-9.2-21.2c0-8.8,2.9-15.8,8.8-21s13.7-7.8,23.4-7.8c7.3,0,13.3,1.4,18.2,4.1
		c5.7,3.2,9.6,9.2,11.5,17.9h-8.1c-1.3-5.2-3.6-9-7-11.4c-3.4-2.3-8.2-3.5-14.5-3.5c-7.6,0-13.6,1.9-17.9,5.7
		c-4.3,3.8-6.4,9.1-6.4,15.8c0,6.8,2.2,12.1,6.5,15.8s10.4,5.5,18.3,5.5c6,0,11-1.4,15.2-4.2C67.8,188.4,69.9,184.7,69.9,180.1z"/>
	<path class="st0" d="M116.8,202.3v-2.8c-3.5,2.4-7.9,3.6-13,3.6c-5.6,0-10.2-1.3-13.5-3.8c-3.7-2.8-5.5-6.7-5.5-11.7v-25.7h8v25.6
		c0,5.7,3.7,8.6,11,8.6c8.7,0,13-4.2,13-12.5v-21.8h8v40.5C124.8,202.3,116.8,202.3,116.8,202.3z"/>
	<path class="st0" d="M137.8,185.1c0.9,7.3,5.8,10.9,14.6,10.9c7.2,0,12-3,14.5-9h8.2c-2.3,6.7-5.6,11.1-9.9,13.2
		c-3.7,1.9-8,2.8-13,2.8c-7.4,0-13-2-16.9-5.9c-3.8-3.7-5.6-8.7-5.6-15.1c0-6.1,2.1-11.2,6.2-15.2c4.1-4,9.7-6,16.8-6
		c6.9,0,12.4,1.8,16.6,5.4c4.2,3.6,6.3,8.4,6.3,14.4v4.5H137.8z M163.3,171.3c-2.5-2.4-6.1-3.6-10.6-3.6s-8.1,1.2-10.7,3.6
		c-2,1.8-3.3,4-3.9,6.7H167C166.5,175.4,165.3,173.1,163.3,171.3z"/>
	<path class="st0" d="M201.2,160.7c-5.2,0-9.5,1.2-13,3.6v-2.7h-8v40.5h8v-22.5c0-3.5,1.1-6.4,3.4-8.6c2.3-2.2,5.5-3.3,9.7-3.3
		c2,0,3.7,0.2,5.1,0.6l2.6-6.6C206.7,161.1,204.1,160.7,201.2,160.7z"/>
</g>
<g>
	<g>
		<path class="st0" d="M135,152.3v-34l-18.5,34h-4.9l-18.6-34v34h-6.9V104h6.7l21.1,38.8l21.2-38.8h6.7v48.3H135z"/>
		<path class="st0" d="M186,152.4v-35.5h-6.9v3.7c-3.4-2.6-7.6-3.8-12.7-3.8c-6.1,0-10.9,1.8-14.5,5.3c-3.3,3.3-5,7.6-5,13
			c0,5.2,1.6,9.4,4.9,12.7c3.5,3.6,8.3,5.3,14.3,5.3c5.3,0,9.6-1.3,12.9-4v3.3H186L186,152.4z M175.6,143.6
			c-2.4,2.3-5.5,3.4-9.5,3.4s-7-1.2-9.2-3.5c-2-2.1-3.1-5-3.1-8.5c0-3.6,1-6.5,3.1-8.7c2.2-2.4,5.3-3.6,9.2-3.6
			c4.2,0,7.5,1.1,9.7,3.3s3.3,5.2,3.3,9C179.1,138.5,177.9,141.4,175.6,143.6z"/>
		<path class="st0" d="M200.6,138c0-4.4,0.9-7.9,2.9-10.6c2.1-3.1,6.3-4.6,12.4-4.6v-6c-6.8,0-11.8,1.3-15.2,3.9v-3.2h-6.9v34.9h6.9
			L200.6,138L200.6,138z"/>
		<polygon class="st0" points="220.7,128.9 225.7,116.1 220.7,116.1 		"/>
	</g>
</g>
<g>
	<g>
		<polygon class="st1" points="241.8,101 244.8,101 244.8,88.6 241.8,96.2 		"/>
		<path class="st1" d="M271.9,63.1c-2.9-2.3-6.8-3.5-11.6-3.5c-1.5,0-2.9,0.1-4.3,0.4l-1.3,3.2c1.7-0.5,3.5-0.8,5.6-0.8
			c4.1,0,7.4,1,9.8,3.1c2.4,2.1,3.7,5.1,3.7,9V101h3V73.6C276.8,69.1,275.2,65.6,271.9,63.1z"/>
	</g>
	<g>
		<path class="st1" d="M219.7,164.2c-1.2-0.9-2.5-1.6-3.9-2.2l-1,2.6c1.2,0.5,2.3,1.1,3.2,1.9c2.4,2.1,3.7,5.1,3.7,9V202h3v-27.4
			C224.6,170.2,223,166.7,219.7,164.2z"/>
		<path class="st1" d="M271.1,166.5c-3.8-3.9-8.8-5.8-15.2-5.8c-6.4,0-11.5,1.9-15.2,5.8c-3.8,3.9-5.7,9-5.7,15.4
			c0,6.3,1.8,11.3,5.5,15.1c3.8,4,8.9,6,15.3,6c6.4,0,11.5-1.9,15.3-5.8c3.8-3.9,5.7-9,5.7-15.3
			C276.7,175.5,274.8,170.4,271.1,166.5z M268.9,195.2c-3.2,3.4-7.6,5-13.1,5s-9.8-1.7-13-5c-3.2-3.4-4.8-7.8-4.8-13.3
			c0-5.6,1.6-10,4.8-13.4s7.5-5,13.1-5s10,1.7,13.2,5s4.8,7.8,4.8,13.4C273.7,187.4,272.1,191.9,268.9,195.2z"/>
	</g>
	<g>
		<g>
			<polygon class="st1" points="229.8,123.5 229.8,152.3 232.4,152.3 232.4,117.3 232.2,117.3 			"/>
			<path class="st1" d="M276.7,133.7c0-5.2-1.6-9.4-4.8-12.4c-3.2-3-7.5-4.6-12.8-4.6c-5.4,0-9.7,1.7-12.8,5.1
				c-3.2,3.4-4.8,7.8-4.8,13.2c0,5.6,1.4,10,4.1,13.1c3,3.3,7.4,5,13.1,5c4,0,7.4-0.8,10.2-2.4c3.1-1.8,5.3-4.7,6.6-8.6h-2.6
				c-1.1,2.9-2.9,5-5.4,6.5s-5.4,2.2-8.6,2.2c-9.6,0-14.6-5-14.9-15l32.7-0.1L276.7,133.7L276.7,133.7z M244,133.4
				c0.3-4.4,1.8-7.8,4.5-10.4s6.2-3.9,10.6-3.9c4.4,0,7.9,1.3,10.5,3.9s4,6.1,4.1,10.4H244z"/>
		</g>
	</g>
</g>
<circle class="st0" cx="223.2" cy="108.7" r="3.9"/>
</svg>
