<?xml version="1.0" encoding="utf-8"?>
<!-- Generator: Adobe Illustrator 15.0.0, SVG Export Plug-In . SVG Version: 6.00 Build 0)  -->
<!DOCTYPE svg PUBLIC "-//W3C//DTD SVG 1.1//EN" "http://www.w3.org/Graphics/SVG/1.1/DTD/svg11.dtd">
<svg version="1.1" id="Calque_1" xmlns="http://www.w3.org/2000/svg" xmlns:xlink="http://www.w3.org/1999/xlink" x="0px" y="0px"
	 width="255.12px" height="340.16px" viewBox="0 0 255.12 340.16" enable-background="new 0 0 255.12 340.16" xml:space="preserve">
<g>
	<path fill="#575756" d="M241.663,189.693c0,0.005-0.003,0.005-0.003,0.005c-19.83,36.635-58.602,61.518-103.178,61.518
		c-64.751,0-117.243-52.493-117.243-117.241c0-64.747,52.491-117.242,117.243-117.242c15.618,0,30.525,3.063,44.161,8.613
		c-0.667-0.939-1.904-2.238-4.239-3.532c-4.455-2.474-14.876-4.529-14.876-4.529s-1.586-0.115-3.934-3.884
		c-1.665-2.694-6.927-2.971-8.905-3.464c-1.981-0.495-5.447-2.475-6.927-3.96c-1.483-1.483-5.947-4.453-10.39-3.465
		c-4.459,0.989-10.987,3.96-13.414,4.455c-2.427,0.495-7.874,0-11.336,0c-3.467,0-4.32,3.887-9.901,3.958
		c-2.477,0.033-13.859-0.495-17.32,0.497c-3.467,0.987-4.456,4.949-7.425,5.938c-2.971,0.991-10.668,3.324-12.869,4.454
		c-3.801,1.954-1.467,10.028-5.44,12.375c-1.912,1.126-21.234,10.43-33.164,31.182c-2.966,4.453-2.189,9.596-3.463,11.38
		c-1.589,2.216-34.183,50.909-4.95,109.875c1.406,2.842,5.889,11.245,6.803,16.607c0.831,4.904,7.95,18.464,12.995,22.491
		c6.193,4.938,9.273,4.736,13.376,9.919c3.161,4.001,10.873,14.829,21.762,15.821c10.886,0.992,19.654,1.375,23.51,3.953
		c3.909,2.626,9.152,2.97,12.125,2.97c2.969,0,10.797-0.466,15.296,3.723c4.498,4.194,11.425,3.706,13.414,3.208
		c1.971-0.494,23.576-1.608,27.219-3.208c2.54-1.107,5.538-4.099,11.105-3.686c3.987,0.298,7.205-1.026,11.662-4.486
		c4.45-3.466,8.909-5.454,11.875-5.454c2.971,0,9.891-3.456,13.857-7.414c3.959-3.963,12.375-19.312,15.841-13.366
		c1.746,4.021,3.465-1.979,4.449-4.952c0.992-2.969,13.459-23.159,14.325-25.367C248.111,186.261,250.577,182.276,241.663,189.693z"
		/>
	<path fill="#575756" d="M46.153,251.356c0,0-4.304-5.854,1.892-2.759c3.631,1.82,11.109,7.574,15.89,8.553
		c12.324,2.515,11.886,4.067,9.228,6.418C70.238,266.146,65.076,269.077,46.153,251.356z"/>
	<path fill="#575756" d="M211.04,34.194c0,0,1.01-1.29,3.629,0c2.319,1.139,25.776,17.807,17.496,22.023
		c-8.274,4.223-13.567-11.546-13.873-13.109c-0.315-1.564-1.419-3.391-3.313-4.725C213.699,37.476,208.038,36.535,211.04,34.194z"/>
	<path fill="#575756" d="M190.543,23.693c0,0-4.216-4.589-1.879-4.376c2.198,0.204,2.533,1.763,4.999,2.179
		c1.878,0.318,3.865,2.621,1.874,3.134C194.049,25.017,191.649,25.245,190.543,23.693z"/>
	<g>
		<path fill="#DEDC00" d="M132.062,38.618c0,0-20.635,9.729-3.32,41.306c23.406,42.69,80.13,32.316,103.989,63.83
			c4.104-11.323,12.902-31.786-4.13-64.17c-5.488-2.748-14.063-3.776-17.501-4.121c3.778,6.523,17.164,31.917,16.816,49.762
			c-3.089-6.523-14.76-33.972-19.907-39.805c-2.738,4.116-7.201,5.143-11.318,29.167c-2.058-8.922-1.715-19.216,5.829-34.662
			c-1.025-4.117-22.989-23.333-27.793-26.078c-3.431,3.775-12.358,14.413-15.096,43.238c-2.405-10.296-4.093-26.692,7.201-47.015
			C163.403,48.013,142.962,34.962,132.062,38.618z"/>
		<path fill="#DEDC00" d="M207.324,70.861c0,0,12.003,0.568,19.909,4.946c-5.228-5.367-16.521-16.24-22.735-19.769
			c-4.738-1.22-10.265-2.025-13.983-1.413C195.177,58.297,207.324,70.861,207.324,70.861z"/>
		<path fill="#DEDC00" d="M161.687,37.492c0,0,20.012-0.124,40.15,15.163c-5.263-1.86-15.569-2.975-19.647-3.595
			C177.906,46.375,163.647,38.42,161.687,37.492z"/>
	</g>
	<path fill="#575756" d="M218.366,142.103c-19.833-12.789-51.525-6.475-89.165-41.176c-32.817-30.249-13.456-69.464-24.53-68.249
		C83.07,39.877,67.64,52.137,56.741,65.95c2.347,0.641,38.473,11.075,40.444,48.354c0,0-0.693,10.859,7.176,8.221
		c6.595-2.221,9.917-5.855,9.917-5.855s0.417,1.99-8.372,9.147c-2.438,1.987-5.331,7.394,7.723,12.441
		c7.029,2.713,12.117,3.877,10.663,7.732c-1.355,3.604-13.533,5.067-8.394,10.255c3.898,3.189,8.151,4.057,6.501,7.198
		c-1.355,2.581-3.87,5.001-1.245,6.554c2.122,1.258,5.306,3.115,3.791,6.064c-1.909,3.707-11.245,3.937-7.222,10.293
		c3.982,6.31,8.41,23.47-16.228,22.742c-16.462-0.482-18.723,8.465-19.727,13.194c16.273,10.299,35.55,16.286,56.236,16.286
		C196.159,238.577,259.439,168.601,218.366,142.103z"/>
	<path fill="#575756" d="M248.187,116.224c0,0,3.936,12.044,3.388,15.901c-0.558,3.855-2.069,4.956,0.063,10.192
		c2.135,5.23-1.271,11.565-1.271,11.565s-1.276-4.131-3.482-4.404c-2.199-0.279-2.475,3.851-2.48,4.404
		c-0.001,1.93-3.029,5.506-3.302,0C240.828,148.376,248.187,131.963,248.187,116.224z"/>
</g>
<g>
	<path fill="#575756" d="M64.457,276.966c9.289,0.055,16.521,2.669,21.698,7.844c5.659,5.713,8.488,12.574,8.488,20.579
		c0,8.06-2.829,14.936-8.488,20.62c-5.177,5.179-12.409,7.792-21.698,7.846h-11.37v-56.889H64.457z M58.731,282.69v45.437h5.685
		c7.445,0,13.304-2.055,17.576-6.16c4.564-4.566,6.844-10.093,6.844-16.578c0-6.459-2.28-11.98-6.844-16.571
		c-4.271-4.085-10.131-6.127-17.576-6.127H58.731z"/>
	<path fill="#575756" d="M105.729,276.966v56.889h-5.644v-56.889H105.729z"/>
	<path fill="#575756" d="M126.944,323.646l12.37-30.745h5.13l12.365,30.663l12.491-46.598h5.844l-15.252,56.889h-4.961
		l-13.01-32.229l-13.013,32.229h-5.006l-15.214-56.889h5.807L126.944,323.646z"/>
	<path fill="#575756" d="M196.686,276.966l20.657,56.889h-5.969l-8.682-23.902h-16.977l-8.847,23.902h-6.005l20.892-56.889H196.686z
		 M200.649,304.349l-6.446-17.773l-6.446,17.773H200.649z"/>
</g>
</svg>
