<?xml version="1.0" encoding="utf-8"?>
<!-- Generator: Adobe Illustrator 15.0.0, SVG Export Plug-In . SVG Version: 6.00 Build 0)  -->
<!DOCTYPE svg PUBLIC "-//W3C//DTD SVG 1.1//EN" "http://www.w3.org/Graphics/SVG/1.1/DTD/svg11.dtd">
<svg version="1.1" id="Calque_1" xmlns="http://www.w3.org/2000/svg" xmlns:xlink="http://www.w3.org/1999/xlink" x="0px" y="0px"
	 width="226.77px" height="311.81px" viewBox="0 0 226.77 311.81" enable-background="new 0 0 226.77 311.81" xml:space="preserve">
<g>
	<path fill="#3C3C3B" d="M152.839,68.596c0,0-4.842-0.138-4.706-4.428c0.97-1.242,5.259-1.935,6.78-1.935
		c1.523,0,9.547,1.108,9.547,1.108s1.106,0.969,2.488,2.767c1.386,1.798,1.938,2.489,1.938,2.489s0.14,0.556-3.182,1.11
		c-3.321,0.552-6.502,0-6.502,0s-0.832-1.248,0.967-1.248c1.104-0.831,1.104-0.831,1.104-0.831l-5.532,0.142L152.839,68.596z"/>
	<path fill="#3C3C3B" d="M210.113,118.495c0,0-8.298-2.397-2.58-5.351c2.58-0.735,4.608,1.292,4.244,3.876
		c-0.371,2.583,0.04,8.3,0.04,8.3h-1.704V118.495z"/>
	<path fill="#3C3C3B" d="M57.516,157.97c0,0,0.553,5.534,2.212,4.149c1.66-1.384,0.97-6.5,0-6.916
		c-0.967-0.416-2.212,2.214-2.212,2.214"/>
	<path fill="#3C3C3B" d="M180.232,195.603c0,0-0.972,5.258,0.967,3.318c1.939-1.937,4.842-8.854,5.535-10.788
		C184.938,192.445,180.406,194.35,180.232,195.603z"/>
	<path fill="#3C3C3B" d="M153.806,165.025c0,0-1.384,4.427,2.35,5.397c3.74,0.969,8.165,4.566,8.165,4.566h1.246v-7.888
		c0,0-1.52-5.672-3.184-7.057c-1.659-1.38-2.821-4.076-2.821-4.076v2c0,0-1.164,1.521,0,2.766c1.162,1.246,2.686,2.769,2.686,4.015
		c0,1.244,0.552,2.903,0,3.181c-0.554,0.278-1.496,0.553-2.686,0.137c-1.191-0.414-3.82-1.584-3.82-2.59
		c0-1.008-2.259-2.401-2.188-1.008"/>
	<path fill="#3C3C3B" d="M154.776,155.162h0.965c0,0,0.969-1.064-0.965-2.311C152.839,151.606,152.562,152.487,154.776,155.162z"/>
	<path fill="#3C3C3B" d="M148.133,151.606h3.044c0,0-1.385-3.735-3.044-4.151C146.474,147.041,146.612,148.703,148.133,151.606z"/>
	<path fill="#3C3C3B" d="M132.087,152.296c0,0-3.32-3.441,8.715-4.901c2.764-0.216,4.15-0.216-1.247-2.152
		c-5.393-1.936-6.925-2.488-7.889-3.457c-0.965-0.973-2.072,0.275-2.209,0.827c-0.14,0.556,1.244,0.967,0,2.213
		c-1.245,1.247-4.563,3.46-0.971,3.876C132.087,149.117,132.087,152.296,132.087,152.296z"/>
	<path fill="#3C3C3B" d="M56.409,148.703h2.715c0,0-0.277,3.319-1.357,4.149l-0.25-2.077
		C57.516,150.775,55.024,150.086,56.409,148.703z"/>
	<path fill="#3C3C3B" d="M199.047,57.804c-0.187-0.553-9.594-15.86-20.845-29.145C156.251,3.573,134.301,0.254,114.194,2.282
		C71.581,8.367,55.533,59.648,53.133,69.427c-2.396,9.778,1.062,33.619,1.338,35.833s1.798,4.288,1.798,4.288
		s-2.906,0.278-5.672,0.141c-2.768-0.141-3.044,5.256-3.458,14.941c0.967,33.066,3.873,28.085,5.257,28.36
		c1.383,0.278,1.523-4.15,1.523-4.15l-0.97-0.416l0.829-0.968l1.245-0.136l0.617-0.694c0,0,0.905,0.416,2.151,0.694
		c1.245,0.273,1.8-1.246,1.8-1.246s0.135-1.663-1.663-6.78s-0.829-8.298-0.276-9.823c0.553-1.521,0.553-2.214,0.553-2.904
		c0-0.695-0.97-1.662-0.97-1.662s-2.074-5.808-4.012-9.684c-1.935-3.875,3.876,2.768,4.844,6.086c0.968,3.323,1.524,2.63,1.524,2.63
		s-0.141-5.396,0.135-5.948c0.277-0.552,0.831-3.182,0.831-3.735c0-0.552-0.69-0.972-0.69-0.972s-0.141-1.521-0.832-3.179
		c-0.692-1.66-1.8-2.767-1.521-4.15c0.276-1.383,2.905-2.076,2.905-2.076s-0.417-3.184-1.661-5.26
		c-1.245-2.073-0.275-2.351,1.244-4.287c1.524-1.937,1.662-3.734,1.383-4.703c-0.275-0.971-2.903,2.353-3.734,3.183
		c-0.831,0.827-2.012-0.831-2.012-0.831l-0.617-5.119l-0.829-1.798c0,0,0.139-0.972,0.276-5.953
		c2.629-7.192,3.044-2.073,2.629,0.972c-0.416,3.041,0.415,6.085,0.415,6.085h0.969l1.243-4.013c0,0,2.537-0.461,3.09-1.199
		c0.553-0.735-0.646-1.014-2.673-3.963c-2.03-2.954,5.165-2.032,6.087-2.032s0.922-5.533,0.922-6.824c0-1.292-2.767-2.58-2.767-2.58
		V64.63l4.98-0.923c0,0-3.506-5.53-4.798-6.456c-1.29-0.922-0.182-1.657-0.182-1.657l5.534-0.187c0,0,0.185-1.105,0.922-4.058
		c6.64-5.351,6.64,7.377,6.087,8.487c-0.555,1.108-1.66,3.505-1.292,5.162c0.372,1.663,1.662,4.429,1.107,6.826
		c-0.552,2.401-4.981,8.67-4.981,8.67l0.369,10.33l-2.397,5.168c0,0-0.186,13.464,0.185,15.86c0.369,2.4,3.135,4.057,2.58,6.272
		c-0.551,2.214-2.027,16.973-2.027,16.973s1.291,12.545,2.215,14.942c0.919,2.397,1.842,4.98,1.472,5.902
		c-0.368,0.923-0.277,4.52-0.277,6.548c0,2.025,1.848,5.074,3.046,5.44c1.198,0.37,1.198,0.188,1.384,1.383
		c0.185,1.201-1.984,1.523-1.984,1.523s-0.136,4.566,0.416,6.64c0.555,2.077,7.332,1.799,8.023,1.109
		c0.693-0.694-0.276-3.183-1.105-3.597c-0.832-0.417-1.387-0.973-2.63-2.077c-1.245-1.104-0.275-2.215-0.275-2.215l0.967-0.415
		l-0.137-0.69l-0.969-0.694l-0.969-0.55v-0.832c0,0,1.107-0.414,0.691-1.104c-0.415-0.692-1.798-1.941-1.937-2.907
		c-0.139-0.97,2.907-10.236,4.567-13.418c1.659-3.183,5.117-1.524,8.578,0c3.458,1.52,2.766,5.948,2.627,6.779
		c-0.139,0.831-1.523,5.117-2.075,6.365c-0.553,1.24-1.383,4.701-1.383,4.701s0,9.961,0.275,12.454
		c0.276,2.49,0.691,2.905,0.967,3.596c0.276,0.692,2.629,8.164,3.322,12.315c3.46,22.826-7.333,7.055-8.854,5.811
		c-1.522-1.246-8.578-12.592-11.208-16.329c-2.628-3.735-4.979-9.546-5.949-11.621c-0.968-2.073-0.968-2.906-1.796-2.215
		c0.552,6.781,5.117,14.256,8.299,19.372c3.184,5.118,0.138,1.658-1.522,0.14c-1.66-1.523-1.522-0.418-2.075,1.108
		c-0.552,1.52,1.661,30.708,1.661,30.708c0.277,4.29,5.12,26.29,5.256,27.81c0.14,1.524-0.968,1.524-2.767,0.692
		c-0.829-3.041-3.043-9.13-5.117-11.344c-4.842-4.15-4.705-5.671-4.705-5.671s1.939-5.538,2.906-6.644
		c0.969-1.108,1.107-1.108,0.692-2.076c-1.659,0.557-16.05,8.854-16.881,9.684c-0.828,0.832-8.991,5.121-11.066,6.091
		c-2.074,0.967-26.84,13.007-26.84,13.007v55.337c0,0,138.903,0,144.806,0c-0.367-4.609-9.037-20.291-11.437-22.318
		c-2.4-2.032-9.774-9.414-9.774-9.414l-5.354-2.948c0,0-1.473-4.605-2.578-6.639c-1.109-2.032-0.693-4.199,0-5.306
		c0.69-1.109,2.073-0.966,2.765-2.629c0.274-3.045-2.074-5.533-3.181-6.083c-1.108-0.556-1.248-6.365-1.248-7.06
		c0-0.691,0.417-1.937-1.52-3.318c-1.937-1.384-0.692-1.799-0.692-1.799s3.876,0,8.991-0.138c6.501-1.938,5.811-2.492,5.811-2.492
		s-4.702-0.83-5.946-0.967c-1.246-0.144-4.289-1.938-5.396-2.768c-1.108-0.831,0.597-2.305,1.151-2.494
		c0.555-0.18,11.993-2.395,14.941-3.316c4.429-0.553,9.778-5.534,9.778-5.534l7.748-8.486c0,0,2.028-1.661,4.614-2.583
		c2.578-0.923,3.5-2.028,3.5-2.028s0.184-1.106,1.662-3.137c6.918-3.319,0.184-3.41-0.832-3.41c-1.011,0-3.226,0.922-4.979,2.491
		s-4.247,2.77-5.075,3.411c-0.828,0.645-2.67,1.202-3.779,1.107c-1.106-0.094-1.938-0.368-2.676,0.185
		c-0.736,0.553-2.86,2.859-2.86,2.859s-2.583,2.214-5.993,5.072c-7.381,4.147,5.993-6.827,7.653-9.315
		c1.661-2.491,0.371-1.75,0.371-1.75s-1.755,0.459-2.215,0.55c-0.465,0.094-2.212,0.37-3.413,1.937
		c-1.196,1.57-1.66,1.478-2.03,1.293c-0.366-0.185-0.829-2.121-0.921-4.704c-0.091-2.586-1.109-0.645-1.568-0.09
		c-0.461,0.552-0.738-1.019-1.291-3.506c-0.555-2.494-1.755-0.923-1.755-0.923l0.28,1.749c0,0,1.015,0.83-0.368,3.694
		c-1.385,2.855-1.476,2.668-1.938,1.106c0.462-3.043,0.833-6.271,0.833-6.271l-1.112-0.278l-0.092-1.019
		c0,0-0.826,0.096-1.196,0.096c-0.373,0-1.014-0.463-1.014-2.122c0-1.66-1.478-0.186-1.478-0.186s-0.553,2.308-1.198,3.23
		c-0.646,0.923-1.569-0.741-1.569-0.741l0.093-3.778l-0.829,0.277l-1.293,3.871l-1.845,0.371c0,0-0.555,1.291-1.66,0.733
		c-0.184-2.578,0.925-7.007,0.925-7.007v-1.479l-1.664,0.187l-4.24,3.691c0,0-0.369-4.794-0.369-6.827
		c0-2.027,1.195-8.116,1.195-8.116s17.989-1.521,21.585-1.662c2.489-0.826,2.214-1.799,1.938-2.907
		c-3.043,0-17.017-2.21-24.625-3.178c-8.58-2.49-7.613-3.876-8.026-6.364c-0.69-3.875,20.752-4.982,27.809-4.843
		c7.053,0.135,7.608,0.691,7.333-0.689c-0.28-1.386-10.794-4.292-11.76-4.709c-0.97-0.415-4.292,0.554-8.024-2.487
		c-3.735-3.045-3.183-3.186-3.183-3.186s-3.458-0.964-8.025-1.38c-7.886-0.556,0.554-3.323,2.906-4.565
		c2.352-1.246,1.382-2.629,1.382-2.629s0,0-2.489-3.182c-3.457-6.089,2.906-8.025,2.906-8.025s1.383,1.246,2.213,0.552
		c0.83-0.691,7.613-5.67,7.613-5.67l0.272-1.861l0.969,0.615c0,0,0,0,0.968,0.553c3.875,0.415,11.347,6.642,11.347,6.642h1.936
		c0,0,0.274-5.26,0-7.058c-0.275-1.798-2.352-3.32-2.352-3.32l-9.546,0.416c0,0-1.522,0.277-4.009,0.137
		c-2.495-0.137-7.198-2.441-10.148-3.917c-2.953-1.475-7.563-4.98-7.563-4.98s0,0-0.185-2.031c0.737-1.844,1.845-5.902,1.845-5.902
		s4.797-13.651,5.349-17.893c0.555-4.241-3.688-9.778-3.688-9.778s-3.182-3.091-6.64-4.333c-3.46-1.245-0.277-9.13-0.277-9.13
		l1.799-0.695c0,0,0,0-1.246-1.52c-1.939-0.83-11.071-3.738-16.187-4.15c-5.121-0.414-3.458-2.629-2.077-12.59
		c1.383-9.962,11.205-24.073,11.205-24.073l-0.783-0.877c0,0-2.582,1.663-4.244,2.214c-1.659,0.553-1.843,0.37-2.212-1.475
		c13.465-12.174,38.183-9.408,42.242-9.408s0.926,1.475,0.556,2.949c28.962,0.922,39.429,22.091,42.472,26.656
		c3.046,4.565,4.149,12.176,4.566,13.695c0.413,1.525,0.689,5.676,2.352,12.177c3.319,12.038,5.115,8.993,5.811,8.162
		c3.319-5.117,3.044,4.013,2.905,4.566c-0.139,0.552-0.97,4.981-2.076,5.118c-1.106,0.141-1.524-2.626-2.214-5.534
		c-0.69-2.904-1.106-3.182-1.244-2.213c-0.141,0.966,3.044,15.634,3.044,15.634s0,0,0.83,7.149
		c2.029,18.813,5.903-1.292,5.903-1.292s0-30.992,0-32.284C203.29,69.245,199.233,58.36,199.047,57.804z M90.416,97.791
		c0,0-4.401-1.11-3.155-2.215c1.244-1.108,3.155,0,3.155,0S91.728,98.19,90.416,97.791z M95.55,88.656
		c-0.958,0-1.74,1.155-3.493,1.062c0,0-3.689-2.03,0-4.241c2.951-0.14,10.422,0,10.422,0s5.534,3.042,2.903,3.595
		c0,0-1.66,1.433-4.702,0.646C97.635,88.935,96.505,88.656,95.55,88.656z M98.255,93.363c-0.764,0-1.384-0.621-1.384-1.383
		c0-0.767,0.621-1.383,1.384-1.383c0.765,0,1.384,0.617,1.384,1.383C99.639,92.742,99.02,93.363,98.255,93.363z M106.094,95.977
		c-1.538,0.704-1.401,1.067-1.401,1.856c0,0.785,0.232,1.841-1.198,1.798c-1.431-0.042-1.431-0.042-1.431-0.042
		s-3.043,0.553-1.66-2.354c1.381-2.905,1.106-5.949,4.289-4.567C107.044,95.161,107.632,95.272,106.094,95.977z M93.532,74.038
		c3.136,0.187,11.808,7.011,14.022,9.779c0,0,0,0.552-3.875,0.552c-3.875,0-14.388,0.182-14.388,0.182l-3.318,1.662
		c0,0-4.613,0.74-1.109-7.376C87.63,74.407,90.396,73.854,93.532,74.038z"/>
	<path fill="#3C3C3B" d="M180.37,93.363c-3.183-1.521-6.363-1.769-6.363-1.769s-13.283-3.086-13.697-5.361
		c0.69-1.17,1.384-2.001,3.044-2.001s8.579,0.138,5.533-1.108c0,0-21.305-4.565-22.274,5.533c-0.273,4.981,2.765,7.057,4.427,8.441
		c1.662,1.383,5.671,4.979,14.527,3.734c0,0,1.106-0.464-3.873-1.201c-4.983-0.735-9.821-0.873-7.606-6.268
		c1.38-1.94,3.159-2.077,3.654,0.689c0.493,2.767,0.493,3.681,2.708,3.781c2.216,0.096,5.117,1.201,9.268-4.47
		c1.245-0.279,2.216,0.815,2.631,1.722c0.413,0.908,0.968,0.873,3.594,1.372c2.629,0.502,6.223,0,6.223,0
		S183.554,94.883,180.37,93.363z M165.429,93.363c-0.767,0-1.382-0.621-1.382-1.383c0-0.767,0.615-1.383,1.382-1.383
		c0.764,0,1.383,0.617,1.383,1.383C166.812,92.742,166.192,93.363,165.429,93.363z"/>
</g>
<g>
	<path fill="#F6F6F6" d="M36.448,269.558v-9.979h-6.32v43.242h6.32v-10.063h7.484v12.64c0,2.66-2.246,4.906-4.99,4.906H27.634
		c-2.661,0-4.989-2.246-4.989-4.906v-48.313c0-2.66,2.328-4.989,4.989-4.989h11.309c2.828,0,4.99,2.329,4.99,4.989v12.474H36.448z
		 M43.101,268.726v-11.393c0-2.494-1.83-4.407-4.407-4.407H27.966c-1.331,0-2.412,0.5-3.327,1.415l1.913,1.661
		c0.333-0.331,1.081-0.582,2.245-0.582h9.23c1.414,0,2.578,1.166,2.578,2.578v8.232L43.101,268.726z M26.802,303.651
		c0,1.331,1.165,2.494,2.495,2.494h8.481c0.583,0,0.915-0.249,1.331-0.665l-1.83-1.829h-7.983v-44.904l-1.996-1.996
		c-0.167,0.167-0.5,0.665-0.5,1.745V303.651z M37.28,293.589l3.326,3.327v7.4c0,1.414-0.499,1.829-0.666,1.996l1.913,1.913
		c0.665-0.666,1.247-1.664,1.247-3.078v-11.559H37.28z"/>
	<path fill="#F6F6F6" d="M56.901,252.095v50.726h6.32v-50.726h7.484v53.303c0,2.66-2.246,4.906-4.99,4.906H54.407
		c-2.661,0-4.989-2.246-4.989-4.906v-53.303H56.901z M53.575,303.651c0,1.331,1.165,2.494,2.495,2.494h8.481
		c0.583,0,0.915-0.249,1.331-0.665l-1.83-1.829H56.07v-50.726h-5.822l3.327,3.409V303.651z M64.053,252.926l3.326,3.327v48.063
		c0,1.414-0.499,1.829-0.666,1.996l1.913,1.913c0.665-0.666,1.247-1.664,1.247-3.078v-52.222H64.053z"/>
	<path fill="#F6F6F6" d="M77.356,252.095h7.483v50.726h8.815v7.483H77.356V252.095z M81.513,306.146h7.983l3.326,3.327v-5.821
		h-8.814v-50.726h-5.822l3.327,3.327V306.146z"/>
	<path fill="#F6F6F6" d="M98.642,259.578h-6.652v-7.483h20.789v7.483h-6.653v50.726h-7.483V259.578z M95.315,255.42h13.305
		l3.326,3.327v-5.821H92.821L95.315,255.42z M102.799,306.979l2.495,2.494v-50.726l-2.495-2.494V306.979z"/>
</g>
<g>
	<path fill="#F6F6F6" d="M125.241,261.455h-6.481v-6.409l2.952-2.951h3.529V261.455z M124.521,252.814H122v5.761l2.521,2.16V252.814
		z"/>
</g>
</svg>
