<?xml version="1.0" encoding="utf-8"?>
<!-- Generator: Adobe Illustrator 15.0.0, SVG Export Plug-In . SVG Version: 6.00 Build 0)  -->
<!DOCTYPE svg PUBLIC "-//W3C//DTD SVG 1.1//EN" "http://www.w3.org/Graphics/SVG/1.1/DTD/svg11.dtd">
<svg version="1.1" id="Calque_1" xmlns="http://www.w3.org/2000/svg" xmlns:xlink="http://www.w3.org/1999/xlink" x="0px" y="0px"
	 width="311.811px" height="425.199px" viewBox="0 0 311.811 425.199" enable-background="new 0 0 311.811 425.199"
	 xml:space="preserve">
<g>
	<g>
		
			<linearGradient id="SVGID_1_" gradientUnits="userSpaceOnUse" x1="197.2507" y1="-13.1604" x2="159.1008" y2="51.6627" gradientTransform="matrix(-0.7484 -0.1006 0.1239 -0.9222 250.6116 77.5097)">
			<stop  offset="0" style="stop-color:#187432"/>
			<stop  offset="1" style="stop-color:#92C136"/>
		</linearGradient>
		<path fill="url(#SVGID_1_)" d="M148.728,16.183c0,0-21.067-7.287-40.381,12.608c-17.978,18.521-6.229,38.262-6.229,38.262
			s7.197-23.701,20.642-36.583c0,0-11.271,10.722-19.612,39.344c0,0,21.912,9.666,28.564-19.592
			C138.359,20.968,143.389,18.556,148.728,16.183z"/>
		<path fill="#FFFFFF" d="M143.889,17.979c0,0-6.739,5.79-10.737,22.262c-2.724,11.27-5.237,32.797-25.319,29.71
			c0,0,15.452,2.219,21.335-20.563C133.465,32.732,136.171,23.25,143.889,17.979z"/>
		<path fill="#FFFFFF" d="M104.964,35.29c0,0-9.045,8.963-4.482,26.329C100.481,61.619,96.995,47.873,104.964,35.29z"/>
	</g>
	<g>
		
			<linearGradient id="SVGID_2_" gradientUnits="userSpaceOnUse" x1="177.8025" y1="0.1716" x2="124.5134" y2="90.7189" gradientTransform="matrix(0.9686 -0.2487 -0.2487 -0.9686 -76.2924 123.3494)">
			<stop  offset="0" style="stop-color:#187432"/>
			<stop  offset="1" style="stop-color:#92C136"/>
		</linearGradient>
		<path fill="url(#SVGID_2_)" d="M2.366,10.826c0,0,37.508-16.472,75.374,8.356c35.249,23.114,16.38,55.855,16.38,55.855
			S77.881,41.314,51.65,25.486c0,0,21.979,13.151,40.963,53.969c0,0-38.725,20.259-54.71-21.947S12.421,12.991,2.366,10.826z"/>
		<path fill="#FFFFFF" d="M11.444,12.252c0,0,13.061,6.937,22.508,30.633c6.465,16.222,13.879,47.896,50.127,37.997
			c0,0-27.916,7.388-41.655-25.3C32.392,31.688,26.219,18.155,11.444,12.252z"/>
		<path fill="#FFFFFF" d="M84.766,28.059c0,0,17.689,11.1,11.637,38.379C96.403,66.438,100.958,44.877,84.766,28.059z"/>
	</g>
</g>
<g opacity="0.9">
	<circle fill="none" stroke="#F39208" stroke-width="3" cx="155.728" cy="216.844" r="151.623"/>
	<circle fill="#FFFFFF" stroke="#F39208" stroke-width="16" cx="155.728" cy="216.844" r="139.434"/>
	<path fill="#F39208" d="M162.627,198.055c0,0-5.319,14.483,12.119,10.049c17.439-4.433,86.898-26.896,86.898-26.896
		s10.05-3.842,4.729-13.893c-5.076-9.59-18.325-37.24-60.888-61.478c-5.32-3.251-11.527-1.183-13.3,4.729
		C190.412,116.478,162.627,198.055,162.627,198.055z"/>
	<path fill="#F39208" d="M177.53,212.717c0,0-14.832,4.255-0.958,15.714c13.873,11.459,73.007,54.266,73.007,54.266
		s9.032,5.845,14.005-4.383c4.744-9.76,19.242-36.775,13.683-85.438c-0.518-6.213-5.85-10.001-11.667-7.944
		C259.779,186.989,177.53,212.717,177.53,212.717z"/>
	<path fill="#F39208" d="M171.955,228.998c0,0-11.36-10.437-13.907,7.377c-2.545,17.813-8.24,90.59-8.24,90.59
		s-0.277,10.756,11.043,9.666c10.802-1.039,41.416-2.754,80.04-32.871c5.031-3.68,5.483-10.207,0.693-14.099
		C236.794,285.769,171.955,228.998,171.955,228.998z"/>
	<path fill="#F39208" d="M144.982,200.105c0,0,9.197,12.389,15.048-4.629c5.85-17.015,25.131-87.424,25.131-87.424
		s2.296-10.511-9.027-11.57c-10.806-1.01-41.193-5.083-84.794,17.232c-5.635,2.667-7.307,8.993-3.334,13.716
		C91.977,132.153,144.982,200.105,144.982,200.105z"/>
	<path fill="#F39208" d="M136.322,217.598c0,0,15.415-0.67,4.606-15.055c-10.81-14.385-58.296-69.831-58.296-69.831
		s-7.417-7.795-14.642,0.987c-6.895,8.379-27.308,31.258-33.278,79.87c-0.95,6.162,3.351,11.094,9.488,10.453
		C50.338,223.383,136.322,217.598,136.322,217.598z"/>
	<path fill="#F39208" d="M150.465,233.673c0,0,7.507-13.479-10.408-11.812c-17.916,1.666-90.024,13.05-90.024,13.05
		s-10.525,2.23-6.833,12.985c3.522,10.266,12.309,39.643,50.582,70.203c4.75,4.04,11.204,2.961,13.875-2.602
		C110.326,309.936,150.465,233.673,150.465,233.673z"/>
</g>
<g>
	<g>
		<g>
			<path fill="#FED624" stroke="#1E1E1C" stroke-width="4" d="M157.492,250.116c-16.588-40.839-71.713,4.222-71.713,4.222
				c0.128,64.562,16.026,78.552,16.026,78.552c27.863,13.281,55.197,2.304,55.672,2.111v0.005c0,0,27.586,11.295,55.694-2.104
				c0,0,15.897-13.99,16.025-78.552C229.198,254.351,174.083,209.3,157.492,250.116z"/>
			<path fill="#FED624" d="M228.916,252.917c0,0-55.145-45.076-71.721-4.204v84.719"/>
			<path fill="#FED624" d="M155.779,333.719c0,0,1.866-0.483,3.544,0.063s-0.021-1.864-0.021-1.864L155.779,333.719z"/>
		</g>
		<path fill="#D89F29" stroke="#1E1E1C" stroke-width="4" d="M62.459,179.063c0,0,5.139-15.985,0.52-30.503
			c0,0-0.366-1.711,1.57-0.29c1.761,1.292,12.537,8.908,37.83,8.688C83.794,166.747,62.459,179.063,62.459,179.063z"/>
		<path fill="#D89F29" stroke="#1E1E1C" stroke-width="4" d="M83.897,242.186c0,0-15.117,53.133,2.01,76.714
			c0,0,34.956-17.521,21.032-75.055L83.897,242.186z"/>
		<path fill="#F7BD17" stroke="#1E1E1C" stroke-width="4" d="M108.537,353.915h34.71c0,0,5.465-0.813,2.653-4.538
			c-3.166-4.195-17.281-22.982-17.281-22.982s-3.026-4.048-6.199,0c-2.173,2.772-17.269,22.982-17.269,22.982
			S102.869,353.941,108.537,353.915z"/>
		<circle fill="#FFFFFF" cx="113.364" cy="195.349" r="8.502"/>
		<path fill="#D89F29" stroke="#1E1E1C" stroke-width="4" d="M252.79,179.063c0,0-5.137-15.985-0.516-30.503
			c0,0,0.364-1.711-1.572-0.29c-1.76,1.292-12.538,8.908-37.83,8.688C231.457,166.747,252.79,179.063,252.79,179.063z"/>
		<path fill="#D89F29" stroke="#1E1E1C" stroke-width="4" d="M231.354,242.186c0,0,15.117,53.133-2.01,76.714
			c0,0-34.956-17.521-21.031-75.055L231.354,242.186z"/>
		<path fill="#F7BD17" stroke="#1E1E1C" stroke-width="4" d="M206.714,353.915h-34.71c0,0-4.444-0.626-2.652-4.538
			c2.091-4.563,17.281-22.982,17.281-22.982s3.025-4.048,6.198,0c2.174,2.772,17.27,22.982,17.27,22.982
			S212.382,353.941,206.714,353.915z"/>
		<path fill="#D89F29" d="M125.449,326.636l-0.08,25.263h18.615c0,0,1.994,0.094,0.527-2.146
			c-1.427-2.175-17.123-22.521-17.123-22.521S126.643,326.647,125.449,326.636z"/>
		<path fill="#D89F29" d="M189.649,326.543v25.379h18.409c0,0,1.987,0.095,0.531-2.146c-1.418-2.177-17.014-22.54-17.014-22.54
			S190.984,326.543,189.649,326.543z"/>
		<g>
			<path fill="#D89F29" stroke="#1E1E1C" stroke-width="4" d="M204.323,134.97c-5.386,4.744-26.44,21.756-46.696,21.756
				c-20.258,0-41.313-17.012-46.699-21.756c-3.226-2.839-3.252,0.533-3.252,0.533c0,14.327,6.823,19.843,8.87,22.886
				c3.148,4.68,6.586,11.869,6.586,11.869l9.287,61.557l25.208,24.677l25.205-24.677l9.287-61.557c0,0,3.438-7.189,6.586-11.869
				c2.048-3.043,8.869-8.559,8.869-22.886C207.574,135.503,207.548,132.131,204.323,134.97z"/>
			<path fill="#F7BD17" d="M157.637,254.004l-0.134-95.613c0,0-22.071,0.319-47.812-22.384c0,0-0.552-1.009-0.463,0.313
				c0.088,1.322-0.134,12.934,8.24,20.617c4.434,10.247,7.39,14.384,7.39,14.384l8.866,59.899L157.637,254.004z"/>
		</g>
		<g>
			<circle fill="#FFFFFF" stroke="#1E1E1C" stroke-width="4" cx="211.344" cy="209.186" r="52.41"/>
			
				<linearGradient id="SVGID_3_" gradientUnits="userSpaceOnUse" x1="335.7136" y1="-63.6755" x2="398.8367" y2="-63.6755" gradientTransform="matrix(1 0 0 -1 -155.9297 145.5103)">
				<stop  offset="0" style="stop-color:#3BA9E0"/>
				<stop  offset="0.1967" style="stop-color:#38A5DE"/>
				<stop  offset="0.4287" style="stop-color:#329CD8"/>
				<stop  offset="0.6785" style="stop-color:#288DCD"/>
				<stop  offset="0.9392" style="stop-color:#2178BD"/>
				<stop  offset="1" style="stop-color:#2072B9"/>
			</linearGradient>
			<path fill="url(#SVGID_3_)" d="M179.784,209.186c0,17.431,14.132,31.56,31.559,31.56c17.433,0,31.563-14.129,31.563-31.56
				c0-17.429-14.131-31.56-31.563-31.56C193.916,177.626,179.784,191.756,179.784,209.186z"/>
			<path fill="#1E1E1C" d="M194.354,209.186c0,9.384,7.607,16.989,16.988,16.989c9.388,0,16.992-7.605,16.992-16.989
				c0-9.383-7.604-16.99-16.992-16.99C201.962,192.196,194.354,199.803,194.354,209.186z"/>
			<circle fill="#FFFFFF" cx="221.59" cy="195.349" r="8.502"/>
		</g>
		<g>
			<circle fill="#FFFFFF" stroke="#1E1E1C" stroke-width="4" cx="103.907" cy="209.186" r="52.41"/>
			
				<linearGradient id="SVGID_4_" gradientUnits="userSpaceOnUse" x1="228.2781" y1="-63.676" x2="291.3972" y2="-63.676" gradientTransform="matrix(1 0 0 -1 -155.9297 145.5103)">
				<stop  offset="0" style="stop-color:#3BA9E0"/>
				<stop  offset="0.1967" style="stop-color:#38A5DE"/>
				<stop  offset="0.4287" style="stop-color:#329CD8"/>
				<stop  offset="0.6785" style="stop-color:#288DCD"/>
				<stop  offset="0.9392" style="stop-color:#2178BD"/>
				<stop  offset="1" style="stop-color:#2072B9"/>
			</linearGradient>
			<circle fill="url(#SVGID_4_)" cx="103.907" cy="209.186" r="31.56"/>
			<circle fill="#1E1E1C" cx="103.907" cy="209.186" r="16.99"/>
			<circle fill="#FFFFFF" cx="114.153" cy="195.349" r="8.502"/>
		</g>
		<path fill="#D89F29" d="M144.001,245.659l13.95,13.032l13.29-13.023c0,0,2.433,2.505,3.616,3.557L158.036,266.9l-17.732-17.599
			C140.303,249.302,143.095,246.72,144.001,245.659z"/>
		<line fill="none" stroke="#1E1E1C" stroke-width="4" x1="125.603" y1="281.558" x2="187.598" y2="281.558"/>
		<line fill="none" stroke="#1E1E1C" stroke-width="4" x1="133.647" y1="291.023" x2="176.24" y2="291.023"/>
		<line fill="none" stroke="#1E1E1C" stroke-width="4" x1="141.22" y1="300.488" x2="168.195" y2="300.488"/>
	</g>
	<path fill="#FED624" d="M82.054,258.61c0,0-8.188,37.568,4.335,57.801c0,0-5.376-34.694,2.215-55.237
		C88.604,261.173,84.797,260.221,82.054,258.61z"/>
	<path fill="#FED624" d="M233.168,258.812c0,0,8.193,37.472-4.329,57.701c0,0,5.458-34.75-2.135-55.293
		C226.704,261.22,230.71,259.96,233.168,258.812z"/>
</g>
<rect x="36.193" y="378.42" fill="none" width="250.98" height="45.553"/>
<g enable-background="new    ">
	<path fill="#1E1E1C" d="M36.246,399.173c0.107-2.822,0.571-5.243,1.393-7.262c0.822-2.019,1.857-3.671,3.108-4.957
		c1.25-1.286,2.661-2.215,4.233-2.787c1.572-0.571,3.17-0.804,4.796-0.696c1.625,0.107,3.207,0.545,4.743,1.313
		c1.536,0.769,2.902,1.831,4.1,3.188c1.196,1.358,2.161,3.001,2.894,4.931c0.732,1.93,1.099,4.126,1.099,6.592
		c0,2.465-0.394,4.653-1.179,6.564c-0.787,1.912-1.814,3.537-3.082,4.877c-1.269,1.34-2.707,2.367-4.314,3.081
		c-1.608,0.716-3.251,1.108-4.931,1.18c-1.68,0.071-3.314-0.196-4.903-0.805c-1.59-0.606-2.993-1.563-4.207-2.866
		c-1.215-1.304-2.17-2.983-2.867-5.038C36.434,404.434,36.139,401.995,36.246,399.173z M38.444,399.119
		c-0.25,3.073,0.115,5.609,1.099,7.609c0.982,2.001,2.277,3.502,3.885,4.502c1.607,1,3.384,1.51,5.332,1.527
		c1.947,0.019,3.778-0.446,5.493-1.394c1.715-0.946,3.162-2.366,4.341-4.261c1.179-1.893,1.786-4.233,1.822-7.021
		c0.035-3.036-0.438-5.608-1.42-7.717c-0.983-2.107-2.251-3.725-3.805-4.85c-1.554-1.125-3.251-1.742-5.091-1.849
		c-1.84-0.107-3.582,0.313-5.225,1.259c-1.644,0.947-3.064,2.431-4.26,4.448C39.416,393.394,38.693,395.976,38.444,399.119z"/>
	<path fill="#1E1E1C" d="M64.006,383.578c0.035,0,0.268,0.42,0.697,1.259c0.429,0.84,0.964,1.938,1.607,3.296
		c0.643,1.358,1.375,2.903,2.197,4.636c0.821,1.733,1.643,3.51,2.465,5.332c1.964,4.287,4.18,9.129,6.645,14.523l12.487-29.207
		c0.393,0.286,0.768,0.536,1.125,0.75c0.286,0.18,0.544,0.349,0.777,0.509c0.232,0.161,0.348,0.277,0.348,0.349
		c0,0.036-0.233,0.563-0.697,1.581c-0.464,1.019-1.063,2.331-1.795,3.938c-0.733,1.608-1.563,3.422-2.492,5.439
		c-0.929,2.02-1.858,4.047-2.787,6.083c0.643,1.465,1.259,2.832,1.849,4.1c0.589,1.269,1.098,2.385,1.527,3.35
		c0.5,1.144,0.982,2.18,1.447,3.108l12.486-29.207c0.393,0.286,0.768,0.536,1.125,0.75c0.286,0.18,0.544,0.349,0.777,0.509
		c0.232,0.161,0.349,0.277,0.349,0.349c0,0.036-0.206,0.501-0.616,1.394c-0.411,0.894-0.938,2.055-1.581,3.483
		c-0.643,1.43-1.385,3.063-2.224,4.903c-0.84,1.841-1.697,3.716-2.572,5.627c-0.876,1.912-1.724,3.778-2.545,5.601
		c-0.822,1.822-1.554,3.448-2.197,4.877s-1.162,2.581-1.554,3.456c-0.394,0.876-0.572,1.313-0.536,1.313
		c-0.072-0.036-0.295-0.081-0.67-0.135c-0.375-0.054-0.581-0.045-0.616,0.027c-0.072-0.107-0.26-0.482-0.563-1.126
		c-0.304-0.643-0.706-1.455-1.206-2.438c-0.501-0.981-1.081-2.116-1.742-3.402c-0.662-1.286-1.349-2.626-2.063-4.02
		c-0.679,1.501-1.322,2.921-1.929,4.261c-0.608,1.34-1.144,2.519-1.607,3.537c-0.465,1.018-0.822,1.821-1.072,2.411
		s-0.357,0.885-0.321,0.885c-0.072-0.036-0.295-0.081-0.67-0.135s-0.581-0.045-0.616,0.027c-0.107-0.179-0.402-0.759-0.884-1.742
		c-0.482-0.982-1.099-2.197-1.849-3.644c-0.75-1.447-1.581-3.072-2.492-4.877c-0.911-1.804-1.831-3.635-2.76-5.493
		c-2.216-4.322-4.699-9.199-7.449-14.63c0.322-0.286,0.625-0.554,0.911-0.804c0.25-0.179,0.491-0.357,0.724-0.536
		C63.676,383.667,63.863,383.578,64.006,383.578z M89.086,415.625c0-0.036-0.018-0.054-0.053-0.054L89.086,415.625z"/>
	<path fill="#1E1E1C" d="M109.289,375.647l0.75,39.817c-0.465-0.035-0.876-0.071-1.232-0.107c-0.322,0-0.608,0.01-0.857,0.027
		c-0.25,0.019-0.375,0.063-0.375,0.134c0,0.035-0.009-0.5-0.027-1.607s-0.036-2.59-0.053-4.448
		c-0.019-1.857-0.045-3.983-0.081-6.377c-0.036-2.394-0.072-4.841-0.107-7.343c-0.036-2.5-0.063-4.947-0.081-7.342
		c-0.019-2.393-0.027-4.528-0.027-6.403c0-1.876,0.008-3.385,0.027-4.528c0.018-1.144,0.044-1.715,0.081-1.715L109.289,375.647z"/>
	<path fill="#1E1E1C" d="M124.562,422.967c0.035,0,0.161-0.197,0.375-0.59c0.214-0.394,0.482-0.947,0.804-1.661
		c0.321-0.715,0.705-1.555,1.152-2.519c0.446-0.965,0.938-2.037,1.474-3.216l-0.322-0.59l-0.964-1.821
		c-0.715-1.357-1.537-2.992-2.465-4.904c-0.929-1.91-1.894-3.92-2.894-6.028l-1.125-2.251l-1.072-2.305l-1.072-2.197l-0.965-2.09
		c-0.25-0.5-0.492-0.982-0.724-1.446c-0.232-0.464-0.438-0.911-0.616-1.34c-0.357-0.715-0.679-1.367-0.964-1.956
		c-0.287-0.59-0.519-1.099-0.697-1.527c-0.214-0.5-0.411-0.946-0.589-1.34l0.214-0.215l0.321-0.268l0.375-0.321l0.268-0.215
		c0.214-0.178,0.41-0.321,0.589-0.429c0.179-0.107,0.322-0.16,0.429-0.16c0,0.035,0.018,0.053,0.054,0.053
		c0,0.036,0.035,0.09,0.107,0.161c0.142,0.286,0.375,0.76,0.696,1.42c0.322,0.662,0.697,1.456,1.125,2.385l2.733,5.842
		c0.178,0.394,0.348,0.769,0.509,1.125c0.161,0.357,0.33,0.732,0.509,1.126l3.108,6.913c0.178,0.394,0.348,0.776,0.509,1.151
		c0.161,0.376,0.33,0.742,0.509,1.099c0.178,0.394,0.348,0.76,0.509,1.099c0.161,0.341,0.312,0.688,0.455,1.046l2.037,4.447
		l0.482,1.126c0,0.071,0.035,0.143,0.107,0.214l0.214,0.59c0.071,0.214,0.143,0.401,0.214,0.563
		c0.071,0.161,0.143,0.295,0.214,0.402l0.161,0.321l-1.5,0.911c-0.072,0-0.197-0.143-0.375-0.429l-0.429-0.751l-0.964-1.821
		c-0.715-1.357-1.537-2.992-2.465-4.904c-0.929-1.91-1.894-3.92-2.894-6.028l-1.125-2.251l-1.072-2.305l-1.072-2.197l-0.965-2.09
		c-0.25-0.5-0.492-0.982-0.724-1.446c-0.232-0.464-0.438-0.911-0.616-1.34c-0.357-0.715-0.679-1.367-0.964-1.956
		c-0.287-0.59-0.519-1.099-0.697-1.527c-0.214-0.5-0.411-0.946-0.589-1.34l0.214-0.215l0.321-0.268l0.375-0.321l0.268-0.215
		c0.214-0.178,0.41-0.321,0.589-0.429c0.179-0.107,0.322-0.16,0.429-0.16c0,0.035,0.018,0.053,0.054,0.053
		c0,0.036,0.035,0.09,0.107,0.161c0.142,0.286,0.375,0.76,0.696,1.42c0.322,0.662,0.697,1.456,1.125,2.385l2.733,5.842
		c0.178,0.394,0.348,0.769,0.509,1.125c0.161,0.357,0.33,0.732,0.509,1.126l3.108,6.913c0.178,0.394,0.348,0.776,0.509,1.151
		c0.161,0.376,0.33,0.742,0.509,1.099c0.178,0.394,0.348,0.76,0.509,1.099c0.161,0.341,0.312,0.688,0.455,1.046l2.037,4.447
		l0.482,1.126c0.643-1.465,1.321-3.001,2.036-4.609c0.714-1.607,1.429-3.232,2.144-4.876c0.714-1.644,1.42-3.27,2.117-4.877
		c0.697-1.608,1.367-3.144,2.01-4.609c1.464-3.43,2.947-6.823,4.448-10.182c0.393,0.286,0.768,0.536,1.125,0.75
		c0.286,0.18,0.544,0.349,0.777,0.509c0.232,0.161,0.349,0.277,0.349,0.349c0,0.036-0.26,0.616-0.777,1.742
		c-0.518,1.125-1.197,2.608-2.036,4.447c-0.84,1.841-1.795,3.931-2.867,6.271c-1.072,2.341-2.17,4.734-3.296,7.181
		c-1.125,2.448-2.233,4.842-3.323,7.182c-1.09,2.34-2.063,4.421-2.92,6.243s-1.554,3.296-2.09,4.421
		c-0.536,1.126-0.822,1.688-0.857,1.688L124.562,422.967z M128.85,415.572c-0.072,0-0.197-0.143-0.375-0.429
		c0-0.035-0.036-0.089-0.107-0.161l1.072-2.411c0,0.071,0.035,0.143,0.107,0.214l0.214,0.59c0.071,0.214,0.143,0.401,0.214,0.563
		c0.071,0.161,0.143,0.295,0.214,0.402l0.161,0.321L128.85,415.572z"/>
	<path fill="#1E1E1C" d="M177.884,398.155c-1.036,0.036-2.125,0.063-3.269,0.08c-1.144,0.019-2.286,0.063-3.43,0.134
		c0.071,1.715,0.161,3.547,0.269,5.493c0.106,1.948,0.214,3.778,0.32,5.493c0.143,1.966,0.269,3.931,0.376,5.895
		c-0.429,0-0.84-0.018-1.233-0.053c-0.32,0-0.615-0.009-0.884-0.027c-0.268-0.018-0.42,0.01-0.455,0.08
		c0-0.035-0.019-0.634-0.054-1.795c-0.036-1.16-0.072-2.59-0.107-4.287c-0.035-1.696-0.072-3.519-0.107-5.466
		s-0.072-3.706-0.107-5.279c-1.285,0.072-2.51,0.116-3.67,0.134c-1.162,0.019-2.189,0.046-3.082,0.081
		c-1.037,0.036-1.982,0.054-2.84,0.054c-0.036-0.393-0.054-0.769-0.054-1.126c-0.036-0.143-0.054-0.285-0.054-0.429
		c0-0.143,0-0.268,0-0.375v-0.321h9.646c0-0.893-0.01-1.599-0.027-2.117c-0.018-0.518-0.026-0.759-0.026-0.724
		c0,0.036-0.036-0.356-0.107-1.179c-0.071-0.821-0.08-1.876-0.026-3.162c0.053-1.286,0.205-2.688,0.455-4.206
		s0.678-2.938,1.286-4.261c0.607-1.321,1.447-2.447,2.519-3.376c1.072-0.929,2.447-1.429,4.127-1.501l0.643,2.09
		c-1.644,0.144-2.93,0.697-3.857,1.662c-0.93,0.964-1.627,2.161-2.091,3.59c-0.465,1.43-0.759,2.993-0.884,4.689
		c-0.126,1.697-0.188,3.35-0.188,4.957c0,0.321,0.008,0.804,0.026,1.447c0.018,0.643,0.044,1.34,0.081,2.09c1.213,0,2.411,0,3.59,0
		c1.18,0,2.232-0.018,3.162-0.054L177.884,398.155z"/>
	<path fill="#1E1E1C" d="M195.891,387.812c-1.572-1.286-3.154-1.965-4.744-2.037c-1.59-0.07-3.02,0.438-4.287,1.527
		c-1.268,1.091-2.313,2.743-3.135,4.957c-0.822,2.216-1.268,4.949-1.34,8.2c-0.035,1.857-0.035,3.644,0,5.358
		s0.08,3.252,0.135,4.609c0.053,1.357,0.098,2.474,0.133,3.349c0.035,0.876,0.035,1.403,0,1.581l-2.357,0.054l-0.215-15.541
		c0-3.501,0.518-6.476,1.555-8.923c1.035-2.446,2.367-4.296,3.992-5.547c1.625-1.25,3.43-1.857,5.414-1.821
		c1.982,0.035,3.92,0.769,5.814,2.196L195.891,387.812z"/>
	<path fill="#1E1E1C" d="M200.606,383.578c0.035,0.179,0.063,0.705,0.08,1.58c0.018,0.876,0.027,1.992,0.027,3.35
		c0,1.358,0,2.894,0,4.609c0,1.715,0.018,3.501,0.053,5.358c0.072,3.001,0.598,5.547,1.582,7.637c0.982,2.09,2.205,3.725,3.67,4.903
		c1.465,1.18,3.064,1.876,4.797,2.09c1.732,0.215,3.385-0.08,4.957-0.884s2.955-2.125,4.152-3.966
		c1.197-1.84,1.975-4.225,2.332-7.154l-0.375-17.792c0.428,0.072,0.84,0.107,1.232,0.107c0.285,0.036,0.563,0.036,0.83,0
		c0.27-0.035,0.402-0.089,0.402-0.161c0-0.035,0.008,0.394,0.027,1.286c0.018,0.894,0.035,2.1,0.053,3.617
		c0.018,1.52,0.045,3.242,0.08,5.172s0.063,3.903,0.082,5.922c0.018,2.019,0.043,4.002,0.08,5.948
		c0.035,1.948,0.053,3.689,0.053,5.226s-0.01,2.769-0.027,3.697c-0.018,0.93-0.045,1.394-0.08,1.394l-1.982,0.107l-0.215-7.824
		c-0.93,2.215-2.17,3.938-3.725,5.171c-1.553,1.232-3.215,1.992-4.982,2.277c-1.77,0.286-3.564,0.135-5.387-0.455
		s-3.457-1.571-4.904-2.947c-1.445-1.375-2.635-3.144-3.563-5.306c-0.93-2.161-1.395-4.653-1.395-7.476l-0.213-15.541
		L200.606,383.578z"/>
	<path fill="#1E1E1C" d="M231.151,383.042c0.035,1.465,0.063,3.055,0.08,4.77s0.045,3.475,0.08,5.278
		c0.035,1.805,0.063,3.609,0.082,5.413c0.018,1.804,0.043,3.528,0.08,5.171c0.07,3.895,0.143,7.824,0.213,11.79
		c-0.463-0.035-0.875-0.071-1.232-0.107c-0.32,0-0.607,0.01-0.857,0.027c-0.25,0.019-0.375,0.063-0.375,0.134
		c0,0.035-0.008-0.464-0.025-1.501c-0.02-1.035-0.037-2.429-0.055-4.18c-0.018-1.75-0.035-3.76-0.053-6.029
		c-0.02-2.268-0.045-4.608-0.08-7.02c-0.037-2.412-0.064-4.814-0.082-7.208s-0.025-4.573-0.025-6.538H231.151z M229.009,380.791
		c0-0.929,0-1.581,0-1.956s0.008-0.598,0.025-0.67c0.018-0.071,0.045-0.018,0.08,0.161l1.984-0.107c0-0.179,0.018-0.215,0.053-0.107
		c0.035,0.072,0.055,0.304,0.055,0.696c0,0.394,0.018,1.055,0.053,1.983H229.009z"/>
	<path fill="#1E1E1C" d="M253.178,398.155c-1.109,0.036-2.262,0.063-3.457,0.08c-1.197,0.019-2.404,0.063-3.617,0.134
		c0,1.608,0.061,3.252,0.188,4.931c0.125,1.68,0.418,3.225,0.883,4.636c0.465,1.412,1.162,2.599,2.092,3.563
		c0.928,0.965,2.213,1.52,3.857,1.661l-0.643,2.09c-1.465-0.07-2.699-0.455-3.697-1.151c-1.002-0.697-1.814-1.581-2.439-2.653
		c-0.625-1.071-1.098-2.251-1.42-3.537s-0.555-2.536-0.697-3.751c-0.143-1.214-0.205-2.331-0.188-3.35
		c0.018-1.018,0.045-1.813,0.08-2.385c-1.25,0.036-2.438,0.063-3.563,0.081s-2.1,0.045-2.922,0.08
		c-0.963,0.036-1.875,0.072-2.732,0.107c0-0.393-0.018-0.769-0.053-1.126c-0.037-0.285-0.064-0.544-0.082-0.776
		s-0.008-0.349,0.027-0.349h9.432c0.035-0.715,0.063-1.706,0.08-2.975c0.018-1.268,0.045-2.652,0.082-4.153
		c0.035-1.5,0.07-3.036,0.107-4.608c0.035-1.572,0.07-3.001,0.105-4.287s0.063-2.34,0.082-3.162c0.018-0.821,0.025-1.25,0.025-1.286
		c0.035,0.072,0.188,0.107,0.455,0.107c0.27,0,0.564-0.018,0.885-0.054c0.393-0.035,0.805-0.071,1.232-0.107
		c-0.178,2.823-0.34,5.52-0.482,8.093c-0.072,1.107-0.143,2.242-0.213,3.402c-0.072,1.161-0.135,2.287-0.188,3.376
		c-0.055,1.091-0.1,2.126-0.135,3.108c-0.035,0.983-0.072,1.831-0.107,2.546c1.25,0,2.482,0,3.697,0s2.305-0.018,3.27-0.054
		L253.178,398.155z"/>
	<path fill="#1E1E1C" d="M271.022,409.783c-0.037-1.465-0.072-3.072-0.107-4.823c-0.035-1.75-0.072-3.563-0.107-5.439
		c-0.035-1.875-0.08-3.751-0.135-5.627c-0.053-1.875-0.098-3.688-0.133-5.439c-0.107-4.072-0.197-8.234-0.268-12.486h1.232
		c0.32,0,0.607,0,0.857,0s0.375-0.018,0.375-0.054c-0.037,4.252-0.055,8.414-0.055,12.486c0,1.751,0,3.573,0,5.467s0,3.77,0,5.627
		s0,3.671,0,5.439s0,3.385,0,4.85H271.022z M270.54,412.677l2.787-0.106l-0.055,2.786H270.7L270.54,412.677z"/>
</g>
</svg>
