<?xml version="1.0" encoding="utf-8"?>
<!-- Generator: Adobe Illustrator 21.1.0, SVG Export Plug-In . SVG Version: 6.00 Build 0)  -->
<svg version="1.1" xmlns="http://www.w3.org/2000/svg" xmlns:xlink="http://www.w3.org/1999/xlink" x="0px" y="0px"
	 viewBox="0 0 430 243" style="enable-background:new 0 0 430 243;" xml:space="preserve">
<style type="text/css">
	.st0{fill:#5C5757;}
	.st1{display:none;}
	.st2{display:inline;}
	.st3{fill:#DEAD39;}
	.st4{fill:#DADFE1;}
	.st5{fill:#ECF0F1;}
</style>
<g id="black">
	<g>
		<path class="st0" d="M92.6,22.9V31c0,0,61.5-10.8,56,52.5h19C167.6,83.5,203.5,19.2,92.6,22.9z"/>
		<path class="st0" d="M190.1,137.7h-32.6c0,0,28.2,38,7.1,60.4c-26.4,28-72,9.1-72,9.1v15.3c0,0,89.6,11.4,105.2-46.7
			C197.9,175.9,203,157.6,190.1,137.7z"/>
		<polygon class="st0" points="223.9,137.7 243.4,188.8 265.4,137.7 277.1,137.7 238.2,226.1 214.5,170.8 214.5,137.7 		"/>
		<path class="st0" d="M287.1,26.8h8.3c0,0,8.5,0.7,5.9,9.8S285.6,83,285.6,83h14.7l17.9-43.7c0,0,7-12.6,15.3-12.6h6.4
			c0,0,2.8-0.4,2.8-2c0-1.6-1.3-1.9-1.7-1.9s-52.5,0-52.5,0s-2.9-0.4-2.9,1.9C285.6,26.9,287.1,26.8,287.1,26.8z"/>
		<g>
			<path class="st0" d="M29.7,109.4c9.6,1.3,12.3,6,12.3,10.9c0,6.9-5.5,11.7-14.5,11.7c-1.8,0-5.4-0.2-10.4-0.2
				c-2.8,0-5.8,0.1-7.5,0.2v-1.2c4.1-0.2,4.9-0.8,4.9-5.2v-30c0-4.4-0.8-5-4.9-5.2v-1.2c1.7,0.1,4.7,0.2,7.4,0.2
				c3.8,0,7.7-0.1,9.1-0.1c8.5,0,12.7,3.9,12.7,9.5c0,4.3-2.4,8.4-9.2,10.5V109.4z M20.1,95.6v13.7h4.1c7.1,0,8.9-4.6,8.9-9.9
				c0-5.9-2.4-9-8.5-9C20.9,90.4,20.1,91.4,20.1,95.6z M35.9,120c0-6.1-3.1-9.7-10.8-9.7h-5.1v15.3c0,4.2,0.8,5,4.5,5
				C32.5,130.6,35.9,126.8,35.9,120z"/>
			<path class="st0" d="M84.2,129c-1.7,2.5-3.2,3.9-6.5,3.9c-3,0-5.3-1.4-6.5-6.5l-1.3-6c-1.2-5.1-2-8.6-6.8-8.6h-5.8v13.9
				c0,4.4,0.8,5,4.9,5.2v1.2c-1.9-0.1-4.9-0.2-7.7-0.2c-3.1,0-6,0.1-7.7,0.2v-1.2c4.1-0.2,4.9-0.8,4.9-5.2v-30c0-4.4-0.8-5-4.9-5.2
				v-1.2c1.7,0.1,4.7,0.2,7.4,0.2c3.8,0,7.7-0.1,9.1-0.1c9.7,0,14.6,4.6,14.6,10.5c0,4.2-2.6,10.2-11.7,11.6l0.7,0.1
				c5.4,0.9,7.3,2.9,8.5,8l1.5,6.2c0.7,3.5,1.4,5,3.1,5c1.5,0,2.2-0.9,3.3-2.3L84.2,129z M57.3,95.6v14.9h4.1
				c8.6,0,10.4-4.5,10.4-10c0-6.3-2.7-10-10-10C58.1,90.4,57.3,91.4,57.3,95.6z"/>
			<path class="st0" d="M117.3,132c-4.1-0.2-9.8-0.2-13.8-0.2c-3.6,0-11.6,0-17.5,0.2v-1.2c4.1-0.2,4.9-0.8,4.9-5.2v-30
				c0-4.4-0.8-5-4.9-5.2v-1.2c5.9,0.2,13.9,0.2,17.5,0.2c3.7,0,8.9,0,12.6-0.2c-0.3,2.8-0.4,5.8-0.4,7.1c0,1.4,0.1,2.8,0.2,3.7h-1.4
				c-0.8-7.1-1.7-9.5-8.1-9.5h-5c-4.1,0-4.9,0.6-4.9,5v14.2h4c5.3,0,5.1-5.1,5.6-8h1.4c-0.2,2.6-0.2,4.3-0.2,5.7c0,1.1,0,2,0,2.9
				c0,2,0.1,4,0.4,8.6h-1.4c-0.5-3.9-0.5-8-5.8-8h-4v14.5c0,4.4,0.8,5,4.9,5h4.4c7.6,0,9.1-2.7,9.9-10.7h1.4
				c-0.1,1.1-0.2,2.7-0.2,4.4C116.9,125.8,117,128.9,117.3,132z"/>
			<path class="st0" d="M155.6,96.9c0,1.9,0.1,3.7,0.2,5h-1.4c-0.9-8.4-1.7-11.3-9.3-11.3h-3.3V125c0,4.9,1,5.6,6.1,5.8v1.2
				c-2.1-0.1-5.6-0.2-8.9-0.2c-3.6,0-7,0.1-8.9,0.2v-1.2c5.1-0.2,6.1-0.9,6.1-5.8V90.6h-3.3c-7.6,0-8.5,2.9-9.3,11.3h-1.4
				c0.1-1.3,0.2-3,0.2-5c0-1.5-0.1-4.7-0.4-7.7c5,0.2,12.1,0.2,17.1,0.2s11.9,0,17-0.2C155.7,92.3,155.6,95.4,155.6,96.9z"/>
			<path class="st0" d="M189.2,126.9c1.2,3.1,2.9,3.8,4.2,3.9v1.2c-1.7-0.1-4.2-0.2-6.5-0.2c-3.1,0-6,0.1-7.7,0.2v-1.2
				c2.9-0.1,4.3-0.6,4.3-2.2c0-0.7-0.2-1.6-0.7-2.8l-3.7-9.9h-14.6l-2.5,6.4c-0.8,2.1-1.2,3.7-1.2,5c0,2.6,1.8,3.5,5.3,3.6v1.2
				c-2.3-0.1-4.8-0.2-7-0.2c-2,0-3.3,0.1-4.5,0.2v-1.2c1.6-0.4,3.4-1.6,4.7-5.3l14.2-36.6h1L189.2,126.9z M171.8,96.5l-6.9,18h13.7
				L171.8,96.5z"/>
			<path class="st0" d="M226,92.3c0.5,0.4,0.8,0.6,1.2,0.6c0.8,0,1.3-1.2,1.5-3.7h1.4c-0.2,2.9-0.2,6.9-0.2,13.9h-1.4
				c-0.6-3.4-1.2-6.6-3-8.9c-2.4-2.9-6.4-4.7-10.4-4.7c-8,0-13.3,8.2-13.3,21.2c0,14.5,4.5,21,14.4,21c2.9,0,5.1-1,6.3-1.9
				c1.5-1,1.7-1.8,1.7-3.3v-5.8c0-4.9-1-5.6-6.1-5.8v-1.2c2.1,0.1,5.8,0.2,8.5,0.2c2.7,0,4.8-0.1,6.3-0.2v1.2
				c-2.7,0.2-3.1,0.7-3.1,5.2v12h-1.2c-0.1-1.4-0.6-3.5-1.7-3.5c-0.5,0-0.8,0.1-2,1c-2.7,2-5.5,3.3-9.4,3.3
				c-12.5,0-19.8-8.1-19.8-21.5c0-14.1,8.2-23,19.4-23C220.3,88.3,223.1,90.2,226,92.3z"/>
			<path class="st0" d="M275.3,90.4c-4.1,0.2-4.9,1.4-4.9,5.8v36H269l-25.4-39.2V125c0,4.4,0.8,5.6,5.5,5.8v1.2
				c-1.4-0.1-4.1-0.2-6.2-0.2c-2,0-4.3,0.1-5.6,0.2v-1.2c4.1-0.2,4.9-1.4,4.9-5.8V95.6c0-4.4-0.8-5-4.9-5.2v-1.2
				c1.3,0.1,3.6,0.2,5.6,0.2c1.8,0,3.4-0.1,4.7-0.2l21.3,32.9V96.2c0-4.4-0.8-5.6-5.5-5.8v-1.2c1.4,0.1,4.1,0.2,6.2,0.2
				c2,0,4.3-0.1,5.6-0.2V90.4z"/>
			<path class="st0" d="M311.4,132c-4.1-0.2-9.8-0.2-13.8-0.2c-3.6,0-11.6,0-17.5,0.2v-1.2c4.1-0.2,4.9-0.8,4.9-5.2v-30
				c0-4.4-0.8-5-4.9-5.2v-1.2c5.9,0.2,13.9,0.2,17.5,0.2c3.7,0,8.9,0,12.6-0.2c-0.3,2.8-0.4,5.8-0.4,7.1c0,1.4,0.1,2.8,0.2,3.7h-1.4
				c-0.8-7.1-1.7-9.5-8.1-9.5h-5c-4.1,0-4.9,0.6-4.9,5v14.2h4c5.3,0,5.1-5.1,5.6-8h1.4c-0.2,2.6-0.2,4.3-0.2,5.7c0,1.1,0,2,0,2.9
				c0,2,0.1,4,0.4,8.6h-1.4c-0.5-3.9-0.5-8-5.8-8h-4v14.5c0,4.4,0.8,5,4.9,5h4.4c7.6,0,9.1-2.7,9.9-10.7h1.4
				c-0.1,1.1-0.2,2.7-0.2,4.4C311,125.8,311.1,128.9,311.4,132z"/>
			<path class="st0" d="M365.8,89.2v1.2c-1.6,0.4-3.4,1.6-4.8,5.3l-14.2,36.6h-0.5c-0.2,0-0.3,0-0.5,0l-14.7-38
				c-1.2-3.1-2.9-3.8-4.2-3.9v-1.2c1.6,0.1,4.2,0.2,6.5,0.2c3.1,0,6-0.1,7.7-0.2v1.2c-2.9,0.1-4.3,0.6-4.3,2.2
				c0,0.7,0.2,1.6,0.7,2.8l10.9,29l9.9-25.5c0.8-2.1,1.2-3.7,1.2-4.9c0-2.7-1.8-3.6-5.3-3.7v-1.2c2.3,0.1,4.8,0.2,7,0.2
				C363.3,89.4,364.6,89.3,365.8,89.2z"/>
			<path class="st0" d="M383.3,90.4c-4.1,0.2-4.9,0.8-4.9,5.2v30c0,4.4,0.8,5,4.9,5.2v1.2c-1.9-0.1-4.9-0.2-7.7-0.2
				c-3.1,0-6,0.1-7.7,0.2v-1.2c4.1-0.2,4.9-0.8,4.9-5.2v-30c0-4.4-0.8-5-4.9-5.2v-1.2c1.7,0.1,4.6,0.2,7.7,0.2
				c2.8,0,5.8-0.1,7.7-0.2V90.4z"/>
			<path class="st0" d="M398.8,125.6c0,4.4,1,5,6.1,5.2v1.2c-2.1-0.1-5.6-0.2-8.9-0.2c-3.1,0-6,0.1-7.7,0.2v-1.2
				c4.1-0.2,4.9-0.8,4.9-5.2v-30c0-4.4-0.8-5-4.9-5.2v-1.2c1.7,0.1,4.7,0.2,7.4,0.2c3.8,0,7.7-0.1,9.1-0.1c9.7,0,14.6,4.9,14.6,11.9
				c0,5.8-3.4,13.5-15.9,13.5h-4.7V125.6z M398.8,95.6v17.9h4.1c8.6,0,10.4-5.5,10.4-11.7c0-7.6-2.7-11.4-10-11.4
				C399.6,90.4,398.8,91.4,398.8,95.6z"/>
		</g>
	</g>
</g>
<g id="gold" class="st1">
	<g class="st2">
		<path class="st3" d="M92.6,22.9V31c0,0,61.5-10.8,56,52.5h19C167.6,83.5,203.5,19.2,92.6,22.9z"/>
		<path class="st3" d="M190.1,137.7h-32.6c0,0,28.2,38,7.1,60.4c-26.4,28-72,9.1-72,9.1v15.3c0,0,89.6,11.4,105.2-46.7
			C197.9,175.9,203,157.6,190.1,137.7z"/>
		<polygon class="st3" points="223.9,137.7 243.4,188.8 265.4,137.7 277.1,137.7 238.2,226.1 214.5,170.8 214.5,137.7 		"/>
		<path class="st3" d="M287.1,26.8h8.3c0,0,8.5,0.7,5.9,9.8S285.6,83,285.6,83h14.7l17.9-43.7c0,0,7-12.6,15.3-12.6h6.4
			c0,0,2.8-0.4,2.8-2c0-1.6-1.3-1.9-1.7-1.9s-52.5,0-52.5,0s-2.9-0.4-2.9,1.9C285.6,26.9,287.1,26.8,287.1,26.8z"/>
		<g>
			<path class="st3" d="M29.7,109.4c9.6,1.3,12.3,6,12.3,10.9c0,6.9-5.5,11.7-14.5,11.7c-1.8,0-5.4-0.2-10.4-0.2
				c-2.8,0-5.8,0.1-7.5,0.2v-1.2c4.1-0.2,4.9-0.8,4.9-5.2v-30c0-4.4-0.8-5-4.9-5.2v-1.2c1.7,0.1,4.7,0.2,7.4,0.2
				c3.8,0,7.7-0.1,9.1-0.1c8.5,0,12.7,3.9,12.7,9.5c0,4.3-2.4,8.4-9.2,10.5V109.4z M20.1,95.6v13.7h4.1c7.1,0,8.9-4.6,8.9-9.9
				c0-5.9-2.4-9-8.5-9C20.9,90.4,20.1,91.4,20.1,95.6z M35.9,120c0-6.1-3.1-9.7-10.8-9.7h-5.1v15.3c0,4.2,0.8,5,4.5,5
				C32.5,130.6,35.9,126.8,35.9,120z"/>
			<path class="st3" d="M84.2,129c-1.7,2.5-3.2,3.9-6.5,3.9c-3,0-5.3-1.4-6.5-6.5l-1.3-6c-1.2-5.1-2-8.6-6.8-8.6h-5.8v13.9
				c0,4.4,0.8,5,4.9,5.2v1.2c-1.9-0.1-4.9-0.2-7.7-0.2c-3.1,0-6,0.1-7.7,0.2v-1.2c4.1-0.2,4.9-0.8,4.9-5.2v-30c0-4.4-0.8-5-4.9-5.2
				v-1.2c1.7,0.1,4.7,0.2,7.4,0.2c3.8,0,7.7-0.1,9.1-0.1c9.7,0,14.6,4.6,14.6,10.5c0,4.2-2.6,10.2-11.7,11.6l0.7,0.1
				c5.4,0.9,7.3,2.9,8.5,8l1.5,6.2c0.7,3.5,1.4,5,3.1,5c1.5,0,2.2-0.9,3.3-2.3L84.2,129z M57.3,95.6v14.9h4.1
				c8.6,0,10.4-4.5,10.4-10c0-6.3-2.7-10-10-10C58.1,90.4,57.3,91.4,57.3,95.6z"/>
			<path class="st3" d="M117.3,132c-4.1-0.2-9.8-0.2-13.8-0.2c-3.6,0-11.6,0-17.5,0.2v-1.2c4.1-0.2,4.9-0.8,4.9-5.2v-30
				c0-4.4-0.8-5-4.9-5.2v-1.2c5.9,0.2,13.9,0.2,17.5,0.2c3.7,0,8.9,0,12.6-0.2c-0.3,2.8-0.4,5.8-0.4,7.1c0,1.4,0.1,2.8,0.2,3.7h-1.4
				c-0.8-7.1-1.7-9.5-8.1-9.5h-5c-4.1,0-4.9,0.6-4.9,5v14.2h4c5.3,0,5.1-5.1,5.6-8h1.4c-0.2,2.6-0.2,4.3-0.2,5.7c0,1.1,0,2,0,2.9
				c0,2,0.1,4,0.4,8.6h-1.4c-0.5-3.9-0.5-8-5.8-8h-4v14.5c0,4.4,0.8,5,4.9,5h4.4c7.6,0,9.1-2.7,9.9-10.7h1.4
				c-0.1,1.1-0.2,2.7-0.2,4.4C116.9,125.8,117,128.9,117.3,132z"/>
			<path class="st3" d="M155.6,96.9c0,1.9,0.1,3.7,0.2,5h-1.4c-0.9-8.4-1.7-11.3-9.3-11.3h-3.3V125c0,4.9,1,5.6,6.1,5.8v1.2
				c-2.1-0.1-5.6-0.2-8.9-0.2c-3.6,0-7,0.1-8.9,0.2v-1.2c5.1-0.2,6.1-0.9,6.1-5.8V90.6h-3.3c-7.6,0-8.5,2.9-9.3,11.3h-1.4
				c0.1-1.3,0.2-3,0.2-5c0-1.5-0.1-4.7-0.4-7.7c5,0.2,12.1,0.2,17.1,0.2s11.9,0,17-0.2C155.7,92.3,155.6,95.4,155.6,96.9z"/>
			<path class="st3" d="M189.2,126.9c1.2,3.1,2.9,3.8,4.2,3.9v1.2c-1.7-0.1-4.2-0.2-6.5-0.2c-3.1,0-6,0.1-7.7,0.2v-1.2
				c2.9-0.1,4.3-0.6,4.3-2.2c0-0.7-0.2-1.6-0.7-2.8l-3.7-9.9h-14.6l-2.5,6.4c-0.8,2.1-1.2,3.7-1.2,5c0,2.6,1.8,3.5,5.3,3.6v1.2
				c-2.3-0.1-4.8-0.2-7-0.2c-2,0-3.3,0.1-4.5,0.2v-1.2c1.6-0.4,3.4-1.6,4.7-5.3l14.2-36.6h1L189.2,126.9z M171.8,96.5l-6.9,18h13.7
				L171.8,96.5z"/>
			<path class="st3" d="M226,92.3c0.5,0.4,0.8,0.6,1.2,0.6c0.8,0,1.3-1.2,1.5-3.7h1.4c-0.2,2.9-0.2,6.9-0.2,13.9h-1.4
				c-0.6-3.4-1.2-6.6-3-8.9c-2.4-2.9-6.4-4.7-10.4-4.7c-8,0-13.3,8.2-13.3,21.2c0,14.5,4.5,21,14.4,21c2.9,0,5.1-1,6.3-1.9
				c1.5-1,1.7-1.8,1.7-3.3v-5.8c0-4.9-1-5.6-6.1-5.8v-1.2c2.1,0.1,5.8,0.2,8.5,0.2c2.7,0,4.8-0.1,6.3-0.2v1.2
				c-2.7,0.2-3.1,0.7-3.1,5.2v12h-1.2c-0.1-1.4-0.6-3.5-1.7-3.5c-0.5,0-0.8,0.1-2,1c-2.7,2-5.5,3.3-9.4,3.3
				c-12.5,0-19.8-8.1-19.8-21.5c0-14.1,8.2-23,19.4-23C220.3,88.3,223.1,90.2,226,92.3z"/>
			<path class="st3" d="M275.3,90.4c-4.1,0.2-4.9,1.4-4.9,5.8v36H269l-25.4-39.2V125c0,4.4,0.8,5.6,5.5,5.8v1.2
				c-1.4-0.1-4.1-0.2-6.2-0.2c-2,0-4.3,0.1-5.6,0.2v-1.2c4.1-0.2,4.9-1.4,4.9-5.8V95.6c0-4.4-0.8-5-4.9-5.2v-1.2
				c1.3,0.1,3.6,0.2,5.6,0.2c1.8,0,3.4-0.1,4.7-0.2l21.3,32.9V96.2c0-4.4-0.8-5.6-5.5-5.8v-1.2c1.4,0.1,4.1,0.2,6.2,0.2
				c2,0,4.3-0.1,5.6-0.2V90.4z"/>
			<path class="st3" d="M311.4,132c-4.1-0.2-9.8-0.2-13.8-0.2c-3.6,0-11.6,0-17.5,0.2v-1.2c4.1-0.2,4.9-0.8,4.9-5.2v-30
				c0-4.4-0.8-5-4.9-5.2v-1.2c5.9,0.2,13.9,0.2,17.5,0.2c3.7,0,8.9,0,12.6-0.2c-0.3,2.8-0.4,5.8-0.4,7.1c0,1.4,0.1,2.8,0.2,3.7h-1.4
				c-0.8-7.1-1.7-9.5-8.1-9.5h-5c-4.1,0-4.9,0.6-4.9,5v14.2h4c5.3,0,5.1-5.1,5.6-8h1.4c-0.2,2.6-0.2,4.3-0.2,5.7c0,1.1,0,2,0,2.9
				c0,2,0.1,4,0.4,8.6h-1.4c-0.5-3.9-0.5-8-5.8-8h-4v14.5c0,4.4,0.8,5,4.9,5h4.4c7.6,0,9.1-2.7,9.9-10.7h1.4
				c-0.1,1.1-0.2,2.7-0.2,4.4C311,125.8,311.1,128.9,311.4,132z"/>
			<path class="st3" d="M365.8,89.2v1.2c-1.6,0.4-3.4,1.6-4.8,5.3l-14.2,36.6h-0.5c-0.2,0-0.3,0-0.5,0l-14.7-38
				c-1.2-3.1-2.9-3.8-4.2-3.9v-1.2c1.6,0.1,4.2,0.2,6.5,0.2c3.1,0,6-0.1,7.7-0.2v1.2c-2.9,0.1-4.3,0.6-4.3,2.2
				c0,0.7,0.2,1.6,0.7,2.8l10.9,29l9.9-25.5c0.8-2.1,1.2-3.7,1.2-4.9c0-2.7-1.8-3.6-5.3-3.7v-1.2c2.3,0.1,4.8,0.2,7,0.2
				C363.3,89.4,364.6,89.3,365.8,89.2z"/>
			<path class="st3" d="M383.3,90.4c-4.1,0.2-4.9,0.8-4.9,5.2v30c0,4.4,0.8,5,4.9,5.2v1.2c-1.9-0.1-4.9-0.2-7.7-0.2
				c-3.1,0-6,0.1-7.7,0.2v-1.2c4.1-0.2,4.9-0.8,4.9-5.2v-30c0-4.4-0.8-5-4.9-5.2v-1.2c1.7,0.1,4.6,0.2,7.7,0.2
				c2.8,0,5.8-0.1,7.7-0.2V90.4z"/>
			<path class="st3" d="M398.8,125.6c0,4.4,1,5,6.1,5.2v1.2c-2.1-0.1-5.6-0.2-8.9-0.2c-3.1,0-6,0.1-7.7,0.2v-1.2
				c4.1-0.2,4.9-0.8,4.9-5.2v-30c0-4.4-0.8-5-4.9-5.2v-1.2c1.7,0.1,4.7,0.2,7.4,0.2c3.8,0,7.7-0.1,9.1-0.1c9.7,0,14.6,4.9,14.6,11.9
				c0,5.8-3.4,13.5-15.9,13.5h-4.7V125.6z M398.8,95.6v17.9h4.1c8.6,0,10.4-5.5,10.4-11.7c0-7.6-2.7-11.4-10-11.4
				C399.6,90.4,398.8,91.4,398.8,95.6z"/>
		</g>
	</g>
</g>
<g id="iron" class="st1">
	<g class="st2">
		<path class="st4" d="M92.6,22.9V31c0,0,61.5-10.8,56,52.5h19C167.6,83.5,203.5,19.2,92.6,22.9z"/>
		<path class="st4" d="M190.1,137.7h-32.6c0,0,28.2,38,7.1,60.4c-26.4,28-72,9.1-72,9.1v15.3c0,0,89.6,11.4,105.2-46.7
			C197.9,175.9,203,157.6,190.1,137.7z"/>
		<polygon class="st4" points="223.9,137.7 243.4,188.8 265.4,137.7 277.1,137.7 238.2,226.1 214.5,170.8 214.5,137.7 		"/>
		<path class="st4" d="M287.1,26.8h8.3c0,0,8.5,0.7,5.9,9.8S285.6,83,285.6,83h14.7l17.9-43.7c0,0,7-12.6,15.3-12.6h6.4
			c0,0,2.8-0.4,2.8-2c0-1.6-1.3-1.9-1.7-1.9s-52.5,0-52.5,0s-2.9-0.4-2.9,1.9C285.6,26.9,287.1,26.8,287.1,26.8z"/>
		<g>
			<path class="st4" d="M29.7,109.4c9.6,1.3,12.3,6,12.3,10.9c0,6.9-5.5,11.7-14.5,11.7c-1.8,0-5.4-0.2-10.4-0.2
				c-2.8,0-5.8,0.1-7.5,0.2v-1.2c4.1-0.2,4.9-0.8,4.9-5.2v-30c0-4.4-0.8-5-4.9-5.2v-1.2c1.7,0.1,4.7,0.2,7.4,0.2
				c3.8,0,7.7-0.1,9.1-0.1c8.5,0,12.7,3.9,12.7,9.5c0,4.3-2.4,8.4-9.2,10.5V109.4z M20.1,95.6v13.7h4.1c7.1,0,8.9-4.6,8.9-9.9
				c0-5.9-2.4-9-8.5-9C20.9,90.4,20.1,91.4,20.1,95.6z M35.9,120c0-6.1-3.1-9.7-10.8-9.7h-5.1v15.3c0,4.2,0.8,5,4.5,5
				C32.5,130.6,35.9,126.8,35.9,120z"/>
			<path class="st4" d="M84.2,129c-1.7,2.5-3.2,3.9-6.5,3.9c-3,0-5.3-1.4-6.5-6.5l-1.3-6c-1.2-5.1-2-8.6-6.8-8.6h-5.8v13.9
				c0,4.4,0.8,5,4.9,5.2v1.2c-1.9-0.1-4.9-0.2-7.7-0.2c-3.1,0-6,0.1-7.7,0.2v-1.2c4.1-0.2,4.9-0.8,4.9-5.2v-30c0-4.4-0.8-5-4.9-5.2
				v-1.2c1.7,0.1,4.7,0.2,7.4,0.2c3.8,0,7.7-0.1,9.1-0.1c9.7,0,14.6,4.6,14.6,10.5c0,4.2-2.6,10.2-11.7,11.6l0.7,0.1
				c5.4,0.9,7.3,2.9,8.5,8l1.5,6.2c0.7,3.5,1.4,5,3.1,5c1.5,0,2.2-0.9,3.3-2.3L84.2,129z M57.3,95.6v14.9h4.1
				c8.6,0,10.4-4.5,10.4-10c0-6.3-2.7-10-10-10C58.1,90.4,57.3,91.4,57.3,95.6z"/>
			<path class="st4" d="M117.3,132c-4.1-0.2-9.8-0.2-13.8-0.2c-3.6,0-11.6,0-17.5,0.2v-1.2c4.1-0.2,4.9-0.8,4.9-5.2v-30
				c0-4.4-0.8-5-4.9-5.2v-1.2c5.9,0.2,13.9,0.2,17.5,0.2c3.7,0,8.9,0,12.6-0.2c-0.3,2.8-0.4,5.8-0.4,7.1c0,1.4,0.1,2.8,0.2,3.7h-1.4
				c-0.8-7.1-1.7-9.5-8.1-9.5h-5c-4.1,0-4.9,0.6-4.9,5v14.2h4c5.3,0,5.1-5.1,5.6-8h1.4c-0.2,2.6-0.2,4.3-0.2,5.7c0,1.1,0,2,0,2.9
				c0,2,0.1,4,0.4,8.6h-1.4c-0.5-3.9-0.5-8-5.8-8h-4v14.5c0,4.4,0.8,5,4.9,5h4.4c7.6,0,9.1-2.7,9.9-10.7h1.4
				c-0.1,1.1-0.2,2.7-0.2,4.4C116.9,125.8,117,128.9,117.3,132z"/>
			<path class="st4" d="M155.6,96.9c0,1.9,0.1,3.7,0.2,5h-1.4c-0.9-8.4-1.7-11.3-9.3-11.3h-3.3V125c0,4.9,1,5.6,6.1,5.8v1.2
				c-2.1-0.1-5.6-0.2-8.9-0.2c-3.6,0-7,0.1-8.9,0.2v-1.2c5.1-0.2,6.1-0.9,6.1-5.8V90.6h-3.3c-7.6,0-8.5,2.9-9.3,11.3h-1.4
				c0.1-1.3,0.2-3,0.2-5c0-1.5-0.1-4.7-0.4-7.7c5,0.2,12.1,0.2,17.1,0.2s11.9,0,17-0.2C155.7,92.3,155.6,95.4,155.6,96.9z"/>
			<path class="st4" d="M189.2,126.9c1.2,3.1,2.9,3.8,4.2,3.9v1.2c-1.7-0.1-4.2-0.2-6.5-0.2c-3.1,0-6,0.1-7.7,0.2v-1.2
				c2.9-0.1,4.3-0.6,4.3-2.2c0-0.7-0.2-1.6-0.7-2.8l-3.7-9.9h-14.6l-2.5,6.4c-0.8,2.1-1.2,3.7-1.2,5c0,2.6,1.8,3.5,5.3,3.6v1.2
				c-2.3-0.1-4.8-0.2-7-0.2c-2,0-3.3,0.1-4.5,0.2v-1.2c1.6-0.4,3.4-1.6,4.7-5.3l14.2-36.6h1L189.2,126.9z M171.8,96.5l-6.9,18h13.7
				L171.8,96.5z"/>
			<path class="st4" d="M226,92.3c0.5,0.4,0.8,0.6,1.2,0.6c0.8,0,1.3-1.2,1.5-3.7h1.4c-0.2,2.9-0.2,6.9-0.2,13.9h-1.4
				c-0.6-3.4-1.2-6.6-3-8.9c-2.4-2.9-6.4-4.7-10.4-4.7c-8,0-13.3,8.2-13.3,21.2c0,14.5,4.5,21,14.4,21c2.9,0,5.1-1,6.3-1.9
				c1.5-1,1.7-1.8,1.7-3.3v-5.8c0-4.9-1-5.6-6.1-5.8v-1.2c2.1,0.1,5.8,0.2,8.5,0.2c2.7,0,4.8-0.1,6.3-0.2v1.2
				c-2.7,0.2-3.1,0.7-3.1,5.2v12h-1.2c-0.1-1.4-0.6-3.5-1.7-3.5c-0.5,0-0.8,0.1-2,1c-2.7,2-5.5,3.3-9.4,3.3
				c-12.5,0-19.8-8.1-19.8-21.5c0-14.1,8.2-23,19.4-23C220.3,88.3,223.1,90.2,226,92.3z"/>
			<path class="st4" d="M275.3,90.4c-4.1,0.2-4.9,1.4-4.9,5.8v36H269l-25.4-39.2V125c0,4.4,0.8,5.6,5.5,5.8v1.2
				c-1.4-0.1-4.1-0.2-6.2-0.2c-2,0-4.3,0.1-5.6,0.2v-1.2c4.1-0.2,4.9-1.4,4.9-5.8V95.6c0-4.4-0.8-5-4.9-5.2v-1.2
				c1.3,0.1,3.6,0.2,5.6,0.2c1.8,0,3.4-0.1,4.7-0.2l21.3,32.9V96.2c0-4.4-0.8-5.6-5.5-5.8v-1.2c1.4,0.1,4.1,0.2,6.2,0.2
				c2,0,4.3-0.1,5.6-0.2V90.4z"/>
			<path class="st4" d="M311.4,132c-4.1-0.2-9.8-0.2-13.8-0.2c-3.6,0-11.6,0-17.5,0.2v-1.2c4.1-0.2,4.9-0.8,4.9-5.2v-30
				c0-4.4-0.8-5-4.9-5.2v-1.2c5.9,0.2,13.9,0.2,17.5,0.2c3.7,0,8.9,0,12.6-0.2c-0.3,2.8-0.4,5.8-0.4,7.1c0,1.4,0.1,2.8,0.2,3.7h-1.4
				c-0.8-7.1-1.7-9.5-8.1-9.5h-5c-4.1,0-4.9,0.6-4.9,5v14.2h4c5.3,0,5.1-5.1,5.6-8h1.4c-0.2,2.6-0.2,4.3-0.2,5.7c0,1.1,0,2,0,2.9
				c0,2,0.1,4,0.4,8.6h-1.4c-0.5-3.9-0.5-8-5.8-8h-4v14.5c0,4.4,0.8,5,4.9,5h4.4c7.6,0,9.1-2.7,9.9-10.7h1.4
				c-0.1,1.1-0.2,2.7-0.2,4.4C311,125.8,311.1,128.9,311.4,132z"/>
			<path class="st4" d="M365.8,89.2v1.2c-1.6,0.4-3.4,1.6-4.8,5.3l-14.2,36.6h-0.5c-0.2,0-0.3,0-0.5,0l-14.7-38
				c-1.2-3.1-2.9-3.8-4.2-3.9v-1.2c1.6,0.1,4.2,0.2,6.5,0.2c3.1,0,6-0.1,7.7-0.2v1.2c-2.9,0.1-4.3,0.6-4.3,2.2
				c0,0.7,0.2,1.6,0.7,2.8l10.9,29l9.9-25.5c0.8-2.1,1.2-3.7,1.2-4.9c0-2.7-1.8-3.6-5.3-3.7v-1.2c2.3,0.1,4.8,0.2,7,0.2
				C363.3,89.4,364.6,89.3,365.8,89.2z"/>
			<path class="st4" d="M383.3,90.4c-4.1,0.2-4.9,0.8-4.9,5.2v30c0,4.4,0.8,5,4.9,5.2v1.2c-1.9-0.1-4.9-0.2-7.7-0.2
				c-3.1,0-6,0.1-7.7,0.2v-1.2c4.1-0.2,4.9-0.8,4.9-5.2v-30c0-4.4-0.8-5-4.9-5.2v-1.2c1.7,0.1,4.6,0.2,7.7,0.2
				c2.8,0,5.8-0.1,7.7-0.2V90.4z"/>
			<path class="st4" d="M398.8,125.6c0,4.4,1,5,6.1,5.2v1.2c-2.1-0.1-5.6-0.2-8.9-0.2c-3.1,0-6,0.1-7.7,0.2v-1.2
				c4.1-0.2,4.9-0.8,4.9-5.2v-30c0-4.4-0.8-5-4.9-5.2v-1.2c1.7,0.1,4.7,0.2,7.4,0.2c3.8,0,7.7-0.1,9.1-0.1c9.7,0,14.6,4.9,14.6,11.9
				c0,5.8-3.4,13.5-15.9,13.5h-4.7V125.6z M398.8,95.6v17.9h4.1c8.6,0,10.4-5.5,10.4-11.7c0-7.6-2.7-11.4-10-11.4
				C399.6,90.4,398.8,91.4,398.8,95.6z"/>
		</g>
	</g>
</g>
<g id="white" class="st1">
	<g class="st2">
		<path class="st5" d="M92.6,22.9V31c0,0,61.5-10.8,56,52.5h19C167.6,83.5,203.5,19.2,92.6,22.9z"/>
		<path class="st5" d="M190.1,137.7h-32.6c0,0,28.2,38,7.1,60.4c-26.4,28-72,9.1-72,9.1v15.3c0,0,89.6,11.4,105.2-46.7
			C197.9,175.9,203,157.6,190.1,137.7z"/>
		<polygon class="st5" points="223.9,137.7 243.4,188.8 265.4,137.7 277.1,137.7 238.2,226.1 214.5,170.8 214.5,137.7 		"/>
		<path class="st5" d="M287.1,26.8h8.3c0,0,8.5,0.7,5.9,9.8S285.6,83,285.6,83h14.7l17.9-43.7c0,0,7-12.6,15.3-12.6h6.4
			c0,0,2.8-0.4,2.8-2c0-1.6-1.3-1.9-1.7-1.9s-52.5,0-52.5,0s-2.9-0.4-2.9,1.9C285.6,26.9,287.1,26.8,287.1,26.8z"/>
		<g>
			<path class="st5" d="M29.7,109.4c9.6,1.3,12.3,6,12.3,10.9c0,6.9-5.5,11.7-14.5,11.7c-1.8,0-5.4-0.2-10.4-0.2
				c-2.8,0-5.8,0.1-7.5,0.2v-1.2c4.1-0.2,4.9-0.8,4.9-5.2v-30c0-4.4-0.8-5-4.9-5.2v-1.2c1.7,0.1,4.7,0.2,7.4,0.2
				c3.8,0,7.7-0.1,9.1-0.1c8.5,0,12.7,3.9,12.7,9.5c0,4.3-2.4,8.4-9.2,10.5V109.4z M20.1,95.6v13.7h4.1c7.1,0,8.9-4.6,8.9-9.9
				c0-5.9-2.4-9-8.5-9C20.9,90.4,20.1,91.4,20.1,95.6z M35.9,120c0-6.1-3.1-9.7-10.8-9.7h-5.1v15.3c0,4.2,0.8,5,4.5,5
				C32.5,130.6,35.9,126.8,35.9,120z"/>
			<path class="st5" d="M84.2,129c-1.7,2.5-3.2,3.9-6.5,3.9c-3,0-5.3-1.4-6.5-6.5l-1.3-6c-1.2-5.1-2-8.6-6.8-8.6h-5.8v13.9
				c0,4.4,0.8,5,4.9,5.2v1.2c-1.9-0.1-4.9-0.2-7.7-0.2c-3.1,0-6,0.1-7.7,0.2v-1.2c4.1-0.2,4.9-0.8,4.9-5.2v-30c0-4.4-0.8-5-4.9-5.2
				v-1.2c1.7,0.1,4.7,0.2,7.4,0.2c3.8,0,7.7-0.1,9.1-0.1c9.7,0,14.6,4.6,14.6,10.5c0,4.2-2.6,10.2-11.7,11.6l0.7,0.1
				c5.4,0.9,7.3,2.9,8.5,8l1.5,6.2c0.7,3.5,1.4,5,3.1,5c1.5,0,2.2-0.9,3.3-2.3L84.2,129z M57.3,95.6v14.9h4.1
				c8.6,0,10.4-4.5,10.4-10c0-6.3-2.7-10-10-10C58.1,90.4,57.3,91.4,57.3,95.6z"/>
			<path class="st5" d="M117.3,132c-4.1-0.2-9.8-0.2-13.8-0.2c-3.6,0-11.6,0-17.5,0.2v-1.2c4.1-0.2,4.9-0.8,4.9-5.2v-30
				c0-4.4-0.8-5-4.9-5.2v-1.2c5.9,0.2,13.9,0.2,17.5,0.2c3.7,0,8.9,0,12.6-0.2c-0.3,2.8-0.4,5.8-0.4,7.1c0,1.4,0.1,2.8,0.2,3.7h-1.4
				c-0.8-7.1-1.7-9.5-8.1-9.5h-5c-4.1,0-4.9,0.6-4.9,5v14.2h4c5.3,0,5.1-5.1,5.6-8h1.4c-0.2,2.6-0.2,4.3-0.2,5.7c0,1.1,0,2,0,2.9
				c0,2,0.1,4,0.4,8.6h-1.4c-0.5-3.9-0.5-8-5.8-8h-4v14.5c0,4.4,0.8,5,4.9,5h4.4c7.6,0,9.1-2.7,9.9-10.7h1.4
				c-0.1,1.1-0.2,2.7-0.2,4.4C116.9,125.8,117,128.9,117.3,132z"/>
			<path class="st5" d="M155.6,96.9c0,1.9,0.1,3.7,0.2,5h-1.4c-0.9-8.4-1.7-11.3-9.3-11.3h-3.3V125c0,4.9,1,5.6,6.1,5.8v1.2
				c-2.1-0.1-5.6-0.2-8.9-0.2c-3.6,0-7,0.1-8.9,0.2v-1.2c5.1-0.2,6.1-0.9,6.1-5.8V90.6h-3.3c-7.6,0-8.5,2.9-9.3,11.3h-1.4
				c0.1-1.3,0.2-3,0.2-5c0-1.5-0.1-4.7-0.4-7.7c5,0.2,12.1,0.2,17.1,0.2s11.9,0,17-0.2C155.7,92.3,155.6,95.4,155.6,96.9z"/>
			<path class="st5" d="M189.2,126.9c1.2,3.1,2.9,3.8,4.2,3.9v1.2c-1.7-0.1-4.2-0.2-6.5-0.2c-3.1,0-6,0.1-7.7,0.2v-1.2
				c2.9-0.1,4.3-0.6,4.3-2.2c0-0.7-0.2-1.6-0.7-2.8l-3.7-9.9h-14.6l-2.5,6.4c-0.8,2.1-1.2,3.7-1.2,5c0,2.6,1.8,3.5,5.3,3.6v1.2
				c-2.3-0.1-4.8-0.2-7-0.2c-2,0-3.3,0.1-4.5,0.2v-1.2c1.6-0.4,3.4-1.6,4.7-5.3l14.2-36.6h1L189.2,126.9z M171.8,96.5l-6.9,18h13.7
				L171.8,96.5z"/>
			<path class="st5" d="M226,92.3c0.5,0.4,0.8,0.6,1.2,0.6c0.8,0,1.3-1.2,1.5-3.7h1.4c-0.2,2.9-0.2,6.9-0.2,13.9h-1.4
				c-0.6-3.4-1.2-6.6-3-8.9c-2.4-2.9-6.4-4.7-10.4-4.7c-8,0-13.3,8.2-13.3,21.2c0,14.5,4.5,21,14.4,21c2.9,0,5.1-1,6.3-1.9
				c1.5-1,1.7-1.8,1.7-3.3v-5.8c0-4.9-1-5.6-6.1-5.8v-1.2c2.1,0.1,5.8,0.2,8.5,0.2c2.7,0,4.8-0.1,6.3-0.2v1.2
				c-2.7,0.2-3.1,0.7-3.1,5.2v12h-1.2c-0.1-1.4-0.6-3.5-1.7-3.5c-0.5,0-0.8,0.1-2,1c-2.7,2-5.5,3.3-9.4,3.3
				c-12.5,0-19.8-8.1-19.8-21.5c0-14.1,8.2-23,19.4-23C220.3,88.3,223.1,90.2,226,92.3z"/>
			<path class="st5" d="M275.3,90.4c-4.1,0.2-4.9,1.4-4.9,5.8v36H269l-25.4-39.2V125c0,4.4,0.8,5.6,5.5,5.8v1.2
				c-1.4-0.1-4.1-0.2-6.2-0.2c-2,0-4.3,0.1-5.6,0.2v-1.2c4.1-0.2,4.9-1.4,4.9-5.8V95.6c0-4.4-0.8-5-4.9-5.2v-1.2
				c1.3,0.1,3.6,0.2,5.6,0.2c1.8,0,3.4-0.1,4.7-0.2l21.3,32.9V96.2c0-4.4-0.8-5.6-5.5-5.8v-1.2c1.4,0.1,4.1,0.2,6.2,0.2
				c2,0,4.3-0.1,5.6-0.2V90.4z"/>
			<path class="st5" d="M311.4,132c-4.1-0.2-9.8-0.2-13.8-0.2c-3.6,0-11.6,0-17.5,0.2v-1.2c4.1-0.2,4.9-0.8,4.9-5.2v-30
				c0-4.4-0.8-5-4.9-5.2v-1.2c5.9,0.2,13.9,0.2,17.5,0.2c3.7,0,8.9,0,12.6-0.2c-0.3,2.8-0.4,5.8-0.4,7.1c0,1.4,0.1,2.8,0.2,3.7h-1.4
				c-0.8-7.1-1.7-9.5-8.1-9.5h-5c-4.1,0-4.9,0.6-4.9,5v14.2h4c5.3,0,5.1-5.1,5.6-8h1.4c-0.2,2.6-0.2,4.3-0.2,5.7c0,1.1,0,2,0,2.9
				c0,2,0.1,4,0.4,8.6h-1.4c-0.5-3.9-0.5-8-5.8-8h-4v14.5c0,4.4,0.8,5,4.9,5h4.4c7.6,0,9.1-2.7,9.9-10.7h1.4
				c-0.1,1.1-0.2,2.7-0.2,4.4C311,125.8,311.1,128.9,311.4,132z"/>
			<path class="st5" d="M365.8,89.2v1.2c-1.6,0.4-3.4,1.6-4.8,5.3l-14.2,36.6h-0.5c-0.2,0-0.3,0-0.5,0l-14.7-38
				c-1.2-3.1-2.9-3.8-4.2-3.9v-1.2c1.6,0.1,4.2,0.2,6.5,0.2c3.1,0,6-0.1,7.7-0.2v1.2c-2.9,0.1-4.3,0.6-4.3,2.2
				c0,0.7,0.2,1.6,0.7,2.8l10.9,29l9.9-25.5c0.8-2.1,1.2-3.7,1.2-4.9c0-2.7-1.8-3.6-5.3-3.7v-1.2c2.3,0.1,4.8,0.2,7,0.2
				C363.3,89.4,364.6,89.3,365.8,89.2z"/>
			<path class="st5" d="M383.3,90.4c-4.1,0.2-4.9,0.8-4.9,5.2v30c0,4.4,0.8,5,4.9,5.2v1.2c-1.9-0.1-4.9-0.2-7.7-0.2
				c-3.1,0-6,0.1-7.7,0.2v-1.2c4.1-0.2,4.9-0.8,4.9-5.2v-30c0-4.4-0.8-5-4.9-5.2v-1.2c1.7,0.1,4.6,0.2,7.7,0.2
				c2.8,0,5.8-0.1,7.7-0.2V90.4z"/>
			<path class="st5" d="M398.8,125.6c0,4.4,1,5,6.1,5.2v1.2c-2.1-0.1-5.6-0.2-8.9-0.2c-3.1,0-6,0.1-7.7,0.2v-1.2
				c4.1-0.2,4.9-0.8,4.9-5.2v-30c0-4.4-0.8-5-4.9-5.2v-1.2c1.7,0.1,4.7,0.2,7.4,0.2c3.8,0,7.7-0.1,9.1-0.1c9.7,0,14.6,4.9,14.6,11.9
				c0,5.8-3.4,13.5-15.9,13.5h-4.7V125.6z M398.8,95.6v17.9h4.1c8.6,0,10.4-5.5,10.4-11.7c0-7.6-2.7-11.4-10-11.4
				C399.6,90.4,398.8,91.4,398.8,95.6z"/>
		</g>
	</g>
</g>
</svg>
