<?xml version="1.0" encoding="utf-8"?>
<!-- Generator: Adobe Illustrator 19.2.1, SVG Export Plug-In . SVG Version: 6.00 Build 0)  -->
<svg version="1.1" id="Calque_1" xmlns="http://www.w3.org/2000/svg" xmlns:xlink="http://www.w3.org/1999/xlink" x="0px" y="0px"
	 viewBox="0 0 300 200" style="enable-background:new 0 0 300 200;" xml:space="preserve">
<style type="text/css">
	.st0{fill:#284891;}
	.st1{fill:#FFDD00;}
</style>
<rect class="st0" width="300" height="200"/>
<g>
	<polygon class="st1" points="166.5,34.6 167.5,41.7 174.6,42.5 168.1,45.7 169.5,52.7 164.6,47.6 158.2,51 161.6,44.7 156.4,39.9 
		163.5,41.1 	"/>
	<polygon class="st1" points="197.4,44.1 196.2,51.2 202.8,54.1 195.7,55.2 194.9,62.4 191.7,55.9 184.7,57.4 189.8,52.4 
		186.2,46.2 192.6,49.4 	"/>
	<polygon class="st1" points="224.1,62.3 221,68.7 226.4,73.4 219.3,72.4 216.5,79 215.3,71.9 208.1,71.3 214.4,67.9 212.8,61 
		217.9,66 	"/>
	<polygon class="st1" points="244.4,87.5 239.5,92.7 243.3,98.7 236.8,95.7 232.2,101.2 233.1,94.1 226.4,91.4 233.5,90.1 
		233.9,82.9 237.4,89.2 	"/>
	<polygon class="st1" points="256.4,117.4 250.1,121 252,127.9 246.7,123.1 240.7,127.1 243.6,120.5 238.1,116 245.2,116.8 
		247.8,110.1 249.2,117.1 	"/>
	<polygon class="st1" points="259.1,149.6 252.1,151.3 251.9,158.4 248.2,152.2 241.3,154.2 246,148.8 242,142.9 248.6,145.7 
		253,140 252.4,147.2 	"/>
	<polygon class="st1" points="134.2,34.5 137.2,41 144.2,39.7 139,44.6 142.4,51 136.1,47.4 131.1,52.6 132.5,45.6 126,42.5 
		133.2,41.6 	"/>
	<polygon class="st1" points="103.2,43.9 108,49.2 114.4,45.9 110.8,52.1 115.9,57.2 108.9,55.7 105.6,62.1 104.9,55 97.8,53.8 
		104.3,51 	"/>
	<polygon class="st1" points="76.4,61.8 82.5,65.6 87.7,60.5 86,67.6 92.4,70.9 85.2,71.5 84,78.5 81.2,71.9 74.1,73 79.5,68.3 	"/>
	<polygon class="st1" points="55.9,86.9 62.9,88.7 66.4,82.4 66.8,89.5 73.9,90.9 67.3,93.5 68.1,100.7 63.6,95.2 57,98.2 
		60.8,92.1 	"/>
	<polygon class="st1" points="43.7,116.8 51,116.5 52.4,109.4 55,116.2 62.1,115.4 56.5,119.9 59.4,126.5 53.4,122.5 48.1,127.3 
		50,120.4 	"/>
	<polygon class="st1" points="40.9,149 47.6,146.6 47,139.4 51.4,145.1 58,142.3 53.9,148.2 58.7,153.6 51.7,151.6 48.1,157.8 
		47.9,150.6 	"/>
	<path class="st1" d="M150.1,58.6c-46.2,0-83.8,38.8-83.8,86.2c0,4.7,0.2,14.3,0,14.6h167.8v-14.6C234.1,97.3,196.3,58.6,150.1,58.6
		z M132.7,120.5h-13.3c-1.8,0.1-2.8,0.5-3.4,1.2c-0.3,0.4-0.5,0.8-0.6,1.3c-0.1,0.5,0,1.2,0.2,1.8c0.2,0.8,0.8,1.5,1.5,1.8l11.6,4.2
		l0.1,0.1c3,1.3,4.9,3.4,5.6,5.8c0.5,1.6,0.6,3.3,0.3,4.9c-0.3,1.6-1,3-2,4.2c-1.6,1.9-3.9,3.3-6.7,3.3H97.4v-3.3
		c0.1-6.4-0.1-12.7,0-19.1v-0.1c0.1-2.2-0.4-3.8-1.2-4.6c-0.5-0.5-1.1-0.8-1.8-1c-0.8-0.2-1.6-0.2-2.4,0.1c-1.3,0.3-2.5,1.1-3,2.1
		l-11.9,24.2c-0.7,1.5-1.5,3-4.4,1.5c-3-1.5-2.2-3-1.5-4.4L83.1,120l0.1-0.1c1.5-2.8,4.2-4.7,7.3-5.5c1.8-0.5,3.8-0.5,5.6-0.1
		c1.9,0.5,3.8,1.5,5.2,3c1.9,2.1,3.1,5.2,2.9,9.4c-0.1,5.2,0,10.4,0,15.6h21.8c0.7,0,1.2-0.4,1.6-0.8c0.3-0.4,0.5-0.8,0.6-1.4
		c0.1-0.5,0.1-1-0.1-1.4c-0.2-0.7-0.8-1.3-1.8-1.8l-11.5-4.2c-2.7-1-4.7-3.3-5.5-5.9c-0.5-1.5-0.7-3.2-0.4-4.8
		c0.2-1.7,0.9-3.3,2.1-4.7c1.8-2.1,4.5-3.5,8.4-3.6h13.5v-0.1c1.6,0,3.3,0.1,3.3,3.5C136.1,120.6,134.4,120.5,132.7,120.5z
		 M159.5,145.7c0,1.8,0,3.5-3.5,3.5c-3.5,0-3.5-1.8-3.5-3.5v-18.9c0-1.8,0-3.5,3.5-3.5c3.5,0,3.5,1.8,3.5,3.5V145.7z M199.2,153.6
		c-2.4,2.3-3.5,1.1-4.7-0.1l-19.2-19.9l4.8-1.8c2.8-1,4.5-3,5.2-5c0.4-1,0.4-2,0.3-2.9c-0.1-0.8-0.4-1.6-0.8-2.1
		c-0.7-0.8-1.8-1.3-3.4-1.3h-39.1v0.1c-1.6,0-3.4-0.2-3.3-3.5c0.1-3.3,1.6-3.2,3.3-3.2h39c3.8-0.1,6.7,1.5,8.6,3.8
		c1.3,1.5,2.1,3.4,2.3,5.5c0.2,1.9,0.1,4-0.6,5.9c-0.8,2.5-2.5,4.9-5,6.7l12.7,13.1C200.5,150.2,201.6,151.3,199.2,153.6z
		 M222.1,120.7l-12.6-0.2c-4.4,0.2-7,3.6-7.9,7.6c-0.5,2.2-0.5,4.7,0.1,7c0.3,1.2,0.7,2.4,1.3,3.5c1.3,2.2,3.4,3.8,6.2,3.8h12.9
		c1.6,0,3.3,0,3.3,3.3c0,3.3-1.6,3.3-3.3,3.3h-12.9c-5.5,0-9.5-3-11.9-7.2c-0.9-1.6-1.6-3.4-2.1-5.3c-0.7-3.2-0.8-6.6-0.1-9.8
		c1.5-6.9,6.1-12.7,14.3-12.9h0.1l12.7,0.1c1.7,0,3.3,0.1,3.3,3.4C225.4,120.8,223.8,120.7,222.1,120.7z M223.1,131.2
		c0,1.7-0.8,1.7-1.6,1.7h-12.6c-0.8,0-1.6,0-1.6-1.7c0-1.6,0.8-1.6,1.6-1.6h12.6C222.4,129.6,223.1,129.6,223.1,131.2z"/>
</g>
</svg>
