<?xml version="1.0" standalone="no"?>
<!DOCTYPE svg PUBLIC "-//W3C//DTD SVG 20010904//EN"
 "http://www.w3.org/TR/2001/REC-SVG-20010904/DTD/svg10.dtd">
<svg version="1.0" xmlns="http://www.w3.org/2000/svg"
 width="400.000000pt" height="400.000000pt" viewBox="0 0 400.000000 400.000000"
 preserveAspectRatio="xMidYMid meet">
<metadata>
Created by potrace 1.11, written by Peter Selinger 2001-2013
</metadata>
<g transform="translate(0.000000,400.000000) scale(0.100000,-0.100000)"
fill="#000000" stroke="none">
<path d="M2264 3827 c75 -43 191 -120 224 -148 41 -37 58 -37 37 -1 -43 69
-198 172 -260 171 l-40 0 39 -22z"/>
<path d="M1975 3819 c-27 -4 -117 -19 -200 -33 -175 -30 -248 -39 -350 -45
-15 -1 -17 -3 -7 -10 8 -5 37 -7 65 -4 l52 4 -32 -20 c-39 -25 -42 -41 -9 -41
14 0 28 -5 32 -12 4 -6 3 -8 -4 -4 -6 3 -13 2 -17 -3 -3 -6 7 -17 22 -25 27
-15 27 -15 5 -16 -13 0 -20 -4 -17 -10 9 -15 -4 -12 -51 10 -32 16 -47 18 -67
11 -20 -8 -27 -7 -31 6 -6 14 -11 12 -34 -9 -15 -14 -60 -43 -101 -64 -83 -43
-189 -133 -157 -134 13 0 2 -12 -35 -38 -48 -35 -73 -46 -132 -57 -17 -4 -70
-38 -94 -61 -7 -7 -13 -20 -13 -30 0 -14 2 -15 16 -3 9 8 30 14 46 15 l29 2
-23 -27 c-13 -14 -27 -29 -33 -33 -5 -4 -6 -10 -2 -14 4 -4 25 10 47 31 30 30
40 35 40 21 0 -13 9 -8 35 19 19 21 39 34 45 30 9 -5 9 -10 1 -18 -19 -19 -12
-27 18 -21 30 6 39 -1 46 -36 3 -17 0 -20 -15 -15 -21 7 -60 -10 -60 -25 0 -5
8 -11 18 -15 11 -3 24 -17 30 -30 6 -14 17 -25 23 -25 7 0 21 -7 31 -16 14
-14 20 -14 33 -4 10 8 15 9 15 1 0 -6 -4 -11 -10 -11 -5 0 -10 -7 -10 -16 0
-12 6 -15 23 -10 60 18 69 18 58 -2 -7 -13 -6 -23 2 -31 9 -9 9 -14 -3 -21
-12 -7 -11 -12 5 -31 l20 -23 -32 22 c-17 12 -45 22 -62 22 -28 0 -31 2 -22
19 8 14 7 22 -4 31 -7 6 -15 21 -17 33 -5 33 -52 31 -56 -3 -2 -19 -1 -22 7
-10 5 8 13 11 17 7 4 -4 0 -15 -9 -25 -19 -21 -13 -34 11 -24 10 4 4 -10 -16
-35 -38 -48 -41 -61 -9 -41 12 8 31 18 41 22 15 5 13 1 -7 -20 -31 -31 -37
-67 -10 -57 12 5 8 -3 -10 -20 -32 -33 -35 -51 -6 -42 20 7 20 6 4 -19 -10
-14 -14 -26 -10 -26 10 0 44 43 45 56 0 15 39 64 51 64 5 0 8 -3 8 -7 -3 -20
2 -34 11 -28 5 3 10 1 10 -4 0 -6 -4 -11 -8 -11 -5 0 -14 -11 -20 -25 -15 -32
-15 -38 -2 -30 12 8 13 11 -5 -55 -12 -48 -12 -53 1 -35 32 43 45 55 61 55 12
0 3 -14 -30 -48 l-47 -47 40 0 c29 0 39 4 35 13 -3 8 1 20 9 28 19 18 26 18
26 -2 0 -13 3 -14 15 -4 17 14 36 5 28 -15 -3 -8 -3 -22 1 -30 4 -12 11 -13
43 -1 21 7 56 11 78 8 58 -7 105 -7 142 0 43 8 49 -5 24 -48 -33 -55 -25 -60
25 -15 90 84 160 94 267 40 31 -16 72 -31 90 -33 42 -5 131 19 182 48 22 13
49 22 60 20 11 -2 40 -7 65 -11 25 -4 97 -8 160 -8 l115 0 84 53 c52 33 90 51
100 47 14 -6 13 -9 -5 -23 -12 -9 -30 -22 -40 -28 -34 -21 -10 -23 33 -4 l41
18 -10 -29 c-13 -37 -8 -42 26 -29 23 9 27 8 25 -8 -1 -9 1 -25 6 -35 4 -9 5
-27 2 -38 -4 -16 0 -23 14 -26 16 -4 19 -11 15 -29 -5 -19 -2 -24 11 -24 15 0
16 -2 3 -10 -13 -8 -12 -13 4 -40 10 -18 16 -42 13 -56 -8 -43 20 -26 31 19
l11 42 -6 -55 c-4 -53 -3 -56 27 -78 27 -20 30 -28 25 -53 -6 -25 -3 -31 14
-36 24 -6 25 -8 11 -33 -7 -13 -7 -28 1 -47 6 -15 11 -50 10 -77 0 -28 3 -54
6 -59 8 -14 83 64 83 88 0 11 -9 35 -20 53 -11 18 -20 41 -20 52 0 11 -4 20
-9 20 -4 0 -6 10 -4 23 3 13 -4 31 -17 45 l-21 22 35 59 c20 32 43 64 51 71
13 11 15 8 15 -16 1 -27 2 -28 15 -11 13 18 14 17 18 -5 4 -21 4 -21 6 4 1 20
5 26 16 22 14 -6 18 3 28 70 3 16 1 44 -5 62 -14 53 -18 114 -7 114 5 0 18
-14 27 -31 9 -17 23 -38 30 -47 10 -15 11 -13 6 13 -4 17 -20 64 -36 105 -42
108 -42 108 -19 75 11 -16 21 -28 22 -25 0 3 2 13 4 22 3 16 -4 55 -19 108 -6
20 -5 22 4 10 9 -12 10 -9 5 15 -4 17 -8 35 -9 40 -10 47 -71 117 -130 147
-28 14 -35 23 -27 31 17 17 13 29 -8 22 -14 -4 -23 0 -30 13 -6 11 -34 33 -63
50 -29 17 -62 37 -73 46 -19 15 -19 16 10 6 29 -11 29 -11 10 10 -10 11 -34
30 -53 42 -24 15 -30 23 -21 29 10 6 3 18 -27 47 -23 21 -50 52 -60 67 l-19
29 30 -16 c17 -9 37 -19 45 -21 8 -3 23 -28 33 -56 17 -49 37 -68 37 -36 0 18
12 19 28 3 24 -24 13 12 -17 55 -37 55 -46 84 -30 103 18 22 8 25 -43 9 -44
-13 -47 -13 -67 11 -11 13 -26 24 -32 24 -27 0 -139 66 -198 117 -73 62 -131
94 -215 118 -65 19 -175 25 -251 14z m-469 -423 c-3 -12 -6 -25 -6 -29 0 -5
-4 -5 -10 -2 -16 10 -12 52 6 52 11 0 14 -7 10 -21z m-53 -34 c13 -11 14 -18
6 -23 -9 -5 -10 -19 -3 -50 10 -48 31 -55 26 -9 -2 17 -1 30 2 30 3 0 22 -36
42 -80 20 -44 40 -80 44 -80 9 0 60 -94 60 -110 0 -13 -72 64 -125 132 -32 42
-45 47 -46 21 0 -10 -9 1 -19 25 -22 49 -36 52 -90 16 -22 -15 -43 -25 -45
-22 -9 8 36 59 46 52 14 -8 41 16 35 31 -3 8 2 11 12 8 15 -3 17 3 14 43 -4
49 0 51 41 16z m-194 -27 c-3 -2 -30 -17 -61 -33 l-56 -28 -22 23 c-15 15 -18
23 -9 23 8 0 25 3 38 7 17 4 22 3 17 -5 -10 -16 3 -15 34 3 23 13 70 21 59 10z
m1499 -199 c50 -26 195 -197 173 -204 -5 -2 -33 21 -61 50 -29 29 -77 79 -108
111 -56 56 -57 71 -4 43z m2 -313 c0 -12 -70 -57 -76 -50 -9 9 43 57 61 57 8
0 15 -3 15 -7z"/>
<path d="M945 3121 c1 -11 7 -26 14 -35 11 -14 11 -16 -3 -16 -9 0 -21 -11
-28 -24 -6 -14 -17 -27 -24 -30 -19 -7 -18 4 2 19 11 8 14 19 9 34 -9 28 -31
21 -28 -8 2 -18 -1 -22 -19 -19 -15 2 -26 -5 -35 -22 -16 -32 -5 -42 14 -12
16 23 33 29 33 11 0 -5 -4 -7 -10 -4 -5 3 -10 1 -10 -5 0 -18 27 -22 52 -9 20
11 21 10 10 -3 -10 -13 -9 -18 3 -28 12 -10 15 -9 15 6 0 14 3 15 12 6 9 -9 7
-16 -7 -32 -24 -26 -13 -38 12 -13 22 22 36 53 25 53 -4 0 -8 9 -9 20 -1 11 3
20 10 20 6 0 2 6 -8 14 -18 13 -18 14 3 27 27 17 27 24 2 49 -25 25 -37 25
-35 1z"/>
<path d="M3042 2358 c-17 -21 -20 -98 -3 -98 9 0 25 99 18 106 -2 3 -9 -1 -15
-8z"/>
<path d="M3061 2239 c-30 -40 -39 -69 -23 -69 9 0 65 101 58 107 -2 3 -18 -14
-35 -38z"/>
<path d="M3006 1902 c-34 -54 -45 -126 -44 -302 0 -85 -5 -184 -11 -219 -6
-38 -7 -70 -1 -80 16 -28 26 11 46 182 2 20 6 54 9 75 2 20 7 57 10 82 5 45
10 78 20 135 3 17 8 60 12 98 7 79 -4 87 -41 29z"/>
<path d="M1200 949 c0 -39 86 -233 134 -304 75 -109 143 -192 223 -272 132
-131 199 -173 329 -207 116 -30 211 -17 344 46 74 36 99 55 205 162 131 132
213 240 280 369 40 78 80 186 71 194 -2 2 -25 -29 -52 -69 -163 -248 -273
-358 -262 -263 l4 35 -71 -74 c-126 -129 -245 -204 -290 -179 -21 12 -42 68
-51 135 -10 72 0 93 56 124 27 15 47 30 45 34 -7 11 -335 10 -335 -1 0 -5 17
-17 38 -28 21 -11 44 -27 52 -36 18 -22 15 -99 -7 -165 -23 -68 -50 -82 -109
-54 -73 34 -209 150 -259 222 -9 12 -21 22 -27 22 -7 0 -7 -4 -1 -12 5 -7 8
-19 7 -25 -1 -7 -2 -17 -3 -23 -3 -29 -57 9 -112 80 -48 63 -90 121 -139 195
-56 83 -70 103 -70 94z"/>
</g>
</svg>
