<?xml version="1.0" encoding="utf-8"?>
<!-- Generator: Adobe Illustrator 15.0.0, SVG Export Plug-In . SVG Version: 6.00 Build 0)  -->
<!DOCTYPE svg PUBLIC "-//W3C//DTD SVG 1.1//EN" "http://www.w3.org/Graphics/SVG/1.1/DTD/svg11.dtd">
<svg version="1.1" id="Calque_1" xmlns="http://www.w3.org/2000/svg" xmlns:xlink="http://www.w3.org/1999/xlink" x="0px" y="0px"
	 width="283.46px" height="212.6px" viewBox="0 0 283.46 212.6" enable-background="new 0 0 283.46 212.6" xml:space="preserve">
<g>
	<path fill="#52382F" d="M108.848,143.947c-0.631,2.145-1.767,14.387-5.3,32.432C99.257,198.213,91.685,212.6,73.134,212.6
		c-12.368,0-18.425-8.709-18.425-17.416c0-8.455,5.805-16.91,16.911-17.164l1.515,11.107c-5.174,0.756-7.825,4.922-7.825,8.832
		c0,4.291,2.903,8.33,8.582,8.33c15.018,0,16.153-18.424,21.454-45.557c-4.039,4.92-10.222,8.328-19.687,8.328
		c-12.872,0-20.823-9.465-24.609-22.338c-1.893,0.127-3.786,0.252-5.806,0.252c-29.656,0-42.655-17.414-42.655-34.072
		c0-15.523,11.232-30.541,30.792-30.541c4.039,0,7.698,1.01,10.979,2.903l-4.165,8.456c-2.902-1.641-5.806-2.65-9.591-2.65
		c-11.736,0-19.687,11.231-19.687,22.967c0,12.998,9.591,26.629,34.325,26.629c1.515,0,3.029,0,4.417-0.127
		c-0.631-4.037-1.009-8.455-1.009-12.998c0-32.054,16.91-70.924,47.198-70.924c14.513,0,21.454,10.727,21.454,24.735
		c0,23.347-19.183,55.78-54.897,63.856c2.398,10.727,7.824,17.668,16.784,17.668c18.425,0,18.93-22.338,24.861-34.957l10.096,4.418
		L108.848,143.947z M95.345,62.927c-21.202,0-34.579,37.354-34.579,66.254c0,3.281,0.126,6.563,0.504,9.465
		c30.415-8.076,44.296-38.87,44.296-58.556C105.566,70.121,102.033,62.927,95.345,62.927z"/>
	<path fill="#52382F" d="M142.167,159.344c2.776,0,7.193-6.689,12.746-21.203c0.632,0,3.533,0.885,3.533,1.643v0.125
		c-5.553,14.387-9.969,29.025-20.317,29.025c-5.932,0-8.329-3.281-8.329-9.213c0-7.191,5.932-17.414,5.932-23.85
		c0-4.291-1.641-7.447-3.534-10.475c-4.038,15.648-9.465,32.811-13.755,44.168l-3.534-1.766c3.534-9.34,9.464-31.297,13.629-48.461
		c-1.515-3.029-2.776-6.563-2.776-11.484c0-3.912,0.757-8.582,2.65-14.638l9.591,1.893c-0.252,5.048-1.515,12.115-3.281,20.066
		c4.038,4.922,11.231,10.223,11.231,18.551c0,8.076-5.805,18.551-5.805,22.969C140.148,158.586,140.905,159.344,142.167,159.344z"/>
	<path fill="#52382F" d="M171.445,110.756c0,0-2.523,10.475-5.679,26.629c-1.388,7.068-2.524,12.998-2.524,18.047
		c0,3.658,1.388,4.289,2.524,4.289c2.019,0,5.805-7.445,8.455-18.424l0.758-4.164c1.894-10.729,4.291-20.066,5.804-26.377h10.728
		c-4.417,19.688-8.076,34.328-8.076,44.676c0,3.658,1.389,4.289,2.523,4.289c3.282,0,7.446-7.066,12.999-21.58
		c0.631,0,3.534,0.885,3.534,1.643v0.125c-5.554,14.387-9.97,29.025-20.319,29.025c-5.553,0-8.076-4.164-8.834-10.348
		c-2.775,6.184-6.436,10.348-11.357,10.348c-6.688,0-8.96-6.057-8.96-14.512c0-5.174,0.883-11.232,2.02-17.289
		c3.155-16.406,5.679-26.377,5.679-26.377H171.445z"/>
	<path fill="#52382F" d="M192.648,168.303c0,0,1.135-11.482,4.67-20.949c2.524-14.26,4.669-27.006,6.184-36.598h10.853l-1.641,9.465
		c3.786-6.436,8.455-10.852,13.63-10.852c4.921,0,6.941,3.91,6.941,8.707c0,0.883-0.127,2.02-0.254,3.154
		c4.418-7.32,9.844-11.861,15.776-11.861c4.417,0,7.318,2.902,7.318,8.959c0,11.736-8.203,26.756-8.203,37.104
		c0,3.658,1.389,4.289,2.524,4.289c3.281,0,7.445-7.066,12.998-21.58c0.758,0,3.535,1.012,3.535,1.768
		c-5.553,14.387-11.232,29.025-21.581,29.025c-4.418,0-8.582-3.533-8.582-11.232c0-13.629,8.204-27.637,8.204-36.723
		c0-1.389-0.632-2.523-2.021-2.523c-3.154,0-8.834,6.057-13.124,24.607c-1.894,10.223-4.038,20.572-5.174,25.24h-11.484
		c3.028-13.881,8.834-40.889,8.834-46.314c0-2.02-0.631-2.65-1.64-2.65c-4.039,0-9.339,9.844-12.747,27.891l-4.037,21.074H192.648z"
		/>
	<path fill="#52382F" d="M266.914,95.602c0.602-1.115,1.201-2.232,1.639-3.281c1.938-4.661,2.322-8.875,2.212-14.524l9.871-0.406
		c-0.462,4.728-1.671,9.282-3.367,13.36c-1.308,3.146-2.917,6.031-4.612,8.469L266.914,95.602z"/>
</g>
<g>
	<g>
		
			<linearGradient id="SVGID_1_" gradientUnits="userSpaceOnUse" x1="157.5059" y1="151.5117" x2="121.568" y2="90.4472" gradientTransform="matrix(-0.6018 -0.4561 -0.562 0.7416 375.5698 55.1365)">
			<stop  offset="0" style="stop-color:#187432"/>
			<stop  offset="1" style="stop-color:#92C136"/>
		</linearGradient>
		<path fill="url(#SVGID_1_)" d="M259.346,73.667c0,0-13.893-15.747-38.956-8.397c-23.329,6.844-22.856,28.479-22.856,28.479
			s16.895-16.092,33.895-20.417c0,0-14.216,3.561-34.333,23.157c0,0,13.481,18.09,32.509-2.811
			C248.625,72.78,253.868,73.137,259.346,73.667z"/>
		<path fill="#FFFFFF" d="M254.546,72.895c0,0-8.212,1.619-19.132,13.27c-7.46,7.975-19.509,24.457-34.54,12.61
			c0,0,11.638,8.989,27.03-6.96C239.154,80.154,245.772,73.636,254.546,72.895z"/>
		<path fill="#FFFFFF" d="M214.603,69.029c0,0-11.574,3.152-15.891,19.505C198.712,88.534,202.231,75.648,214.603,69.029z"/>
	</g>
	<g>
		
			<linearGradient id="SVGID_2_" gradientUnits="userSpaceOnUse" x1="195.7656" y1="155.9199" x2="145.5679" y2="70.6255" gradientTransform="matrix(0.9655 0.2606 -0.2606 0.9655 38.5195 -100.9299)">
			<stop  offset="0" style="stop-color:#187432"/>
			<stop  offset="1" style="stop-color:#92C136"/>
		</linearGradient>
		<path fill="url(#SVGID_2_)" d="M141.839,1.375c0,0,38.391,3.898,57.916,41.819c18.175,35.303-12.483,53.392-12.483,53.392
			s2.333-35.183-11.829-60.328c0,0,11.918,20.979,8.545,63.249c0,0-41.147-1.356-34.672-43.374
			C155.793,14.115,149.078,7.815,141.839,1.375z"/>
		<path fill="#FFFFFF" d="M148.62,6.756c0,0,7.489,11.747,4.24,35.556c-2.226,16.299-10.842,45.705,23.469,54.406
			c0,0-26.314-6.894-22.413-40.066C156.777,32.408,157.994,18.449,148.62,6.756z"/>
		<path fill="#FFFFFF" d="M201.398,53.73c0,0,9.354,17.307-8.264,36.864C193.135,90.594,206.871,75.031,201.398,53.73z"/>
	</g>
</g>
</svg>
