<?xml version="1.0" encoding="utf-8"?>
<!-- Generator: Adobe Illustrator 15.0.0, SVG Export Plug-In . SVG Version: 6.00 Build 0)  -->
<!DOCTYPE svg PUBLIC "-//W3C//DTD SVG 1.1//EN" "http://www.w3.org/Graphics/SVG/1.1/DTD/svg11.dtd">
<svg version="1.1" id="Calque_1" xmlns="http://www.w3.org/2000/svg" xmlns:xlink="http://www.w3.org/1999/xlink" x="0px" y="0px"
	 width="283.46px" height="212.6px" viewBox="0 0 283.46 212.6" enable-background="new 0 0 283.46 212.6" xml:space="preserve">
<g>
	<path fill="#282727" d="M45.505,90.234c7.917-46.414,48.33-81.747,97-81.747c30.445,0,57.659,13.828,75.71,35.543l6.666-1.784
		c-19.17-24.396-48.943-40.066-82.375-40.066c-52.778,0-96.427,39.05-103.651,89.832L45.505,90.234z"/>
	<path fill="#282727" d="M239.79,121.826c-7.192,47.269-48.01,83.485-97.285,83.485c-31.078,0-58.785-14.409-76.821-36.907
		l-6.6,1.766c19.123,25.172,49.372,41.43,83.422,41.43c53.366,0,97.405-39.927,103.883-91.539L239.79,121.826z"/>
</g>
<g>
	<path fill="#282727" d="M116.37,71.264c-1.732,0.385-3.426-0.694-3.801-2.383l-3.384-15.246c-0.375-1.689,0.703-3.383,2.434-3.767
		l4.418-0.981c1.733-0.385,3.383,0.704,3.757,2.392l0.857,3.855l-3.075,0.682l-0.932-4.201l-4.418,0.981l3.547,15.981l4.417-0.98
		l-0.894-4.029l3.075-0.683l0.809,3.639c0.375,1.689-0.66,3.373-2.393,3.757L116.37,71.264z M115.767,76.125l1.542-4.932
		l2.814-0.625l-1.02,4.816L115.767,76.125z"/>
	<path fill="#282727" d="M130.055,68.226c-1.69,0.375-3.383-0.703-3.758-2.393l-1.347-6.063c-0.375-1.689,0.703-3.383,2.393-3.758
		l1.993-0.442c1.213-0.269,2.096,0.034,2.665,0.544l-1.673-7.535l-4.417,0.981l0.835,3.768l-3.074,0.683l-0.76-3.422
		c-0.375-1.689,0.703-3.383,2.393-3.758l4.46-0.991c1.69-0.375,3.382,0.704,3.758,2.393l4.067,18.321L130.055,68.226z
		 M132.357,57.716l-4.375,0.971l1.519,6.845l4.374-0.971L132.357,57.716z"/>
</g>
<line fill="none" stroke="#282727" stroke-width="3" stroke-miterlimit="10" x1="142.96" y1="62.875" x2="233.801" y2="38.679"/>
<line fill="none" stroke="#282727" stroke-width="3" stroke-miterlimit="10" x1="52.968" y1="172.394" x2="216.268" y2="128.963"/>
<g>
	<path fill="#282727" d="M60.334,96.064l4.446-1.139c15.116-0.905,23.13,0.419,24.041,3.976l1.271,2.392l-0.459,0.778l-0.657,0.167
		c-3.182-2.343-8.844-2.471-16.985-0.386c-3.119,0.799-4.634,3.673-4.547,8.619l-3.364,52.964l-0.461,0.776l-0.657,0.17l-0.776-0.46
		l0.45-0.815l-1.103-1.736l-1.413-50.382l-0.968-3.787l-17.587,7.88c-2.559-2.912-4.116-5.453-4.671-7.618l-0.484-1.893l0.949-1.603
		l8.561-0.833C56.07,100.534,60.876,98.178,60.334,96.064z"/>
	<path fill="#282727" d="M99.051,109.091l1.407,0.834l3.226-1.402l3.583,2.089l0.436,1.7c0.191,0.748-0.282,1.267-1.415,1.558
		l0.287,1.121c5.415,3.885,8.506,7.322,9.273,10.311l0.138,0.542c1.75,6.828-3.446,15.601-15.583,26.314l-3.215,1.44
		c-4.845,1.242-8.739-1.371-11.686-7.839l-0.15-0.58c-2.507-9.791,2.06-21.011,13.704-33.659l-1.016-1.552l0.431-0.729
		L99.051,109.091z M90.452,148.691c0.776,1.422,1.924,1.938,3.445,1.548c7.831-3.406,14.22-9.875,19.166-19.406l0.356-5.528
		l-0.277-1.082c-0.62-2.422-3.195-5.4-7.726-8.937C92.628,126.58,87.641,137.715,90.452,148.691z"/>
	<path fill="#282727" d="M133.304,98.259c2.989-0.766,5.805,2.029,8.449,8.38c8.232,11.456,18.089,21.578,29.564,30.362
		l13.084,7.193l-0.977,1.65l-1.315,0.337c-2.344-2.504-6.654-5.615-12.934-9.333c-11.49-7.134-20.176-14.506-26.051-22.118
		l-2.477-1.467l-0.657,0.17c1.05,6.567-1.97,16.704-9.058,30.408l-2.291,1.987c-5.825-0.759-9.479-4.039-10.962-9.838
		c-2.475-9.662,2.36-20.962,14.505-33.904C131.926,99.793,132.3,98.517,133.304,98.259z M124.603,138.42l0.695-0.177
		c8.437-12.731,12.068-21.39,10.893-25.979C126.505,122.05,122.643,130.769,124.603,138.42z"/>
	<path fill="#282727" d="M173.219,90.55l3.919,1.632c-0.596,2.294-3.319,5.327-8.175,9.096l-1.217,5.542l0.851-0.218
		c13.783,1.496,21.332,4.808,22.646,9.936c1.689,6.597-3.346,11.977-15.103,16.141l-4.945,1.267
		c-8.918,2.284-18.448,0.346-28.592-5.816l-0.209-0.812c-0.508-3.384-0.107-5.244,1.208-5.581c1.689,6.598,6.026,9.865,13.015,9.806
		c0.386,1.521,3.398,1.918,9.035,1.188c11.21-4.684,16.726-9.309,16.545-13.876l-0.201-4.313l-0.207-0.813
		c-3.043-2.131-9.493-3.403-19.348-3.817l-3.304-2.615l-0.218-0.85C157.361,100.364,162.128,95.066,173.219,90.55z"/>
	<path fill="#282727" d="M195.56,57.974l3.787-0.97c1.083-0.277,1.812,0.306,2.18,1.749l-1.553,9.706l0.683,0.402l5.989-1.535
		l2.026-1.095c4.086-0.662,6.222-0.631,6.407,0.089l0.139,0.542l-2.707,0.693c-10.899,2.791-15.607,7.086-14.121,12.884
		c-2.198,9.541-3.753,23.092-4.664,40.651l-1.083,0.276l-0.43-3.925l-0.137-0.542l-1.083,0.277l-0.427-1.662l0.543-0.139
		l0.688,0.442l0.541-0.139l-0.3-3.425l-1.083,0.276l-0.278-1.081l0.544-0.139l0.68,0.401l0.539-0.139
		c-0.3-8.681-0.029-16.685,0.813-24.014l-0.957-1.484l0.679,0.402l0.542-0.138l-0.139-0.542l-0.957-1.486l0.679,0.403l0.543-0.139
		l-0.139-0.542l-0.681-0.402l-0.14-0.541l1.082-0.277l-1.104-2.064l0.552-4.755l-0.579,0.149l-8.545,5.072
		c-2.782,0.712-4.604,0.411-5.463-0.908c-0.377-1.469,4.7-4.32,15.232-8.555C194.349,62.732,194.914,58.14,195.56,57.974z
		 M190.637,129.459l1.084-0.276l0.149,2.843l-1.08,0.277L190.637,129.459z M190.729,118.397l1.082-0.277l0.163,9.803l-1.081,0.277
		L190.729,118.397z M190.756,102.739l1.081-0.277l0.278,1.083l-1.083,0.277L190.756,102.739z"/>
	<path fill="#282727" d="M235.521,49.034c0.79,0.117,1.193,0.396,1.214,0.838l1.146-0.708c0.794,0.266,1.207,0.691,1.231,1.279
		l-0.188,1.113l0.537,1.527l-2.194,3.622l0.492,0.425c-2.687,7.731-5.345,20.437-7.986,38.118c0.082,1.876-0.017,3.279-0.288,4.211
		l0.264,0.653l-0.207,0.672l0.235-0.009l0.244,0.212l0.237-0.009l-0.187,1.112l0.01,0.222c0.39-0.016,1.047,0.697,1.977,2.134
		l-0.415,1.343l0.501,0.644l-0.225,0.23l-0.236,0.01l-1.231-1.279l0.244,0.212l0.008,0.219l-0.646,1.354l0.266,0.653l-0.687,0.465
		l-0.235,0.011c-0.313,0.014-0.648-0.415-0.996-1.288c-0.629,0.022-0.951-0.186-0.97-0.625l-0.077-1.767l-0.284-1.094l0.696-0.25
		l-0.029-0.66l-0.5-0.646l-0.037-0.881l0.225-0.229l-0.245-0.215l-0.008-0.219l0.447-0.46l0.248,0.212l-0.021-0.44l-0.47,0.017
		l-0.017-0.441l0.244,0.213l0.234-0.01l-0.021-0.441l-0.303-1.536l0.47-0.018l0.209-0.672l-0.245-0.212l1.061-8l-0.237,0.009
		l0.818-2.905l-0.245-0.21l-0.012-0.222c0.433-0.864,1.086-3.912,1.955-9.142l-0.245-0.21L231.5,75.5l-0.245-0.211l-0.008-0.219
		c0.312-0.012,0.661-0.983,1.05-2.916l-0.237,0.009l0.443-0.682l-0.244-0.209l-0.013-0.222l0.423-1.123l-0.283-1.094l0.692-0.249
		l-0.28-1.093l0.453-0.46l-0.267-0.653c1.402-7.386,2.038-12.573,1.91-15.552l-0.285-1.094L235.521,49.034z M249.084,105.479
		l0.232,0.855l0.229-0.056l-0.234-0.855L249.084,105.479z M226.299,123.462l0.707-0.028l0.967,0.626l0.45-0.46l0.939-0.032
		c0.665-0.029,1.273,1.276,1.817,3.905c-0.182,1.187-0.471,1.789-0.862,1.802l-1.21-0.837c-0.057,1.474-0.416,2.229-1.081,2.255
		c-0.392,0.016-0.884-0.482-1.477-1.489c-0.47,0.015-0.71-0.124-0.724-0.417l-0.174-3.975
		C225.729,123.926,225.946,123.476,226.299,123.462z"/>
</g>
<path fill="#FFFFFF" d="M172.459,138.873c0,0,2.638,1.671,3.366,2.175c0.728,0.504-2.129,1.682-2.129,1.682l-4.585,1.396
	l-3.25-4.565L172.459,138.873z"/>
<polygon fill="#FFFFFF" points="173.976,138.493 178.465,140.959 183.222,139.254 181.261,135.724 "/>
</svg>
