<?xml version="1.0" encoding="utf-8"?>
<!-- Generator: Adobe Illustrator 19.2.1, SVG Export Plug-In . SVG Version: 6.00 Build 0)  -->
<svg version="1.1" id="Calque_1" xmlns="http://www.w3.org/2000/svg" xmlns:xlink="http://www.w3.org/1999/xlink" x="0px" y="0px"
	 viewBox="0 0 250 75" style="enable-background:new 0 0 250 75;" xml:space="preserve">
<style type="text/css">
	.st0{fill:#17488A;}
	.st1{fill:#498C58;}
	.st2{fill:#BF3A31;}
	.st3{fill:#035794;}
	.st4{fill:#EC654B;}
</style>
<polygon class="st0" points="36.3,11 30.3,33.1 24.2,11 4.5,11 4.5,57.2 20.7,57.2 20.7,28.3 28.6,57.2 31.9,57.2 39.8,28.3 
	39.8,57.2 56,57.2 56,11 "/>
<polygon class="st1" points="80.9,19 51.3,19 51.3,26.1 62.6,26.1 62.6,69.1 69.6,69.1 69.6,26.1 80.9,26.1 "/>
<path class="st2" d="M13.5,12.9c0-0.6,0.2-1,0.7-1.3c1.4-0.9,1.9-2.6,1.5-4.1c-0.5-1.6-1.9-2.7-3.6-2.6c-1.6,0-3.1,1.1-3.5,2.6
	C8,9,8.6,10.7,10,11.6c0.5,0.3,0.6,0.6,0.6,1.2c0.1,5,1.3,53.3,1.4,55.7c0,0,0.1,0,0.1,0"/>
<circle class="st1" cx="12" cy="9.7" r="4.9"/>
<polygon class="st1" points="10.6,13.8 12,68.4 12.1,68.4 13.5,13.8 "/>
<g>
	<path class="st3" d="M96.8,36.1c-1.7,0-3.1-0.6-4.3-1.7c-1.2-1.1-1.7-2.5-1.7-4.2c0-1.7,0.6-3,1.7-4.2c1.2-1.2,2.5-1.7,4.2-1.7
		c1.8,0,3.3,0.5,4.4,1.6c1.1,1.1,1.6,2.6,1.6,4.4v5.6h-3.8v-5.2c0-0.7-0.2-1.3-0.6-1.8c-0.4-0.5-0.9-0.7-1.6-0.7
		c-0.6,0-1.1,0.2-1.5,0.6c-0.4,0.4-0.6,0.9-0.6,1.5c0,0.6,0.2,1.1,0.6,1.5c0.4,0.4,0.9,0.6,1.5,0.6c0.2,0,0.5,0.1,1.5-0.1V36
		C97.2,36.1,97,36.1,96.8,36.1z"/>
	<rect x="105.3" y="24.5" class="st3" width="3.8" height="11.4"/>
	<path class="st3" d="M107.2,22.6c-0.6,0-1-0.2-1.4-0.5c-0.3-0.3-0.5-0.8-0.5-1.3c0-0.5,0.2-0.9,0.6-1.3c0.4-0.4,0.8-0.5,1.3-0.5
		c0.5,0,1,0.2,1.3,0.5c0.4,0.4,0.6,0.8,0.6,1.3c0,0.5-0.2,0.9-0.5,1.3C108.3,22.5,107.8,22.6,107.2,22.6z"/>
	<path class="st3" d="M117.2,36.1c-1.7,0-3.1-0.6-4.3-1.7c-1.2-1.2-1.7-2.5-1.7-4.2c0-1.6,0.6-3,1.7-4.2c1.2-1.2,2.5-1.8,4.1-1.8
		c0.2,0,0.5,0,1.6,0v4c-1-0.1-1.3-0.2-1.5-0.2c-0.6,0-1.1,0.2-1.5,0.6c-0.4,0.4-0.6,0.9-0.6,1.5c0,0.6,0.2,1.1,0.6,1.5
		c0.4,0.4,0.9,0.6,1.5,0.6c1,0,2.1-0.5,2.1-2.8V20h3.8v9.7c0,1.8-0.5,3.2-1.4,4.3c-0.5,0.6-1.2,1.1-2,1.5
		C118.9,35.9,118,36.1,117.2,36.1z"/>
	<path class="st3" d="M130.8,36.1c-1.7,0-3.1-0.6-4.3-1.7c-1.2-1.1-1.7-2.5-1.7-4.2c0-1.7,0.6-3,1.7-4.2c1.2-1.2,2.5-1.7,4.2-1.7
		c1.8,0,3.3,0.5,4.4,1.6c1.1,1.1,1.6,2.6,1.6,4.4v5.6h-3.8v-5.2c0-0.7-0.2-1.3-0.6-1.8c-0.4-0.5-0.9-0.7-1.6-0.7
		c-0.6,0-1.1,0.2-1.5,0.6c-0.4,0.4-0.6,0.9-0.6,1.5c0,0.6,0.2,1.1,0.6,1.5c0.4,0.4,0.9,0.6,1.5,0.6c0.3,0,0.5,0,1.5-0.1V36
		C131.2,36.1,131,36.1,130.8,36.1z"/>
	<path class="st3" d="M151.4,35.8v-6.2c0-0.6-0.1-1-0.2-1.2c-0.1-0.2-0.4-0.5-0.9-0.5c-0.4,0-1.2,0.2-1.2,1.7v6.2h-3.8v-6.2
		c0-0.6-0.1-1-0.2-1.2c-0.1-0.2-0.4-0.5-0.9-0.5c-0.4,0-1.1,0.2-1.1,1.7v6.2h-3.8v-7.1c0-1.3,0.4-2.3,1.3-3.2
		c0.9-0.9,1.8-1.3,3.1-1.3c1.2,0,2.3,0.5,3.3,1.6l0.3,0.3l0.3-0.3c1.1-1.1,2.2-1.6,3.3-1.6c1.4,0,2.5,0.5,3.4,1.5c0.7,0.8,1,2,1,3.5
		v6.6H151.4z"/>
	<path class="st3" d="M163.2,36c-1,0-1.9-0.2-2.7-0.7c-0.9-0.4-1.5-1.1-2.1-1.8c-0.7-1-1-2.3-1-3.9V20h3.8v4.6h2v4h-2V29
		c0,1.1,0.2,1.8,0.5,2.2c0.3,0.4,0.9,0.6,1.6,0.7v4C163.2,36,163.2,36,163.2,36z"/>
	<path class="st3" d="M90.3,57.3v-4.1c0.7,0,1.3-0.2,1.7-0.6c0.4-0.4,0.6-1,0.7-1.9c0.1-1.2,0.2-2.1,0.3-2.5
		c0.1-0.4,0.5-0.9,0.9-1.3c0.8-0.8,2-1.2,3.4-1.2h1v4c-0.5,0-0.9,0.2-1.2,0.5c-0.3,0.3-0.5,0.8-0.6,1.7c-0.2,2.2-1,3.8-2.5,4.7
		c-0.8,0.5-1.9,0.7-3.4,0.7H90.3z"/>
	<path class="st3" d="M105.1,57.2c-1.7,0-3.1-0.6-4.3-1.7c-1.2-1.1-1.7-2.5-1.7-4.2c0-1.7,0.6-3,1.7-4.2c1.2-1.2,2.5-1.7,4.2-1.7
		c1.8,0,3.3,0.5,4.4,1.6c1.1,1.1,1.6,2.6,1.6,4.4v5.6h-3.8v-5.2c0-0.7-0.2-1.3-0.6-1.8c-0.4-0.5-0.9-0.7-1.6-0.7
		c-0.6,0-1.1,0.2-1.5,0.6c-0.4,0.4-0.6,0.9-0.6,1.5c0,0.6,0.2,1.1,0.6,1.5c0.4,0.4,0.9,0.6,1.5,0.6c0.3,0,0.5,0,1.5-0.1v3.8
		C105.5,57.2,105.3,57.2,105.1,57.2z"/>
	<path class="st3" d="M119.9,56.9v-6.5c0-1.3-0.9-1.4-1.2-1.4c-0.4,0-1.2,0.1-1.2,1.4v6.5h-3.8v-6.4c0-1.5,0.5-2.7,1.5-3.7
		c1-1,2.1-1.5,3.6-1.5c1.6,0,2.9,0.6,3.9,1.7c0.8,0.9,1.1,2.2,1.1,3.9v6H119.9z"/>
	<path class="st3" d="M131.6,57.1c-1,0-1.9-0.2-2.7-0.7c-0.9-0.4-1.5-1.1-2.1-1.8c-0.7-1-1-2.3-1-3.9v-9.6h3.8v4.6h2v4h-2v0.4
		c0,1.1,0.2,1.8,0.5,2.2c0.3,0.4,0.9,0.6,1.6,0.7v4C131.7,57.1,131.7,57.1,131.6,57.1z"/>
	<path class="st3" d="M139.3,57.2c-1.7,0-3.1-0.6-4.3-1.7c-1.2-1.1-1.7-2.5-1.7-4.2c0-1.7,0.6-3.1,1.7-4.2c1.2-1.2,2.6-1.7,4.3-1.7
		c1.7,0,3,0.5,4.2,1.7c1.1,1.1,1.7,2.5,1.7,4.2c0,0.1,0,0.3,0,0.5H138c-0.1-0.5-0.1-0.8-0.1-1c0.2-0.7,0.1-0.5,0.2-0.9h3.1
		c-0.2-1.1-0.9-1.7-1.9-1.7c-0.7,0-1.3,0.3-1.7,0.9c-0.4,0.5-0.6,1.2-0.6,2.1c0,0.9,0.2,1.6,0.6,2.1c0.4,0.6,1,0.9,1.7,0.9
		c0.4,0,0.9-0.2,1.3-0.5l2.1,2.5C141.7,56.8,140.5,57.2,139.3,57.2z M138,43.6l1.9-2.1h3.3l-2.1,2.1H138z"/>
	<path class="st3" d="M157.8,57.2c-1.7,0-3.1-0.6-4.3-1.7c-1.2-1.1-1.7-2.5-1.7-4.2c0-1.7,0.6-3,1.7-4.2c1.2-1.2,2.5-1.7,4.2-1.7
		c1.8,0,3.3,0.5,4.4,1.6c1.1,1.1,1.6,2.6,1.6,4.4v5.6h-3.8v-5.2c0-0.7-0.2-1.3-0.6-1.8c-0.4-0.5-0.9-0.7-1.6-0.7
		c-0.6,0-1.1,0.2-1.5,0.6c-0.4,0.4-0.6,0.9-0.6,1.5c0,0.6,0.2,1.1,0.6,1.5c0.4,0.4,0.9,0.6,1.5,0.6c0.3,0,0.5,0,1.5-0.1v3.8
		C158.2,57.2,158,57.2,157.8,57.2z"/>
	<path class="st3" d="M171.3,57.3c-1.6,0-2.9-0.6-3.9-1.7c-0.8-0.9-1.1-2.2-1.1-3.8v-6h3.8v6.5c0,1.3,0.9,1.4,1.2,1.4
		c0.4,0,1.2-0.1,1.2-1.4v-6.5h3.8v6.4c0,1.5-0.5,2.7-1.5,3.7C173.9,56.8,172.8,57.3,171.3,57.3z"/>
	<path class="st3" d="M190.5,57.1c-1,0-1.9-0.2-2.7-0.7c-0.9-0.4-1.5-1.1-2.1-1.8c-0.7-1-1-2.3-1-3.9v-9.6h3.8v4.6h2v4h-2v0.4
		c0,1.1,0.2,1.8,0.5,2.2c0.3,0.4,0.9,0.6,1.6,0.7v4C190.6,57.1,190.6,57.1,190.5,57.1z"/>
	<path class="st3" d="M192.8,56.9v-6.2c0-1.6,0.4-3,1.3-3.9c0.9-1,2-1.4,3.6-1.4c0.3,0,0.6,0,1,0.1v4c-0.2,0-0.3-0.1-0.5-0.1
		c-0.7,0-1.6,0.4-1.6,2.3v5.4H192.8z"/>
	<path class="st3" d="M205.4,57.2c-1.7,0-3.2-0.6-4.3-1.7c-1.2-1.1-1.7-2.5-1.7-4.2c0-1.7,0.6-3,1.7-4.2c1.2-1.2,2.5-1.7,4.2-1.7
		c1.9,0,3.3,0.5,4.4,1.6c1.1,1.1,1.6,2.6,1.6,4.4v5.6h-3.8v-5.2c0-0.7-0.2-1.3-0.6-1.8c-0.4-0.5-0.9-0.7-1.6-0.7
		c-0.6,0-1.1,0.2-1.5,0.6c-0.4,0.4-0.6,0.9-0.6,1.5c0,0.6,0.2,1.1,0.6,1.5c0.4,0.4,0.9,0.6,1.5,0.6c0.3,0,0.5,0,1.5-0.1v3.8
		C205.8,57.2,205.6,57.2,205.4,57.2z"/>
	<polygon class="st3" points="212,45.6 215.5,45.6 217,49.5 218.7,45.6 222.1,45.6 217,56.8 	"/>
	<path class="st3" d="M228.1,57.2c-1.7,0-3.1-0.6-4.3-1.7c-1.1-1.1-1.7-2.5-1.7-4.2c0-1.7,0.6-3,1.7-4.2c1.1-1.1,2.6-1.7,4.2-1.7
		c1.8,0,3.3,0.5,4.4,1.6c1.1,1.1,1.6,2.6,1.6,4.4v5.6h-3.8v-5.2c0-0.7-0.2-1.3-0.6-1.8c-0.4-0.5-0.9-0.7-1.6-0.7
		c-0.6,0-1.1,0.2-1.5,0.6c-0.4,0.4-0.6,0.9-0.6,1.5c0,0.6,0.2,1.1,0.6,1.5c0.4,0.4,0.9,0.6,1.5,0.6c0.2,0,0.5,0,1.5-0.1v3.8
		C228.5,57.2,228.3,57.2,228.1,57.2z"/>
	<g>
		<path class="st3" d="M238.5,43.9c-0.6,0-1-0.2-1.4-0.5c-0.4-0.3-0.5-0.8-0.5-1.3c0-0.5,0.2-0.9,0.6-1.3c0.4-0.4,0.8-0.5,1.3-0.5
			c0.5,0,1,0.2,1.3,0.5c0.4,0.4,0.6,0.8,0.6,1.3c0,0.5-0.2,0.9-0.5,1.3C239.6,43.7,239.1,43.9,238.5,43.9z"/>
		<rect x="236.6" y="45.6" class="st3" width="3.8" height="11.4"/>
	</g>
	<rect x="243.1" y="41.1" class="st3" width="3.8" height="15.8"/>
</g>
<path class="st4" d="M15.3,22.6c-2-2.3-4.7-4.3-5.7-5.8c-0.4-0.6-0.8-1.1-1.2-1.6c-0.3-0.4-0.7-0.9-0.7-1.7c0-0.2,0-0.3,0-0.5
	c0-0.2,0.1-0.4,0.1-0.5C7.9,12.1,8,12,8.3,12c0.6,0,1.4-1,2-1.8c1-1.3,0.8-3.6-0.3-3.7c-1.1,0-2.2,0.6-2.7,1.3
	C6.7,8.6,6.7,9.3,6.5,9.6c-0.2,0.3-1,1.8-1.1,4c-0.1,2.2,1.1,5.1,3,6.6c1.9,1.6,4.4,3.1,5.2,4c0.9,0.9,2.2,3.2,1,4.9
	c-1.2,1.8-2.8,3.9-3.9,5.6c-1.1,1.7-2.3,4.2-2.2,6.4c0.1,2.3,1.5,5.1,2.2,6.4c0.8,1.2,2.7,4.8,2.9,5.8c0.2,1.1,0.6,2.1-0.3,4.4
	c-0.1,0.2-0.1,0.3-0.2,0.5c-0.4,0.9-0.7,1.7-1,2.7c-0.4,1-0.7,2.2-0.9,3.4c-0.1,0.6-0.2,1.3-0.2,2c0,0.4,0,0.7,0,1.1
	c0,0.7,0.1,1.4,0.3,2c0.1,0.4,0.2,0.7,0.2,0.7c0-0.1-0.2-1.6-0.3-2.2c-0.1-1.1,0.1-3.2,0.9-5.3c0.8-2.1,2.2-4.2,2.5-5.7
	c0.3-1.6,0.7-3.1-0.8-6.3c-1.5-3.2-4-7.2-3.9-9.4c0-2.2,1.2-3.8,3.2-6.4c0.8-1,1.7-2,2.5-3.1c0.8-1.1,1.6-2.4,1.5-4.5
	C17.1,25,16.1,23.5,15.3,22.6z"/>
<polygon class="st1" points="11.8,60.7 11.9,63.7 12.2,63.7 12.3,60.2 "/>
<polygon class="st1" points="11.4,44.9 12.7,44.9 12.5,51.3 11.6,51.3 "/>
</svg>
