<?xml version="1.0" encoding="utf-8"?>
<!-- Generator: Adobe Illustrator 15.0.0, SVG Export Plug-In . SVG Version: 6.00 Build 0)  -->
<!DOCTYPE svg PUBLIC "-//W3C//DTD SVG 1.1//EN" "http://www.w3.org/Graphics/SVG/1.1/DTD/svg11.dtd">
<svg version="1.1" id="Calque_1" xmlns="http://www.w3.org/2000/svg" xmlns:xlink="http://www.w3.org/1999/xlink" x="0px" y="0px"
	 width="283.46px" height="283.46px" viewBox="0 0 283.46 283.46" enable-background="new 0 0 283.46 283.46" xml:space="preserve">
<g>
	<path fill="#282727" d="M30.772,179.245c-7.571,4.125-13.214,6.192-16.932,6.192c-3.442,0-6.057-0.895-7.846-2.684
		c-1.79-1.787-2.684-4.953-2.684-9.497c0-8.532,5.06-18.307,15.176-29.322c10.118-11.013,19.721-16.519,28.805-16.519
		c2.614,0.964,4.576,2.033,5.885,3.2c1.308,1.172,1.962,3.063,1.962,5.679c0,1.517-0.55,3.546-1.65,6.091
		c-1.105,2.549-2.826,4.51-5.165,5.884c-0.961-0.825-1.685-1.651-2.166-2.477c-0.483-0.826-0.724-1.58-0.724-2.271
		c0.274-1.653,1.135-3.268,2.582-4.851c1.446-1.582,2.647-2.652,3.613-3.202l0.207-0.414c0-0.688-0.034-1.305-0.103-1.858
		c-0.072-0.547-0.172-0.894-0.31-1.033c-5.92,0.691-14.216,7.022-24.881,19.001c-10.669,11.973-16.281,21.817-16.828,29.522
		c0.135,0.279,0.513,0.554,1.134,0.831c0.62,0.273,1.477,0.406,2.581,0.406c4.265,0,10.253-2.128,17.966-6.397
		c7.708-4.264,14.314-9.154,19.822-14.662c1.652-1.651,3.129-3.199,4.44-4.646c1.307-1.442,2.441-2.783,3.407-4.028
		c0.134,0.142,0.274,0.316,0.412,0.521c0.137,0.206,0.208,0.381,0.208,0.517c0,0.689-0.861,2.099-2.582,4.231
		c-1.723,2.135-3.958,4.578-6.708,7.329C44.881,170.3,38.341,175.114,30.772,179.245z"/>
	<path fill="#282727" d="M84.872,184.923c-0.826-0.341-1.583-0.86-2.272-1.553c-0.963-0.959-1.651-2.094-2.064-3.4
		c-0.414-1.311-0.621-2.789-0.621-4.442c0-0.962,0.171-1.996,0.517-3.1c0.342-1.097,0.792-2.27,1.341-3.506
		c-4.682,4.265-9.497,8.082-14.452,11.459c-4.957,3.372-8.54,5.057-10.738,5.057c-2.616,0-4.682-1.03-6.193-3.092
		c-1.52-2.069-2.273-5.165-2.273-9.298c0-7.566,5.542-16.962,16.622-28.184c11.08-11.219,20.96-16.897,29.631-17.038
		c3.577,1.378,5.951,2.789,7.123,4.235c1.168,1.445,1.756,2.86,1.756,4.232c0,0.412,0,0.862,0,1.342c0,0.483-0.069,1-0.207,1.55
		c1.375-1.79,2.48-3.439,3.304-4.956c0.827-1.515,1.309-2.687,1.444-3.512c2.34,0.965,3.718,2.168,4.131,3.612
		c0.413,1.448,0.622,2.859,0.622,4.235c0,3.302-4.339,10.116-13.011,20.441c-8.673,10.324-12.94,18.035-12.802,23.129
		c4.956,0,11.77-3.788,20.442-11.359c8.673-7.569,14.934-13.763,18.79-18.587c0.136,0.142,0.274,0.316,0.412,0.521
		c0.137,0.206,0.208,0.381,0.208,0.517c0,2.064-5.264,7.949-15.796,17.657c-10.532,9.701-18.413,14.552-23.645,14.552
		C86.452,185.438,85.698,185.269,84.872,184.923z M99.946,134.231c-0.14-0.413-0.346-0.897-0.622-1.445
		c-6.333,0.688-15.312,7.019-26.945,18.995c-11.634,11.979-17.724,21.547-18.275,28.703c0.137,0.549,0.446,0.929,0.929,1.135
		c0.482,0.21,0.999,0.307,1.55,0.307c1.926,0,5.436-1.716,10.53-5.159c5.092-3.438,9.911-7.434,14.456-11.977
		c1.513-1.513,3.201-3.37,5.057-5.575c1.859-2.199,3.75-4.47,5.68-6.813c1.928-2.339,3.716-4.956,5.369-7.847
		c1.65-2.89,2.479-5.641,2.479-8.259C100.153,135.333,100.081,134.643,99.946,134.231z"/>
	<path fill="#282727" d="M110.683,183.17c-0.962-1.651-1.446-3.58-1.446-5.782c0-2.896,4.37-10.046,13.111-21.477
		c8.74-11.428,14.006-19.751,15.796-24.986c2.34,0.966,3.75,2.169,4.234,3.613c0.48,1.446,0.722,2.858,0.722,4.233
		c0,1.519-1.033,4.099-3.097,7.744c-2.065,3.649-4.614,7.608-7.64,11.875l0.205,1.029c4.403-5.502,8.809-10.838,13.218-16.001
		c4.401-5.163,7.294-8.431,8.671-9.809c1.513-1.512,3.061-2.891,4.646-4.129c1.58-1.239,3.063-1.859,4.438-1.859
		c1.653,0,2.786,0.551,3.411,1.654c0.618,1.103,0.929,2.682,0.929,4.747c0,1.517-0.593,3.272-1.761,5.266
		c-1.17,1.999-2.992,3.684-5.469,5.059c-0.826-0.548-1.482-1.271-1.961-2.168c-0.483-0.893-0.723-1.756-0.723-2.58
		c0.413-1.652,1.238-3.131,2.478-4.438c1.238-1.31,2.337-2.24,3.302-2.788c-0.136-0.551-0.277-0.962-0.413-1.24
		c-0.136-0.276-0.345-0.414-0.619-0.414c-0.412,0-1.205,0.448-2.373,1.343c-1.173,0.896-2.58,2.169-4.231,3.82
		c-4.27,4.268-10.841,11.872-19.72,22.815c-8.88,10.944-16.074,19.929-21.579,26.948
		C113.021,185.646,111.643,184.817,110.683,183.17z"/>
	<path fill="#282727" d="M149.914,183.17c-0.964-1.651-1.444-3.58-1.444-5.782c0-2.896,4.366-10.046,13.111-21.477
		c8.739-11.428,14.005-19.751,15.795-24.986c2.338,0.966,3.747,2.169,4.233,3.613c0.481,1.446,0.723,2.858,0.723,4.233
		c0,1.519-1.034,4.099-3.099,7.744c-2.063,3.649-4.614,7.608-7.64,11.875l0.207,1.029c4.401-5.502,8.81-10.838,13.217-16.001
		c4.404-5.163,7.295-8.431,8.671-9.809c1.513-1.512,3.062-2.891,4.645-4.129c1.583-1.239,3.066-1.859,4.439-1.859
		c1.651,0,2.789,0.551,3.409,1.654c0.619,1.103,0.929,2.682,0.929,4.747c0,1.517-0.587,3.272-1.758,5.266
		c-1.167,1.999-2.992,3.684-5.469,5.059c-0.826-0.548-1.483-1.271-1.961-2.168c-0.484-0.893-0.723-1.756-0.723-2.58
		c0.41-1.652,1.235-3.131,2.475-4.438c1.243-1.31,2.341-2.24,3.308-2.788c-0.142-0.551-0.28-0.962-0.413-1.24
		c-0.142-0.276-0.348-0.414-0.621-0.414c-0.413,0-1.206,0.448-2.375,1.343c-1.173,0.896-2.579,2.169-4.233,3.82
		c-4.27,4.268-10.841,11.872-19.719,22.815c-8.88,10.944-16.074,19.929-21.579,26.948
		C152.253,185.646,150.876,184.817,149.914,183.17z"/>
	<path fill="#282727" d="M221.15,179.346c-7.71,4.063-13.562,6.092-17.554,6.092c-3.444,0-6.057-0.895-7.847-2.684
		c-1.789-1.787-2.684-4.953-2.684-9.497c0-8.532,5.091-18.274,15.279-29.217c10.187-10.946,19.621-16.486,28.292-16.625
		c2.891,0.964,4.986,1.996,6.295,3.097c1.304,1.104,1.967,2.755,1.967,4.956c0,1.791-0.761,3.684-2.275,5.677
		c-1.519,1.998-3.167,3.892-4.953,5.678c-3.309,3.306-7.299,6.094-11.978,8.365c-4.685,2.271-8.744,3.405-12.186,3.405
		c-0.687,0-1.309,0-1.857,0c-0.554,0-1.031-0.067-1.444-0.204c-3.03,3.992-5.575,7.949-7.64,11.871
		c-2.066,3.921-3.172,7.403-3.305,10.426c0.133,0.279,0.513,0.554,1.135,0.831c0.623,0.273,1.552,0.406,2.787,0.406
		c4.681,0,10.876-2.063,18.583-6.188c7.71-4.133,14.523-9.154,20.441-15.077c1.653-1.651,3.134-3.199,4.445-4.645
		c1.305-1.448,2.438-2.786,3.406-4.027c0.133,0.139,0.274,0.313,0.41,0.52c0.133,0.205,0.209,0.38,0.209,0.516
		c0,0.688-0.861,2.099-2.582,4.23c-1.723,2.138-3.958,4.579-6.711,7.333C235.601,170.365,228.854,175.29,221.15,179.346z
		 M213.715,156.118c2.612,0,6.095-1.065,10.425-3.2c4.338-2.134,7.955-4.648,10.845-7.538c2.062-2.065,3.715-3.992,4.958-5.78
		c1.239-1.788,1.855-3.168,1.855-4.131s-0.073-1.684-0.207-2.168c-0.138-0.481-0.275-0.792-0.409-0.928
		c-3.447,0.277-7.987,2.788-13.633,7.536c-5.646,4.749-10.803,10.152-15.482,16.209H213.715z M271.277,101.192
		c-6.057,6.746-15.146,13.492-27.259,20.235c-0.275-0.136-0.485-0.414-0.618-0.826c-0.139-0.413-0.139-0.688,0-0.825
		c0.133-0.415,1.235-1.411,3.302-2.996c2.069-1.578,5.024-4.299,8.881-8.155c3.028-3.027,6.469-7.125,10.325-12.289
		c3.851-5.162,7.02-10.976,9.497-17.447c2.069,0.827,3.407,1.962,4.029,3.407c0.617,1.449,0.929,2.653,0.929,3.616
		C280.363,89.353,277.333,94.448,271.277,101.192z"/>
</g>
<g>
	<path fill="#282727" d="M74.994,196.455c1.748,2.577,2.623,5.896,2.623,9.939c0,6.256-2.896,13.383-8.693,21.389
		c-5.795,8.011-12.559,15.867-20.287,23.598c-5.342,5.344-10.997,10.405-16.976,15.18c-5.984,4.788-11.364,7.181-16.146,7.181
		c-1.104,0-2.44-0.282-4-0.828c-1.568-0.557-3.086-1.564-4.553-3.031c-0.923-0.92-1.893-2.444-2.903-4.557
		c-1.013-2.118-1.517-4.462-1.517-7.045c0-9.749,4.922-20.425,14.769-32.013c9.84-11.591,15.41-20.794,16.699-27.603
		c2.573,1.288,4.276,2.897,5.105,4.828c0.827,1.934,1.244,3.824,1.244,5.654c0,6.075-4.789,16.113-14.355,30.094
		c-9.57,13.985-13.709,23.371-12.419,28.153c0.179,0.185,0.595,0.456,1.241,0.822c0.644,0.375,1.333,0.552,2.069,0.552
		c2.945,0,6.941-1.746,12.005-5.24c5.063-3.498,10.35-8.007,15.872-13.522c8.096-8.099,13.755-14.909,16.975-20.431
		c3.22-5.521,4.833-11.311,4.833-17.386c0-2.941-0.602-5.063-1.795-6.344c-1.2-1.293-2.534-1.937-4.004-1.937
		c-1.289,0-2.579,0.317-3.86,0.965c-1.292,0.651-2.486,1.792-3.59,3.451c-0.185,0-0.373-0.092-0.55-0.277
		c-0.189-0.183-0.278-0.363-0.278-0.549c0-1.841,1.748-4.782,5.245-8.834c3.493-4.044,6.803-6.074,9.935-6.074
		C70.808,192.591,73.243,193.878,74.994,196.455z"/>
	<path fill="#282727" d="M107.148,265.597c-10.308,5.431-18.129,8.145-23.461,8.145c-4.603,0-8.101-1.194-10.491-3.591
		c-2.393-2.389-3.585-6.622-3.585-12.697c0-11.404,6.805-24.423,20.423-39.053c13.614-14.63,26.222-22.039,37.814-22.22
		c3.866,1.287,6.667,2.669,8.417,4.139c1.748,1.477,2.625,3.682,2.625,6.626c0,2.393-1.013,4.926-3.038,7.583
		c-2.026,2.672-4.234,5.206-6.623,7.593c-4.416,4.427-9.757,8.145-16.01,11.183c-6.258,3.034-11.687,4.552-16.285,4.552
		c-0.923,0-1.752,0-2.483,0c-0.739,0-1.38-0.089-1.935-0.271c-4.047,5.342-7.451,10.621-10.211,15.874
		c-2.758,5.238-4.234,9.888-4.417,13.937c0.183,0.367,0.691,0.733,1.52,1.103c0.831,0.364,2.071,0.552,3.728,0.552
		c6.254,0,14.532-2.765,24.838-8.28c10.306-5.521,19.414-12.237,27.328-20.156c2.208-2.202,4.183-4.274,5.934-6.203
		c1.748-1.936,3.265-3.726,4.554-5.385c0.177,0.187,0.367,0.415,0.551,0.694c0.18,0.272,0.277,0.503,0.277,0.688
		c0,0.918-1.152,2.806-3.453,5.657c-2.301,2.854-5.287,6.118-8.967,9.798C126.468,253.588,117.449,260.174,107.148,265.597z
		 M97.211,234.548c3.491,0,8.143-1.426,13.937-4.282c5.797-2.847,10.625-6.211,14.491-10.073c2.759-2.762,4.968-5.339,6.625-7.723
		c1.655-2.396,2.486-4.236,2.486-5.524c0-1.287-0.101-2.251-0.278-2.897c-0.186-0.644-0.372-1.063-0.553-1.238
		c-4.602,0.369-10.673,3.724-18.217,10.072c-7.544,6.347-14.449,13.565-20.701,21.666H97.211z"/>
	<path fill="#282727" d="M125.636,270.705c-1.287-2.208-1.934-4.785-1.934-7.729c0-3.864,5.84-13.433,17.526-28.706
		c11.684-15.273,18.724-26.405,21.116-33.397c3.126,1.285,5.011,2.897,5.657,4.828c0.644,1.929,0.967,3.824,0.967,5.657
		c0,2.034-1.379,5.483-4.139,10.35c-2.765,4.886-6.17,10.174-10.214,15.876l0.277,1.377c5.884-7.356,11.772-14.493,17.665-21.39
		c5.883-6.905,9.753-11.27,11.593-13.113c2.017-2.021,4.089-3.864,6.209-5.513c2.115-1.665,4.096-2.49,5.934-2.49
		c2.208,0,3.724,0.735,4.555,2.21c0.826,1.475,1.244,3.588,1.244,6.353c0,2.022-0.79,4.367-2.35,7.036
		c-1.566,2.672-4,4.924-7.313,6.76c-1.103-0.731-1.979-1.703-2.623-2.901c-0.644-1.187-0.962-2.338-0.962-3.442
		c0.547-2.217,1.654-4.191,3.308-5.937c1.657-1.75,3.123-2.99,4.413-3.724c-0.179-0.742-0.366-1.287-0.545-1.663
		c-0.188-0.366-0.465-0.553-0.829-0.553c-0.554,0-1.613,0.605-3.177,1.8c-1.564,1.195-3.449,2.89-5.657,5.105
		c-5.706,5.703-14.488,15.865-26.359,30.498c-11.87,14.627-21.483,26.636-28.843,36.019
		C128.761,274.016,126.917,272.913,125.636,270.705z"/>
	<path fill="#282727" d="M192.426,273.049c-1.103-0.459-2.208-1.239-3.311-2.344c-1.287-1.284-2.305-2.854-3.039-4.693
		c-0.732-1.84-1.104-3.682-1.104-5.525c0-5.516,2.113-11.404,6.352-17.663c4.229-6.252,10.116-14.172,17.66-23.732
		c2.026-2.572,4.14-5.248,6.35-8.01c2.206-2.756,4.506-5.519,6.896-8.271h-5.236c-2.397,0-3.962-0.416-4.692-1.247
		c-0.741-0.833-1.108-2.161-1.108-4.006h15.184c11.401-14.167,21.895-27.729,31.465-40.703
		c9.563-12.976,14.353-21.487,14.353-25.536c2.941,1.104,5.016,2.718,6.203,4.831c1.194,2.117,1.8,4,1.8,5.656
		c0,3.499-3.821,10.399-11.455,20.701c-7.643,10.306-16.515,22.081-26.63,35.334h12.419c1.836,0,2.941,0.415,3.311,1.24
		c0.366,0.829,0.555,1.7,0.555,2.624c-3.319,0.185-6.627,0.32-9.939,0.413c-3.314,0.089-6.717,0.233-10.214,0.413
		c-3.135,4.051-6.348,8.236-9.658,12.558c-3.311,4.328-6.536,8.6-9.662,12.834c-8.468,11.411-14.673,20.283-18.633,26.639
		c-3.957,6.341-5.841,11.271-5.654,14.763c8.829,0,19.225-5.06,31.186-15.179c11.957-10.118,20.52-18.398,25.666-24.844
		c0.181,0.188,0.374,0.418,0.557,0.69c0.184,0.274,0.277,0.505,0.277,0.692c0,2.764-7.273,10.627-21.809,23.597
		c-14.539,12.974-26.037,19.461-34.494,19.461C194.727,273.741,193.529,273.505,192.426,273.049z"/>
</g>
<g>
	<rect x="3.254" y="2.772" fill="#DEDC00" width="47.587" height="7.436"/>
	<rect x="3.336" y="2.68" fill="#DEDC00" width="7.436" height="47.587"/>
</g>
<g>
	<rect x="233.08" y="274.431" fill="#DEDC00" width="47.59" height="7.436"/>
	<rect x="273.153" y="234.371" fill="#DEDC00" width="7.436" height="47.588"/>
</g>
<g>
	<path fill="#282727" d="M11.7,95.341c2.566-4.121,6.298-9.285,11.196-15.493C36.268,62.773,47.822,47.367,57.555,33.63
		c9.731-13.729,14.599-22.327,14.599-25.791c1.91,0.717,3.253,1.764,4.032,3.135c0.773,1.373,1.163,2.598,1.163,3.672
		c0,5.016-4.657,13.554-13.971,25.616c-9.314,12.062-20.601,27.108-33.856,45.137c-5.615,7.523-9.611,13.466-12,17.826
		c-2.392,4.357-3.523,7.314-3.405,8.864c4.776,0,10.956-3.283,18.539-9.85c7.583-6.566,13.046-11.941,16.392-16.123
		c0.117,0.12,0.236,0.269,0.358,0.449c0.117,0.178,0.178,0.329,0.178,0.447c0,1.792-4.598,6.897-13.792,15.315
		c-9.198,8.418-16.3,12.627-21.316,12.627c-0.6,0-1.253-0.149-1.972-0.45c-0.715-0.294-1.373-0.742-1.97-1.34
		c-0.957-0.958-1.642-2.063-2.059-3.316c-0.419-1.254-0.628-2.535-0.628-3.851C7.848,103.016,9.131,99.46,11.7,95.341z"/>
	<path fill="#282727" d="M64.092,109.672c-6.69,3.522-11.764,5.283-15.226,5.283c-2.987,0-5.256-0.774-6.808-2.33
		c-1.552-1.551-2.326-4.297-2.326-8.239c0-7.403,4.417-15.85,13.255-25.347c8.834-9.494,17.017-14.297,24.538-14.419
		c2.508,0.836,4.329,1.734,5.465,2.687c1.132,0.956,1.7,2.392,1.7,4.301c0,1.552-0.655,3.195-1.969,4.923
		c-1.316,1.733-2.749,3.378-4.301,4.928c-2.865,2.865-6.33,5.283-10.388,7.253c-4.063,1.972-7.585,2.957-10.568,2.957
		c-0.6,0-1.139,0-1.613,0c-0.477,0-0.895-0.058-1.255-0.181c-2.626,3.466-4.835,6.898-6.627,10.3
		c-1.79,3.405-2.747,6.42-2.865,9.048c0.118,0.237,0.446,0.477,0.984,0.717c0.538,0.241,1.345,0.359,2.418,0.359
		c4.059,0,9.433-1.792,16.123-5.377c6.685-3.58,12.596-7.939,17.733-13.075c1.432-1.431,2.715-2.775,3.849-4.03
		c1.135-1.253,2.121-2.418,2.958-3.492c0.117,0.118,0.238,0.269,0.358,0.446c0.117,0.181,0.178,0.332,0.178,0.448
		c0,0.597-0.747,1.822-2.239,3.669c-1.495,1.856-3.431,3.975-5.819,6.363C76.63,101.879,70.777,106.151,64.092,109.672z
		 M57.645,89.521c2.265,0,5.284-0.923,9.043-2.778c3.764-1.848,6.898-4.029,9.404-6.537c1.791-1.793,3.224-3.464,4.3-5.017
		c1.074-1.552,1.612-2.744,1.612-3.581s-0.062-1.462-0.181-1.883c-0.12-0.416-0.239-0.686-0.358-0.804
		c-2.987,0.238-6.927,2.416-11.821,6.536c-4.898,4.123-9.378,8.811-13.434,14.064H57.645z"/>
</g>
</svg>
