<?xml version="1.0" encoding="utf-8"?>
<!-- Generator: Adobe Illustrator 15.0.0, SVG Export Plug-In . SVG Version: 6.00 Build 0)  -->
<!DOCTYPE svg PUBLIC "-//W3C//DTD SVG 1.1//EN" "http://www.w3.org/Graphics/SVG/1.1/DTD/svg11.dtd">
<svg version="1.1" id="Calque_1" xmlns="http://www.w3.org/2000/svg" xmlns:xlink="http://www.w3.org/1999/xlink" x="0px" y="0px"
	 width="340.16px" height="340.16px" viewBox="0 0 340.16 340.16" enable-background="new 0 0 340.16 340.16" xml:space="preserve">
<g>
	<g>
		<path fill="#282727" d="M115.581,108.217v-9.528h-6.035v41.291h6.035v-12.784h-2.382v-7.146h9.528v22.391
			c0,2.542-2.144,4.686-4.764,4.686h-10.8c-2.541,0-4.764-2.144-4.764-4.686V96.306c0-2.54,2.223-4.764,4.764-4.764h10.8
			c2.7,0,4.764,2.224,4.764,4.764v11.911H115.581z"/>
		<path fill="#282727" d="M142.259,123.542h-6.035v23.583h-7.147V91.542h14.69c2.7,0,4.764,2.224,4.764,4.764v19.375
			c0,1.986-1.032,3.494-2.461,3.891c2.145,0.477,3.336,2.699,3.336,4.686v22.868h-7.147V123.542z M136.224,116.396h5.161V98.688
			h-5.161V116.396z"/>
		<path fill="#282727" d="M169.649,136.247h-7.94l-1.112,10.879h-7.146l5.875-55.583h12.705l5.718,55.583h-6.988L169.649,136.247z
			 M162.503,129.1h6.353l-3.175-30.411L162.503,129.1z"/>
		<path fill="#282727" d="M190.928,91.542l6.83,27.632V91.542h7.145v55.583h-8.416l-7.146-29.856v29.856h-7.146V91.542H190.928z"/>
		<path fill="#282727" d="M211.252,91.542h15.564c2.699,0,4.765,2.224,4.765,4.764v46.134c0,2.542-2.145,4.686-4.765,4.686h-15.564
			V91.542z M224.436,98.688h-6.036v41.291h6.036V98.688z"/>
	</g>
	<g>
		<path fill="#282727" d="M65.108,185.16l-5.717-5.72h10.006v87.194h15.152v10.006l-5.719-5.719H65.108V185.16z"/>
		<path fill="#282727" d="M102.413,276.641l-3.717-3.717l2.001-19.584l3.717,3.717L102.413,276.641z M107.844,185.16l3.859,4.286
			l-6.002,57.605h14.722l4.432,4.29h-23.872L107.844,185.16z M102.698,179.44h20.298l10.148,97.2l-5.004-5.004l-9.149-87.909
			h-12.434L102.698,179.44z"/>
		<path fill="#282727" d="M144.145,179.44h24.586c4.86,0,7.575,3.575,7.575,7.576v34.02c0,3.002-1.57,5.717-4.43,6.432l-2.145-1.428
			c0,0,2.287-2.287,2.287-6.147v-31.305c0-2.716-2.287-4.86-4.716-4.86h-18.439L144.145,179.44z M149.863,185.302l4.289,4.145
			v34.733h10.719c1.001,0,1.716-0.283,1.716-0.283l2.143,1.428c-1.572,2.144-4.574,3.146-6.86,3.146h-12.008V185.302z
			 M154.152,276.641l-4.289-4.288v-40.88l4.289,4.144V276.641z M173.591,236.901c0-4.43-2.715-7.289-7.861-7.289
			c2.859,0,6.717,0,6.717,0c2.716,0.43,5.431,3.145,5.431,7.289v39.739l-4.287-4.288V236.901z"/>
		<path fill="#282727" d="M220.901,202.312v-14.152c0-2.428-2.002-4.432-4.434-4.432h-15.867c-1.999,0-3.287,0.432-3.857,1.003
			l-3.287-2.859c1.572-1.572,3.43-2.431,5.718-2.431h18.438c4.433,0,7.576,3.287,7.576,7.576v19.584L220.901,202.312z
			 M197.171,189.016c0-1.855,0.572-2.712,0.859-3l3.428,3.431v77.188h13.723l3.147,3.143c-0.716,0.716-1.288,1.145-2.288,1.145
			h-14.582c-2.284,0-4.287-2.001-4.287-4.287V189.016z M225.188,230.756v38.45c0,2.431-1.001,4.145-2.144,5.29l-3.289-3.287
			c0.286-0.287,1.146-1,1.146-3.43v-32.735h-5.721l-4.287-4.288H225.188z"/>
		<path fill="#282727" d="M239.478,179.44h29.304v10.006l-5.862-5.719h-18.725L239.478,179.44z M245.194,185.302l4.29,4.145v30.446
			h13.578V229.9l-5.86-5.721h-12.008V185.302z M245.194,227.185l4.29,4.145v35.306h20.295v10.006l-5.718-5.719h-18.867V227.185z"/>
	</g>
	<g>
		<rect x="61.744" y="160.781" fill="#282727" width="89.46" height="2.878"/>
		<path fill="#282727" d="M59.625,166.99c0,0.731,0.683,1.324,1.526,1.324l0,0c0.843,0,1.527-0.593,1.527-1.324v-9.265
			c0-0.731-0.684-1.324-1.527-1.324l0,0c-0.843,0-1.526,0.593-1.526,1.324V166.99z"/>
	</g>
	<g>
		<rect x="177.815" y="160.781" fill="#282727" width="89.511" height="2.878"/>
		<path fill="#282727" d="M268.564,166.99c0,0.731-0.643,1.324-1.437,1.324l0,0c-0.793,0-1.436-0.593-1.436-1.324v-9.265
			c0-0.731,0.643-1.324,1.436-1.324l0,0c0.794,0,1.437,0.593,1.437,1.324V166.99z"/>
	</g>
	<rect x="83.857" y="124.021" transform="matrix(0.7072 0.7071 -0.7071 0.7072 114.8503 -24.051)" width="5.206" height="5.206"/>
	
		<rect x="245.189" y="124.022" transform="matrix(0.7071 0.7071 -0.7071 0.7071 162.1132 -138.1277)" width="5.205" height="5.205"/>
	<rect x="38.251" y="289.14" fill="#282727" width="262.212" height="2.129"/>
	<polyline fill="none" stroke="#282727" stroke-width="4" stroke-miterlimit="10" points="58.57,218.36 8.902,169.28 169.439,8.743 
		329.978,169.28 271.491,228.253 	"/>
	<polyline fill="none" stroke="#282727" stroke-width="4" stroke-miterlimit="10" points="129.544,290.171 169.439,329.817 
		210.062,290.204 	"/>
	<polyline fill="none" stroke="#282727" stroke-miterlimit="10" points="272.835,232.997 336.146,169.586 169.439,2.879 
		2.733,169.586 58.067,224.971 	"/>
	<polyline fill="none" stroke="#282727" stroke-miterlimit="10" points="125.232,290.675 169.439,335 214.987,290.188 	"/>
</g>
</svg>
