<?xml version="1.0" encoding="utf-8"?>
<!-- Generator: Adobe Illustrator 15.0.0, SVG Export Plug-In . SVG Version: 6.00 Build 0)  -->
<!DOCTYPE svg PUBLIC "-//W3C//DTD SVG 1.1//EN" "http://www.w3.org/Graphics/SVG/1.1/DTD/svg11.dtd">
<svg version="1.1" id="Calque_1" xmlns="http://www.w3.org/2000/svg" xmlns:xlink="http://www.w3.org/1999/xlink" x="0px" y="0px"
	 width="226.77px" height="340.16px" viewBox="0 0 226.77 340.16" enable-background="new 0 0 226.77 340.16" xml:space="preserve">
<rect x="69.346" y="32.491" fill="#F9C75F" width="87.61" height="50.417"/>
<rect x="11.405" y="92.563" fill="#F7EA4F" width="47.524" height="83.476"/>
<rect x="167.537" y="92.616" fill="#F7EA4F" width="47.521" height="83.476"/>
<rect x="145.163" y="37.416" transform="matrix(0.7187 -0.6953 0.6953 0.7187 -7.5191 139.7211)" fill="#FED35D" width="47.525" height="83.475"/>
<rect x="33.692" y="37.38" transform="matrix(-0.7187 -0.6953 0.6953 -0.7187 43.7345 175.9294)" fill="#FED35D" width="47.523" height="83.477"/>
<rect x="33.818" y="147.681" transform="matrix(-0.7187 0.6953 -0.6953 -0.7187 230.6676 285.521)" fill="#C1D677" width="47.524" height="83.476"/>
<rect x="145.27" y="147.716" transform="matrix(0.7187 0.6954 -0.6954 0.7187 179.3002 -64.2373)" fill="#C1D677" width="47.529" height="83.491"/>
<rect x="69.544" y="185.672" fill="#9AC769" width="87.606" height="50.418"/>
<g>
	<path fill="#282727" d="M22.322,268.764v19.797h-4.505v-19.797h-6.413v-4.438H28.8v4.438H22.322z"/>
	<path fill="#282727" d="M45.078,288.561v-10.521h-8.484v10.521h-4.505v-24.234h4.406v9.142h8.583v-9.142h4.405v24.234H45.078
		L45.078,288.561z"/>
	<path fill="#282727" d="M53.924,288.561v-4.438h4.407v-15.355h-4.407v-4.439h12.923v4.439h-4.11v15.355h4.11v4.438H53.924z"/>
	<path fill="#282727" d="M84.375,288.561l-8.848-15.719v15.719h-4.24v-24.234h4.24l8.684,15.391v-15.391h4.308v24.234H84.375
		L84.375,288.561z"/>
	<path fill="#282727" d="M106.441,288.561v-2.695l-5.063-8.254l-3.521,4.701v6.248h-4.404v-24.234h4.404v10.652l7.895-10.652h5.097
		l-6.807,9.372l6.607,10.948c0.101,0.297,0.197,0.627,0.197,0.987v2.927H106.441L106.441,288.561z"/>
	<path fill="#282727" d="M122.489,289.055c-4.801,0-8.682-3.881-8.682-8.683v-7.858c0-4.802,3.881-8.682,8.682-8.682
		c4.804,0,8.716,3.88,8.716,8.682v7.858C131.203,285.174,127.291,289.055,122.489,289.055z M126.797,272.546
		c0-2.368-1.94-4.274-4.341-4.274c-2.304,0-4.241,1.939-4.241,4.242v7.858c0,2.302,1.938,4.243,4.272,4.243
		c2.367,0,4.31-1.941,4.31-4.243V272.546z"/>
	<path fill="#282727" d="M151.691,268.337l-6.279,20.224h-4.242l-6.676-20.289c-0.133-0.263-0.164-0.525-0.164-0.82v-3.125h4.568
		v3.42l4.406,13.548l4.146-13.548v-3.42h4.438v3.156C151.889,267.777,151.79,268.073,151.691,268.337z"/>
	<path fill="#282727" d="M155.671,288.561v-24.234h17.396v4.438h-12.987v4.702h8.748v4.375h-8.748v6.28h12.987v4.439H155.671
		L155.671,288.561z"/>
	<path fill="#282727" d="M190.495,288.561v-2.367l-3.125-6.512h-5.458v8.879h-4.405v-24.234c0,0,5.522,0,9.733,0
		c4.208,0,7.659,3.42,7.659,7.629c0,2.664-1.381,5.029-3.453,6.413l3.258,6.278c0.099,0.297,0.195,0.627,0.195,0.955v2.959H190.495
		L190.495,288.561z M187.173,268.632c-1.907,0-5.326,0-5.326,0v6.774c0,0,3.419,0,5.326,0c1.842,0,3.354-1.514,3.354-3.354
		C190.528,270.146,189.015,268.632,187.173,268.632z"/>
	<path fill="#282727" d="M214.73,268.797l-6.116,9.339v10.425h-4.438v-10.425l-6.083-9.403c-0.263-0.297-0.396-0.758-0.396-1.186
		v-3.254h4.475v2.531l4.045,6.839l4.472-6.839v-2.531h4.374v3.254C215.06,268.009,214.961,268.436,214.73,268.797z"/>
</g>
<line fill="none" stroke="#000000" stroke-width="0.5" stroke-miterlimit="10" x1="56" y1="252" x2="170.667" y2="252"/>
<line fill="none" stroke="#000000" stroke-width="0.5" stroke-miterlimit="10" x1="10.667" y1="300" x2="215.06" y2="300"/>
<polygon fill="#F49A2B" points="69.398,32.599 69.398,82.908 86.733,82.908 103.553,65.642 "/>
<polygon fill="#F49A2B" points="156.887,32.599 156.887,82.908 139.551,82.908 122.731,65.642 "/>
<polygon fill="#F2B700" points="11.355,92.594 58.929,92.594 58.927,111.777 45.51,125.638 "/>
<polygon fill="#F2B700" points="215.263,92.594 167.689,92.594 167.691,111.777 181.108,125.638 "/>
<polygon fill="#C3D334" points="11.355,175.823 58.929,175.823 58.927,156.64 45.51,142.779 "/>
<polygon fill="#C3D334" points="215.264,175.823 167.69,175.823 167.692,156.64 181.108,142.779 "/>
<polygon fill="#75B843" points="69.544,235.98 69.544,185.67 86.879,185.67 103.699,202.937 "/>
<polygon fill="#75B843" points="157.032,235.98 157.032,185.67 139.697,185.67 122.876,202.937 "/>
</svg>
