<svg version="1.1"
     xmlns="http://www.w3.org/2000/svg"
     x="200px" y="200px"
     viewBox="0 0 380 206.5"
     style="enable-background:new 0 0 321.5 206.5;"
     xml:space="preserve"
     width="100%"
     class="logo">

	<style type="text/css">
		.st0{fill:#E41F22;}
		.st1{fill:#1B3F80;}
	</style>

  	<title>Set Up In France</title>

	<g id="france">
		<g class="animated slideInUp">
		  	<g>
		    	<path class="st0" d="M39.9,108.7c-4-12-14.1-22.8-33.6-30.7c-1.3,3-2.1,6.2-1.2,9.7C22,93.1,33,100.3,39.9,108.7"/>
		  	</g>
		  	<path class="st1" d="M185,141.3c1.6,7.7,4.3,16.3,8.2,26c-7.6,7-15.9,11.2-22.7,14.7c-1.5,0.8-2.9,1.5-4.2,2.2
		    	c-12.1-4.6-26.9-9.3-39.6-9.3c-16,0-26.6,7.6-30.3,21.5c-3.8,0.2-7.5,0.4-11.1,0.4c-23.5,0-40-5.3-53.3-12.3
		    	c-2.1-1.1-4.1-2.2-6-3.3c8.7-11.5,15.5-22.5,20.2-32.9c8.1-17.9,10.2-33.8,6.1-47.4c-5-16.8-19.1-29.4-41.9-37.7
		    	c0.2-0.8,0.6-1.7,1.1-2.7c9.3-1.9,18.5-3.6,23.7-3.9c4.8,2.5,12.4,6.3,19.8,6.3c6.3,0,11.5-2.6,15-7.5c2.3-3.2,3.8-7.2,4.6-12.3
		    	c5.4,1.4,10.8,2.1,16.2,2.1c21.3,0,38.5-11.3,48.7-31.9c2.3-0.8,4.2-1.4,6-2c0.7-0.2,1.5-0.5,2.2-0.7c2.2,1.9,4.3,3.7,6.3,5.6
		    	c18.1,16.1,35.3,31.5,74,39.5c-0.8,1-1.6,2.1-2.4,3.1c-3.5,4.3-6.9,8.2-10.3,11.8h9.4c2.7-3.1,5.5-6.3,8.3-9.9
		    	c0.9-1.2,1.8-2.4,2.8-3.6c0.1-0.2,0.3-0.4,0.5-0.6c1.3-1.8,2.7-3.7,4-5.7c-51.5-8-66.8-27.5-91-48.1c-4.6,1.7-7.9,2.5-14.8,5
		    	C124.1,30.5,107,38.2,90.7,38.2c-8,0-15.8-1.9-22.5-4.7c0,17.4-6.1,22.3-13.3,22.3c-6.6,0-14-4.1-18.2-6.3h-0.5
		    	c-6.2,0-17.9,2.3-29.5,4.7C4.8,57.6,3,61,3,64.9c0,1,0.1,2.1,0.4,3.2c32.8,10.5,43.8,28,43.9,47c0,24-17.7,50.4-31.6,67.7
		    	c2,1.3,3.9,2.5,5.9,3.7c1.8,1.1,3.7,2.2,5.6,3.2c15.7,8.4,33.4,13.9,58,13.9c5.3,0,11-0.3,17-0.8c1.9-15.9,11.9-21.1,24.4-21.1
		    	c12.8,0,28.2,5.4,40.1,10c8.7-5.1,22.5-10.1,34.6-22.9c-4.6-10.6-7.6-19.7-9.3-27.5H185z"/>
		</g>
	</g>

	<g id="label">
		<g class="animated fadeInRight">
		  	<path class="st1" d="M161.2,86.3c0-3.6,2.1-4.7,4.9-4.7c2.6-0.1,5.6,0.3,7.1,0.7v2.8c-1.6-0.1-5.2-0.2-6.1-0.2
		  	  	c-1.5,0-2.4,0.1-2.4,1.8v0.9c0,1.4,0.6,1.8,2,1.8h2.9c3.6,0,4.3,2.8,4.3,4.8v1.2c0,4.2-2.6,4.9-5.1,4.9c-3.1,0-5.2-0.2-7.1-0.7
		  	  	v-2.8c1,0.1,4,0.3,6.4,0.3c1.1,0,2.3-0.2,2.3-1.6v-1c0-1-0.3-1.7-1.7-1.7H166c-4.4,0-4.7-3.3-4.7-4.8V86.3z"/>
		  	<path class="st1" d="M177.8,85.5c0-3.2,2.2-3.8,4-3.8c0,0,6.4,0.2,8,0.4V85h-7.2c-1.3,0-1.3,0.7-1.3,1.4v2.9l7.4,0.3v2.9l-7.4,0.2
		  	  	v2.9c0,1.3,0.8,1.3,1.5,1.3h7v2.9c-1.4,0.2-7.8,0.4-7.8,0.4c-1.6,0.1-4.2-0.3-4.2-3.7V85.5z"/>
		  	<path class="st1" d="M192.9,81.7h13.5V85h-5.1V100h-3.5V85h-4.9V81.7z"/>
		  	<path class="st1" d="M217.9,81.7h3.5V92c0,4.2,0.9,4.9,3.5,4.9c2.3,0,3.4-0.9,3.4-4.9V81.7h3.5V92c0,8.1-3.9,8.1-6.9,8.1
		  	  	c-3.4,0-7,0.2-7-8.1V81.7z"/>
		  	<path class="st1" d="M235.9,81.7h7.9c2.3,0,5.1,0.7,5.1,5.6c0,5.6-3,6-5.1,5.9c-1,0-4.2-0.4-4.4-0.5v7.3h-3.5V81.7z M243.5,90.2
		  	  	c1.1,0,1.8-0.6,1.8-2.8c0-2.2-1-2.6-1.8-2.6h-4.1v5.3H243.5z"/>
		  	<path class="st0" d="M161.7,108.5h3.9V129h-3.9V108.5z"/>
		  	<path class="st0" d="M170.4,108.5h4l8.1,13.2v-13.2h3.9V129h-3.9l-8.2-13.1V129h-3.9V108.5z"/>
		  	<path class="st1" d="M199.8,112.9c0-3.3,2.3-4.4,4.5-4.3c0,0,7.2,0.2,9,0.4v3.2h-8.1c-1.5,0-1.5,0.8-1.5,1.6v3.2l8.3,0.3v3.2
		  	  	l-8.3,0.3v8.3h-3.9V112.9z"/>
		  	<path class="st1" d="M217.3,108.5h9c3.2,0,5.6,1.5,5.6,6.4c0,5.1-2.1,5.7-3.3,6l3.9,8.1h-4.4l-3.4-7.8l-3.4-0.4v8.1h-3.9V108.5z
		  	   	M225.9,117.8c1.4,0,2-0.4,2-2.9c0-2.3-0.8-2.9-2-2.9h-4.6v5.8H225.9z"/>
		  	<path class="st1" d="M242.5,108.5h4.5l6.7,20.5h-4.2l-1.5-4.5h-6.7l-1.5,4.5h-4.2L242.5,108.5z M247.1,121l-2.3-7.3l-2.5,7.3
		  	  	H247.1z"/>
		  	<path class="st1" d="M257.5,108.5h4l8.1,13.2v-13.2h3.9V129h-3.9l-8.2-13.1V129h-3.9V108.5z"/>
		  	<path class="st1" d="M284.8,108.3c2.9,0,4.9,0.3,7.1,0.9v3.1c0,0-3.5-0.4-6.2-0.4c-2.9,0-4,0.7-4,6.9c0,4.6,0.8,6.8,4,6.8
		  	  	c2.9,0,6.2-0.2,6.2-0.2v3.1c-1.8,0.6-4.2,0.8-7.1,0.8c-5.2,0-7-4-7-10.5C277.8,112.2,279.2,108.3,284.8,108.3z"/>
		  	<path class="st1" d="M296,112.8c0-3.6,2.5-4.3,4.5-4.3c0,0,7.2,0.2,9,0.4v3.2h-8.1c-1.5,0-1.5,0.8-1.5,1.6v3.2l8.3,0.3v3.2
		  	  	l-8.3,0.3v3.2c0,1.5,0.9,1.5,1.7,1.5h7.8v3.2c-1.6,0.2-8.7,0.5-8.7,0.5c-1.8,0.1-4.7-0.3-4.7-4.1V112.8z"/>
		</g>
	</g>

</svg>
