<?xml version="1.0" encoding="utf-8"?>
<!-- Generator: Adobe Illustrator 15.0.0, SVG Export Plug-In . SVG Version: 6.00 Build 0)  -->
<!DOCTYPE svg PUBLIC "-//W3C//DTD SVG 1.1//EN" "http://www.w3.org/Graphics/SVG/1.1/DTD/svg11.dtd">
<svg version="1.1" id="Calque_1" xmlns="http://www.w3.org/2000/svg" xmlns:xlink="http://www.w3.org/1999/xlink" x="0px" y="0px"
	 width="283.46px" height="212.6px" viewBox="0 0 283.46 212.6" enable-background="new 0 0 283.46 212.6" xml:space="preserve">
<line fill="none" stroke="#3C3C3B" stroke-miterlimit="10" x1="175.266" y1="85.229" x2="208.5" y2="51"/>
<g>
	<path fill="#282727" d="M45.493,126.89c-1.546,4.192,3.647,9.773,6.634,10.875c44.485,16.408,175.98,64.896,175.98,64.896
		s10.587,4.729,13.586-3.401c1.273-3.452,2.523-6.841,3.626-9.832l-196.2-72.368L45.493,126.89z"/>
	<path fill="#DEDC00" d="M247.206,166.85l-30.484-21.444c-5.513,7.037-11.626,13.511-18.364,19.402l49.332,18.196l0.913-2.479
		C249.599,177.824,247.206,166.85,247.206,166.85z"/>
	<path fill="#878787" d="M137.253,55.623c-26.488,20.326-69.128,42.935-79.85,38.979l-5.914,16.032l48.17,17.768
		c0,0,10.898-47.037,44.911-65.423C146.642,55.043,139.649,54.633,137.253,55.623z"/>
	<path fill="#3C3C3B" d="M138.332,51.723c5.341-1.853,12.6,4.05,8.256,13.556c-37.027,20.737-41.885,64.989-41.885,64.989
		l87.113,32.132l13.167-12.798c2.431-2.656,4.782-5.374,7.005-8.225l-0.965-7.755c0,0-44.831-49.296-45.444-50.638
		c-0.541-1.159-10.065-26.148-12.648-33.295c-0.784-2.169-2.88-2.672-2.88-2.672l-4.483-1.654c0,0-2.875-8.903-8.297-10.903
		c-5.426-2.001-15.691,9.895-15.691,9.895S99.128,36.9,86.311,32.172C73.497,27.445,55.312,8.428,55.312,8.428
		c-6.428,6.035,1.045,11.586-6.043,14.852c-4.476,2.063-3.922,9.897-2.908,15.387c5.428,4.313,11.138,7.967,17.708,10.5
		c3.031,1.169,1.288,5.903-1.745,4.73c-5.492-2.123-10.459-4.975-15.157-8.324c-1.046,2.877-2.954,9.904,0.224,15.682
		c5.349,2.676,10.734,5.2,16.773,6.009c3.22,0.422,2.796,5.45-0.422,5.021c-4.64-0.614-8.886-2.119-13.024-3.954
		c-3.333,12.811,7.726,15.095,6.702,17.872c-1.094,2.967,0.62,6.676,0.62,6.676C85.434,91.705,107.736,69.156,138.332,51.723z
		 M198.539,127.189c1.809,0.667,2.833,2.368,2.301,3.811c-0.527,1.431-2.408,2.052-4.218,1.385
		c-1.773-0.654-2.813-2.353-2.285-3.782C194.869,127.158,196.766,126.535,198.539,127.189z M185.939,115.818
		c1.793,0.662,2.811,2.36,2.28,3.797c-0.53,1.438-2.405,2.064-4.197,1.402c-1.797-0.662-2.833-2.361-2.302-3.8
		C182.251,115.781,184.143,115.156,185.939,115.818z M173.338,104.453c1.79,0.66,2.831,2.368,2.3,3.806
		c-0.529,1.437-2.428,2.054-4.217,1.395c-1.806-0.667-2.825-2.36-2.296-3.797C169.655,104.418,171.532,103.787,173.338,104.453z"/>
</g>
<path fill="#878787" d="M171.065,104.999c-0.817,0.931-0.791,2.291,0.059,3.037l0,0c0.85,0.745,2.2,0.597,3.019-0.335l6.338-7.221
	c0.817-0.93,0.79-2.29-0.059-3.035l0,0c-0.85-0.746-2.201-0.596-3.019,0.334L171.065,104.999z"/>
<path fill="#878787" d="M183.611,116.26c-0.746,0.85-0.662,2.144,0.188,2.89l0,0c0.85,0.745,2.143,0.662,2.89-0.188l5.788-6.594
	c0.746-0.85,0.661-2.143-0.188-2.889l0,0c-0.85-0.746-2.144-0.662-2.89,0.188L183.611,116.26z"/>
<path fill="#878787" d="M196.137,127.935c-0.664,0.756-0.514,1.974,0.336,2.72l0,0c0.85,0.745,2.076,0.738,2.741-0.019l5.15-5.868
	c0.664-0.756,0.513-1.973-0.336-2.719l0,0c-0.85-0.746-2.077-0.738-2.741,0.018L196.137,127.935z"/>
<line fill="none" stroke="#3C3C3B" stroke-miterlimit="10" x1="76" y1="187" x2="100.5" y2="163"/>
</svg>
