<?xml version="1.0" encoding="utf-8"?>
<!-- Generator: Adobe Illustrator 16.0.0, SVG Export Plug-In . SVG Version: 6.00 Build 0)  -->
<!DOCTYPE svg PUBLIC "-//W3C//DTD SVG 1.1//EN" "http://www.w3.org/Graphics/SVG/1.1/DTD/svg11.dtd">
<svg version="1.1" id="Calque_1" xmlns="http://www.w3.org/2000/svg" xmlns:xlink="http://www.w3.org/1999/xlink" x="0px" y="0px"
	 width="286px" height="392px" viewBox="20.14 209.445 286 392" enable-background="new 20.14 209.445 286 392"
	 xml:space="preserve">
<g>
	<g>
		<g>
			<g>
				<path fill="#414042" d="M166.722,483.386C127.836,444.502,89.036,405.7,50.149,366.814
					c-5.397-5.397-10.966-10.965-16.363-16.365c0,1.098,0,2.195,0,3.375c38.885-38.884,77.687-77.687,116.571-116.572
					c5.399-5.398,10.965-10.966,16.365-16.363c-1.098,0-2.193,0-3.375,0c38.885,38.887,77.686,77.687,116.571,116.572
					c5.397,5.398,10.97,10.966,16.367,16.363c0-1.098,0-2.192,0-3.375c-38.889,38.887-77.69,77.689-116.576,116.573
					c-5.397,5.398-10.965,10.966-16.363,16.364c-2.192,2.195,1.182,5.567,3.375,3.376c38.887-38.888,77.685-77.688,116.574-116.576
					c5.397-5.397,10.964-10.964,16.363-16.363c0.925-0.928,0.925-2.447,0-3.375c-38.885-38.885-77.687-77.686-116.572-116.571
					c-5.397-5.399-10.968-10.966-16.365-16.365c-0.929-0.928-2.447-0.928-3.375,0C124.463,256.4,85.661,295.2,46.774,334.086
					c-5.397,5.397-10.965,10.965-16.363,16.363c-0.928,0.928-0.928,2.447,0,3.375c38.887,38.885,77.687,77.687,116.573,116.57
					c5.398,5.402,10.966,10.966,16.363,16.368C165.54,488.954,168.915,485.582,166.722,483.386z"/>
			</g>
		</g>
		<g>
			<g>
				<path fill="#414042" d="M244.072,433.706c17.545,17.541,35.09,35.09,52.635,52.635c2.191,2.191,5.563-1.181,3.373-3.376
					c-17.546-17.545-35.091-35.09-52.636-52.631C245.25,428.22,241.877,431.598,244.072,433.706L244.072,433.706z"/>
			</g>
		</g>
		<g>
			<g>
				<path fill="#414042" d="M31.677,221.31c17.292,17.291,34.668,34.669,51.959,51.959c2.195,2.192,5.567-1.18,3.375-3.375
					c-17.292-17.291-34.584-34.583-51.96-51.959C32.859,215.912,29.483,219.199,31.677,221.31L31.677,221.31z"/>
			</g>
		</g>
		<g>
			<g>
				<path fill="#414042" d="M244.576,275.883c18.388-18.388,36.694-36.691,55.252-55.249c2.189-2.192-1.183-5.565-3.378-3.374
					c-18.388,18.39-36.689,36.693-55.164,55.166C239.096,274.618,242.469,277.994,244.576,275.883L244.576,275.883z"/>
			</g>
		</g>
		<g>
			<g>
				<path fill="#414042" d="M33.786,486.674c18.471-18.47,36.946-36.945,55.587-55.586c2.192-2.189-1.183-5.567-3.375-3.372
					c-18.471,18.472-36.946,36.945-55.587,55.586C28.388,485.41,31.761,488.785,33.786,486.674L33.786,486.674z"/>
			</g>
		</g>
	</g>
	<g>
		<polygon fill="#E5EAEA" points="132.223,280.44 119.232,292.416 123.703,315.698 141.078,289.465 136.271,290.308 		"/>
		<polygon fill="#F05647" points="169.843,371.117 176.421,380.731 180.388,380.731 184.856,371.117 		"/>
		<polygon fill="#F05647" points="179.289,371.117 185.869,380.731 189.833,380.731 194.305,371.117 		"/>
		<polyline fill="#BF4234" points="160.142,280.44 169.591,290.393 141.924,335.351 141.924,373.562 213.028,373.562 
			232.598,381.237 206.535,337.292 168.663,337.292 151.624,354.837 151.624,335.942 178.112,290.393 159.552,271.92 
			143.103,271.92 132.223,280.44 136.271,290.308 148.419,291.657 150.697,280.44 160.142,280.44 		"/>
		<polygon fill="#F05647" points="169,364.283 188.486,346.315 232.598,381.237 		"/>
		<path fill="#383330" d="M208.308,390.601c0.421,1.18-0.508,2.529-2.194,3.121l-53.562,16.617
			c-1.604,0.507-3.205-0.167-3.544-1.349l0,0c-0.421-1.18,0.507-2.529,2.195-3.121l53.564-16.618
			C206.282,388.66,207.886,389.251,208.308,390.601L208.308,390.601z"/>
		<path fill="#383330" d="M209.742,391.613c-0.509,1.35-2.195,1.856-3.542,1.35l-18.897-8.351c-1.352-0.674-2.025-2.193-1.516-3.542
			l0,0c0.504-1.35,2.19-1.856,3.542-1.35l18.892,8.351C209.655,388.83,210.334,390.264,209.742,391.613L209.742,391.613z"/>
		<path fill="#383330" d="M181.145,451.163c0,1.604-1.178,2.953-2.529,2.953l0,0c-1.517,0-2.53-1.349-2.53-2.953v-69.081
			c0-1.604,1.182-2.953,2.53-2.953l0,0c1.516,0,2.529,1.349,2.529,2.953V451.163z"/>
		<g>
			<circle fill="#FFFFFF" cx="144.622" cy="279.596" r="9.954"/>
			
				<linearGradient id="SVGID_1_" gradientUnits="userSpaceOnUse" x1="20.5623" y1="422.2827" x2="29.7872" y2="422.2827" gradientTransform="matrix(1.3123 0 0 1.3123 111.5481 -274.5626)">
				<stop  offset="0" style="stop-color:#4BBA7A"/>
				<stop  offset="0.2085" style="stop-color:#47B576"/>
				<stop  offset="0.4544" style="stop-color:#3FAC6F"/>
				<stop  offset="0.7191" style="stop-color:#319E64"/>
				<stop  offset="0.9955" style="stop-color:#1B8A54"/>
				<stop  offset="1" style="stop-color:#1A8A54"/>
			</linearGradient>
			<circle fill="url(#SVGID_1_)" cx="144.622" cy="279.596" r="6.073"/>
			<circle fill="#131718" cx="144.622" cy="279.595" r="3.205"/>
			<circle fill="#FFFFFF" cx="146.478" cy="276.981" r="1.604"/>
		</g>
		<path fill="#414042" d="M158.626,268.293c-0.17,0.506-0.676,0.843-1.183,0.673l-16.616-4.892c-0.507-0.17-0.843-0.676-0.674-1.18
			l0,0c0.167-0.506,0.674-0.845,1.18-0.676l16.618,4.891C158.54,267.365,158.793,267.872,158.626,268.293L158.626,268.293z"/>
		<polygon fill="#BF4234" points="119.232,292.416 123.703,315.698 128.175,309.033 124.126,288.031 		"/>
	</g>
</g>
<g>
	<g>
		<path fill="#414042" d="M93.59,521.596c2.529,0,4.892-0.503,7.002-1.603c2.192-1.096,4.215-2.444,5.819-4.047
			c1.602-1.604,2.952-3.378,3.879-5.398c0.928-1.854,1.519-3.628,1.519-5.402c0-1.599-0.506-2.95-1.602-4.046
			c-1.098-1.096-2.868-1.603-5.23-1.603c-3.626,0-6.326,0.678-8.351,2.024c-2.023,1.348-3.542,3.203-4.47,5.65
			c-0.928,2.445-1.519,5.146-1.604,8.354c-0.167,3.203-0.167,6.491,0,10.12c0.17,3.543,0.254,7.256,0.507,11.05
			c0.254,3.797,0.169,7.422,0,11.051c-0.253,3.543-0.843,6.915-1.772,10.123c-0.927,3.203-2.529,5.901-4.724,8.349
			c-2.192,2.445-5.146,4.303-8.772,5.648c-3.627,1.353-8.264,2.026-13.916,2.026c-3.881,0-7.172-0.505-9.701-1.77
			c-2.531-1.181-4.472-2.867-5.822-4.725c-1.349-1.854-2.023-4.05-2.192-6.495c-0.17-2.444,0.169-4.721,0.928-6.999
			c0.759-2.277,2.025-4.472,3.797-6.58c1.771-2.023,3.795-3.629,6.241-4.977c2.447-1.181,5.145-2.024,8.099-2.276
			c2.953-0.257,6.241,0.252,9.698,1.599c-3.118,0-5.819,0.849-8.264,2.282c-2.448,1.518-4.473,3.372-6.074,5.563
			c-1.604,2.195-2.868,4.56-3.542,7.17c-0.675,2.535-0.93,4.977-0.675,7.172c0.251,2.191,1.096,4.047,2.531,5.567
			c1.349,1.518,3.372,2.191,6.071,2.191c3.881,0,7.002-0.674,9.448-2.026c2.278-1.348,4.215-3.203,5.229-5.65
			c1.182-2.446,2.025-5.14,2.278-8.348c0.254-3.209,0.421-6.498,0.421-10.122c0-3.544-0.167-7.172-0.421-10.966
			c-0.168-3.798-0.168-7.423,0-10.966c0.169-3.545,0.676-6.918,1.349-10.127c0.845-3.203,2.025-5.901,3.881-8.347
			c1.856-2.443,4.47-4.299,7.593-5.651c3.205-1.352,7.423-2.025,12.397-2.025c3.629,0,6.498,0.674,8.606,1.856
			c2.107,1.182,3.626,2.867,4.554,4.725c0.927,1.855,1.35,3.875,1.182,6.239c-0.169,2.278-0.676,4.474-1.773,6.582
			c-0.928,2.188-2.277,4.046-4.049,5.819c-1.771,1.771-3.626,2.867-5.819,3.541c-2.195,0.674-4.557,0.674-7.002,0.169
			C98.736,525.396,96.119,523.875,93.59,521.596z"/>
		<path fill="#414042" d="M106.411,551.375c-0.421,0-0.927-0.169-1.604-0.257c-0.673-0.081-1.18-0.25-1.771-0.503
			c-0.674,1.346-1.18,2.529-1.604,3.625c-0.252,1.1-0.421,2.195-0.252,2.954c0.17,0.844,0.506,1.518,1.349,2.026
			c0.676,0.503,1.771,0.668,3.121,0.668c1.773,0,3.544-0.503,5.4-1.517c1.856-0.925,3.626-2.021,5.228-3.201
			c1.856-1.353,3.797-2.953,5.652-4.725c-1.602,2.024-3.372,3.881-5.228,5.396c-1.604,1.352-3.375,2.7-5.399,3.796
			c-2.023,1.093-4.218,1.771-6.496,1.771c-2.192,0-3.878-0.422-5.143-1.353c-1.183-0.924-2.195-2.188-2.532-3.622
			c-0.421-1.518-0.506-3.21-0.251-5.229c0.251-2.026,0.843-3.882,1.771-5.905c0.928-2.026,2.025-4.053,3.542-5.908
			c1.52-2.02,3.12-3.624,4.976-5.227c1.856-1.518,3.881-2.7,6.243-3.631c2.362-0.925,4.555-1.347,7.169-1.347
			c2.192,0,3.796,0.503,4.894,1.774c1.096,1.095,1.517,2.528,1.602,4.215c0,1.603-0.421,3.541-1.349,5.398
			c-0.929,2.024-2.278,3.798-4.048,5.396c-1.771,1.604-3.881,3.121-6.496,4.221C112.316,550.869,109.532,551.375,106.411,551.375z
			 M123.029,530.792c-0.927,0-2.192,0.506-3.881,1.771c-1.602,1.183-3.372,2.697-5.228,4.472c-1.855,1.773-3.629,3.793-5.567,6.072
			c-1.773,2.195-3.375,4.303-4.556,6.498c0.423,0.25,0.927,0.421,1.182,0.421c0.422,0,0.843,0.169,1.18,0.169
			c1.182,0,2.531-0.421,4.05-1.352c1.517-0.927,2.951-2.191,4.301-3.541c1.518-1.518,2.701-2.953,4.05-4.556
			c1.18-1.604,2.278-3.207,3.121-4.556c0.843-1.517,1.349-2.528,1.602-3.541C123.703,531.213,123.535,530.792,123.029,530.792z"/>
		<path fill="#414042" d="M124.126,561.494c-1.519-1.096-2.28-2.272-2.701-3.624c-0.421-1.353-0.421-2.869,0-4.303
			c0.254-1.518,0.928-2.951,1.773-4.556c0.843-1.603,1.771-3.12,2.866-4.554c1.097-1.517,2.194-2.952,3.206-4.474
			c1.096-1.515,2.025-2.867,2.868-4.046c0.843-1.182,1.349-2.446,1.602-3.376c0.254-0.927,0.254-1.771-0.252-2.448
			c1.097-0.25,2.277-0.422,3.375-0.672c1.095-0.171,2.192-0.253,2.951-0.171c0.843,0.171,1.519,0.421,1.856,0.931
			c0.422,0.505,0.422,1.348-0.168,2.447c-0.423,1.096-1.349,2.529-2.7,4.468c-1.35,1.773-3.373,4.051-6.072,6.92
			c2.023-1.857,4.216-3.796,6.326-5.651c2.278-1.854,4.47-3.547,6.496-4.894c2.192-1.352,4.048-2.278,5.819-2.869
			c1.774-0.509,3.205-0.509,4.473,0.253c1.095,0.674,1.601,1.521,1.601,2.447c0,0.925-0.251,2.193-0.927,3.373
			c-0.673,1.181-1.602,2.533-2.699,4.05c-1.18,1.517-2.447,2.867-3.627,4.472c-1.349,1.518-2.531,2.951-3.795,4.556
			c-1.18,1.517-2.278,2.95-3.121,4.468c-0.843,1.521-1.349,2.867-1.52,4.05c-0.169,1.349,0.17,2.441,0.928,3.541
			c-2.698-1.35-4.47-2.867-5.397-4.303c-0.927-1.515-1.519-2.95-1.182-4.468c0.169-1.521,0.843-2.954,1.855-4.472
			c1.097-1.517,2.277-2.95,3.796-4.303c1.52-1.346,2.954-2.698,4.555-3.881c1.604-1.177,2.954-2.446,4.218-3.541
			c1.182-1.096,2.193-2.026,2.699-2.698c0.506-0.844,0.506-1.518,0-1.857c-0.421-0.251-1.35-0.169-2.699,0.509
			c-1.52,0.674-3.121,1.599-5.146,2.951c-2.023,1.348-4.048,2.95-6.326,4.724c-2.276,1.77-4.47,3.625-6.495,5.651
			c-1.098,1.181-2.193,2.445-3.205,3.541c-1.096,1.1-2.023,2.276-2.951,3.376c-1.35,1.77-2.278,3.375-2.701,4.89
			C122.774,558.964,123.029,560.311,124.126,561.494z"/>
		<path fill="#414042" d="M181.145,527.837c-1.517,0.257-2.699,1.1-3.625,2.276c-0.931,1.184-1.774,2.535-2.447,4.303
			c-0.674,1.773-1.35,3.629-1.856,5.655c-0.506,2.026-1.182,4.215-1.774,6.241c-0.673,2.195-1.349,4.215-2.276,6.241
			c-0.929,2.024-2.023,3.798-3.374,5.231c-1.349,1.518-2.953,2.7-4.893,3.625c-1.856,0.927-4.301,1.348-7.169,1.348
			c-2.023,0-3.542-0.421-4.47-1.096c-0.928-0.843-1.519-1.768-1.604-2.862c-0.167-1.184,0.169-2.448,0.843-3.8
			c0.506-1.347,1.519-2.529,2.531-3.794c1.098-1.182,2.448-2.195,3.881-2.869c1.517-0.844,3.121-1.1,4.891-1.1
			c-0.506,0.428-1.179,1.1-1.855,1.856c-0.674,0.848-1.35,1.855-2.025,2.867c-0.674,1.1-1.18,2.195-1.771,3.21
			c-0.506,1.093-0.843,2.192-0.928,3.119c-0.167,0.931-0.167,1.604,0.169,2.276c0.252,0.51,0.843,0.931,1.771,0.931
			c1.855,0,3.374-0.509,4.47-1.521c1.098-0.927,1.856-2.276,2.447-3.794c0.506-1.604,1.095-3.378,1.35-5.398
			c0.251-2.024,0.506-4.05,0.927-6.245c0.251-2.191,0.843-4.216,1.349-6.241c0.507-2.024,1.519-3.794,2.699-5.396
			c1.182-1.604,2.868-2.869,4.976-3.796C175.242,528.177,177.942,527.837,181.145,527.837z"/>
		<path fill="#414042" d="M175.407,560.311c-1.095-0.839-1.602-2.021-1.769-3.625c-0.169-1.599,0.167-3.541,0.843-5.567
			c0.674-2.024,1.604-4.215,3.121-6.492c1.352-2.278,2.951-4.472,4.894-6.497c1.938-2.021,3.876-3.882,6.241-5.567
			c2.277-1.599,4.554-2.87,7.002-3.542c2.276-0.674,4.303-1.095,6.071-1.095c1.772,0,3.207,0.252,4.472,0.843
			c1.182,0.503,1.856,1.181,2.447,2.195c0.421,0.924,0.504,1.854,0.17,2.95c-0.256,0.503-0.421,1.096-0.509,1.346
			c-0.169,0.172-0.251,0.422-0.251,0.51c0.251-0.844,0.251-1.521,0-2.195c-0.17-0.503-0.509-1.096-1.095-1.516
			c-0.508-0.423-1.351-0.674-2.534-0.674c-1.516,0-3.202,0.503-5.229,1.768c-2.025,1.265-4.05,2.7-6.24,4.474
			c-2.195,1.768-4.22,3.794-6.242,6.07c-2.025,2.195-3.799,4.304-5.146,6.329c-1.521,2.024-2.447,3.88-3.12,5.567
			c-0.678,1.603-0.678,2.867,0,3.542c0.251,0.421,0.925,0.252,1.769-0.17c0.843-0.421,1.855-1.179,3.121-2.19
			c1.182-1.1,2.529-2.277,4.05-3.798c1.517-1.518,2.951-3.122,4.468-4.89c0.929-1.183,2.194-2.447,3.377-3.8
			c1.177-1.181,2.277-2.529,3.202-3.624c0.931-1.182,1.605-2.193,2.195-3.124c0.421-0.927,0.421-1.601,0-2.191
			c1.096,0.843,1.774,1.855,2.025,2.951c0.252,1.095,0.252,2.194,0,3.372c-0.251,1.183-0.843,2.447-1.521,3.631
			c-0.673,1.181-1.517,2.445-2.19,3.793c-0.843,1.182-1.604,2.533-2.447,3.798c-0.843,1.184-1.517,2.529-1.856,3.794
			c-0.508,1.184-0.843,2.448-0.843,3.543c0,1.096,0.251,2.195,0.926,3.12c-1.856-0.674-3.372-1.518-4.303-2.276
			c-0.926-0.844-1.599-1.77-1.769-2.865c-0.251-1.1,0-2.277,0.421-3.546c0.504-1.348,1.182-2.7,2.278-4.299
			c-1.517,1.599-2.951,3.204-4.303,4.725c-1.517,1.518-2.868,2.863-4.215,3.794c-1.353,1.096-2.534,1.77-3.881,2.022
			C177.52,561.411,176.421,561.154,175.407,560.311z"/>
		<path fill="#414042" d="M231.755,527.837c-1.517,0.257-2.699,1.1-3.625,2.276c-0.93,1.184-1.774,2.535-2.447,4.303
			c-0.674,1.773-1.352,3.629-1.856,5.655c-0.508,2.026-1.182,4.215-1.772,6.241c-0.674,2.195-1.348,4.215-2.278,6.241
			c-0.925,2.024-2.025,3.798-3.372,5.231c-1.352,1.518-2.956,2.7-4.894,3.625c-1.856,0.927-4.303,1.348-7.167,1.348
			c-2.025,0-3.546-0.421-4.472-1.096c-0.931-0.843-1.517-1.768-1.604-2.862c-0.17-1.184,0.169-2.448,0.843-3.8
			c0.509-1.347,1.521-2.529,2.529-3.794c1.1-1.182,2.446-2.195,4.051-2.869c1.516-0.844,3.12-1.1,4.893-1.1
			c-0.509,0.428-1.182,1.1-1.856,1.856c-0.673,0.848-1.351,1.855-2.025,2.867c-0.673,1.1-1.182,2.195-1.772,3.21
			c-0.505,1.093-0.844,2.192-0.927,3.119c-0.086,0.931-0.169,1.604,0.17,2.276c0.251,0.51,0.843,0.931,1.769,0.931
			c1.856,0,3.377-0.509,4.472-1.521c1.096-0.927,1.856-2.276,2.448-3.794c0.504-1.604,0.925-3.378,1.347-5.398
			c0.252-2.024,0.508-4.05,0.93-6.245c0.252-2.191,0.843-4.216,1.348-6.241c0.508-2.024,1.521-3.794,2.698-5.396
			c1.182-1.604,2.869-2.869,4.977-3.796C225.853,528.177,228.552,527.837,231.755,527.837z"/>
		<path fill="#414042" d="M254.446,527.837c-1.517,0.257-2.699,1.1-3.629,2.276c-0.925,1.184-1.769,2.535-2.442,4.303
			c-0.678,1.773-1.352,3.629-1.856,5.655c-0.508,2.026-1.182,4.215-1.773,6.241c-0.674,2.195-1.352,4.215-2.277,6.241
			c-0.931,2.024-2.025,3.798-3.373,5.231c-1.352,1.518-2.956,2.7-4.894,3.625c-1.855,0.927-4.303,1.348-7.171,1.348
			c-2.021,0-3.542-0.421-4.468-1.096c-0.93-0.843-1.521-1.768-1.604-2.862c-0.17-1.184,0.169-2.448,0.843-3.8
			c0.504-1.347,1.517-2.529,2.529-3.794c1.1-1.182,2.447-2.195,3.881-2.869c1.517-0.844,3.121-1.1,4.895-1.1
			c-0.509,0.428-1.183,1.1-1.856,1.856c-0.674,0.848-1.352,1.855-2.025,2.867c-0.674,1.1-1.182,2.195-1.773,3.21
			c-0.504,1.093-0.843,2.192-0.926,3.119c-0.083,0.931-0.17,1.604,0.169,2.276c0.253,0.51,0.844,0.931,1.77,0.931
			c1.855,0,3.376-0.509,4.472-1.521c1.096-0.927,1.856-2.276,2.447-3.794c0.504-1.604,1.095-3.378,1.347-5.398
			c0.257-2.024,0.509-4.05,0.931-6.245c0.252-2.191,0.843-4.216,1.347-6.241c0.509-2.024,1.521-3.794,2.699-5.396
			c1.182-1.604,2.868-2.869,4.976-3.796C248.54,528.177,251.243,527.837,254.446,527.837z"/>
	</g>
	<rect x="90.469" y="579.208" fill="none" width="162.625" height="12.398"/>
	<g enable-background="new    ">
		<path fill="#282829" d="M91.481,579.208h0.927v9.617h-0.927V579.208z"/>
		<path fill="#282829" d="M95.025,579.208h0.928l-1.012,2.447h-0.843L95.025,579.208z"/>
		<path fill="#282829" d="M105.062,588.826h-0.928v-1.434c-0.507,1.012-1.604,1.599-2.869,1.599c-2.277,0-3.627-1.768-3.627-3.706
			c0-2.026,1.519-3.713,3.627-3.713c1.519,0,2.53,0.844,2.869,1.687v-1.434h0.928V588.826z M98.567,585.285
			c0,1.265,0.843,2.781,2.784,2.781c1.265,0,2.107-0.674,2.529-1.686c0.169-0.341,0.254-0.762,0.254-1.096
			c0-0.426-0.085-0.762-0.254-1.1c-0.422-0.927-1.35-1.687-2.529-1.687C99.749,582.499,98.567,583.763,98.567,585.285
			L98.567,585.285z"/>
		<path fill="#282829" d="M113.919,587.983c0,1.348-0.421,2.19-1.012,2.781c-0.676,0.674-1.689,1.096-2.617,1.096
			c-1.771,0-3.036-1.012-3.458-2.276h1.098c0.167,0.338,0.421,0.678,0.843,0.929c0.507,0.336,1.096,0.505,1.517,0.505
			c1.352,0,2.701-1.013,2.701-2.782v-0.931c-0.506,1.015-1.435,1.687-2.784,1.687c-2.195,0-3.629-1.687-3.629-3.706
			c0-2.112,1.519-3.713,3.629-3.713c1.349,0,2.445,0.756,2.866,1.601v-1.436h0.928v6.246H113.919z M107.424,585.285
			c0,1.43,1.01,2.781,2.784,2.781c0.759,0,1.435-0.34,1.938-0.843c0.506-0.509,0.761-1.184,0.761-1.938
			c0-0.591-0.17-1.269-0.676-1.861c-0.422-0.587-1.096-1.008-2.108-1.008C108.689,582.499,107.424,583.68,107.424,585.285
			L107.424,585.285z"/>
		<path fill="#282829" d="M116.197,585.537c0.083,1.768,1.517,2.611,2.699,2.611c1.095,0,1.941-0.503,2.447-1.434h1.01
			c-0.337,0.762-0.843,1.352-1.434,1.689c-0.59,0.336-1.265,0.587-2.023,0.587c-2.448,0-3.712-1.938-3.712-3.706
			c0-2.026,1.602-3.713,3.712-3.713c1.012,0,1.941,0.337,2.529,1.009c0.845,0.762,1.182,1.856,1.098,2.956H116.197L116.197,585.537z
			 M121.594,584.776c-0.084-1.182-1.265-2.448-2.698-2.36c-1.519,0-2.617,1.096-2.699,2.36H121.594z"/>
		<path fill="#282829" d="M123.956,581.825h0.929c0,0.422,0,0.756,0,1.265c0.421-0.931,1.349-1.434,2.613-1.434
			c2.193,0,2.952,1.517,2.952,3.203v3.967h-0.926v-3.798c0-1.517-0.675-2.529-2.277-2.529c-1.435,0-2.277,0.844-2.277,2.36v3.967
			h-0.928v-7.001H123.956z"/>
		<path fill="#282829" d="M139.054,586.461c-0.421,1.521-1.855,2.529-3.458,2.529c-2.362,0-3.795-1.855-3.795-3.706
			c0-2.112,1.602-3.713,3.709-3.713c1.604,0,3.123,0.927,3.544,2.613h-1.012c-0.422-1.184-1.519-1.687-2.532-1.687
			c-0.843,0-1.349,0.253-1.938,0.76c-0.507,0.422-0.761,1.179-0.761,2.026c0,1.686,1.267,2.781,2.784,2.781
			c1.349,0,2.277-0.843,2.531-1.686h0.927V586.461z"/>
		<path fill="#282829" d="M140.911,585.537c0.084,1.768,1.519,2.611,2.699,2.611c1.098,0,1.94-0.503,2.446-1.434h1.012
			c-0.338,0.762-0.845,1.352-1.434,1.689c-0.591,0.336-1.267,0.587-2.025,0.587c-2.447,0-3.712-1.938-3.712-3.706
			c0-2.026,1.604-3.713,3.712-3.713c1.012,0,1.94,0.337,2.531,1.009c0.843,0.762,1.18,1.856,1.095,2.956H140.911L140.911,585.537z
			 M146.308,584.776c-0.085-1.182-1.265-2.448-2.698-2.36c-1.519,0-2.615,1.096-2.699,2.36H146.308z"/>
		<path fill="#282829" d="M151.539,581.825h1.012l1.94,5.736l1.687-5.146h0.758l1.689,5.146l1.938-5.736h1.013l-2.446,7.001h-0.927
			l-1.688-5.063l-1.602,5.063h-0.928L151.539,581.825z"/>
		<path fill="#282829" d="M162.841,585.537c0.084,1.768,1.519,2.611,2.699,2.611c1.098,0,1.941-0.503,2.447-1.434H169
			c-0.337,0.762-0.844,1.352-1.435,1.689c-0.592,0.336-1.265,0.587-2.025,0.587c-2.444,0-3.712-1.938-3.712-3.706
			c0-2.026,1.605-3.713,3.712-3.713c1.012,0,1.855,0.337,2.531,1.009c0.843,0.762,1.18,1.856,1.096,2.956H162.841L162.841,585.537z
			 M168.239,584.776c-0.083-1.182-1.265-2.448-2.698-2.36c-1.517,0-2.615,1.096-2.699,2.36H168.239z"/>
		<path fill="#282829" d="M170.518,579.208h0.925v2.616v1.434c0.592-1.012,1.605-1.603,2.869-1.603c2.025,0,3.629,1.517,3.629,3.71
			c0,2.11-1.521,3.713-3.629,3.713c-1.35,0-2.362-0.675-2.869-1.603v1.434h-0.925V579.208z M177.011,585.285
			c0-1.604-1.177-2.786-2.781-2.786c-1.604,0-2.787,1.265-2.787,2.786c0,1.517,1.098,2.781,2.699,2.781
			C176.086,588.066,177.011,586.63,177.011,585.285L177.011,585.285z"/>
		<path fill="#282829" d="M190.172,588.826h-0.931v-1.434c-0.504,1.012-1.6,1.599-2.868,1.599c-2.278,0-3.625-1.768-3.625-3.706
			c0-2.026,1.517-3.713,3.625-3.713c1.521,0,2.534,0.844,2.868,1.687v-1.434h0.931V588.826z M183.674,585.285
			c0,1.265,0.843,2.781,2.786,2.781c1.265,0,2.107-0.674,2.53-1.686c0.169-0.341,0.251-0.762,0.251-1.096
			c0-0.426-0.083-0.762-0.251-1.1c-0.423-0.927-1.348-1.687-2.53-1.687C184.856,582.499,183.674,583.763,183.674,585.285
			L183.674,585.285z"/>
		<path fill="#282829" d="M198.859,586.461c-0.422,1.521-1.855,2.529-3.459,2.529c-2.36,0-3.794-1.855-3.794-3.706
			c0-2.112,1.604-3.713,3.712-3.713c1.604,0,3.12,0.927,3.542,2.613h-1.012c-0.421-1.184-1.517-1.687-2.529-1.687
			c-0.843,0-1.352,0.253-1.943,0.76c-0.504,0.422-0.756,1.179-0.756,2.026c0,1.686,1.265,2.781,2.782,2.781
			c1.351,0,2.277-0.843,2.529-1.686h0.93V586.461z"/>
		<path fill="#282829" d="M207.043,586.461c-0.422,1.521-1.855,2.529-3.46,2.529c-2.364,0-3.798-1.855-3.798-3.706
			c0-2.112,1.604-3.713,3.711-3.713c1.604,0,3.125,0.927,3.546,2.613h-1.012c-0.421-1.184-1.522-1.687-2.534-1.687
			c-0.843,0-1.347,0.253-1.938,0.76c-0.504,0.422-0.761,1.179-0.761,2.026c0,1.686,1.27,2.781,2.786,2.781
			c1.348,0,2.278-0.843,2.53-1.686h0.93V586.461z"/>
		<path fill="#282829" d="M208.812,585.537c0.087,1.768,1.522,2.611,2.699,2.611c1.095,0,1.938-0.503,2.446-1.434h1.013
			c-0.339,0.762-0.843,1.352-1.435,1.689c-0.59,0.336-1.265,0.587-2.025,0.587c-2.447,0-3.711-1.938-3.711-3.706
			c0-2.026,1.604-3.713,3.711-3.713c1.013,0,1.938,0.337,2.529,1.009c0.843,0.762,1.182,1.856,1.1,2.956H208.812L208.812,585.537z
			 M214.297,584.776c-0.087-1.182-1.269-2.448-2.698-2.36c-1.522,0-2.617,1.096-2.699,2.36H214.297z"/>
		<path fill="#282829" d="M219.695,583.594c0-0.758-0.509-1.179-1.182-1.179c-0.761,0-1.265,0.505-1.182,1.096
			c0,0.674,0.508,0.926,1.351,1.183c1.013,0.251,2.107,0.591,2.19,2.021c0.087,1.269-1.008,2.195-2.276,2.195
			c-1.096,0-2.36-0.675-2.36-2.195h0.925c0,0.931,0.761,1.352,1.435,1.352c0.847,0,1.351-0.59,1.351-1.352
			c0-0.756-0.504-1.096-1.773-1.43c-1.013-0.34-1.769-0.679-1.769-1.773c0-1.265,1.012-2.026,2.19-2.026
			c1.012,0,2.111,0.509,2.111,1.938h-1.012V583.594z"/>
		<path fill="#282829" d="M225.596,583.594c0-0.758-0.504-1.179-1.177-1.179c-0.761,0-1.265,0.505-1.182,1.096
			c0,0.674,0.504,0.926,1.347,1.183c1.012,0.251,2.111,0.591,2.195,2.021c0.087,1.269-1.013,2.195-2.277,2.195
			c-1.096,0-2.36-0.675-2.36-2.195h0.926c0,0.931,0.76,1.352,1.435,1.352c0.843,0,1.351-0.59,1.351-1.352
			c0-0.756-0.508-1.096-1.772-1.43c-1.013-0.34-1.774-0.679-1.774-1.773c0-1.265,1.013-2.026,2.195-2.026
			c1.012,0,2.107,0.509,2.107,1.938h-1.013V583.594z"/>
		<path fill="#282829" d="M228.295,579.208h0.931v1.352h-0.931V579.208z M228.295,581.825h0.931v7.001h-0.931V581.825z"/>
		<path fill="#282829" d="M231.163,579.208h0.931v2.616v1.434c0.591-1.012,1.604-1.603,2.868-1.603c2.025,0,3.625,1.517,3.625,3.71
			c0,2.11-1.517,3.713-3.625,3.713c-1.351,0-2.364-0.675-2.868-1.603v1.434h-0.931V579.208z M237.574,585.285
			c0-1.604-1.177-2.786-2.781-2.786s-2.787,1.265-2.787,2.786c0,1.517,1.101,2.781,2.704,2.781
			C236.648,588.066,237.574,586.63,237.574,585.285L237.574,585.285z"/>
		<path fill="#282829" d="M239.939,579.208h0.925v9.617h-0.925V579.208z"/>
		<path fill="#282829" d="M243.229,585.537c0.083,1.768,1.517,2.611,2.699,2.611c1.095,0,1.938-0.503,2.447-1.434h1.008
			c-0.334,0.762-0.843,1.352-1.429,1.689c-0.592,0.336-1.27,0.587-2.025,0.587c-2.447,0-3.712-1.938-3.712-3.706
			c0-2.026,1.604-3.713,3.712-3.713c1.012,0,1.938,0.337,2.529,1.009c0.843,0.762,1.182,1.856,1.095,2.956H243.229L243.229,585.537z
			 M248.626,584.776c-0.086-1.182-1.265-2.448-2.698-2.36c-1.521,0-2.617,1.096-2.699,2.36H248.626z"/>
	</g>
	<g>
		<path fill="#414042" stroke="#414042" stroke-miterlimit="10" d="M273.76,535.178c-0.251,1.353-1.598,2.195-2.951,1.855l0,0
			c-1.347-0.253-2.19-1.603-1.856-2.951l8.267-40.488c0.252-1.353,1.604-2.195,2.956-1.855l0,0c1.347,0.253,2.19,1.604,1.855,2.951
			L273.76,535.178z"/>
		<path fill="#414042" stroke="#414042" stroke-miterlimit="10" d="M268.11,554.241c-3.373,0-5.901,2.698-5.901,6.07
			c0,3.378,2.698,6.076,5.901,6.076c3.373,0,6.076-2.698,6.076-6.076C274.016,556.939,271.318,554.241,268.11,554.241z
			 M268.11,563.689c-1.855,0-3.542-1.604-3.542-3.543c0-1.855,1.604-3.541,3.542-3.541c1.856,0,3.542,1.603,3.542,3.541
			C271.57,562.167,269.966,563.689,268.11,563.689z"/>
	</g>
</g>
</svg>
