<?xml version="1.0" encoding="utf-8"?>
<!-- Generator: Adobe Illustrator 15.0.0, SVG Export Plug-In . SVG Version: 6.00 Build 0)  -->
<!DOCTYPE svg PUBLIC "-//W3C//DTD SVG 1.1//EN" "http://www.w3.org/Graphics/SVG/1.1/DTD/svg11.dtd">
<svg version="1.1" id="Calque_1" xmlns="http://www.w3.org/2000/svg" xmlns:xlink="http://www.w3.org/1999/xlink" x="0px" y="0px"
	 width="283.46px" height="283.46px" viewBox="0 0 283.46 283.46" enable-background="new 0 0 283.46 283.46" xml:space="preserve">
<path fill="#818080" d="M250.4,49.25h-36.063l-10.702,23.987v56.455h34.953v-10.266h-23.422V94.4H250.4V84.08h-35.233V59.516H250.4
	V49.25z M250.4,119.426h-0.871v10.265h0.871V119.426z"/>
<g>
	<defs>
		<rect id="SVGID_1_" x="29.951" y="41.029" width="222.393" height="202.471"/>
	</defs>
	<clipPath id="SVGID_2_">
		<use xlink:href="#SVGID_1_"  overflow="visible"/>
	</clipPath>
	<path clip-path="url(#SVGID_2_)" fill="#BBA25C" d="M139.45,47.677h7.998c-0.081-1.255-0.453-2.223-1.123-2.901
		c-0.668-0.679-1.565-1.021-2.694-1.021s-2.052,0.342-2.772,1.021C140.139,45.454,139.669,46.422,139.45,47.677 M150.555,49.558
		H139.38c0.081,1.523,0.591,2.73,1.529,3.63c0.937,0.897,2.148,1.348,3.636,1.348c2.073,0,3.986-0.647,5.735-1.936v3.073
		c-0.966,0.648-1.926,1.107-2.876,1.387c-0.948,0.273-2.063,0.411-3.341,0.411c-1.752,0-3.169-0.362-4.25-1.086
		c-1.085-0.727-1.95-1.702-2.6-2.929c-0.654-1.227-0.978-2.645-0.978-4.257c0-2.419,0.685-4.386,2.055-5.897
		c1.37-1.517,3.151-2.272,5.338-2.272c2.106,0,3.789,0.734,5.043,2.208c1.256,1.477,1.882,3.449,1.882,5.925V49.558z"/>
	<path clip-path="url(#SVGID_2_)" fill="#BBA25C" d="M134.684,60.525H63.801l-0.736,46.845c6.623-3.187,15.207-4.167,22.321-4.167
		c33.357,0,55.43,24.525,55.43,57.145c0,34.585-25.753,57.642-59.602,57.642c-26.243,0-41.941-12.509-51.262-31.642l20.604-7.847
		c5.885,12.999,17.659,21.828,32.376,21.828c20.848,0,37.282-15.943,37.282-39.981c0-25.505-18.643-39.486-42.922-39.486
		c-11.773,0-25.02,4.659-35.32,10.792l1.715-90.258h90.996V60.525z"/>
	<path clip-path="url(#SVGID_2_)" fill="#818080" d="M152.192,64.864h-8.498l-21.585,51.326c3.215,2.797,6.062,5.988,8.506,9.52
		h35.814l11.257,25.418h6.398v-13.62L152.192,64.864z M135.195,114.781l12.636-31.068l13.626,31.068H135.195z M113.333,137.056
		l-5.917,14.071h11.91C118.237,145.751,116.18,141.049,113.333,137.056"/>
	<path clip-path="url(#SVGID_2_)" fill="#5E542E" d="M122.108,116.189l-8.776,20.867c2.848,3.992,4.904,8.695,5.995,14.071h0.517
		l10.553-25.418h0.219C128.171,122.178,125.324,118.987,122.108,116.189"/>
</g>
<polygon fill="#818080" points="217.935,41.191 207.045,41.191 184.223,91.808 161.243,41.191 150.234,41.191 183.156,113.579 
	184.085,113.579 184.085,108.863 187.74,108.863 203.636,73.238 203.636,49.251 214.338,49.251 "/>
<polygon fill="#474746" points="214.338,49.251 203.636,49.251 203.636,73.238 "/>
<g>
	<defs>
		<rect id="SVGID_3_" x="29.951" y="41.029" width="222.393" height="202.471"/>
	</defs>
	<clipPath id="SVGID_4_">
		<use xlink:href="#SVGID_3_"  overflow="visible"/>
	</clipPath>
	<path clip-path="url(#SVGID_4_)" fill="#818080" d="M178.615,154.396h-10.453v69.21l-31.138-41.576
		c-1.486,3.954-3.385,7.642-5.648,11.027l37.775,50.442h9.464V154.396z M116.326,154.396h-8.911v36.861
		c4.572-4.075,8.147-9.398,10.345-15.724v-0.657l0.154,0.205c1.489-4.453,2.3-9.395,2.3-14.734c0-0.256-0.002-0.512-0.005-0.767
		L116.326,154.396z M117.76,207.008c-3.194,2.258-6.654,4.194-10.345,5.786V243.5h10.345V207.008z"/>
	<path clip-path="url(#SVGID_4_)" fill="#5E542E" d="M120.209,159.58c0.003,0.256,0.005,0.512,0.005,0.769
		c0,5.339-0.812,10.28-2.3,14.735l13.462,17.974c2.263-3.387,4.162-7.072,5.648-11.027L120.209,159.58z M117.76,175.534
		c-2.197,6.325-5.773,11.648-10.345,15.724v21.536c3.691-1.592,7.151-3.528,10.345-5.786V175.534z"/>
	<path clip-path="url(#SVGID_4_)" fill="#818080" d="M249.529,108.864h-10.94v10.563h10.94V108.864z M249.529,129.692h-10.94v26.609
		c0,6.576-0.477,11.227-1.416,13.94c-0.132,0.377-0.275,0.747-0.431,1.111c3.334,2.086,6.079,4.736,8.282,7.763
		c0.021-0.038,0.043-0.075,0.065-0.113c1.258-2.176,2.311-4.898,3.158-8.165c0.855-3.268,1.281-8.115,1.281-14.536V129.692z"/>
</g>
<rect x="238.589" y="119.426" fill="#474746" width="10.94" height="10.265"/>
<g>
	<defs>
		<rect id="SVGID_5_" x="29.951" y="41.029" width="222.393" height="202.471"/>
	</defs>
	<clipPath id="SVGID_6_">
		<use xlink:href="#SVGID_5_"  overflow="visible"/>
	</clipPath>
	<path clip-path="url(#SVGID_6_)" fill="#818080" d="M195.029,108.864h-7.288l-2.104,4.716h-1.555v23.927l5.98,13.62h-5.98v5.052
		c0,6.745,0.409,11.688,1.225,14.84c0.817,3.147,1.853,5.811,3.104,7.985c0.138,0.235,0.279,0.471,0.423,0.705
		c2.359-2.957,5.177-5.509,8.371-7.566c-1.451-3.155-2.176-8.435-2.176-15.841V108.864z"/>
</g>
<polygon fill="#474746" points="184.083,137.507 184.083,151.128 190.063,151.128 "/>
<polygon fill="#474746" points="187.741,108.864 184.083,108.864 184.083,113.58 185.638,113.58 "/>
<g>
	<defs>
		<rect id="SVGID_7_" x="29.951" y="41.029" width="222.393" height="202.471"/>
	</defs>
	<clipPath id="SVGID_8_">
		<use xlink:href="#SVGID_7_"  overflow="visible"/>
	</clipPath>
	<path clip-path="url(#SVGID_8_)" fill="#818080" d="M228.793,180.007c-3.397,1.903-7.412,2.855-12.039,2.855
		c-4.227,0-7.932-0.804-11.117-2.413c-3.366,2.072-6.027,4.957-7.821,8.127c5.237,3.209,11.585,4.813,19.045,4.813
		c7.455,0,13.826-1.678,19.109-5.028C234.469,184.843,232.09,181.962,228.793,180.007"/>
	<path clip-path="url(#SVGID_8_)" fill="#818080" d="M217.597,166.355c-7.712,0-14.66,2.099-20.392,5.787
		c0.089,0.192,0.18,0.376,0.273,0.552c1.632,3.068,4.12,5.531,7.459,7.386c0.229,0.127,0.463,0.251,0.699,0.369
		c3.271-2.014,7.208-3.264,11.66-3.264c4.632,0,8.455,1.018,11.496,2.821c1.345-0.753,2.595-1.654,3.745-2.708
		c1.849-1.716,3.247-3.698,4.204-5.945C231.746,168.225,225.426,166.355,217.597,166.355 M245.024,179.116
		c-1.237,2.129-2.749,4.036-4.531,5.717c-1.406,1.332-2.914,2.508-4.523,3.528c1.208,2.832,1.847,6.078,1.936,9.586h-42.719
		c0-3.083,0.923-6.357,2.629-9.371c-1.72-1.053-3.322-2.28-4.802-3.68c-1.615-1.564-3.008-3.293-4.18-5.188
		c-5.125,6.422-8.09,14.759-8.09,24.103c0,21.209,14.141,37.456,36.703,37.456c13.69,0,24.068-4.817,31.587-14.592l-10.226-7.823
		c-5.268,6.471-11.284,10.678-19.554,10.678c-12.487,0-24.068-8.27-24.068-20.754h57.157v-4.812
		C252.344,195.144,250.122,186.116,245.024,179.116"/>
	<path clip-path="url(#SVGID_8_)" fill="#474746" d="M236.742,171.354c-0.957,2.249-2.355,4.23-4.204,5.947
		c-1.15,1.052-2.4,1.953-3.745,2.707c3.296,1.954,5.676,4.835,7.177,8.354c1.609-1.021,3.117-2.196,4.523-3.527
		c1.782-1.682,3.294-3.59,4.531-5.718C242.819,176.09,240.076,173.441,236.742,171.354 M197.205,172.143
		c-3.194,2.058-6.012,4.61-8.371,7.566c1.172,1.894,2.564,3.623,4.182,5.187c1.478,1.4,3.08,2.627,4.8,3.681
		c1.795-3.17,4.455-6.055,7.821-8.127c-0.236-0.119-0.47-0.242-0.699-0.369c-3.339-1.855-5.827-4.319-7.459-7.386
		C197.385,172.519,197.294,172.335,197.205,172.143"/>
</g>
</svg>
