<?xml version="1.0" encoding="utf-8"?>
<!-- Generator: Adobe Illustrator 15.0.0, SVG Export Plug-In . SVG Version: 6.00 Build 0)  -->
<!DOCTYPE svg PUBLIC "-//W3C//DTD SVG 1.1//EN" "http://www.w3.org/Graphics/SVG/1.1/DTD/svg11.dtd">
<svg version="1.1" id="Calque_1" xmlns="http://www.w3.org/2000/svg" xmlns:xlink="http://www.w3.org/1999/xlink" x="0px" y="0px"
	 width="311.81px" height="226.77px" viewBox="0 0 311.81 226.77" enable-background="new 0 0 311.81 226.77" xml:space="preserve">
<path fill="#DEDC0A" d="M255.935,127.117c0,8.544-6.942,15.477-15.507,15.477c-8.566,0-15.509-6.933-15.509-15.477
	c0-8.551,6.942-15.48,15.509-15.48C248.992,111.637,255.935,118.566,255.935,127.117z"/>
<ellipse fill="#96C222" cx="98.017" cy="121.959" rx="20.681" ry="20.635"/>
<rect x="110.706" y="87.717" fill="#FFFFFF" width="117.029" height="59.569"/>
<rect x="186.845" y="98.562" fill="#C2E2D9" stroke="#5BC5F2" stroke-miterlimit="10" width="34.781" height="50.655"/>
<rect x="190.922" y="35.342" fill="#343434" width="10.654" height="11.88"/>
<path fill="#DEDC0A" d="M88.327,126.758c0,8.555-6.945,15.479-15.512,15.479c-8.567,0-15.508-6.924-15.508-15.479
	c0-8.55,6.94-15.479,15.508-15.479C81.382,111.279,88.327,118.208,88.327,126.758z"/>
<path fill="#C4DDE1" d="M135.692,23.015c0.873,0,1.691,0.206,2.433,0.549c0-0.027-0.007-0.043-0.007-0.061
	c0-4.546,3.688-8.222,8.24-8.222c4.549,0,8.238,3.676,8.238,8.222c0,0.469-0.064,0.925-0.141,1.38
	c0.289-0.059,0.557-0.171,0.863-0.171c2.411,0,4.364,1.946,4.364,4.35s-1.953,4.354-4.364,4.354h-16.108
	c-0.975,0.748-2.188,1.208-3.519,1.208c-3.212,0-5.814-2.594-5.814-5.802C129.878,25.614,132.48,23.015,135.692,23.015z"/>
<path fill="#FBFDFE" d="M146.896,39.405c-1.688,0-3.275,0.397-4.709,1.062c0-0.041,0.009-0.083,0.009-0.123
	c0-8.809-7.153-15.947-15.979-15.947c-8.828,0-15.981,7.138-15.981,15.947c0,0.92,0.12,1.805,0.272,2.685
	c-0.563-0.12-1.084-0.338-1.682-0.338c-4.671,0-8.46,3.781-8.46,8.443c0,4.66,3.789,8.443,8.46,8.443h31.247
	c1.9,1.451,4.244,2.345,6.822,2.345c6.232,0,11.28-5.04,11.28-11.257C158.176,44.443,153.128,39.405,146.896,39.405z"/>
<rect x="116.819" y="97.1" fill="#C2E2D9" stroke="#5BC5F2" stroke-miterlimit="10" width="42.299" height="37.99"/>
<rect x="107.229" y="147.4" fill="#E50C7E" width="124.915" height="7.757"/>
<rect x="103.34" y="152.942" fill="#DEDC0A" width="133.247" height="7.198"/>
<g>
	<path fill="#0D3C55" d="M241.484,150.688c0,0.841-0.632,1.523-1.414,1.523l0,0c-0.776,0-1.404-0.683-1.404-1.523v-30.139
		c0-0.841,0.628-1.523,1.404-1.523l0,0c0.782,0,1.414,0.683,1.414,1.523V150.688z"/>
	<path fill="#0D3C55" d="M244.199,125.256c0.252-0.307,0.721-0.353,1.037-0.096l0,0c0.32,0.258,0.375,0.711,0.127,1.025
		l-4.355,5.371c-0.247,0.324-0.709,0.361-1.031,0.104l0,0c-0.319-0.25-0.375-0.717-0.127-1.026L244.199,125.256z"/>
	<path fill="#0D3C55" d="M244.133,122.835c0-0.423,0.34-0.761,0.759-0.761l0,0c0.416,0,0.761,0.338,0.761,0.761v2.472
		c0,0.417-0.345,0.755-0.761,0.755l0,0c-0.419,0-0.759-0.338-0.759-0.755V122.835z"/>
	<path fill="#0D3C55" d="M243.563,132.805c0.205-0.258,0.645-0.258,0.962,0l0,0c0.321,0.256,0.407,0.682,0.204,0.937l-3.64,4.491
		c-0.211,0.268-0.636,0.258-0.958,0l0,0c-0.325-0.256-0.414-0.672-0.206-0.938L243.563,132.805z"/>
	<path fill="#0D3C55" d="M243.464,130.562c0-0.411,0.316-0.746,0.706-0.746l0,0c0.385,0,0.704,0.335,0.704,0.746v2.446
		c0,0.41-0.319,0.748-0.704,0.748l0,0c-0.39,0-0.706-0.338-0.706-0.748V130.562z"/>
	<path fill="#0D3C55" d="M233.978,126.868c-0.252-0.373-0.15-0.882,0.225-1.138l0,0c0.381-0.256,0.888-0.154,1.141,0.227
		l5.425,8.094c0.252,0.381,0.149,0.875-0.227,1.135l0,0c-0.381,0.256-0.89,0.151-1.146-0.228L233.978,126.868z"/>
	<path fill="#0D3C55" d="M235.436,126.473c0,0.35-0.346,0.645-0.767,0.645l0,0c-0.423,0-0.769-0.295-0.769-0.645v-2.816
		c0-0.352,0.346-0.645,0.769-0.645l0,0c0.421,0,0.767,0.293,0.767,0.645V126.473z"/>
</g>
<g>
	<path fill="#0D3C55" d="M98.965,150.464c0,0.836-0.633,1.528-1.412,1.528l0,0c-0.776,0-1.408-0.692-1.408-1.528v-30.139
		c0-0.841,0.632-1.522,1.408-1.522l0,0c0.779,0,1.412,0.682,1.412,1.522V150.464z"/>
	<path fill="#0D3C55" d="M101.681,125.033c0.249-0.305,0.718-0.35,1.032-0.1l0,0c0.324,0.256,0.374,0.72,0.128,1.023l-4.353,5.383
		c-0.252,0.314-0.71,0.349-1.032,0.102l0,0c-0.316-0.26-0.374-0.72-0.127-1.026L101.681,125.033z"/>
	<path fill="#0D3C55" d="M101.611,122.608c0-0.416,0.342-0.755,0.762-0.755l0,0c0.416,0,0.758,0.339,0.758,0.755v2.47
		c0,0.426-0.342,0.765-0.758,0.765l0,0c-0.42,0-0.762-0.339-0.762-0.765V122.608z"/>
	<path fill="#0D3C55" d="M101.042,132.583c0.206-0.262,0.646-0.262,0.964,0l0,0c0.322,0.251,0.404,0.675,0.205,0.94l-3.639,4.484
		c-0.211,0.264-0.636,0.264-0.958,0l0,0c-0.322-0.25-0.42-0.676-0.211-0.939L101.042,132.583z"/>
	<path fill="#0D3C55" d="M100.943,130.342c0-0.41,0.315-0.75,0.703-0.75l0,0c0.39,0,0.708,0.34,0.708,0.75v2.439
		c0,0.41-0.318,0.746-0.708,0.746l0,0c-0.388,0-0.703-0.336-0.703-0.746V130.342z"/>
	<path fill="#0D3C55" d="M91.46,126.648c-0.254-0.381-0.154-0.887,0.224-1.145l0,0c0.381-0.248,0.888-0.147,1.14,0.236l5.425,8.087
		c0.249,0.377,0.148,0.882-0.229,1.131l0,0c-0.375,0.259-0.889,0.163-1.141-0.221L91.46,126.648z"/>
	<path fill="#0D3C55" d="M92.917,126.254c0,0.35-0.346,0.641-0.771,0.641l0,0c-0.419,0-0.766-0.291-0.766-0.641v-2.816
		c0-0.359,0.347-0.646,0.766-0.646l0,0c0.425,0,0.771,0.286,0.771,0.646V126.254z"/>
</g>
<g>
	<path fill="#0D3C55" d="M74.213,153.676c0,0.955-0.635,1.717-1.412,1.717l0,0c-0.776,0-1.408-0.762-1.408-1.717v-34.063
		c0-0.951,0.632-1.721,1.408-1.721l0,0c0.777,0,1.412,0.77,1.412,1.721V153.676z"/>
	<path fill="#0D3C55" d="M76.928,124.934c0.253-0.352,0.721-0.396,1.034-0.104l0,0c0.323,0.279,0.37,0.806,0.124,1.156l-4.353,6.07
		c-0.25,0.361-0.707,0.409-1.031,0.115l0,0c-0.316-0.285-0.373-0.805-0.126-1.156L76.928,124.934z"/>
	<path fill="#0D3C55" d="M76.858,122.192c0-0.468,0.342-0.853,0.761-0.853l0,0c0.42,0,0.759,0.385,0.759,0.853v2.796
		c0,0.474-0.339,0.859-0.759,0.859l0,0c-0.419,0-0.761-0.386-0.761-0.859V122.192z"/>
	<path fill="#0D3C55" d="M76.29,133.463c0.207-0.292,0.645-0.292,0.963,0l0,0c0.325,0.293,0.405,0.77,0.205,1.07l-3.641,5.073
		c-0.207,0.29-0.635,0.29-0.958,0l0,0c-0.322-0.296-0.415-0.765-0.208-1.063L76.29,133.463z"/>
	<path fill="#0D3C55" d="M76.192,130.929c0-0.462,0.316-0.843,0.704-0.843l0,0c0.39,0,0.703,0.381,0.703,0.843v2.761
		c0,0.462-0.313,0.844-0.703,0.844l0,0c-0.388,0-0.704-0.382-0.704-0.844V130.929z"/>
	<path fill="#0D3C55" d="M66.706,126.758c-0.255-0.425-0.155-1.004,0.226-1.283l0,0c0.382-0.293,0.888-0.178,1.144,0.249
		l5.421,9.146c0.251,0.425,0.149,0.999-0.227,1.29l0,0c-0.38,0.279-0.89,0.17-1.145-0.258L66.706,126.758z"/>
	<path fill="#0D3C55" d="M68.166,126.311c0,0.395-0.347,0.723-0.771,0.723l0,0c-0.42,0-0.767-0.328-0.767-0.723v-3.181
		c0-0.403,0.347-0.734,0.767-0.734l0,0c0.424,0,0.771,0.331,0.771,0.734V126.311z"/>
</g>
<path fill="#CF3317" d="M202.593,97.965c0,3.753-3.67,6.794-8.188,6.794l0,0c-4.516,0-8.181-3.042-8.181-6.794V79.391
	c0-3.752,16.369-3.868,16.369-0.117V97.965z"/>
<path fill="#B21917" d="M186.378,97.965c0,3.753-3.666,6.794-8.19,6.794l0,0c-4.514,0-8.183-3.042-8.183-6.794V79.391
	c0-3.752,16.373-3.868,16.373-0.117V97.965z"/>
<path fill="#B21917" d="M218.921,97.965c0,3.753-3.668,6.794-8.185,6.794l0,0c-4.517,0-8.182-3.042-8.182-6.794V79.391
	c0-3.752,16.366-3.868,16.366-0.117V97.965z"/>
<path fill="#CF3317" d="M235.141,97.965c0,3.753-3.674,6.794-8.191,6.794l0,0c-4.512,0-8.178-3.042-8.178-6.794V79.391
	c0-3.752,16.369-0.117,16.369-0.117V97.965z"/>
<polygon fill="#DF3F17" points="170.089,51.93 170.089,79.391 186.378,79.391 178.643,50.572 "/>
<polygon fill="#EC6530" points="178.76,51.56 186.378,79.391 202.555,79.516 189.177,50.942 "/>
<polygon fill="#DF3F17" points="189.422,52.176 201.576,52.176 218.771,79.391 202.593,79.274 "/>
<polygon fill="#EC6329" points="201.576,52.176 211.492,52.176 235.141,79.274 218.771,79.274 "/>
<path fill="#B21917" d="M137.422,97.989c0,3.753,3.67,6.794,8.189,6.794l0,0c4.512,0,8.182-3.041,8.182-6.794V79.414
	c0-3.753-16.371-3.87-16.371-0.118V97.989z"/>
<path fill="#CF3317" d="M153.638,97.989c0,3.753,3.749,6.794,8.373,6.794l0,0c4.615,0,8.362-3.041,8.362-6.794V79.414
	c0-3.753-16.735-3.87-16.735-0.118V97.989z"/>
<path fill="#CF3317" d="M121.091,97.989c0,3.753,3.668,6.794,8.187,6.794l0,0c4.515,0,8.183-3.041,8.183-6.794V79.414
	c0-3.753-16.369-3.87-16.369-0.118V97.989z"/>
<path fill="#B21917" d="M104.874,97.989c0,3.753,3.67,6.794,8.19,6.794l0,0c4.514,0,8.182-3.041,8.182-6.794V79.414
	c0-3.753-15.966-0.52-16.372-0.118V97.989z"/>
<polygon fill="#EC6329" points="170.296,51.952 170.296,79.414 153.638,79.414 161.55,50.594 "/>
<polygon fill="#DF3F17" points="161.251,51.583 153.638,79.414 137.46,79.537 150.837,50.963 "/>
<polygon fill="#EC6329" points="150.591,52.199 138.438,52.199 121.246,79.414 137.422,79.296 "/>
<polygon fill="#DF3F17" points="138.438,52.199 128.524,52.199 104.874,79.296 121.246,79.296 "/>
<rect x="128.215" y="46.558" fill="#D53B17" width="83.541" height="5.982"/>
<g>
	<path fill="#0D3C55" d="M142.627,185.204l10.001-13.001c6.187,3.091,13.328,4.418,20.692,3.4
		c19.408-2.674,32.964-20.536,30.28-39.906c-2.682-19.363-20.582-32.894-39.986-30.219c-19.402,2.675-32.959,20.54-30.282,39.918
		c1.054,7.621,4.487,14.346,9.433,19.537l-9.916,12.881L142.627,185.204z M164.584,112.489c15.526-2.136,29.854,8.69,31.992,24.186
		c2.145,15.483-8.701,29.784-24.226,31.923c-15.521,2.139-29.845-8.685-31.99-24.178
		C138.215,128.928,149.063,114.629,164.584,112.489z"/>
	<path fill="#E8514D" d="M120.525,220.658c-3.117,4.086-9.337,4.604-13.888,1.146l0,0c-4.553-3.461-5.716-9.57-2.6-13.66
		l24.101-31.617c3.114-4.092,7.159-1.745,11.708,1.716l0,0c4.547,3.46,7.897,6.712,4.777,10.802L120.525,220.658z"/>
	<path fill="#E36A6E" d="M110.364,207.438c-2.514,3.306-5.048,5.623-5.641,5.169l0,0c-0.603-0.447,0.964-3.498,3.483-6.803
		l19.483-25.561c2.52-3.305,3.278-3.305,3.879-2.854l0,0c0.591,0.453,0.802,1.188-1.723,4.488L110.364,207.438z"/>
</g>
<path fill="#FFFFFF" d="M232.453,1.828c-10.135,0-18.345,8.219-18.345,18.358c0,3.771,1.156,7.255,3.106,10.175h-0.117l0.25,0.232
	c0.686,1.003,2.675,3.514,3.538,4.354c0.883,0.856,11.567,11.376,11.567,11.376l9.57-9.979c4.188-3.39,8.771-9.449,8.771-16.159
	C250.794,10.047,242.583,1.828,232.453,1.828z M232.453,28.166c-4.411,0-7.981-3.571-7.981-7.979c0-4.409,3.57-7.98,7.981-7.98
	c4.405,0,7.971,3.572,7.971,7.98C240.424,24.594,236.858,28.166,232.453,28.166z"/>
</svg>
