<?xml version="1.0" encoding="utf-8"?>
<!-- Generator: Adobe Illustrator 15.0.0, SVG Export Plug-In . SVG Version: 6.00 Build 0)  -->
<!DOCTYPE svg PUBLIC "-//W3C//DTD SVG 1.1//EN" "http://www.w3.org/Graphics/SVG/1.1/DTD/svg11.dtd">
<svg version="1.1" id="Calque_1" xmlns="http://www.w3.org/2000/svg" xmlns:xlink="http://www.w3.org/1999/xlink" x="0px" y="0px"
	 width="311.81px" height="226.77px" viewBox="0 0 311.81 226.77" enable-background="new 0 0 311.81 226.77" xml:space="preserve">
<g>
	<polygon opacity="0.43" fill="none" stroke="#FFFFFF" stroke-width="2" stroke-miterlimit="10" points="102.103,210.423 
		47.914,115.828 102.103,21.238 210.484,21.238 264.674,115.828 210.484,210.423 	"/>
	<polygon opacity="0.43" fill="none" stroke="#FFFFFF" stroke-width="2" stroke-miterlimit="10" points="248.546,170.438 
		154.688,225.053 60.829,170.438 60.829,61.217 154.688,6.604 248.546,61.217 	"/>
</g>
<g>
	<polygon fill="#4A2075" points="229.66,107.301 214.442,91.188 207.989,104.574 	"/>
	<polygon fill="#451D6C" points="134.628,99.245 99.287,67.417 111.773,67.417 	"/>
	
		<linearGradient id="SVGID_1_" gradientUnits="userSpaceOnUse" x1="-1222.7754" y1="144.7119" x2="-1356.9989" y2="95.5671" gradientTransform="matrix(-1 0 0 1 -1117.9561 0)">
		<stop  offset="0" style="stop-color:#4A2075"/>
		<stop  offset="1" style="stop-color:#662483"/>
	</linearGradient>
	<polygon fill="url(#SVGID_1_)" points="214.442,91.188 203.205,119.993 152.908,146.797 203.205,119.993 183.676,96.147 	"/>
	
		<linearGradient id="SVGID_2_" gradientUnits="userSpaceOnUse" x1="-1276.7061" y1="82.6367" x2="-1215.3994" y2="82.6367" gradientTransform="matrix(-1 0 0 1 -1117.9561 0)">
		<stop  offset="0" style="stop-color:#4A2075"/>
		<stop  offset="1" style="stop-color:#662483"/>
	</linearGradient>
	<polygon fill="url(#SVGID_2_)" points="158.75,58.83 97.443,51.941 145.7,113.332 	"/>
	
		<linearGradient id="SVGID_3_" gradientUnits="userSpaceOnUse" x1="-1321.1611" y1="127.0488" x2="-1262.8477" y2="127.0488" gradientTransform="matrix(-1 0 0 1 -1117.9561 0)">
		<stop  offset="0" style="stop-color:#4A2075"/>
		<stop  offset="1" style="stop-color:#662483"/>
	</linearGradient>
	<polygon fill="url(#SVGID_3_)" points="203.205,119.993 152.908,146.797 144.892,115.97 147.013,107.301 	"/>
	
		<linearGradient id="SVGID_4_" gradientUnits="userSpaceOnUse" x1="-1236.6943" y1="185.0068" x2="-1259.7725" y2="147.6422" gradientTransform="matrix(-1 0 0 1 -1117.9561 0)">
		<stop  offset="0" style="stop-color:#4A2075"/>
		<stop  offset="1" style="stop-color:#662483"/>
	</linearGradient>
	<polygon fill="url(#SVGID_4_)" points="145.486,113.562 154.668,154.974 128.584,182.355 	"/>
	<polygon fill="#662483" points="203.205,119.993 158.75,58.83 146.801,108.172 	"/>
</g>
<g>
	<polygon fill="#4A2075" points="263.039,25.708 256.463,18.744 253.672,24.529 	"/>
	<polygon fill="#451D6C" points="221.965,22.225 206.69,8.469 212.084,8.469 	"/>
	
		<linearGradient id="SVGID_5_" gradientUnits="userSpaceOnUse" x1="-1327.0352" y1="41.8765" x2="-1385.0502" y2="20.6347" gradientTransform="matrix(-1 0 0 1 -1117.9561 0)">
		<stop  offset="0" style="stop-color:#4A2075"/>
		<stop  offset="1" style="stop-color:#662483"/>
	</linearGradient>
	<polygon fill="url(#SVGID_5_)" points="256.463,18.744 251.603,31.195 229.865,42.777 251.603,31.195 243.162,20.886 	"/>
	
		<linearGradient id="SVGID_6_" gradientUnits="userSpaceOnUse" x1="-1350.3467" y1="15.0479" x2="-1323.8467" y2="15.0479" gradientTransform="matrix(-1 0 0 1 -1117.9561 0)">
		<stop  offset="0" style="stop-color:#4A2075"/>
		<stop  offset="1" style="stop-color:#662483"/>
	</linearGradient>
	<polygon fill="url(#SVGID_6_)" points="232.391,4.756 205.891,1.78 226.752,28.315 	"/>
	
		<linearGradient id="SVGID_7_" gradientUnits="userSpaceOnUse" x1="-1369.5586" y1="34.2427" x2="-1344.3574" y2="34.2427" gradientTransform="matrix(-1 0 0 1 -1117.9561 0)">
		<stop  offset="0" style="stop-color:#4A2075"/>
		<stop  offset="1" style="stop-color:#662483"/>
	</linearGradient>
	<polygon fill="url(#SVGID_7_)" points="251.603,31.195 229.865,42.777 226.401,29.458 227.314,25.708 	"/>
	
		<linearGradient id="SVGID_8_" gradientUnits="userSpaceOnUse" x1="-1333.0508" y1="59.2959" x2="-1343.0269" y2="43.1441" gradientTransform="matrix(-1 0 0 1 -1117.9561 0)">
		<stop  offset="0" style="stop-color:#4A2075"/>
		<stop  offset="1" style="stop-color:#662483"/>
	</linearGradient>
	<polygon fill="url(#SVGID_8_)" points="226.659,28.413 230.625,46.313 219.352,58.15 	"/>
	<polygon fill="#662483" points="251.603,31.195 232.391,4.756 227.226,26.086 	"/>
</g>
</svg>
