<?xml version="1.0" encoding="utf-8"?>
<!-- Generator: Adobe Illustrator 15.0.0, SVG Export Plug-In . SVG Version: 6.00 Build 0)  -->
<!DOCTYPE svg PUBLIC "-//W3C//DTD SVG 1.1//EN" "http://www.w3.org/Graphics/SVG/1.1/DTD/svg11.dtd">
<svg version="1.1" id="Calque_1" xmlns="http://www.w3.org/2000/svg" xmlns:xlink="http://www.w3.org/1999/xlink" x="0px" y="0px"
	 width="170.08px" height="170.08px" viewBox="0 0 170.08 170.08" enable-background="new 0 0 170.08 170.08" xml:space="preserve">
<g>
	<g>
		<path fill="#F6F6F6" d="M73.806,97.522c0.702,0,1.582,0.353,1.582,1.228c0,0.176,0,0.176,0,0.355
			c-10.708,28.078-16.851,41.942-24.922,41.942c-4.388,0-6.143-7.721-6.143-19.655c0-8.229,0.85-18.459,2.262-29.445
			c3.649-28.363,11.069-61.766,17.394-78.843c2.808-7.376,6.318-11.06,9.126-11.06c2.811,0,4.04,2.458,4.04,6.671
			c0,30.187-24.398,80.734-28.083,88.282c-1.407,10.704-2.282,20.36-2.282,27.555c0,8.775,1.229,14.217,4.035,14.217
			C56.955,138.769,64.156,122.796,73.806,97.522z M73.104,3.626c-6.668,0-17.548,48.264-22.992,86.525
			c5.616-11.41,25.1-53.355,25.1-81.436C75.212,5.205,74.333,3.626,73.104,3.626z"/>
		<path fill="#F6F6F6" d="M92.588,92.08c0-11.407-5.791-18.428-8.778-26.15c-2.455,11.935-5.436,24.574-8.597,32.996
			c0,0-1.582,0-1.582-0.875c0-0.176,0.178-0.353,0.178-0.528c3.684-9.65,6.498-23.518,8.598-35.979
			c-0.875-4.389-1.225-8.951-1.225-12.986c0-5.442,0.699-10.18,1.753-13.164l4.74,0.526c0.176,1.405,0.176,2.811,0.176,4.212
			c0,7.197-1.932,14.744-3.157,21.237l-0.355,1.582c2.811,7.717,11.413,15.617,11.413,29.13c0,14.569-7.554,31.946-7.554,44.055
			c0,21.591,11.06,30.366,28.264,30.366c18.953,0,29.132-16.499,29.132-31.594c0-8.599-3.163-16.499-9.826-21.063l2.279-2.808
			c7.024,4.737,10.357,13.162,10.357,22.29c0,16.675-11.239,34.93-32.125,34.93c-19.479,0-31.584-9.477-31.584-32.299
			C84.694,123.324,92.588,105.422,92.588,92.08z"/>
	</g>
	<path fill="#F6F6F6" d="M46.556,95.702c0,0-2.551,8.814-18.498,26.747c-10.964,12.33,1.214,1.033,1.214,1.033
		s14.144-15.611,17.948-24.459C50.504,91.388,46.556,95.702,46.556,95.702z"/>
</g>
</svg>
