<?xml version="1.0" encoding="utf-8"?>
<!-- Generator: Adobe Illustrator 16.0.0, SVG Export Plug-In . SVG Version: 6.00 Build 0)  -->
<!DOCTYPE svg PUBLIC "-//W3C//DTD SVG 1.1//EN" "http://www.w3.org/Graphics/SVG/1.1/DTD/svg11.dtd">
<svg version="1.1" id="Calque_1" xmlns="http://www.w3.org/2000/svg" xmlns:xlink="http://www.w3.org/1999/xlink" x="0px" y="0px"
	 width="170.08px" height="226.77px" viewBox="0 0 170.08 226.77" enable-background="new 0 0 170.08 226.77" xml:space="preserve">
<g>
	<g>
		<path fill="#34495E" d="M95.756,120.123c0,0-0.524,1.389,0.265,2.088c0.787,0.699,1.59,0.514,1.576,1.396
			c-0.015,0.885-0.046,1.496,0.739,2.127s0.549,1.128,0.153,1.416c-2.293,1.673,5.795,2.432,9.189,1.022
			c3.074-1.274,9.315-1.987,5.872-2.21c-3.383-0.219-12.78-0.457-10.854-3.275c0,0,2.673-3.213,3.388-1.224
			c0.772,2.146,1.278,3.546,4.092,3.687c2.923,0.146,7.054-4.235,4.136-4.525c-0.508-0.053-0.998-0.821-0.256-0.867
			c0.742-0.044,2.959-0.45,5.739,1.755c0,0,2.583,1.201,0.072-1.021c-2.511-2.224-7.856-3.119-7.856-3.119s-4.238-0.929-0.601-1.354
			c3.639-0.424,9.092,1.517,12.879,5.764c0,0,1.271,0.807-0.062-1.014c0,0-5.039-7.081-15.416-6.233
			C98.435,115.379,95.756,120.123,95.756,120.123z"/>
		<path fill="#34495E" d="M106.371,108.801c8.938-0.522,14.673,0.504,18.876,1.336c0.679,0.133,2.255,0.82-1.143,0.521
			c-3.617-0.318-13.432-0.816-18.875,1.661c-6.685,3.042-8.179,1.622-8.153-0.673C97.076,111.648,96.713,109.366,106.371,108.801z"
			/>
		<path fill="#34495E" d="M75.162,120.123c0,0,0.526,1.389-0.263,2.088c-0.788,0.699-1.592,0.514-1.577,1.396
			c0.013,0.885,0.045,1.496-0.741,2.127c-0.785,0.631-0.549,1.128-0.153,1.416c2.293,1.673-5.794,2.432-9.188,1.022
			c-3.075-1.274-9.316-1.987-5.873-2.21c3.383-0.219,12.782-0.457,10.854-3.275c0,0-2.67-3.213-3.387-1.224
			c-0.772,2.146-1.279,3.546-4.091,3.687c-2.921,0.146-7.053-4.235-4.136-4.525c0.509-0.053,0.999-0.821,0.256-0.867
			c-0.743-0.044-2.958-0.45-5.737,1.755c0,0-2.583,1.201-0.074-1.021c2.51-2.224,7.858-3.119,7.858-3.119s4.238-0.929,0.6-1.354
			c-3.639-0.424-9.091,1.517-12.878,5.764c0,0-1.271,0.807,0.061-1.014c0,0,5.037-7.081,15.416-6.233
			C72.482,115.379,75.162,120.123,75.162,120.123z"/>
		<path fill="#34495E" d="M64.546,108.801c-8.938-0.522-14.673,0.504-18.876,1.336c-0.677,0.133-2.253,0.82,1.142,0.521
			c3.618-0.318,13.432-0.816,18.875,1.661c6.685,3.042,8.178,1.622,8.154-0.673C73.841,111.648,74.204,109.366,64.546,108.801z"/>
		<path fill="#34495E" d="M94.851,163.286c-1.787-0.808-3.879-2.354-7.371,0.722c-2.586,2.279-1.455,6.002,1.17,5.563
			c11.86-1.979,19.439,0.819,22.062,1.843C110.71,171.413,104.323,169.26,94.851,163.286z"/>
		<path fill="#34495E" d="M75.903,163.388c1.796-0.825,3.906-2.396,7.363,0.644c2.562,2.253,1.387,5.985-1.232,5.576
			c-11.839-1.852-19.451,1.027-22.083,2.078C59.951,171.686,66.362,169.464,75.903,163.388z"/>
		<path fill="#34495E" d="M129.946,174.77c-2.381,3.677-12.018,18.325-15.467,20.442c-4.248,2.605-1.83-3.706-1.83-3.706
			s-1.77,1.963-4.225,4.813c-1.708,1.98-15.521,15.42-17.875,8.029c-2.273-7.133-2.457-10.977,0.436-12.325
			c3.093-1.443,5.656-2.611,2.609-2.757c-3.045-0.144-8.121,0.002-8.121,0.002l-0.042,14.215l-0.042-14.215
			c0,0-5.076-0.146-8.122-0.002c-3.046,0.146-0.483,1.313,2.61,2.757c2.893,1.35,2.709,5.192,0.436,12.325
			c-2.355,7.391-16.167-6.049-17.875-8.029c-2.456-2.85-4.223-4.813-4.223-4.813s2.416,6.313-1.831,3.706
			c-3.451-2.117-13.086-16.767-15.467-20.442c-0.339-0.525-0.456-0.213-0.372,0.09c6.271,22.726,27.44,38.627,27.44,38.627
			c7.827,5.604,16.413,6.068,17.398,6.105v0.002c0,0,0.02,0,0.048-0.002c0.028,0.002,0.047,0.002,0.047,0.002v-0.002
			c0.986-0.037,9.573-0.501,17.397-6.105c0,0,21.17-15.901,27.441-38.627C130.401,174.557,130.288,174.243,129.946,174.77z"/>
		<path fill="#34495E" d="M85.264,176.195l0.013,3.765c0,0,0.984,0.423,2.513,0.09c1.527-0.332,3.32-1.195,8.371-1.396
			c4.053-0.158,9.502-0.53,10.1-1.195s0.398-1.462-0.199-1.462c0,0-1.594-0.065-2.061,0.332c-0.464,0.399-0.93,0.664-1.527,0.664
			c-0.597,0-11.945,1.045-13.354,0.997C87.124,177.924,86.394,176.262,85.264,176.195z"/>
		<path fill="#34495E" d="M85.301,176.199v3.771c0,0-1.039,0.433-2.567,0.102c-1.529-0.332-3.323-1.196-8.373-1.396
			c-4.052-0.16-9.501-0.531-10.099-1.195c-0.599-0.666-0.399-1.462,0.199-1.462c0,0,1.595-0.065,2.06,0.333
			c0.464,0.397,0.93,0.664,1.528,0.664c0.598,0,11.946,1.045,13.355,0.996C83.398,177.945,84.171,176.264,85.301,176.199z"/>
		<path fill="#34495E" d="M92.438,156.297c1.02-0.676,3.138-1.912,3.959-0.916c0.968,1.17,0.289,1.635-0.438,1.748
			c-0.74,0.117-2.229-0.131-3.436-0.228C92.157,156.873,92.054,156.553,92.438,156.297z"/>
		<path fill="#34495E" d="M79.407,156.297c-1.02-0.676-3.137-1.912-3.959-0.916c-0.968,1.17-0.289,1.635,0.437,1.748
			c0.741,0.117,2.229-0.131,3.436-0.228C79.689,156.873,79.793,156.553,79.407,156.297z"/>
		<path fill="#34495E" d="M142.265,120.642c0,0,5.174-9.819,3.105,1.803c-1.778,9.989-3.391,25.874-3.771,27.936
			c-0.611,3.292-2.49,4.655-1.556-0.901C142.263,136.309,139.263,128.083,142.265,120.642z"/>
		<g>
			<path fill="#34495E" d="M144.796,92.673c0,0-1.309,1.034-1.188,3.683c0.119,2.65,0.019,3.029,0.875,2.146
				c0.861-0.882-0.389-1.636,0.334-2.718C145.541,94.703,145.698,91.83,144.796,92.673z"/>
			<path fill="#34495E" d="M143.931,103.019c0,0-0.147,1.669,0.53,0.549c0.681-1.12,2.519-5.008,3.286-5.346
				c0.77-0.337,0.068-0.917-0.928-0.234C146.438,98.25,143.897,101.817,143.931,103.019z"/>
			<path fill="#34495E" d="M101.377,8.806c0,0-4.521-0.249-2.094,0.751c2.428,0.999,12.405,7.202,13.977,8.916s3,2.142,2.286,0.571
				C114.831,17.473,106.442,9.743,101.377,8.806z"/>
			<path fill="#34495E" d="M27.607,49.688c0,0-0.761,0.134-0.761-0.269s-0.941-0.896-0.673-0.27
				c0.269,0.627,0.672,1.435,0.313,1.567c-0.358,0.135-1.074,0.493-0.358,0.673c0.717,0.179,1.03,0.447,1.03,0.896
				c0,0.447,0,1.165,0.359,0.673c0.358-0.494,0.851-1.165,1.03-0.808c0.179,0.358,0.314,0.582,0.403,0.18
				C29.041,51.927,28.548,49.644,27.607,49.688z"/>
			<path fill="#34495E" d="M25.323,53.809c0,0,0.09,0.762-0.179,0.896s-0.627,0.896-1.075,1.254c-0.447,0.357-3.493,0-3.001,0.447
				c0.493,0.449,1.21,1.255,1.882,0.941c0.672-0.313,3.852-2.33,2.328-0.717c-1.522,1.612-1.075,1.03-0.671,1.389
				c0.403,0.358,1.075,1.344,1.165,0.896c0.089-0.448-0.135-1.345,0.224-1.523c0.358-0.178,1.075,0.271,1.075,0.718
				s-0.941,2.105-1.523,2.465c-0.582,0.356-0.717,1.028,0,0.761c0.717-0.269,2.509-2.33,2.733-3.271
				c0.224-0.94-0.046-1.074-0.359-0.358c-0.313,0.717-0.851,0.134-0.537-0.358c0.313-0.492,0.761-1.075,0.224-1.165
				s-0.941-0.357-0.269-0.627c0.671-0.27,1.478-0.939,0.671-0.939c-0.805,0-1.477-0.27-1.119-0.582
				c0.358-0.314,0.179-0.896-0.135-0.852c-0.313,0.044-0.806-0.583-1.074-0.046C25.413,53.674,25.323,53.809,25.323,53.809z"/>
			<path fill="#34495E" d="M21.291,55.286c-0.366,0.376-1.478,2.554-1.925,2.062c-0.449-0.492,0.28-1.332,0.485-1.73
				c0.283-0.555,0.5-1.226,1.216-1.047c0.717,0.18,3.001-0.491,2.24-0.717c-0.762-0.224-1.344-1.075-0.762-1.567
				c0.583-0.493,1.344-0.18,1.614,0.269c0.268,0.448,0.502,1.316,0.133,1.792c-0.424,0.546-1.134,1.413-2.127,0.93
				C22.165,55.276,21.737,54.829,21.291,55.286z"/>
			<path fill="#34495E" d="M152.979,79.119c-0.807-3.983-6.266-15.507-4.115-12.008c2.146,3.499,2.412,3.887,2.441,1.707
				c0.028-2.18-1.145-6.865-2.091-7.856s-0.438-1.909,0.282-0.662c0.72,1.246,2.688,5.724,0.766-0.692
				c-1.924-6.416-7.459-8.579-8.115-8.78c-0.658-0.202-1.78-1.425-0.756-1.81s0.801-1.42-0.295-0.87
				c-1.097,0.55-1.517,0.253-1.816-0.695c-0.299-0.95-1.326-1.937-2.387-2.114c-1.06-0.177-10.066-6.404-6.494-4.686
				c3.572,1.72,4.65,2.218-0.521-1.903c0,0-3.245-1.658-1.794-1.665c1.45-0.007,0.589-0.923-0.184-1.684
				c-0.771-0.759-4.432-3.924-4.478-4.646c-0.043-0.724-1.37-2.659,0.75-0.934c2.122,1.727,3.345,0.604,3.548,1.316
				c0.205,0.713,1.934,6.577,2.547,6.054c0.613-0.52,0.316-2.761,1.008-1.996c0.691,0.766,3.023,1.993,1.006-0.707
				c-2.021-2.698-4.098-6.363-3.161-6.903c0.935-0.542,1.685-1.475,0.317-1.392c-1.365,0.083-3.396,1.176-4.371,1.072
				c-0.975-0.103-1.49-0.635-1.534-1.359c-0.044-0.723-0.449-0.778-1.259-0.81c-0.809-0.032-8.004-2.982-12.129-7.166
				c-4.127-4.185-13.969-9.554-27.762-6.941c-13.792,2.613-25.395,4.125-27.744,3.945c-2.349-0.18-2.99,1.23-0.262,0.983
				c2.727-0.247,7-0.265,4.302,0.464c-2.698,0.728-3.641,2.479-2.189,2.472c1.451-0.008,5.009,1.469,2.811,1.119
				c-2.199-0.351-2.381,0.629-1.232,0.961c1.15,0.333,3.421,1.889,2.372,1.873c-1.049-0.018-2.871-0.792-2.335,0.062
				c0,0,0.858,0.835,0.22,0.954c-0.638,0.12-1.958-0.364-2.488-1.139c-0.531-0.774-2.484-1.06-3.127-1.02
				c-0.643,0.039-3.165,0.999-3.048,0.266c0.116-0.733-0.4-1.266-0.848-0.675c-0.447,0.592-1.5,1.865-2.992,2.521
				c-1.492,0.655-8.85,4.329-10.345,6.274c-1.494,1.946-1.957,2.297-2.364,2.241c-0.406-0.057-0.593,0.843,0.124,0.718
				c0.719-0.125,1.149,0.333,0.683,0.604c0,0-2.017,1.332-3.092,2.204c-1.076,0.872-2.057,1.98-6.522,2.815
				c-2.405,0.227-6.071,3.595-6.363,4.097c0,0-0.341,2.36,0.479,1.263c0.82-1.1,2.397-1.68,2.427-1.197
				c0.029,0.482,0.545,1.016,0.823,0.272c0.278-0.742,1.361-0.164,1.064,0.259c-0.296,0.421-2.415,2.727-2.958,3.083
				c-0.543,0.354-0.253,1.144,0.446,0.698c0.698-0.445,3.949-4.03,4.531-3.743c0.582,0.286-0.087,1.216-0.087,1.216
				s-0.203,0.656,0.562-0.034c0.765-0.692,3.001-5.021,4.585-2.86c0,0,0.36,0.624-0.358,0.748c-0.718,0.125-1.705,1.152-0.66,1.088
				c1.044-0.063,3.737-0.872,3.916,0.73c0.177,1.603,0.375,3.525-0.245,2.596c-0.622-0.93-1.897-0.691-2.516-0.25
				c-0.618,0.44-1.982,1.896-1.018,1.835c0.965-0.058,2.063,0.762,2.277,1.637c0.214,0.874,1.412,2.011,1.714,1.669
				c0.301-0.341,0.969,0.022,1.244,0.569c0.275,0.548,0.921,1.88,1.435,1.042c0.514-0.837,1.231-0.962,1.568-0.739
				c0.336,0.221-0.087,1.215-0.891,1.264c-0.803,0.049-0.729,1.254-0.318,1.391c0.411,0.136,5.979-2.461,4.811-0.454
				s-0.635,1.491,0.193,1.843c0.828,0.353-0.003,1.291-0.399,1.396c-0.397,0.104-1.407,0.73-0.418,1.074
				c0.989,0.344,2.45,3.157,1.171,2.025c-1.278-1.133-2.912-2.807-4.263-2.481c-1.351,0.322-3.058,0.104-2.224-0.752
				c0.835-0.857,1.033-1.595,0.195-2.109c-0.838-0.513-1.128-1.302-1.077-1.789c0.05-0.487-0.525-1.984-1.404-1.851
				c-0.878,0.134-1.801,1.208-1.891,2.05c-0.085,0.801,0.358,1.235,0.777-0.05c0.292-0.896,1.387-0.161,1.342,0.405
				c-0.047,0.566-1.6,1.55-1.817,1.966c-0.216,0.417,0.456,0.858,1.23,0.328s1.365-0.083,0.671,0.443
				c-0.693,0.526-1.493,1.972-2.168,2.792c-0.738,0.896-1.958,2.297-0.792,1.58c1.167-0.715,5.775-3.172,3.869-1.363
				c-1.906,1.811-2.344,2.563-2.149,3.115c0.195,0.552-0.328,1.229-0.328,1.229s0.024,0.4,0.718-0.124
				c0.694-0.527,2.322-1.595,1.417-0.571c-0.905,1.022-2.051,2.061-2.65,2.823c-0.599,0.762-1.33,2.016,0.459,0.938
				c1.79-1.077,1.446-0.087,0.848,0.674c-0.598,0.763-2.129,3.438-0.238,1.387c1.892-2.051,1.894-3.342,2.261-3.929
				c0.367-0.586,2.663-3.951,2.695-2.1c0.032,1.853,0.383,2.315,0.911,1.719c0.528-0.597,1.074,0.418,0.37,0.783
				s-1.745,1.8-1.998,2.945c-0.252,1.144-0.263,0.983,0.578,0.206c0.839-0.777,0.45,0.779,0.167,1.441
				c-0.282,0.662-1.949,6.409-0.795,4.161c1.154-2.247,2.191-3.762,3.496-3.519c1.306,0.244,1.32,0.483,0.319,1.271
				c-1,0.785-5.752,4.864-4.024,4.114c1.729-0.75,5.036,0.582,3.998-0.565c-1.038-1.146-0.896-1.478-0.319-1.271
				c0.577,0.207,0.664-1.008,1.453-1.298s0.777,0.84,0.716,1.166c-0.06,0.326,0.105,0.396,0.874-0.213
				c0.77-0.612,2.15-0.454,1.651,0.625c-0.499,1.078-0.642,3.174,0.601,2.647c6.138-2.595,8.571,0.321,12.582-0.708
				c3.143-0.807,4.806-0.534,3.855,1.056c-0.952,1.591-4.461,7.529-0.312,2.842c4.151-4.688,9.818-6.97,16.294-2.604
				c6.476,4.364,15.318-1.415,15.318-1.415s0.966-1.35,4.073-0.65c3.107,0.698,12.852,1.799,16.281,1.188
				c3.431-0.612,10.266-6.27,11.561-6.187s1.339,0.805,1.203,1.218c-0.137,0.411-1.373,1.292-2.166,1.502
				c-0.795,0.209-2.727,1.618-1.123,1.438c1.602-0.178,4.688-2.462,4.346-1.473c-0.344,0.988-1.629,3.728-0.839,3.438
				c0.788-0.29,4.501-1.564,3.454-0.21c-1.047,1.354-0.389,1.557,0.138,2.251c0.526,0.693,0.579,1.576,0.062,2.335
				c-0.52,0.756-0.094,1.134,1.047,1.307c1.14,0.173,1.449,1.283,0.751,1.729c-0.698,0.444-0.404,1.313-0.013,1.13
				c0.392-0.186,1.621,0.144,1.004,0.583c-0.618,0.44-1.698,1.231-0.787,1.662c0.912,0.428,2.23,3.493,1.621,4.095
				c-0.608,0.601-0.479,1.398,0.225,1.035c0.703-0.366,1.128-2.65,1.297-3.869c0.168-1.221,1.313-3.628,1.178-1.847
				c-0.134,1.783-1.633,6.31-1.105,7.004c0.525,0.693,4.259,2.401,3.252,4.398c-1.008,1.997-0.119,2.024,0.443,1.99
				c0.561-0.035,2.283,0.424,1.52,1.116c-0.766,0.691-1.42,1.86-0.889,2.635c0.531,0.773,1.123,3.884,1.111,5.013
				c-0.014,1.13-1.052,3.936,0.215,3.536c1.266-0.398,4.232-3.323,4.392-4.703s-0.493-2.793-1.269-3.632
				c-0.777-0.84-1.063-1.549-0.941-2.201s-0.248-1.436-0.734-1.486c-0.488-0.052-0.266-0.388-0.074-1.206s-0.037-1.934-1.225-2.909
				c-1.188-0.978-0.82-1.563-0.223-2.326s5.398-9.36,5.389-5.569c-0.014,3.791,1.184-0.395,1.184-0.395s0.183,0.312,0.164,1.36
				c-0.017,1.05,0.756,1.81,0.688,0.685s0.021-3.63,0.457-3.092c0.437,0.537,0.485,2.712,0.971,1.392s1.65-4.698,0.456-8.415
				c-1.193-3.718-0.955-7.765,0.913-4.895C152.407,78.993,153.785,83.104,152.979,79.119z M43.644,38.347
				c-0.655,0.503-3.646,1.069-5.705,3.008c-0.425,0.399-1.332,0.646-1.22-0.167c0.112-0.813-0.635-1.171-1.208-1.297
				c-0.572-0.127-1.892-0.612-0.461-0.938c1.433-0.33,3.969-1.05,3.526-0.376c-0.443,0.671-0.663,1.027,0.508,0.392
				c1.171-0.635,2.939-1.388,3.697-1.534C43.539,37.285,44.299,37.843,43.644,38.347z M56.491,32.996
				c0.391,0.243,0.734,0.55,1.17,0.224c0.396-0.297,0.712-0.292,0.472,0.267c-0.301,0.702-1.09,4.991-1.791,2.367
				C55.648,33.254,56.1,32.751,56.491,32.996z M63.902,54.535c-3.042-3.605-6.385-6.871-6.936-7.967
				c-0.551-1.095-0.821-1.563-1.464-1.523s-0.698,0.444-0.347,0.908c0.35,0.462-0.259,1.063-0.7,0.445
				c-0.441-0.619-1.066-4.291-2.519-4.282c-1.451,0.008-7.014,5.346-5.531,1.868c1.482-3.477,2.994-1.149,4.037-2.584
				c0,0,0.825-1.018,0.238-1.385c-0.587-0.367-0.229-1.116,0.623-0.36c0.853,0.755,1.491,0.636,0.922-2.071
				c0,0-0.727-3.989,1.234-2.253c1.96,1.734,2.708,2.093,1.684,2.478c-1.026,0.385-0.412,2.068-0.185,2.728
				c0.19,0.548,0.204,2.918,1.078,2.703c0.875-0.215,0.504-1,0.294-1.792c-0.209-0.794-0.2-3.294,0.605-1.972
				c0.807,1.321,2.33,6.472,4.489,8.84C63.587,50.683,66.944,58.141,63.902,54.535z M125.567,69.459
				c-2.682,1.591-0.707-1.443-0.707-1.443c0.854-0.943,1.031-1.268,3.183-1.502C130.192,66.278,128.25,67.869,125.567,69.459z
				 M138.433,61.22c-0.381,0.219-0.932-0.207-1.211-0.518c-0.281-0.312-9.035-9.422-11.184-11.324s1.597-0.688,1.597-0.688
				c4.286,1.446,9.937,10.22,10.653,11.226C138.879,60.746,138.813,60.999,138.433,61.22z"/>
		</g>
	</g>
</g>
</svg>
