<?xml version="1.0" encoding="utf-8"?>
<!-- Generator: Adobe Illustrator 16.0.0, SVG Export Plug-In . SVG Version: 6.00 Build 0)  -->
<!DOCTYPE svg PUBLIC "-//W3C//DTD SVG 1.1//EN" "http://www.w3.org/Graphics/SVG/1.1/DTD/svg11.dtd">
<svg version="1.1" id="Calque_1" xmlns="http://www.w3.org/2000/svg" xmlns:xlink="http://www.w3.org/1999/xlink" x="0px" y="0px"
	 width="68.252px" height="57.833px" viewBox="0 0 68.252 57.833" enable-background="new 0 0 68.252 57.833" xml:space="preserve">
<g>
	<g>
		<circle fill="#26B99A" cx="47.436" cy="17.738" r="2.454"/>
	</g>
	<g>
		<path fill="#26B99A" d="M66.859,40.842c-0.408,0-0.817-0.205-1.021-0.408L52.751,25.711c-0.612-0.613-0.408-1.431,0.205-2.043
			c0.613-0.615,1.432-0.409,2.045,0.204l12.882,14.517c0.611,0.613,0.409,1.431-0.206,2.045
			C67.474,40.637,67.269,40.842,66.859,40.842z"/>
	</g>
	<g>
		<path fill="#26B99A" d="M21.264,43.092C9.61,43.092,0,33.48,0,21.827C0,10.172,9.61,0.563,21.264,0.563
			c5.521,0,10.633,2.045,14.721,5.93l0,0h10.02c6.338,0,11.45,5.11,11.45,11.45c0,6.338-5.112,11.45-11.45,11.45
			c-1.637,0-3.068-0.409-4.499-1.023C38.644,36.958,30.465,43.092,21.264,43.092z M21.264,3.221
			c-10.223,0-18.402,8.179-18.402,18.402c0,10.222,8.179,18.402,18.402,18.402c8.179,0,15.539-5.521,17.788-13.496l0,0
			c0-0.203,0.206-0.611,0.206-0.817c0.203-0.409,0.409-0.817,0.817-1.022c0.409-0.204,1.022-0.204,1.227,0.205
			c1.432,1.023,3.066,1.432,4.703,1.432c4.703,0,8.587-3.886,8.587-8.589c0-4.701-3.884-8.585-8.587-8.585h-8.793
			C37.009,9.354,36.803,9.56,36.6,9.764c-0.614,0.205-1.228,0-1.636-0.41C31.488,5.469,26.581,3.221,21.264,3.221z"/>
	</g>
	<g>
		<path fill="#26B99A" d="M37.622,57.608c-0.41,0-1.022-0.206-1.229-0.817l-8.996-15.949c-0.409-0.614-0.205-1.636,0.615-2.045
			c0.611-0.408,1.635-0.204,2.043,0.613l8.996,15.949c0.409,0.612,0.206,1.635-0.612,2.043
			C38.234,57.402,38.03,57.608,37.622,57.608z"/>
	</g>
	<g>
		<path fill="#26B99A" d="M45.801,57.199c-0.409,0-1.023-0.205-1.227-0.614L33.737,38.389c-0.408-0.613-0.206-1.637,0.409-2.045
			c0.612-0.409,1.635-0.205,2.045,0.408L47.026,54.95c0.409,0.613,0.204,1.635-0.408,2.044
			C46.209,57.199,46.005,57.199,45.801,57.199z"/>
	</g>
	<g>
		<path fill="#26B99A" d="M23.922,35.73h-9.814c-0.817,0-1.431-0.613-1.431-1.431V24.076c0-0.205,0-0.409,0-0.409
			c0.409-5.725,5.316-10.224,11.246-10.224c6.134,0,11.246,5.112,11.246,11.245C35.168,30.823,30.056,35.73,23.922,35.73z
			 M15.54,32.868h8.383c4.702,0,8.383-3.682,8.383-8.383s-3.682-8.383-8.383-8.383c-4.499,0-8.179,3.476-8.383,7.975
			c0,0.204,0,0.204,0,0.204V32.868z"/>
	</g>
	<g>
		<path fill="#26B99A" d="M40.075,17.125c-0.614,0-1.226-0.41-1.432-1.023c-0.817-2.454-2.044-4.702-3.68-6.542
			c-0.615-0.615-0.409-1.432,0.204-2.045c0.613-0.613,1.432-0.409,2.044,0.205c1.84,2.25,3.272,4.907,4.09,7.565
			c0.204,0.817-0.204,1.635-1.021,1.841C40.484,17.125,40.28,17.125,40.075,17.125z"/>
	</g>
</g>
</svg>
