<?xml version="1.0" encoding="utf-8"?>
<!-- Generator: Adobe Illustrator 16.0.0, SVG Export Plug-In . SVG Version: 6.00 Build 0)  -->
<!DOCTYPE svg PUBLIC "-//W3C//DTD SVG 1.1//EN" "http://www.w3.org/Graphics/SVG/1.1/DTD/svg11.dtd">
<svg version="1.1" id="Calque_1" xmlns="http://www.w3.org/2000/svg" xmlns:xlink="http://www.w3.org/1999/xlink" x="0px" y="0px"
	 width="80px" height="57.833px" viewBox="0 0 80 57.833" enable-background="new 0 0 80 57.833" xml:space="preserve">
<g>
	<path fill="#26B99A" d="M61.746,7.676h-44.12c-0.591,0-1.07,0.479-1.07,1.071v29.81c0,0.592,0.48,1.07,1.07,1.07h44.12
		c0.592,0,1.07-0.479,1.07-1.07V8.746C62.816,8.155,62.338,7.676,61.746,7.676z M60.674,9.817v1.071H18.698V9.817H60.674z
		 M18.698,37.483V13.031h41.976v24.453H18.698z"/>
	<path fill="#26B99A" d="M78.91,49.978h-0.959l-1.834-1.313c0.069-0.143,0.113-0.301,0.113-0.47V1.071
		C76.23,0.479,75.751,0,75.159,0H5.415C4.824,0,4.344,0.479,4.344,1.071v47.124c0,0.146,0.03,0.287,0.083,0.414l-1.914,1.369H1.429
		c-0.591,0-1.07,0.482-1.07,1.072v5.713c0,0.591,0.479,1.07,1.07,1.07H78.91c0.592,0,1.07-0.479,1.07-1.07V51.05
		C79.98,50.46,79.502,49.978,78.91,49.978z M74.275,49.978H45.286c-0.594,0-1.072,0.482-1.072,1.072v0.804H36.36V51.05
		c0-0.59-0.479-1.072-1.071-1.072H6.19l0.998-0.713h66.091L74.275,49.978z M6.486,2.142h67.602v44.981H6.486V2.142z M77.838,55.69
		H2.5v-3.57h31.718v0.805c0,0.591,0.479,1.071,1.071,1.071h9.997c0.591,0,1.07-0.48,1.07-1.071V52.12h31.481V55.69z"/>
</g>
</svg>
