<?xml version="1.0" encoding="utf-8"?>
<!-- Generator: Adobe Illustrator 15.0.0, SVG Export Plug-In . SVG Version: 6.00 Build 0)  -->
<!DOCTYPE svg PUBLIC "-//W3C//DTD SVG 1.1//EN" "http://www.w3.org/Graphics/SVG/1.1/DTD/svg11.dtd">
<svg version="1.1" id="Calque_1" xmlns="http://www.w3.org/2000/svg" xmlns:xlink="http://www.w3.org/1999/xlink" x="0px" y="0px"
	 width="311.81px" height="226.77px" viewBox="0 0 311.81 226.77" enable-background="new 0 0 311.81 226.77" xml:space="preserve">
<g>
	<path fill="#FFFFFF" d="M61.209,39.294c-12.968,0-23.479,10.492-23.479,23.436s10.51,23.436,23.479,23.436
		c12.967,0,23.478-10.492,23.478-23.436S74.176,39.294,61.209,39.294z M61.209,82.09c-10.712,0-19.396-8.67-19.396-19.36
		c0-10.692,8.684-19.36,19.396-19.36c10.708,0,19.394,8.668,19.394,19.36C80.603,73.42,71.917,82.09,61.209,82.09z"/>
	<path fill="#FFFFFF" d="M27.466,14.663c-8.542,0-15.465,6.909-15.465,15.435c0,8.525,6.923,15.436,15.465,15.436
		c8.541,0,15.463-6.911,15.463-15.436C42.929,21.572,36.007,14.663,27.466,14.663z M27.466,42.852
		c-7.055,0-12.776-5.71-12.776-12.753c0-7.041,5.721-12.752,12.776-12.752c7.053,0,12.775,5.711,12.775,12.752
		C40.241,37.141,34.519,42.852,27.466,42.852z"/>
	<path fill="#FFFFFF" d="M63.928,36.026c0-1.561-1.265-2.823-2.825-2.823l0,0c-1.562,0-2.827,1.262-2.827,2.823v3.558
		c0,1.555,1.265,2.819,2.827,2.819l0,0c1.56,0,2.825-1.264,2.825-2.819V36.026z"/>
	<path fill="#FFFFFF" d="M85.448,51.713c1.363-0.76,1.85-2.476,1.085-3.837l0,0c-0.763-1.362-2.48-1.842-3.844-1.083l-3.111,1.735
		c-1.363,0.76-1.85,2.476-1.084,3.837l0,0c0.762,1.361,2.479,1.843,3.843,1.083L85.448,51.713z"/>
	<path fill="#FFFFFF" d="M77.743,41.408c0.881-1.286,0.551-3.037-0.742-3.918l0,0c-1.291-0.88-3.041-0.544-3.923,0.745l-2.01,2.938
		c-0.88,1.286-0.551,3.038,0.741,3.917l0,0c1.293,0.88,3.047,0.545,3.924-0.744L77.743,41.408z"/>
	<path fill="#FFFFFF" d="M36.94,51.708c-1.364-0.761-1.851-2.476-1.084-3.837l0,0c0.761-1.361,2.479-1.842,3.844-1.082l3.11,1.734
		c1.364,0.761,1.85,2.477,1.084,3.837l0,0c-0.763,1.362-2.479,1.842-3.845,1.083L36.94,51.708z"/>
	<path fill="#FFFFFF" d="M44.644,41.403c-0.881-1.286-0.55-3.037,0.743-3.917l0,0c1.292-0.88,3.041-0.546,3.922,0.743l2.01,2.939
		c0.882,1.286,0.552,3.036-0.741,3.915l0,0c-1.292,0.88-3.046,0.546-3.924-0.744L44.644,41.403z"/>
	<path fill="#FFFFFF" d="M63.928,89.291c0,1.561-1.265,2.822-2.825,2.822l0,0c-1.562,0-2.827-1.262-2.827-2.822v-3.558
		c0-1.557,1.265-2.818,2.827-2.818l0,0c1.56,0,2.825,1.261,2.825,2.818V89.291z"/>
	<path fill="#FFFFFF" d="M85.448,73.603c1.363,0.761,1.85,2.477,1.085,3.839l0,0c-0.763,1.361-2.48,1.842-3.844,1.082l-3.111-1.735
		c-1.363-0.76-1.85-2.477-1.084-3.836l0,0c0.762-1.361,2.479-1.844,3.843-1.083L85.448,73.603z"/>
	<path fill="#FFFFFF" d="M77.743,83.909c0.881,1.286,0.551,3.037-0.742,3.917l0,0c-1.291,0.88-3.041,0.546-3.923-0.745l-2.01-2.937
		c-0.88-1.286-0.551-3.037,0.741-3.917l0,0c1.293-0.88,3.047-0.546,3.924,0.743L77.743,83.909z"/>
	<path fill="#FFFFFF" d="M36.94,73.608c-1.364,0.76-1.851,2.477-1.084,3.836l0,0c0.761,1.361,2.479,1.844,3.844,1.083l3.11-1.734
		c1.364-0.761,1.85-2.477,1.084-3.839l0,0c-0.763-1.36-2.479-1.842-3.845-1.082L36.94,73.608z"/>
	<path fill="#FFFFFF" d="M44.644,83.913c-0.881,1.285-0.55,3.037,0.743,3.917l0,0c1.292,0.88,3.041,0.546,3.922-0.744l2.01-2.938
		c0.882-1.285,0.552-3.038-0.741-3.917l0,0c-1.292-0.88-3.046-0.546-3.924,0.744L44.644,83.913z"/>
	<path fill="#FFFFFF" d="M87.856,65.859c1.564,0,2.828-1.263,2.828-2.82l0,0c0-1.56-1.264-2.822-2.828-2.822h-3.565
		c-1.559,0-2.823,1.262-2.823,2.822l0,0c0,1.557,1.264,2.82,2.823,2.82H87.856z"/>
	<path fill="#FFFFFF" d="M38.208,65.859c1.563,0,2.827-1.263,2.827-2.82l0,0c0-1.56-1.264-2.822-2.827-2.822h-3.563
		c-1.561,0-2.824,1.262-2.824,2.822l0,0c0,1.557,1.263,2.82,2.824,2.82H38.208z"/>
	<ellipse fill="#FFFFFF" cx="61.399" cy="62.583" rx="11.149" ry="11.127"/>
	<path fill="#FFFFFF" d="M28.546,11.331c0-0.899-0.733-1.631-1.634-1.631l0,0c-0.902,0-1.635,0.732-1.635,1.631v3.122
		c0,0.899,0.732,1.632,1.635,1.632l0,0c0.901,0,1.634-0.733,1.634-1.632V11.331z"/>
	<path fill="#FFFFFF" d="M28.546,45.609c0-0.899-0.733-1.631-1.634-1.631l0,0c-0.902,0-1.635,0.732-1.635,1.631v3.122
		c0,0.899,0.732,1.631,1.635,1.631l0,0c0.901,0,1.634-0.732,1.634-1.631V45.609z"/>
	<path fill="#FFFFFF" d="M11.931,31.58c0.901,0,1.635-0.732,1.635-1.632l0,0c0-0.9-0.734-1.632-1.635-1.632H8.804
		c-0.899,0-1.635,0.731-1.635,1.632l0,0c0,0.899,0.736,1.632,1.635,1.632H11.931z"/>
	<path fill="#FFFFFF" d="M15.56,20.188c0.636,0.637,1.674,0.637,2.312,0l0,0c0.638-0.637,0.638-1.671,0-2.308l-2.209-2.206
		c-0.638-0.637-1.675-0.637-2.313,0l0,0c-0.638,0.637-0.638,1.672,0,2.308L15.56,20.188z"/>
	<path fill="#FFFFFF" d="M45.824,31.58c0.901,0,1.635-0.732,1.635-1.632l0,0c0-0.9-0.734-1.632-1.635-1.632h-3.126
		c-0.901,0-1.635,0.731-1.635,1.632l0,0c0,0.899,0.733,1.632,1.635,1.632H45.824z"/>
	<path fill="#FFFFFF" d="M41.171,17.979c0.637-0.637,0.637-1.671,0-2.309l0,0c-0.638-0.636-1.675-0.636-2.313,0l-2.211,2.204
		c-0.637,0.637-0.637,1.671,0,2.31l0,0c0.641,0.637,1.676,0.637,2.315,0L41.171,17.979z"/>
	<path fill="#FFFFFF" d="M15.56,39.564c0.636-0.637,1.674-0.637,2.312,0l0,0c0.638,0.637,0.638,1.671,0,2.309l-2.209,2.205
		c-0.638,0.636-1.675,0.636-2.313,0l0,0c-0.638-0.637-0.638-1.671,0-2.308L15.56,39.564z"/>
	<path fill="#FFFFFF" d="M41.466,42.219c0.638,0.637,0.638,1.671,0,2.309l0,0c-0.638,0.637-1.675,0.637-2.313,0l-2.209-2.206
		c-0.636-0.637-0.636-1.671,0-2.308l0,0c0.639-0.637,1.675-0.637,2.314,0L41.466,42.219z"/>
</g>
<path fill="#B4E1F9" stroke="#FFFFFF" stroke-width="2" stroke-miterlimit="10" d="M282.071,34.803
	c0.3-1.502,0.462-3.051,0.462-4.64c0-13.081-10.621-23.679-23.724-23.679c-8.413,0-15.786,4.385-19.996,10.978
	c-2.884-5.206-8.374-8.775-14.752-8.775c-9.345,0-16.922,7.562-16.922,16.889c0,2.774,0.735,5.353,1.921,7.663
	c-8.403,1.523-14.789,8.834-14.789,17.663c0,9.935,8.069,17.99,18.021,17.99c1.36,0,2.675-0.179,3.948-0.463
	c-0.17,0.866-0.27,1.755-0.27,2.669c0,7.705,6.255,13.951,13.975,13.951c5.011,0,9.372-2.655,11.838-6.609
	c2.752,2.923,6.63,4.774,10.966,4.774c6.559,0,12.085-4.207,14.159-10.047c2.863,1.485,6.111,2.338,9.561,2.338
	c11.477,0,20.781-9.285,20.781-20.743C297.25,45.245,290.822,37.246,282.071,34.803z"/>
<path fill="#5D958D" d="M111.042,152.846c0,0,24.083-2.309,35.866-2.309c11.784,0,35.778,2.303,37.85,2.303
	c2.068,0-0.074-51.954-0.074-51.954s-2.142-11.764-8.571-12.033c-6.43-0.269-55.983,0.533-55.983,0.533s-3.481,2.414-5.625,5.083
	C112.359,97.138,109.457,150.525,111.042,152.846z"/>
<rect x="92.112" y="146.665" fill="#352E1A" width="7.89" height="75.38"/>
<rect x="195.806" y="146.665" fill="#352E1A" width="7.89" height="75.38"/>
<rect x="98.877" y="179.291" fill="#352E1A" width="97.306" height="8.999"/>
<rect x="84.225" y="138.035" fill="#352E1A" width="24.045" height="7.127"/>
<rect x="186.79" y="138.035" fill="#352E1A" width="24.046" height="7.127"/>
<path fill="#352E1A" d="M187.186,102.703c0,0-1.023-15.222-13.903-16.125c-13.9,0-25.545,0.201-25.545,0.201l0,0
	c-1.598-0.026-12.387-0.195-25.222-0.195c-12.88,0.902-13.903,16.125-13.903,16.125l-2.632,53.258l5.062-3.121
	c0,0,2.074-38.167,3.205-49.008c1.252-12.021,10.145-12.377,10.145-12.377h23.669v-0.007h23.344c0,0,8.894,0.357,10.147,12.377
	c1.13,10.841,3.205,49.009,3.205,49.009l5.058,3.119L187.186,102.703z"/>
<path fill="#5D958D" stroke="#FFFFFF" stroke-width="6" stroke-miterlimit="10" d="M191.346,163.224c0,0-0.201-8.222-12.053-9.024
	c-10.119-0.684-26.104-1.16-31.543-1.166l0,0c-0.012,0-0.038,0-0.05,0c-0.013,0-0.037,0-0.05,0l0,0
	c-5.44,0.006-21.423,0.482-31.542,1.166c-11.853,0.803-12.054,9.024-12.054,9.024l-1.305,12.538h44.901h0.1h44.902L191.346,163.224z
	"/>
<ellipse fill="#FFFFFF" cx="209.084" cy="91.572" rx="5.695" ry="5.685"/>
<ellipse fill="#FFFFFF" cx="202.365" cy="107.897" rx="3.066" ry="3.061"/>
<g>
	<polygon fill="#C7C6C7" points="255.127,167.656 261.811,184.636 305.423,130.334 256.342,162.504 	"/>
	<polygon fill="#B8B6B6" points="261.811,184.636 272.438,171.903 268.338,155.684 254.672,167.506 	"/>
	<polygon fill="#FFFFFF" points="265.797,174.352 278.396,184.899 305.423,130.334 	"/>
	<polygon fill="#EEEDED" points="265.797,174.352 278.396,184.899 278.131,160.609 	"/>
	<polygon fill="#FFFFFF" points="254.672,167.506 243.129,156.592 305.423,130.334 	"/>
	<polygon fill="#EEEDED" points="254.672,167.506 243.129,156.592 268.641,157.198 	"/>
</g>
</svg>
