<?xml version="1.0" encoding="utf-8"?>
<!-- Generator: Adobe Illustrator 19.1.0, SVG Export Plug-In . SVG Version: 6.00 Build 0)  -->
<svg version="1.1" xmlns="http://www.w3.org/2000/svg" xmlns:xlink="http://www.w3.org/1999/xlink" x="0px" y="0px"
	 viewBox="0 0 280 375" style="enable-background:new 0 0 280 375;" xml:space="preserve">
<style type="text/css">
	.st0{fill:#FFFFFF;}
	.st1{opacity:0.102;}
	.st2{fill:#010101;}
	.st3{fill:#ED6A56;}
	.st4{opacity:0.149;}
	.st5{opacity:0.851;}
	.st6{fill:#87AEDA;}
</style>
<g id="Calque_1">
	<g id="White_Base_5_">
		<g>
			<path class="st0" d="M80.3,237.8c0.3,0.6,0.4,1.3,0.3,2c-0.2,0.7-0.6,1.2-1.2,1.5l0,0l-0.9,0.5l16,27.9h82.3v-41H75.1L80.3,237.8
				z M48.5,280v-10.3h27.4l-11.4-19.9l-0.9,0.5c-0.6,0.3-1.3,0.4-1.9,0.3c-0.7-0.2-1.2-0.6-1.6-1.2l-11.6-20.2v112.3h68.7L81.8,280
				H48.5z M48.5,168.2l22.9,43.3l0,0c0.3,0.6,0.4,1.2,0.2,1.9c-0.4,1.4-1.8,2.2-3.1,1.8c-0.7-0.2-1.3-0.7-1.6-1.3l0,0l-18.4-34.7
				v3.3l20.7,36h107.6v-118H48.5V168.2z M135.7,341.6h41V280h-76.4L135.7,341.6z M202.4,100.5H187v118h25.6V110.8
				C212.6,105.1,208,100.5,202.4,100.5z M187,341.6h15.4c5.7,0,10.3-4.6,10.3-10.3V280H187V341.6z M187,269.8h25.6v-41H187V269.8z"
				/>
		</g>
	</g>
	<g id="Texture_1_5_" class="st1">
		<g>
			<path class="st2" d="M69,295.4h5.1v-5.1H69V295.4z M146,285.2v5.1h5.1v-5.1H146z M58.8,295.4h5.1v-5.1h-5.1V295.4z M146,280h-5.1
				v5.1h5.1V280z M135.7,285.2v5.1h5.1v-5.1H135.7z M156.2,280h-5.1v5.1h5.1V280z M166.5,290.3h5.1v-5.1h-5.1V290.3z M207.5,280
				h-5.1v5.1h5.1V280z M197.2,285.2v5.1h5.1v-5.1H197.2z M197.2,280h-5.1v5.1h5.1V280z M79.3,295.4h5.1v-5.1h-5.1V295.4z
				 M207.5,290.3h5.1v-5.1h-5.1V290.3z M212.6,131.3v-5.1h-5.1v5.1H212.6z M166.5,280h-5.1v5.1h5.1V280z M171.6,285.2h5.1V280h-5.1
				V285.2z M187,285.2v5.1h5.1v-5.1H187z M156.2,285.2v5.1h5.1v-5.1H156.2z M84.4,290.3h1.9l-1.9-3.2V290.3z M202.4,295.4h5.1v-5.1
				h-5.1V295.4z M192.1,295.4h5.1v-5.1h-5.1V295.4z M48.5,295.4h5.1v-5.1h-5.1V295.4z M130.6,295.4h5.1v-5.1h-5.1V295.4z
				 M120.3,295.4h5.1v-5.1h-5.1V295.4z M74.1,280H69v5.1h5.1V280z M140.8,295.4h5.1v-5.1h-5.1V295.4z M110,295.4h5.1v-5.1H110V295.4
				z M80.4,280h-1.1v5.1h4L80.4,280z M104.9,290.6v-0.3h-0.2L104.9,290.6z M135.7,280h-5.1v5.1h5.1V280z M74.1,285.2v5.1h5.1v-5.1
				H74.1z M161.3,295.4h5.1v-5.1h-5.1V295.4z M151.1,295.4h5.1v-5.1h-5.1V295.4z M176.7,295.4v-5.1h-5.1v5.1H176.7z M125.4,280h-5.1
				v5.1h5.1V280z M99.8,280v1.6l2,3.5h3.1V280H99.8z M48.5,280v5.1h5.1V280H48.5z M125.4,285.2v5.1h5.1v-5.1H125.4z M212.6,141.5
				v-5.1h-5.1v5.1H212.6z M53.6,285.2v5.1h5.1v-5.1H53.6z M63.9,285.2v5.1H69v-5.1H63.9z M104.9,285.2v5.1h5.1v-5.1H104.9z
				 M115.2,285.2v5.1h5.1v-5.1H115.2z M115.2,280H110v5.1h5.1V280z M63.9,280h-5.1v5.1h5.1V280z M197.2,100.5h-5.1v5.1h5.1V100.5z
				 M197.2,151.8h-5.1v5.1h5.1V151.8z M197.2,121h-5.1v5.1h5.1V121z M197.2,131.3h-5.1v5.1h5.1V131.3z M197.2,141.5h-5.1v5.1h5.1
				V141.5z M212.6,151.8v-5.1h-5.1v5.1H212.6z M197.2,182.6h-5.1v5.1h5.1V182.6z M197.2,162.1h-5.1v5.1h5.1V162.1z M197.2,131.3h5.1
				v-5.1h-5.1V131.3z M197.2,141.5h5.1v-5.1h-5.1V141.5z M197.2,121h5.1v-5.1h-5.1V121z M197.2,110.8h-5.1v5.1h5.1V110.8z
				 M202.4,115.9h5.1v-5.1h-5.1V115.9z M202.4,110.8v-5.1h-5.1v5.1H202.4z M202.4,167.2h5.1v-5.1h-5.1V167.2z M202.4,146.7h5.1v-5.1
				h-5.1V146.7z M202.4,156.9h5.1v-5.1h-5.1V156.9z M202.4,136.4h5.1v-5.1h-5.1V136.4z M197.2,151.8h5.1v-5.1h-5.1V151.8z
				 M202.4,126.2h5.1V121h-5.1V126.2z M207.5,121h5.1v-5.1h-5.1V121z M202.4,187.7h5.1v-5.1h-5.1V187.7z M197.2,208.2v5.1h5.1v-5.1
				H197.2z M197.2,203.1h-5.1v5.1h5.1V203.1z M202.4,208.2h5.1v-5.1h-5.1V208.2z M197.2,192.8h-5.1v5.1h5.1V192.8z M202.4,177.4h5.1
				v-5.1h-5.1V177.4z M202.4,198h5.1v-5.1h-5.1V198z M197.2,172.3h-5.1v5.1h5.1V172.3z M197.2,162.1h5.1v-5.1h-5.1V162.1z M187,198
				v5.1h5.1V198H187z M192.1,218.5h5.1v-5.1h-5.1V218.5z M187,177.4v5.1h5.1v-5.1H187z M187,167.2v5.1h5.1v-5.1H187z M202.4,218.5
				h5.1v-5.1h-5.1V218.5z M187,187.7v5.1h5.1v-5.1H187z M212.6,172.3v-5.1h-5.1v5.1H212.6z M212.6,162.1v-5.1h-5.1v5.1H212.6z
				 M212.6,182.6v-5.1h-5.1v5.1H212.6z M212.6,203.1V198h-5.1v5.1H212.6z M212.6,213.3v-5.1h-5.1v5.1H212.6z M212.6,192.8v-5.1h-5.1
				v5.1H212.6z M187,208.2v5.1h5.1v-5.1H187z M197.2,203.1h5.1V198h-5.1V203.1z M212.6,110.8c0-1.9-0.5-3.6-1.4-5.1h-3.7v5.1H212.6z
				 M207.5,101.9c-1.5-0.9-3.3-1.4-5.1-1.4v5.1h5.1V101.9z M197.2,192.8h5.1v-5.1h-5.1V192.8z M197.2,182.6h5.1v-5.1h-5.1V182.6z
				 M197.2,172.3h5.1v-5.1h-5.1V172.3z M187,105.6v5.1h5.1v-5.1H187z M187,136.4v5.1h5.1v-5.1H187z M187,146.7v5.1h5.1v-5.1H187z
				 M187,156.9v5.1h5.1v-5.1H187z M187,126.2v5.1h5.1v-5.1H187z M187,115.9v5.1h5.1v-5.1H187z"/>
		</g>
	</g>
	<g id="Red_5_">
		<g>
			<path class="st3" d="M187,228.7v41h25.6v-41H187z M80.3,237.8c0.3,0.6,0.4,1.3,0.3,2c-0.2,0.7-0.6,1.2-1.2,1.5l0,0l-0.9,0.5
				l16,27.9h82.3v-41H75.1L80.3,237.8z M63.6,250.4c-0.6,0.3-1.3,0.4-1.9,0.3c-0.7-0.2-1.2-0.6-1.6-1.2l-11.6-20.2v40.5h27.4
				l-11.4-19.9L63.6,250.4z"/>
		</g>
	</g>
	<g id="Inner_Lines_5_" class="st4">
		<g>
			<path class="st2" d="M120.3,146.7H74.1v5.1h46.2V146.7z M74.1,156.9v5.1h76.9v-5.1H74.1z M74.1,172.3h66.7v-5.1H74.1V172.3z"/>
		</g>
	</g>
	<g id="Outline_5_" class="st5">
		<g>
			<path class="st2" d="M202.4,90.2h-159c-2.8,0-5.1,2.3-5.1,5.1v69.3l-5.2-9c-0.3-0.6-0.9-1-1.6-1.2c-0.7-0.2-1.4-0.1-1.9,0.3
				l-15.7,9.1c-0.6,0.3-1,0.9-1.2,1.6s-0.1,1.4,0.3,2l25.3,44.1v135.3c0,2.8,2.3,5.1,5.1,5.1h79.7l1.9,3.2c0.2,0.3,0.4,0.6,0.7,0.8
				l0,0l11.1,8.3l0,0c0.3,0.2,0.5,0.4,0.9,0.4c1.4,0.4,2.8-0.4,3.1-1.8c0.1-0.3,0.1-0.7,0.1-1l0,0l0,0c0,0,0,0,0,0l-1.2-9.9h62.8
				c11.3,0,20.5-9.2,20.5-20.5V110.8C222.9,99.4,213.7,90.2,202.4,90.2z M48.5,341.6V229.3l11.6,20.2c0.3,0.6,0.9,1,1.6,1.2
				c0.7,0.2,1.4,0.1,1.9-0.3l0.9-0.5l11.4,19.9H48.5V280h33.3l35.4,61.6H48.5z M176.7,341.6h-41L100.3,280h76.4V341.6z M176.7,269.8
				H94.4l-16-27.9l0.9-0.5l0,0c0.6-0.3,1-0.8,1.2-1.5c0.2-0.7,0.1-1.4-0.3-2l-5.2-9.1h101.7V269.8z M176.7,218.5H69.2l-20.7-36v-3.3
				l18.4,34.7l0,0c0.3,0.6,0.9,1.1,1.6,1.3c1.4,0.4,2.8-0.4,3.1-1.8c0.2-0.7,0.1-1.3-0.2-1.9l0,0l-22.9-43.3v-67.7h128.2V218.5z
				 M212.6,331.3c0,5.7-4.6,10.3-10.3,10.3H187V280h25.6V331.3z M212.6,269.8H187v-41h25.6V269.8z M212.6,218.5H187v-118h15.4
				c5.7,0,10.3,4.6,10.3,10.3V218.5z"/>
		</g>
	</g>
</g>
<g id="Calque_2">
	<g id="White_Base_6_">
		<g>
			<path class="st0" d="M211.7,34.9c-1.8-0.3-3.3-0.4-4.6-0.5c-1.1,0.2-2,0.9-2.3,2.6c-0.9,5.8-0.6,14.9,3.3,23.2
				c4.4,9.5,12.1,15.2,23,16.9c21.4,3.4,26-10.6,30-34.4L211.7,34.9z M178,29.7c-1.2-0.3-2.7-0.7-4.5-1l-49.4-7.9
				c-3.7,23.9-3.6,38.6,17.8,42c10.8,1.7,19.9-1.3,27.1-8.9c6.2-6.6,9.4-15.2,10.4-21C179.6,31.2,178.9,30.3,178,29.7z"/>
		</g>
	</g>
	<g id="Blue_5_">
		<g>
			<path class="st6" d="M144.4,37.2c-0.4-0.1-0.9,0-1.2,0.3l-11.1,8l0,0c-0.3,0.2-0.6,0.6-0.6,1.1c-0.1,0.9,0.5,1.7,1.3,1.8
				c0.4,0.1,0.9,0,1.2-0.3l11.1-8c0.3-0.2,0.6-0.6,0.6-1.1C145.9,38.2,145.3,37.3,144.4,37.2z M132.5,40.2c0.4,0.1,0.9,0,1.2-0.3
				l0,0l3.7-2.7l0,0c0.3-0.2,0.6-0.6,0.6-1.1c0.1-0.9-0.5-1.7-1.3-1.8c-0.4-0.1-0.9,0-1.2,0.3l-3.7,2.7v0c-0.3,0.2-0.6,0.6-0.6,1.1
				C131,39.2,131.6,40.1,132.5,40.2z M227.2,50.4c-0.4-0.1-0.9,0-1.2,0.3l-11.1,8c-0.3,0.2-0.6,0.6-0.6,1.1
				c-0.1,0.9,0.5,1.7,1.3,1.8c0.4,0.1,0.9,0,1.2-0.3l11.1-8c0.3-0.2,0.6-0.6,0.6-1.1C228.7,51.4,228.1,50.6,227.2,50.4z M215.3,53.4
				c0.4,0.1,0.9,0,1.2-0.3l0,0l3.7-2.7l0,0c0.3-0.2,0.6-0.6,0.6-1.1c0.1-0.9-0.5-1.7-1.3-1.8c-0.4-0.1-0.9,0-1.2,0.3l-3.7,2.7l0,0
				c-0.3,0.2-0.6,0.6-0.6,1.1C213.8,52.5,214.4,53.3,215.3,53.4z"/>
		</g>
	</g>
	<g id="Texture_1_6_" class="st1">
		<g>
			<path class="st2" d="M145.9,27.6l-0.5,3.2l3.2,0.5l0.5-3.2L145.9,27.6z M167.2,37.6l3.2,0.5l0.5-3.2l-3.2-0.5L167.2,37.6z
				 M152.3,28.7l-0.5,3.2l3.2,0.5l0.5-3.2L152.3,28.7z M152.8,25.5l-3.2-0.5l-0.5,3.2l3.2,0.5L152.8,25.5z M159.2,26.5L156,26
				l-0.5,3.2l3.2,0.5L159.2,26.5z M171.9,28.5l-3.2-0.5l-0.5,3.2l3.2,0.5L171.9,28.5z M165,30.7l-0.5,3.2l3.2,0.5l0.5-3.2L165,30.7z
				 M158.6,29.7l-0.5,3.2l3.2,0.5l0.5-3.2L158.6,29.7z M173.6,38.6l3.2,0.5l0.5-3.2l-3.2-0.5L173.6,38.6z M165.5,27.5l-3.2-0.5
				l-0.5,3.2l3.2,0.5L165.5,27.5z M124.1,20.9c-0.2,1.1-0.3,2.1-0.5,3.2l3.1,0.5l0.5-3.2L124.1,20.9z M133.7,22.4l-3.2-0.5l-0.5,3.2
				l3.2,0.5L133.7,22.4z M135.3,32.5l3.2,0.5l0.5-3.2l-3.2-0.5L135.3,32.5z M126.8,24.6l-0.5,3.2l3.2,0.5l0.5-3.2L126.8,24.6z
				 M129,31.5l3.2,0.5l0.5-3.2l-3.2-0.5L129,31.5z M133.2,25.6l-0.5,3.2l3.2,0.5l0.5-3.2L133.2,25.6z M122.8,30.5l2.9,0.5l0.5-3.2
				l-3.1-0.5C123.1,28.4,123,29.4,122.8,30.5z M146.4,24.5l-3.2-0.5l-0.5,3.2l3.2,0.5L146.4,24.5z M141.7,33.5l3.2,0.5l0.5-3.2
				l-3.2-0.5L141.7,33.5z M154.4,35.5l3.2,0.5l0.5-3.2l-3.2-0.5L154.4,35.5z M139.5,26.6l-0.5,3.2l3.2,0.5l0.5-3.2L139.5,26.6z
				 M148.1,34.5l3.2,0.5l0.5-3.2l-3.2-0.5L148.1,34.5z M140,23.4l-3.2-0.5l-0.5,3.2l3.2,0.5L140,23.4z M160.8,36.6l3.2,0.5l0.5-3.2
				l-3.2-0.5L160.8,36.6z M228.7,40.9l-0.5,3.2l3.2,0.5l0.5-3.2L228.7,40.9z M229.2,37.7l-3.2-0.5l-0.5,3.2l3.2,0.5L229.2,37.7z
				 M235.6,38.7l-3.2-0.5l-0.5,3.2l3.2,0.5L235.6,38.7z M216,38.8l-0.5,3.2l3.2,0.5l0.5-3.2L216,38.8z M235.1,41.9l-0.5,3.2l3.2,0.5
				l0.5-3.2L235.1,41.9z M222.4,39.9l-0.5,3.2l3.2,0.5l0.5-3.2L222.4,39.9z M222.9,36.7l-3.2-0.5l-0.5,3.2l3.2,0.5L222.9,36.7z
				 M247.8,43.9l-0.5,3.2l3.2,0.5l0.5-3.2L247.8,43.9z M254.2,44.9l-0.5,3.2l3.2,0.5l0.5-3.2L254.2,44.9z M261.1,42.8l-3.2-0.5
				l-0.5,3.2l3.1,0.5C260.7,44.9,260.9,43.9,261.1,42.8z M254.7,41.8l-3.2-0.5l-0.5,3.2l3.2,0.5L254.7,41.8z M242,39.7l-3.2-0.5
				l-0.5,3.2l3.2,0.5L242,39.7z M241.5,42.9l-0.5,3.2l3.2,0.5l0.5-3.2L241.5,42.9z M248.4,40.7l-3.2-0.5l-0.5,3.2l3.2,0.5
				L248.4,40.7z M216.5,35.7l-3.2-0.5l-0.5,3.2l3.2,0.5L216.5,35.7z M259.3,52.3c0.2-1,0.4-2.1,0.6-3.2l-3.1-0.5l-0.5,3.2
				L259.3,52.3z M243.6,49.8l3.2,0.5l0.5-3.2l-3.2-0.5L243.6,49.8z M237.3,48.8l3.2,0.5l0.5-3.2l-3.2-0.5L237.3,48.8z M230.9,47.8
				l3.2,0.5l0.5-3.2l-3.2-0.5L230.9,47.8z M209.6,37.8l-0.5,3.2l3.2,0.5l0.5-3.2L209.6,37.8z M171.4,31.7l-0.5,3.2l3.2,0.5l0.5-3.2
				L171.4,31.7z M178.2,29.9c-0.1-0.1-0.2-0.1-0.2-0.1c-0.8-0.2-1.8-0.5-2.9-0.7l-0.5,3.1l3.2,0.5L178.2,29.9z M177.2,35.9l1.4,0.2
				c0.3-1.1,0.5-2.2,0.7-3.2l-1.6-0.3L177.2,35.9z M250,50.8l3.2,0.5l0.5-3.2l-3.2-0.5L250,50.8z M204.8,37.1
				c-0.2,1-0.3,2.1-0.3,3.2l1.4,0.2l0.5-3.2L204.8,37.1z M224.5,46.7l3.2,0.5l0.5-3.2l-3.2-0.5L224.5,46.7z M210.1,34.7
				c-1.1-0.1-2.1-0.2-3-0.3c-0.1,0-0.2,0-0.3,0.1l-0.5,2.8l3.2,0.5L210.1,34.7z M205.4,43.7l3.2,0.5l0.5-3.2l-3.2-0.5L205.4,43.7z
				 M211.8,44.7l3.2,0.5l0.5-3.2l-3.2-0.5L211.8,44.7z M218.2,45.7l3.2,0.5l0.5-3.2l-3.2-0.5L218.2,45.7z"/>
		</g>
	</g>
	<g id="Outline_6_" class="st5">
		<g>
			<path class="st2" d="M268.5,37.4L209.5,28c-0.8-0.1-1.6-0.2-2.5-0.1c-3-0.1-5.1,0.2-7,0.6c-2.1,0.4-3.8,0.6-6.9,0.1
				c-3.1-0.5-4.6-1.3-6.6-2.3c-1.7-0.9-3.5-1.9-6.5-2.7c-0.8-0.4-1.6-0.6-2.4-0.7l-58.9-9.4l0,0c0,0,0,0,0,0
				c-3.5-0.6-6.8,1.8-7.4,5.4c-0.6,3.5,1.8,6.8,5.4,7.4c0,0,0.1,0,0.1,0c-2.6,19.6-1.9,38.9,24.1,43.1c27.9,4.5,42.3-19.3,44.8-35.3
				c0-0.3,0.1-0.6,0.1-0.8c1.6,0.7,3.5,1.4,6.3,1.8c2.8,0.4,4.8,0.4,6.5,0.2c-0.1,0.3-0.1,0.5-0.2,0.8c-2.6,16,3.8,43.1,31.6,47.5
				c26,4.2,32.7-14,36.3-33.4c0,0,0.1,0,0.1,0c3.5,0.6,6.8-1.8,7.4-5.4C274.4,41.3,272,38,268.5,37.4z M179.4,33
				c-0.9,5.8-4.1,14.4-10.4,21c-7.2,7.7-16.3,10.7-27.1,8.9c-21.4-3.4-21.4-18.2-17.8-42l49.4,7.9c1.8,0.3,3.2,0.6,4.5,0.9
				C178.9,30.2,179.6,31.2,179.4,33z M231.1,77.2c-10.8-1.7-18.5-7.4-23-16.9c-3.8-8.3-4.2-17.4-3.3-23.2c0.3-1.8,1.3-2.5,2.4-2.7
				c1.3,0.1,2.7,0.2,4.5,0.5l0,0l49.4,7.9C257.1,66.6,252.4,80.6,231.1,77.2z"/>
		</g>
	</g>
</g>
</svg>
